<?xml version="1.0" encoding="UTF-8" standalone="no"?>
<!-- Created with Inkscape (http://www.inkscape.org/) -->

<svg
   xmlns:dc="http://purl.org/dc/elements/1.1/"
   xmlns:cc="http://creativecommons.org/ns#"
   xmlns:rdf="http://www.w3.org/1999/02/22-rdf-syntax-ns#"
   xmlns:svg="http://www.w3.org/2000/svg"
   xmlns="http://www.w3.org/2000/svg"
   xmlns:sodipodi="http://sodipodi.sourceforge.net/DTD/sodipodi-0.dtd"
   xmlns:inkscape="http://www.inkscape.org/namespaces/inkscape"
   width="140"
   height="43"
   id="svg2"
   version="1.1"
   inkscape:version="0.92.5 (2060ec1f9f, 2020-04-08)"
   sodipodi:docname="veda-logo.svg">
  <defs
     id="defs4" />
  <sodipodi:namedview
     id="base"
     pagecolor="#ffffff"
     bordercolor="#666666"
     borderopacity="1.0"
     inkscape:pageopacity="0.0"
     inkscape:pageshadow="2"
     inkscape:zoom="2.1798308"
     inkscape:cx="27.766592"
     inkscape:cy="-54.296886"
     inkscape:document-units="px"
     inkscape:current-layer="layer1"
     showgrid="false"
     inkscape:window-width="1920"
     inkscape:window-height="1021"
     inkscape:window-x="0"
     inkscape:window-y="32"
     inkscape:window-maximized="1"
     showguides="true"
     inkscape:guide-bbox="true"
     inkscape:snap-global="false" />
  <metadata
     id="metadata7">
    <rdf:RDF>
      <cc:Work
         rdf:about="">
        <dc:format>image/svg+xml</dc:format>
        <dc:type
           rdf:resource="http://purl.org/dc/dcmitype/StillImage" />
        <dc:title></dc:title>
      </cc:Work>
    </rdf:RDF>
  </metadata>
  <g
     inkscape:label="Layer 1"
     inkscape:groupmode="layer"
     id="layer1"
     transform="translate(0,-1009.3622)">
    <path
       style="fill:#19aeff;fill-opacity:1;stroke:none"
       d=""
       id="path4285"
       inkscape:connector-curvature="0" />
    <g
       style="fill:#000000;stroke:#ffffff"
       transform="matrix(1.3396386,0,-0.02867601,1.3396386,-754.99357,-826.79818)"
       id="g4353-2-2-1-4-0" />
    <g
       id="g2455"
       transform="translate(0,1009.3219)">
      <g
         id="g2447">
        <path
           id="path1793"
           style="font-style:normal;font-variant:normal;font-weight:normal;font-stretch:normal;font-size:55.36847305px;line-height:1.25;font-family:'Droid Sans';-inkscape-font-specification:'Droid Sans';letter-spacing:0px;word-spacing:0px;fill:#333333;fill-opacity:1;stroke:none;stroke-width:1.14559877"
           d="m 82.458554,35.221838 q 1.365335,0 2.52924,-0.424971 1.163895,-0.424989 2.014444,-1.274938 0.850549,-0.872321 1.320588,-2.169614 0.492417,-1.319673 0.492417,-3.086688 V 26.05128 l -3.200736,0.156574 q -2.014444,0.08943 -3.379788,0.447342 -1.365353,0.357874 -2.193515,1.006524 -0.805773,0.626279 -1.163896,1.543335 -0.358121,0.894694 -0.358121,2.03542 0,2.057792 1.074375,3.019582 1.096752,0.961781 2.864992,0.961781 z m 7.47582,2.840635 -0.828151,-3.399817 h -0.179071 q -0.738631,1.006533 -1.477252,1.744642 -0.738631,0.715757 -1.611558,1.185471 -0.872926,0.469704 -1.947301,0.693385 -1.074374,0.22367 -2.484483,0.22367 -1.544405,0 -2.842606,-0.447351 -1.298201,-0.42497 -2.260658,-1.319654 -0.940069,-0.917065 -1.477261,-2.281464 -0.537183,-1.386768 -0.537183,-3.265614 0,-3.668223 2.574014,-5.636537 2.596392,-1.968315 7.878717,-2.14726 l 4.118428,-0.156566 v -1.543334 q 0,-1.498611 -0.335734,-2.505135 -0.313366,-1.006524 -0.94008,-1.61044 -0.604335,-0.626289 -1.522027,-0.894684 -0.895314,-0.268415 -2.059209,-0.268415 -1.85777,0 -3.469328,0.53681 -1.589169,0.536821 -3.066441,1.297311 l -1.432486,-3.064317 q 1.656322,-0.894692 3.693154,-1.520971 2.036822,-0.626279 4.275101,-0.626279 2.283036,0 3.939358,0.469704 1.6787,0.447352 2.753075,1.453875 1.096752,0.984153 1.633936,2.527498 0.537186,1.543334 0.537186,3.735319 v 16.820153 z"
           inkscape:connector-curvature="0" />
        <path
           id="path1789"
           style="font-style:normal;font-variant:normal;font-weight:normal;font-stretch:normal;font-size:55.36847305px;line-height:1.25;font-family:'Droid Sans';-inkscape-font-specification:'Droid Sans';letter-spacing:0px;word-spacing:0px;fill:#333333;fill-opacity:1;stroke:none;stroke-width:1.14559877"
           d="m 59.586776,35.132379 q 1.701097,0 2.864993,-0.514458 1.186283,-0.514439 1.902526,-1.565697 0.738631,-1.051268 1.074375,-2.616965 0.358121,-1.588078 0.402887,-3.690595 v -0.917055 q 0,-2.259091 -0.313356,-4.003735 -0.29098,-1.767005 -1.029601,-2.952476 -0.716253,-1.207823 -1.924923,-1.81175 -1.208661,-0.626278 -3.021666,-0.626278 -3.021667,0 -4.454163,2.438028 -1.410109,2.438028 -1.410109,7.000945 0,4.674747 1.410109,6.978572 1.432496,2.281464 4.498928,2.281464 z m 6.423841,-0.357883 h -0.17906 q -0.492418,0.760481 -1.163896,1.453866 -0.64911,0.671022 -1.522036,1.18547 -0.850539,0.514438 -1.924904,0.805216 -1.074375,0.290776 -2.417341,0.290776 -2.081587,0 -3.805062,-0.805214 -1.723466,-0.805226 -2.954523,-2.393304 -1.231049,-1.61044 -1.902537,-3.981362 -0.671477,-2.370923 -0.671477,-5.502335 0,-3.153776 0.671477,-5.524707 0.671488,-2.393293 1.902537,-4.003735 1.231057,-1.61044 2.954523,-2.415656 1.723475,-0.827587 3.805062,-0.827587 1.320589,0 2.394963,0.290767 1.074355,0.290778 1.924904,0.782864 0.872926,0.492075 1.544414,1.140717 0.671478,0.64866 1.163896,1.364407 h 0.268591 q -0.06714,-0.760482 -0.134296,-1.453875 -0.0448,-0.581545 -0.08949,-1.185453 -0.0448,-0.626288 -0.0448,-0.984161 V 3.2590784 h 4.073654 V 38.062473 h -3.290258 z"
           inkscape:connector-curvature="0" />
        <path
           id="path1785"
           style="font-style:normal;font-variant:normal;font-weight:normal;font-stretch:normal;font-size:55.36847305px;line-height:1.25;font-family:'Droid Sans';-inkscape-font-specification:'Droid Sans';letter-spacing:0px;word-spacing:0px;fill:#333333;fill-opacity:1;stroke:none;stroke-width:1.14559877"
           d="m 35.652318,16.43337 q -2.551636,0 -4.051275,1.744644 -1.477262,1.744643 -1.723475,5.077364 h 11.012309 q 0,-1.520972 -0.313357,-2.773539 -0.290978,-1.27493 -0.940078,-2.169613 -0.626713,-0.894694 -1.611558,-1.38678 -0.984835,-0.492076 -2.372566,-0.492076 z m 1.007213,22.076454 q -2.462097,0 -4.498918,-0.827587 -2.036832,-0.827587 -3.514094,-2.415666 -1.454874,-1.588068 -2.260657,-3.936627 -0.805774,-2.348551 -0.805774,-5.368132 0,-3.041945 0.738631,-5.43524 0.738621,-2.393293 2.081596,-4.048468 1.342957,-1.677538 3.200728,-2.549859 1.880148,-0.872321 4.140796,-0.872321 2.215902,0 3.984133,0.805216 1.76824,0.782852 2.999289,2.236719 1.231047,1.431513 1.880148,3.466924 0.671488,2.013048 0.671488,4.473448 v 2.527487 h -15.48886 q 0.111918,4.316874 1.813006,6.352294 1.723465,2.03542 5.103253,2.03542 1.141527,0 2.103984,-0.11183 0.984845,-0.111841 1.880149,-0.313149 0.917692,-0.223671 1.76824,-0.536811 0.850539,-0.335511 1.723466,-0.738109 v 3.623489 q -0.895304,0.42497 -1.768231,0.738119 -0.850549,0.313129 -1.768241,0.514439 -0.895303,0.201307 -1.880148,0.290776 -0.962456,0.08943 -2.103984,0.08943 z"
           inkscape:connector-curvature="0" />
        <path
           style="font-style:normal;font-variant:normal;font-weight:normal;font-stretch:normal;font-size:55.36847305px;line-height:1.25;font-family:'Droid Sans';-inkscape-font-specification:'Droid Sans';letter-spacing:0px;word-spacing:0px;fill:#333333;fill-opacity:1;stroke:none;stroke-width:1.14559877"
           d="m 21.599335,5.3616043 h 4.431784 L 15.085963,38.062473 H 10.900392 L 0,5.3616043 H 4.4093972 L 11.012309,26.096014 q 0.6491,2.03542 1.119131,3.936628 0.470039,1.878846 0.850548,3.534022 0.335744,-1.655176 0.850539,-3.534022 0.514805,-1.901208 1.20867,-4.07083 z"
           id="path1775"
           inkscape:connector-curvature="0" />
      </g>
      <path
         sodipodi:nodetypes="sccssccsscccccsccsccscccsccccccsccccccc"
         inkscape:export-ydpi="50.302734"
         inkscape:export-xdpi="50.302734"
         inkscape:export-filename="/home/karpovr/Desktop/veda-logo.png"
         inkscape:connector-curvature="0"
         id="path1756"
         d="m 105.44896,0.04026319 c -1.38786,0 -2.5176,1.12896921 -2.51762,2.51587161 V 40.52439 c -1e-5,1.386904 1.12976,2.515872 2.51762,2.515872 h 32.03341 c 1.38788,0 2.51761,-1.128968 2.51763,-2.515872 V 2.5561348 c 2e-5,-1.3869024 -1.12975,-2.51587161 -2.51763,-2.51587161 z m 13.48185,5.22743421 c 0.62923,-0.061148 1.28103,0.1768584 1.72257,0.6289549 1.69234,1.6597112 3.1009,3.3542762 4.24022,5.0648697 l 5.89654,-3.5089975 c 0.29026,-0.1740353 0.62279,-0.2771518 0.96066,-0.2979274 0.94474,-0.066874 1.89326,0.5806973 2.17446,1.4844667 0.28121,0.9037514 -0.13266,1.9745962 -0.94878,2.4548592 l -6.06215,3.575199 c 1.00364,2.361346 1.49901,4.751468 1.45756,7.150379 -0.0407,2.349284 -0.61277,4.630071 -1.55694,6.885562 l 6.49279,3.608308 c 0.97134,0.537325 1.36588,1.909363 0.82818,2.880008 -0.53769,0.970655 -1.91068,1.364916 -2.88202,0.82759 l -6.39342,-3.542089 c -1.04295,1.650182 -2.27124,3.273811 -3.71019,4.866244 -0.74582,0.823313 -2.17406,0.894269 -2.99795,0.148954 -0.8239,-0.745306 -0.8949,-2.172549 -0.14907,-2.995872 1.24848,-1.381631 2.27982,-2.729271 3.14702,-4.071753 l -11.79305,-6.554525 c -1.29292,-0.726734 -1.31271,-2.924645 -0.0332,-3.674508 l 11.92556,-7.084171 c -0.934,-1.367366 -2.08434,-2.772126 -3.54453,-4.2041524 -0.58146,-0.552408 -0.80455,-1.4512648 -0.54875,-2.2111539 0.25577,-0.7598991 0.97707,-1.341309 1.77443,-1.4302453 z m 4.33959,11.5862606 -8.61292,5.097961 8.44729,4.700717 c 0.64511,-1.663576 0.99911,-3.289605 1.02691,-4.899334 0.0278,-1.609729 -0.23567,-3.233219 -0.86128,-4.899344 z"
         style="fill:#b20000;fill-opacity:1;stroke:#ffffff;stroke-width:0;stroke-linecap:round;stroke-linejoin:round;stroke-miterlimit:4;stroke-dasharray:none" />
    </g>
  </g>
</svg>
