<?xml version="1.0" encoding="UTF-8" standalone="no"?>
<!-- Created with Inkscape (http://www.inkscape.org/) -->

<svg
   xmlns:dc="http://purl.org/dc/elements/1.1/"
   xmlns:cc="http://creativecommons.org/ns#"
   xmlns:rdf="http://www.w3.org/1999/02/22-rdf-syntax-ns#"
   xmlns:svg="http://www.w3.org/2000/svg"
   xmlns="http://www.w3.org/2000/svg"
   xmlns:sodipodi="http://sodipodi.sourceforge.net/DTD/sodipodi-0.dtd"
   xmlns:inkscape="http://www.inkscape.org/namespaces/inkscape"
   width="90mm"
   height="50mm"
   viewBox="0 0 318.89764 177.16535"
   id="svg2"
   version="1.1"
   inkscape:version="0.91 r13725"
   sodipodi:docname="Визитка СМ.svg">
  <defs
     id="defs4" />
  <sodipodi:namedview
     id="base"
     pagecolor="#ffffff"
     bordercolor="#666666"
     borderopacity="1.0"
     inkscape:pageopacity="0.0"
     inkscape:pageshadow="2"
     inkscape:zoom="2.8284271"
     inkscape:cx="189.43545"
     inkscape:cy="95.407826"
     inkscape:document-units="px"
     inkscape:current-layer="layer1"
     showgrid="false"
     inkscape:window-width="1920"
     inkscape:window-height="1035"
     inkscape:window-x="0"
     inkscape:window-y="24"
     inkscape:window-maximized="1"
     showguides="true"
     inkscape:guide-bbox="true" />
  <metadata
     id="metadata7">
    <rdf:RDF>
      <cc:Work
         rdf:about="">
        <dc:format>image/svg+xml</dc:format>
        <dc:type
           rdf:resource="http://purl.org/dc/dcmitype/StillImage" />
        <dc:title></dc:title>
      </cc:Work>
    </rdf:RDF>
  </metadata>
  <g
     inkscape:label="Layer 1"
     inkscape:groupmode="layer"
     id="layer1"
     transform="translate(0,-875.19685)">
    <text
       xml:space="preserve"
       style="font-style:normal;font-weight:normal;font-size:6.38290262px;line-height:125%;font-family:sans-serif;letter-spacing:0px;word-spacing:0px;fill:#000000;fill-opacity:1;stroke:none;stroke-width:1px;stroke-linecap:butt;stroke-linejoin:miter;stroke-opacity:1"
       x="49.190517"
       y="978.30737"
       id="text5230"
       sodipodi:linespacing="125%"><tspan
         sodipodi:role="line"
         x="49.190517"
         y="978.30737"
         id="tspan5234"
         style="font-style:normal;font-variant:normal;font-weight:normal;font-stretch:normal;font-family:'Droid Sans';-inkscape-font-specification:'Droid Sans'" /></text>
    <text
       xml:space="preserve"
       style="font-style:normal;font-weight:normal;font-size:10.21812916px;line-height:125%;font-family:sans-serif;letter-spacing:0px;word-spacing:0px;fill:#333333;fill-opacity:1;stroke:none;stroke-width:1px;stroke-linecap:butt;stroke-linejoin:miter;stroke-opacity:1"
       x="41.247398"
       y="936.28448"
       id="text5238"
       sodipodi:linespacing="125%"><tspan
         sodipodi:role="line"
         id="tspan5240"
         x="41.247398"
         y="936.28448"
         style="font-style:normal;font-variant:normal;font-weight:normal;font-stretch:normal;font-size:7.5px;font-family:'Droid Sans';-inkscape-font-specification:'Droid Sans';fill:#333333;fill-opacity:1" /></text>
    <path
       style="fill:#000000"
       d="m 274.97582,922.94656 -3.62212,0 0,-3.6222 0,-3.62208 3.62212,0 3.62214,0 0,3.62208 0,3.6222 -3.62214,0 z m 0,-1.03502 2.58723,0 0,-2.58718 0,-2.58719 -2.58723,0 -2.58722,0 0,2.58719 0,2.58718 2.58722,0 z m 0,-1.0349 -1.55232,0 0,-1.55228 0,-1.55229 1.55232,0 1.55233,0 0,1.55229 0,1.55228 -1.55233,0 z m 5.17445,2.06992 -0.51743,0 0,-0.51752 0,-0.5175 0.51743,0 0.51743,0 0,-1.0349 0,-1.0349 -0.51743,0 -0.51743,0 0,-2.58706 0,-2.58742 -1.03488,0 -1.03491,0 0,-0.51727 0,-0.51751 -0.51743,0 -0.51747,0 0,0.51751 0,0.51727 -0.51743,0 -0.51745,0 0,-0.51727 0,-0.51751 0.51745,0 0.51743,0 0,-0.51751 0,-0.51739 -0.51743,0 -0.51745,0 0,-0.51739 0,-0.5175 -0.51745,0 -0.51743,0 0,-0.5174 0,-0.5175 -0.51745,0 -0.51745,0 0,0.5175 0,0.5174 -0.51745,0 -0.51744,0 0,-0.5174 0,-0.5175 -0.51744,0 -0.51746,0 0,-0.51738 0,-0.51752 0.51746,0 0.51744,0 0,-0.51738 0,-0.5174 -0.51744,0 -0.51746,0 0,-1.03489 0,-1.0349 0.51746,0 0.51744,0 0,0.51739 0,0.51751 0.51744,0 0.51745,0 0,-0.51751 0,-0.51739 1.0349,0 1.03488,0 0,-1.0349 0,-1.0349 -0.51745,0 -0.51743,0 0,-0.51738 0,-0.51752 -0.51745,0 -0.51745,0 0,1.0349 0,1.0349 -1.03489,0 -1.0349,0 0,-0.51751 0,-0.51739 0.51746,0 0.51744,0 0,-0.51738 0,-0.51752 0.51744,0 0.51745,0 0,-0.51738 0,-0.51739 0.51745,0 0.51745,0 0,-0.51763 0,-0.51739 3.10466,0 3.10465,0 0,-0.51739 0,-0.5175 -0.51743,0 -0.51743,0 0,-0.5174 0,-0.5175 0.51743,0 0.51743,0 0,0.5175 0,0.5174 0.51747,0 0.51744,0 0,-1.0349 0,-1.03478 0.51746,0 0.51743,0 0,-1.55242 0,-1.5523 -1.03489,0 -1.03491,0 0,0.51747 0,0.51734 0.51747,0 0.51744,0 0,0.51749 0,0.51752 -0.51744,0 -0.51747,0 0,0.51739 0,0.51751 -0.51743,0 -0.51743,0 0,-0.51751 0,-0.51739 0.51743,0 0.51743,0 0,-0.51752 0,-0.51749 -0.51743,0 -0.51743,0 0,-1.55231 0,-1.55229 0.51743,0 0.51743,0 0,0.51734 0,0.51763 0.51747,0 0.51744,0 0,-0.51763 0,-0.51734 3.10468,0 3.10466,0 0,1.03497 0,1.03482 -0.51745,0 -0.51745,0 0,0.51747 0,0.51734 0.51745,0 0.51745,0 0,1.03501 0,1.0349 -0.51745,0 -0.51745,0 0,1.55228 0,1.55229 1.55235,0 1.55234,0 0,0.51739 0,0.51763 -1.55234,0 -1.55235,0 0,1.03477 0,1.0349 0.51745,0 0.51745,0 0,0.51739 0,0.51751 -0.51745,0 -0.51745,0 0,0.51752 0,0.51738 -1.03489,0 -1.03487,0 0,1.0349 0,1.03489 0.51743,0 0.51744,0 0,-0.5175 0,-0.51739 1.03489,0 1.0349,0 0,0.51739 0,0.5175 0.51745,0 0.51744,0 0,-1.03489 0,-1.0349 0.51743,0 0.51747,0 0,-0.51738 0,-0.51752 -0.51747,0 -0.51743,0 0,-0.51751 0,-0.51739 0.51743,0 0.51747,0 0,-0.51738 0,-0.51752 0.51743,0 0.51744,0 0,-0.51738 0,-0.51739 0.51746,0 0.51745,0 0,0.51739 0,0.51738 -0.51745,0 -0.51746,0 0,0.51752 0,0.51738 0.51746,0 0.51745,0 0,0.51739 0,0.51751 0.51743,0 0.51744,0 0,0.51752 0,0.51738 0.51745,0 0.51743,0 0,-0.51738 0,-0.51752 0.51746,0 0.51743,0 0,-0.51751 0,-0.51739 -0.51743,0 -0.51746,0 0,-0.51738 0,-0.51752 0.51746,0 0.51743,0 0,-0.51738 0,-0.51739 0.51746,0 0.51744,0 0,-0.51763 0,-0.51739 0.51743,0 0.51747,0 0,1.55241 0,1.55228 0.51744,0 0.51745,0 0,-1.55228 0,-1.55241 1.55233,0 1.55233,0 0,0.51739 0,0.51763 -0.51743,0 -0.51747,0 0,0.51739 0,0.51738 -0.51743,0 -0.51746,0 0,0.51752 0,0.51738 -0.51744,0 -0.51743,0 0,0.51739 0,0.51751 -1.03489,0 -1.0349,0 0,0.51752 0,0.51738 2.06979,0 2.06976,0 0,-1.0349 0,-1.0349 0.51747,0 0.51743,0 0,2.58719 0,2.58718 -0.51743,0 -0.51747,0 0,-1.03478 0,-1.03489 -0.51743,0 -0.51746,0 0,1.03489 0,1.03478 -0.51744,0 -0.51743,0 0,0.51752 0,0.51738 1.03487,0 1.03489,0 0,0.5175 0,0.5174 0.51747,0 0.51743,0 0,0.5175 0,0.51739 -0.51743,0 -0.51747,0 0,-0.51739 0,-0.5175 -1.03489,0 -1.03487,0 0,0.5175 0,0.51739 0.51743,0 0.51744,0 0,0.51739 0,0.51751 0.51746,0 0.51743,0 0,0.51751 0,0.51727 -1.03489,0 -1.03487,0 0,1.03502 0,1.03489 -0.51745,0 -0.51744,0 0,0.51751 0,0.51739 0.51744,0 0.51745,0 0,0.51739 0,0.51751 -2.06979,0 -2.06979,0 0,1.03477 0,1.0349 0.51746,0 0.51743,0 0,-0.51726 0,-0.51764 1.0349,0 1.0349,0 0,0.51764 0,0.51726 0.51744,0 0.51745,0 0,-0.51726 0,-0.51764 0.51743,0 0.51744,0 0,-0.51738 0,-0.51739 0.51746,0 0.51743,0 0,0.51739 0,0.51738 0.51747,0 0.51743,0 0,1.0349 0,1.0349 -0.51743,0 -0.51747,0 0,-0.5174 0,-0.5175 -0.51743,0 -0.51746,0 0,0.5175 0,0.5174 -0.51744,0 -0.51743,0 0,0.5175 0,0.51752 -2.06979,0 -2.06979,0 0,-1.03502 0,-1.0349 -1.03488,0 -1.03487,0 0,-1.0349 0,-1.03477 -0.51745,0 -0.51746,0 0,0.51739 0,0.51738 -1.03487,0 -1.0349,0 0,0.51764 0,0.51726 -0.51744,0 -0.51745,0 0,0.5175 0,0.5174 -0.51745,0 -0.51745,0 0,0.5175 0,0.51752 -1.55233,0 -1.55233,0 0,-0.51752 0,-0.5175 -0.51744,0 -0.51745,0 0,0.5175 0,0.51752 -0.51743,0 -0.51746,0 0,-0.51752 0,-0.5175 -0.51744,0 -0.51747,0 0,0.5175 0,0.51752 -0.51743,0 z m 2.0698,-1.03502 0.51743,0 0,-0.5174 0,-0.5175 -0.51743,0 -0.51746,0 0,0.5175 0,0.5174 0.51746,0 z m 4.13955,0 0.51743,0 0,-0.5174 0,-0.5175 0.51745,0 0.51745,0 0,-1.0349 0,-1.03477 -0.51745,0 -0.51745,0 0,-0.51751 0,-0.51739 0.51745,0 0.51745,0 0,-0.51739 0,-0.51751 -0.51745,0 -0.51745,0 0,-0.51751 0,-0.51738 0.51745,0 0.51745,0 0,-0.51739 0,-0.51763 0.51745,0 0.51744,0 0,-0.51727 0,-0.51751 0.51743,0 0.51747,0 0,0.51751 0,0.51727 0.51743,0 0.51744,0 0,0.51763 0,0.51739 -1.03487,0 -1.0349,0 0,0.51738 0,0.51751 0.51743,0 0.51747,0 0,0.51751 0,0.51739 -0.51747,0 -0.51743,0 0,0.51739 0,0.51751 1.0349,0 1.03487,0 0,-1.55229 0,-1.5524 0.51746,0 0.51745,0 0,-1.03502 0,-1.03478 0.51743,0 0.51744,0 0,-1.0349 0,-1.03489 0.51745,0 0.51743,0 0,1.03489 0,1.0349 0.51746,0 0.51743,0 0,-0.51751 0,-0.51739 0.51746,0 0.51744,0 0,-1.03489 0,-1.0349 0.51743,0 0.51747,0 0,0.5175 0,0.5174 0.51744,0 0.51745,0 0,-0.5174 0,-0.5175 -0.51745,0 -0.51744,0 0,-0.51738 0,-0.51752 0.51744,0 0.51745,0 0,-1.03478 0,-1.03489 -0.51745,0 -0.51744,0 0,0.51739 0,0.5175 -0.51747,0 -0.51743,0 0,1.03478 0,1.0349 -0.51744,0 -0.51746,0 0,-0.51738 0,-0.51752 -0.51743,0 -0.51746,0 0,-1.03478 0,-1.03489 -0.51743,0 -0.51745,0 0,-0.51751 0,-0.51739 -1.03487,0 -1.03491,0 0,0.51739 0,0.51751 -0.51744,0 -0.51743,0 0,0.51739 0,0.5175 -0.51747,0 -0.51743,0 0,0.5174 0,0.51738 -0.51744,0 -0.51745,0 0,-0.51738 0,-0.5174 -0.51745,0 -0.51745,0 0,0.5174 0,0.51738 -1.03489,0 -1.03487,0 0,-0.51738 0,-0.5174 -0.51745,0 -0.51745,0 0,-1.03489 0,-1.0349 0.51745,0 0.51745,0 0,-0.51738 0,-0.51752 0.51743,0 0.51744,0 0,-1.55228 0,-1.55229 -1.03487,0 -1.0349,0 0,-0.51763 0,-0.51739 1.0349,0 1.03487,0 0,-1.03489 0,-1.0349 -0.51744,0 -0.51743,0 0,0.5175 0,0.5174 -0.51745,0 -0.51745,0 0,-1.0349 0,-1.03478 -0.51744,0 -0.51745,0 0,2.58718 0,2.58718 0.51745,0 0.51744,0 0,0.51752 0,0.51738 0.51745,0 0.51745,0 0,0.51739 0,0.51751 -0.51745,0 -0.51745,0 0,0.51752 0,0.51738 -0.51744,0 -0.51745,0 0,-1.0349 0,-1.0349 -0.51743,0 -0.51746,0 0,-0.51738 0,-0.51752 -0.51744,0 -0.51747,0 0,0.51752 0,0.51738 0.51747,0 0.51744,0 0,1.0349 0,1.0349 -1.03491,0 -1.03486,0 0,1.0349 0,1.03489 -1.03488,0 -1.03491,0 0,-0.5175 0,-0.51739 0.51744,0 0.51747,0 0,-0.51751 0,-0.51739 -0.51747,0 -0.51744,0 0,0.51739 0,0.51751 -0.51743,0 -0.51747,0 0,0.51739 0,0.5175 -1.55233,0 -1.55232,0 0,0.5174 0,0.51738 -0.51746,0 -0.51744,0 0,0.51752 0,0.51738 0.51744,0 0.51746,0 0,-0.51738 0,-0.51752 0.51744,0 0.51745,0 0,0.51752 0,0.51738 0.51743,0 0.51745,0 0,0.5175 0,0.5174 0.51745,0 0.51743,0 0,0.5175 0,0.51739 0.51747,0 0.51743,0 0,0.51739 0,0.51751 1.03491,0 1.03488,0 0,0.51751 0,0.51727 0.51743,0 0.51743,0 0,1.03502 0,1.03489 1.03491,0 1.03489,0 0,-1.03489 0,-1.03502 -0.51743,0 -0.51746,0 0,-1.03478 0,-1.0349 0.51746,0 0.51743,0 0,0.51739 0,0.51751 1.03489,0 1.0349,0 0,-0.51751 0,-0.51739 -1.0349,0 -1.03489,0 0,-0.51739 0,-0.5175 0.51745,0 0.51744,0 0,-0.5174 0,-0.5175 0.51745,0 0.51745,0 0,0.5175 0,0.5174 1.03487,0 1.03489,0 0,0.5175 0,0.51739 -0.51743,0 -0.51746,0 0,3.1047 0,3.10469 0.51746,0 0.51743,0 0,1.03477 0,1.0349 -0.51743,0 -0.51746,0 0,0.5175 0,0.5174 0.51746,0 z m -6.20935,-8.27906 -0.51743,0 0,-0.51751 0,-0.51739 0.51743,0 0.51743,0 0,-0.51739 0,-0.5175 -0.51743,0 -0.51743,0 0,-0.5174 0,-0.5175 -1.55235,0 -1.55234,0 0,-1.0349 0,-1.03478 0.51747,0 0.51743,0 0,0.5174 0,0.51738 1.03491,0 1.03488,0 0,-0.51738 0,-0.5174 0.51743,0 0.51743,0 0,-0.5175 0,-0.51739 0.51747,0 0.51744,0 0,0.51739 0,0.5175 0.51746,0 0.51743,0 0,0.5174 0,0.51738 0.51745,0 0.51744,0 0,0.51752 0,0.51738 -0.51744,0 -0.51745,0 0,0.5175 0,0.5174 -0.51743,0 -0.51746,0 0,0.5175 0,0.51739 -0.51744,0 -0.51747,0 0,0.51739 0,0.51751 -0.51743,0 z m 0,-3.10469 0.51743,0 0,-0.51738 0,-0.51752 -0.51743,0 -0.51743,0 0,0.51752 0,0.51738 0.51743,0 z m 2.0698,0 0.51743,0 0,-0.51738 0,-0.51752 -0.51743,0 -0.51746,0 0,0.51752 0,0.51738 0.51746,0 z m 5.69188,3.10469 -1.0349,0 0,-0.51751 0,-0.51739 0.51745,0 0.51745,0 0,-0.51739 0,-0.5175 0.51745,0 0.51744,0 0,-0.5174 0,-0.5175 1.55233,0 1.55235,0 0,-1.0349 0,-1.03478 -0.51745,0 -0.51746,0 0,0.5174 0,0.51738 -0.51744,0 -0.51743,0 0,-0.51738 0,-0.5174 0.51743,0 0.51744,0 0,-0.5175 0,-0.51739 1.03491,0 1.03487,0 0,2.06967 0,2.0698 -0.51744,0 -0.51743,0 0,1.03489 0,1.0349 -0.51745,0 -0.51746,0 0,-0.51751 0,-0.51739 -0.51744,0 -0.51743,0 0,-0.51739 0,-0.5175 -0.51747,0 -0.51743,0 0,1.03489 0,1.0349 -1.03489,0 z m -9.83146,-1.0349 -0.51744,0 0,-0.51739 0,-0.5175 0.51744,0 0.51747,0 0,0.5175 0,0.51739 -0.51747,0 z m 9.31401,-2.06979 -0.51745,0 0,-0.51738 0,-0.51752 0.51745,0 0.51745,0 0,0.51752 0,0.51738 -0.51745,0 z m 9.31399,11.38375 0.51747,0 0,-0.5174 0,-0.5175 -0.51747,0 -0.51743,0 0,0.5175 0,0.5174 0.51743,0 z m -12.41865,-1.0349 0.51745,0 0,-2.06967 0,-2.0698 -0.51745,0 -0.51745,0 0,1.0349 0,1.0349 -0.51744,0 -0.51745,0 0,-0.51751 0,-0.51739 -1.03489,0 -1.03491,0 0,0.51739 0,0.51751 1.03491,0 1.03489,0 0,0.51739 0,0.51738 0.51745,0 0.51744,0 0,0.51764 0,0.51726 0.51745,0 z m 10.34889,-3.10457 1.55233,0 0,-1.55241 0,-1.5524 -1.55233,0 -1.55233,0 0,1.5524 0,1.55241 1.55233,0 z m 0,-1.0349 -0.51746,0 0,-0.51751 0,-0.51738 0.51746,0 0.51744,0 0,0.51738 0,0.51751 -0.51744,0 z m -10.34889,-1.03489 0.51745,0 0,-0.51739 0,-0.51763 -0.51745,0 -0.51745,0 0,0.51763 0,0.51739 0.51745,0 z m -6.20935,-10.34886 1.55235,0 0,-1.0349 0,-1.0349 -0.51745,0 -0.51743,0 0,-0.51738 0,-0.51739 -0.51747,0 -0.51744,0 0,0.51739 0,0.51738 -1.0349,0 -1.03488,0 0,0.51752 0,0.51738 0.51745,0 0.51743,0 0,0.51739 0,0.51751 1.55234,0 z m 0,-1.0349 -0.51744,0 0,-0.51738 0,-0.51752 0.51744,0 0.51747,0 0,0.51752 0,0.51738 -0.51747,0 z m 12.41868,1.0349 0.51744,0 0,-0.51751 0,-0.51739 -0.51744,0 -0.51743,0 0,0.51739 0,0.51751 0.51743,0 z m 5.17445,-1.0349 0.51744,0 0,-0.51738 0,-0.51752 -0.51744,0 -0.51745,0 0,0.51752 0,0.51738 0.51745,0 z m -9.314,-6.20926 0.51743,0 0,-0.51751 0,-0.51739 -0.51743,0 -0.51746,0 0,-0.51752 0,-0.51749 -0.51744,0 -0.51743,0 0,-1.03481 0,-1.03482 -1.0349,0 -1.03489,0 0,0.51732 0,0.5175 0.51745,0 0.51744,0 0,1.03481 0,1.03501 1.0349,0 1.03487,0 0,0.51739 0,0.51751 0.51746,0 z m 3.62212,24.8373 -1.0349,0 0,-0.51752 0,-0.5175 1.0349,0 1.03487,0 0,0.5175 0,0.51752 -1.03487,0 z m 2.58721,0 -0.51743,0 0,-0.51752 0,-0.5175 0.51743,0 0.51745,0 0,0.5175 0,0.51752 -0.51745,0 z m 7.76166,-5.17449 -1.03489,0 0,-0.51739 0,-0.51751 1.03489,0 1.0349,0 0,0.51751 0,0.51739 -1.0349,0 z m -26.38967,-4.13959 -0.51745,0 0,-0.51751 0,-0.51739 0.51745,0 0.51745,0 0,0.51739 0,0.51751 -0.51745,0 z m -2.06978,-11.38363 -0.51746,0 0,-0.51763 0,-0.51739 0.51746,0 0.51744,0 0,0.51739 0,0.51763 -0.51744,0 z m 21.73268,0 -0.51744,0 0,-0.51763 0,-0.51739 -1.03488,0 -1.03491,0 0,-0.51739 0,-0.5175 -0.51744,0 -0.51743,0 0,-0.5174 0,-0.5175 -0.51747,0 -0.51743,0 0,0.5175 0,0.5174 -0.51744,0 -0.51745,0 0,-0.5174 0,-0.5175 0.51745,0 0.51744,0 0,-1.55229 0,-1.5524 0.51743,0 0.51747,0 0,-0.51734 0,-0.51747 -0.51747,0 -0.51743,0 0,-0.5175 0,-0.51732 0.51743,0 0.51747,0 0,-0.51763 0,-0.51734 0.51743,0 0.51744,0 0,0.51734 0,0.51763 0.51746,0 0.51745,0 0,1.03482 0,1.03481 0.51743,0 0.51744,0 0,0.51749 0,0.51752 -0.51744,0 -0.51743,0 0,0.51739 0,0.51751 -1.03491,0 -1.03487,0 0,0.51739 0,0.51739 0.51743,0 0.51744,0 0,0.5175 0,0.5174 0.51746,0 0.51745,0 0,-0.5174 0,-0.5175 0.51743,0 0.51744,0 0,1.0349 0,1.03489 0.51745,0 0.51743,0 0,0.51739 0,0.51763 -0.51743,0 z m -3.10467,-5.17449 0.51744,0 0,-0.51752 0,-0.51749 -0.51744,0 -0.51743,0 0,0.51749 0,0.51752 0.51743,0 z m 0,-2.06982 0.51744,0 0,-0.5175 0,-0.51732 -0.51744,0 -0.51743,0 0,0.51732 0,0.5175 0.51743,0 z m -15.52335,5.1744 -3.62212,0 0,-3.6221 0,-3.62209 3.62212,0 3.62214,0 0,3.62209 0,3.6221 -3.62214,0 z m 0,-1.0349 2.58723,0 0,-2.5872 0,-2.58712 -2.58723,0 -2.58722,0 0,2.58712 0,2.5872 2.58722,0 z m 0,-1.03478 -1.55233,0 0,-1.55242 0,-1.5523 1.55233,0 1.55233,0 0,1.5523 0,1.55242 -1.55233,0 z m 22.76758,2.06968 -3.62213,0 0,-3.6221 0,-3.62209 3.62213,0 3.62211,0 0,3.62209 0,3.6221 -3.62211,0 z m 0,-1.0349 2.58721,0 0,-2.5872 0,-2.58712 -2.58721,0 -2.58723,0 0,2.58712 0,2.5872 2.58723,0 z m 0,-1.03478 -1.55234,0 0,-1.55242 0,-1.5523 1.55234,0 1.55232,0 0,1.5523 0,1.55242 -1.55232,0 z"
       id="path4229"
       inkscape:connector-curvature="0" />
    <text
       xml:space="preserve"
       style="font-style:normal;font-weight:normal;font-size:12.07010746px;line-height:125%;font-family:sans-serif;letter-spacing:0px;word-spacing:0px;fill:#333333;fill-opacity:1;stroke:none;stroke-width:1px;stroke-linecap:butt;stroke-linejoin:miter;stroke-opacity:1"
       x="51.324539"
       y="952.38568"
       id="text5140"
       sodipodi:linespacing="125%"><tspan
         sodipodi:role="line"
         id="tspan5142"
         x="51.324539"
         y="952.38568"
         style="font-style:normal;font-variant:normal;font-weight:normal;font-stretch:normal;font-size:12.5px;font-family:'Droid Sans';-inkscape-font-specification:'Droid Sans';fill:#333333;fill-opacity:1">Роман Карпов</tspan><tspan
         sodipodi:role="line"
         x="51.324539"
         y="968.01068"
         style="font-style:normal;font-variant:normal;font-weight:normal;font-stretch:normal;font-size:7.5px;font-family:'Droid Sans';-inkscape-font-specification:'Droid Sans';fill:#333333;fill-opacity:1"
         id="tspan5303" /><tspan
         sodipodi:role="line"
         x="51.324539"
         y="983.63568"
         style="font-style:normal;font-variant:normal;font-weight:normal;font-stretch:normal;font-size:7.5px;font-family:'Droid Sans';-inkscape-font-specification:'Droid Sans';fill:#333333;fill-opacity:1"
         id="tspan5269" /></text>
    <g
       id="g5263"
       transform="matrix(0.8425671,0,0,0.8425671,-104.72368,147.45912)">
      <path
         d="m 344.34911,903.4722 2.03382,0 c 1.21798,0 2.11998,0.22401 2.706,0.67218 0.58601,0.44813 0.87901,1.1175 0.87902,2.00797 -10e-6,0.44237 -0.0689,0.84169 -0.20682,1.19792 -0.13215,0.35615 -0.34473,0.66065 -0.63773,0.91345 -0.28727,0.25279 -0.6607,0.44813 -1.12032,0.58604 -0.45388,0.13211 -1.00542,0.19818 -1.65462,0.19818 l -3.5678,0 0,-9.46235 1.56845,0 0,3.88661 m 8.65233,5.57574 -1.56845,0 0,-9.46235 1.56845,0 0,9.46235 m -8.65233,-4.25725 0,2.96462 1.88732,0 c 0.32172,0 0.61473,-0.0229 0.87901,-0.0689 0.27003,-0.0517 0.49983,-0.13503 0.68943,-0.24999 0.19534,-0.12058 0.34758,-0.27575 0.45675,-0.46528 0.10915,-0.18965 0.16373,-0.4223 0.16374,-0.69805 -1e-5,-0.28155 -0.0488,-0.51709 -0.1465,-0.70673 -0.0919,-0.18957 -0.2327,-0.34182 -0.42228,-0.45667 -0.18385,-0.11497 -0.41367,-0.19538 -0.68943,-0.24138 -0.27578,-0.0516 -0.59751,-0.0775 -0.96519,-0.0775 l -1.85285,0 m -10.2574,-5.20518 0,3.92108 4.69673,0 0,-3.92108 1.56844,0 0,9.46235 -1.56844,0 0,-4.21416 -4.69673,0 0,4.21416 -1.56845,0 0,-9.46235 1.56845,0 m -10.34358,0 0,5.75667 -0.10341,2.17171 4.44681,-7.92838 2.00796,0 0,9.46235 -1.48227,0 0,-5.57574 0.0948,-2.33546 -4.42956,7.9112 -2.01659,0 0,-9.46235 1.48227,0 m -9.30081,8.13524 3.80909,0 0,-8.13524 1.57706,0 0,9.46235 -12.34076,0 0,-9.46235 1.56845,0 0,8.13524 3.81771,0 0,-8.13524 1.56845,0 0,8.13524 m -10.25907,1.32711 -0.31886,-1.30988 -0.0689,0 c -0.1896,0.25852 -0.3792,0.48253 -0.56878,0.67218 -0.18961,0.18384 -0.39643,0.33609 -0.62049,0.4567 -0.22407,0.12066 -0.47398,0.20975 -0.74975,0.26721 -0.27578,0.0574 -0.59464,0.0862 -0.95659,0.0862 -0.39642,0 -0.76124,-0.0575 -1.09446,-0.17239 -0.33323,-0.10916 -0.62336,-0.27866 -0.8704,-0.50848 -0.2413,-0.23554 -0.4309,-0.52854 -0.56878,-0.87897 -0.13789,-0.35623 -0.20683,-0.77561 -0.20683,-1.25823 0,-0.94223 0.33035,-1.66611 0.99105,-2.17171 0.66645,-0.50556 1.67761,-0.7813 3.03349,-0.82731 l 1.58568,-0.0603 0,-0.59458 c 0,-0.38491 -0.0431,-0.70666 -0.12927,-0.96519 -0.0804,-0.2586 -0.20108,-0.46539 -0.36195,-0.62052 -0.15512,-0.16089 -0.35046,-0.27577 -0.58601,-0.34473 -0.22982,-0.0689 -0.4941,-0.10335 -0.79284,-0.10343 -0.47686,0 -0.92211,0.069 -1.33577,0.20687 -0.40792,0.13793 -0.80146,0.30452 -1.18065,0.49985 l -0.55154,-1.18064 c 0.42515,-0.22984 0.89913,-0.42519 1.42195,-0.58607 0.52281,-0.16078 1.07148,-0.24127 1.64601,-0.24127 0.586,0 1.09159,0.0603 1.51674,0.18102 0.43088,0.11487 0.78422,0.30161 1.05999,0.56012 0.28151,0.25279 0.49121,0.57744 0.62911,0.97377 0.13788,0.39643 0.20682,0.87616 0.20683,1.43918 l 0,6.48066 -1.12894,0 m -2.87836,-1.09445 c 0.35045,0 0.67506,-0.0545 0.97381,-0.16377 0.29875,-0.10916 0.55729,-0.27287 0.77561,-0.49119 0.21832,-0.22408 0.38779,-0.50275 0.50845,-0.83592 0.12639,-0.33901 0.18959,-0.73545 0.1896,-1.18931 l 0,-0.85318 -1.23235,0.0603 c -0.51709,0.0229 -0.95085,0.0805 -1.3013,0.17239 -0.35046,0.0919 -0.63198,0.2212 -0.84455,0.38778 -0.20683,0.1609 -0.35621,0.35908 -0.44813,0.59462 -0.0919,0.22985 -0.13789,0.49126 -0.13789,0.78423 0,0.52854 0.13788,0.91636 0.41366,1.16343 0.28152,0.24708 0.64921,0.37057 1.10309,0.37057 m -5.2471,1.09445 -1.38747,0 0,-7.7302 c -0.0345,0.12069 -0.0776,0.26433 -0.12927,0.43091 -0.046,0.16086 -0.0977,0.32749 -0.15512,0.4998 -0.0575,0.16666 -0.11204,0.32744 -0.16374,0.48261 -0.0517,0.15517 -0.0977,0.28436 -0.13789,0.38782 l -2.27511,5.92906 -1.16341,0 -2.28373,-5.92906 c -0.0287,-0.0747 -0.0689,-0.18103 -0.12065,-0.31887 -0.046,-0.14363 -0.0977,-0.2988 -0.15513,-0.46539 -0.0575,-0.17231 -0.11203,-0.34758 -0.16373,-0.52569 -0.0517,-0.17805 -0.0977,-0.34182 -0.13788,-0.49119 l 0,7.7302 -1.3961,0 0,-9.46244 1.90455,0 2.30096,6.00667 c 0.0747,0.19534 0.14363,0.39071 0.20683,0.58605 0.0632,0.18957 0.12065,0.37057 0.17236,0.54288 0.0575,0.17239 0.10628,0.33036 0.1465,0.474 0.046,0.14364 0.0804,0.26141 0.10341,0.35335 0.0345,-0.0976 0.0718,-0.21544 0.11204,-0.35335 0.0402,-0.14364 0.0862,-0.29869 0.13788,-0.46539 0.0574,-0.17231 0.11778,-0.35043 0.18098,-0.53424 0.0632,-0.18964 0.13213,-0.37921 0.20683,-0.56882 l 2.32682,-6.04106 1.87007,0 0,9.46235 m -21.62479,0.17239 c -0.63199,0 -1.20938,-0.10624 -1.73219,-0.31884 -0.52282,-0.21259 -0.97382,-0.52281 -1.35301,-0.93067 -0.37343,-0.40796 -0.66357,-0.91356 -0.87039,-1.51675 -0.20684,-0.6033 -0.31025,-1.29274 -0.31025,-2.06835 0,-0.78134 0.0948,-1.47935 0.28439,-2.09411 0.18959,-0.61472 0.45674,-1.13465 0.80146,-1.55984 0.34471,-0.4309 0.7555,-0.75837 1.23235,-0.9824 0.4826,-0.22412 1.01403,-0.33609 1.5943,-0.33609 0.56878,0 1.0801,0.10335 1.53399,0.31023 0.45386,0.20107 0.83879,0.48834 1.15479,0.86173 0.31598,0.36775 0.55727,0.81299 0.72389,1.3358 0.17236,0.51702 0.25853,1.09157 0.25854,1.72354 l 0,0.97387 -5.96355,0 c 0.0287,1.10882 0.2614,1.92461 0.69804,2.44746 0.44238,0.52282 1.09734,0.78422 1.96487,0.78422 0.29301,0 0.56303,-0.0144 0.81008,-0.0431 0.25278,-0.0288 0.49408,-0.069 0.7239,-0.12069 0.23555,-0.0574 0.46249,-0.12642 0.68081,-0.20679 0.21831,-0.0862 0.43951,-0.18104 0.66358,-0.28436 l 0,1.39606 c -0.22982,0.10916 -0.45676,0.20398 -0.68081,0.28436 -0.21834,0.0805 -0.44527,0.14655 -0.68082,0.19825 -0.22981,0.0516 -0.47111,0.089 -0.72389,0.11197 -0.24706,0.0229 -0.51708,0.0344 -0.81008,0.0344 m -0.38781,-8.5058 c -0.65496,0 -1.1749,0.22412 -1.55983,0.67217 -0.37918,0.44817 -0.60038,1.10028 -0.66357,1.95627 l 4.23998,0 c -1e-5,-0.39071 -0.0402,-0.74683 -0.12065,-1.06858 -0.0747,-0.32748 -0.19534,-0.60615 -0.36195,-0.83596 -0.16087,-0.22985 -0.36769,-0.40785 -0.62049,-0.53426 -0.25279,-0.1264 -0.55729,-0.18964 -0.91349,-0.18964 m -14.3336,2.75785 2.03382,0 c 1.21798,0 2.11998,0.22405 2.706,0.67218 0.58601,0.44813 0.87901,1.11743 0.87902,2.0079 -1e-5,0.44244 -0.0689,0.84169 -0.20682,1.19792 -0.13215,0.35623 -0.34473,0.66072 -0.63773,0.91352 -0.28727,0.2528 -0.6607,0.44813 -1.12032,0.58597 -0.45388,0.13215 -1.00542,0.19825 -1.65462,0.19825 l -3.56779,0 0,-9.46242 1.56844,0 0,3.88668 m 8.65233,5.57574 -1.56845,0 0,-9.46242 1.56845,0 0,9.46242 m -8.65233,-4.25724 0,2.96454 1.88732,0 c 0.32172,0 0.61473,-0.0229 0.87901,-0.0689 0.27003,-0.0517 0.49983,-0.13503 0.68944,-0.24988 0.19533,-0.12069 0.34757,-0.27578 0.45674,-0.46539 0.10916,-0.18957 0.16373,-0.4223 0.16374,-0.69805 -10e-6,-0.28147 -0.0488,-0.51702 -0.1465,-0.70666 -0.0919,-0.18953 -0.23269,-0.34178 -0.42228,-0.45674 -0.18385,-0.11489 -0.41366,-0.19538 -0.68942,-0.24127 -0.27579,-0.0517 -0.59752,-0.0776 -0.9652,-0.0776 l -1.85285,0 m -3.88023,-2.81799 c -1e-5,0.5975 -0.17811,1.06569 -0.53431,1.40467 -0.35046,0.33321 -0.83306,0.55153 -1.44779,0.65496 l 0,0.0603 c 0.32172,0.0402 0.62047,0.11205 0.89625,0.2154 0.28151,0.10344 0.52281,0.24416 0.7239,0.42227 0.20682,0.17243 0.36768,0.39071 0.4826,0.65496 0.12064,0.2586 0.18096,0.56883 0.18097,0.93075 -1e-5,0.3849 -0.069,0.74405 -0.20682,1.07722 -0.13215,0.33329 -0.34473,0.62337 -0.63772,0.87044 -0.28728,0.247 -0.66072,0.43945 -1.12033,0.57736 -0.45388,0.13791 -1.00542,0.20686 -1.65463,0.20686 l -3.92111,0 0,-9.46242 3.90388,0 c 0.47685,0 0.91924,0.0402 1.32715,0.12068 0.4079,0.0804 0.75836,0.21251 1.05138,0.39643 0.29874,0.18383 0.53142,0.4309 0.69804,0.74113 0.17236,0.30452 0.25853,0.68081 0.25854,1.12895 m -1.24097,4.2313 c -1e-5,-0.52854 -0.18672,-0.89619 -0.56016,-1.10309 -0.37345,-0.20679 -0.92786,-0.31022 -1.66325,-0.31022 l -2.20617,0 0,2.96454 2.24065,0 c 0.32172,0 0.61473,-0.0259 0.87902,-0.0776 0.27002,-0.0517 0.49983,-0.13784 0.68942,-0.25853 0.19534,-0.12069 0.34758,-0.27866 0.45675,-0.474 0.10915,-0.20106 0.16373,-0.44813 0.16374,-0.74114 m -0.25854,-4.07625 c 0,-0.44233 -0.158,-0.75547 -0.47398,-0.93928 -0.31025,-0.18384 -0.77561,-0.27585 -1.39609,-0.27585 l -2.30097,0 0,2.55957 2.03381,0 c 0.35621,0 0.66645,-0.0199 0.93073,-0.0603 0.26428,-0.046 0.48547,-0.12066 0.66358,-0.22409 0.18384,-0.10336 0.31885,-0.24127 0.40503,-0.41369 0.0919,-0.17232 0.13789,-0.38772 0.13789,-0.64632 m -7.83412,2.17171 c -1e-5,0.78711 -0.0977,1.48804 -0.293,2.1028 -0.18961,0.60892 -0.46537,1.12312 -0.82732,1.54262 -0.35621,0.41358 -0.78998,0.7296 -1.3013,0.94792 -0.51132,0.21829 -1.08584,0.32745 -1.72356,0.32745 -0.59176,0 -1.13756,-0.10916 -1.63739,-0.32745 -0.49984,-0.21832 -0.93361,-0.53434 -1.3013,-0.94792 -0.36195,-0.4195 -0.64634,-0.9337 -0.85316,-1.54262 -0.20109,-0.61476 -0.30163,-1.31569 -0.30163,-2.1028 0,-0.78134 0.0948,-1.47366 0.28439,-2.07688 0.19533,-0.60903 0.47111,-1.12032 0.82731,-1.53399 0.35621,-0.41938 0.78997,-0.73541 1.3013,-0.94792 0.51707,-0.21831 1.09446,-0.32747 1.73218,-0.32756 0.59176,0 1.13756,0.10925 1.63739,0.32756 0.49984,0.21251 0.93072,0.52854 1.29269,0.94792 0.36768,0.41367 0.65207,0.92496 0.85317,1.53399 0.20681,0.60322 0.31022,1.29554 0.31023,2.07688 m -6.61851,0 c 0,1.2008 0.19534,2.10561 0.58602,2.71464 0.39641,0.60322 1.03701,0.90491 1.92178,0.90491 0.88476,0 1.51961,-0.30169 1.90455,-0.90491 0.39066,-0.60903 0.586,-1.51384 0.58601,-2.71464 -1e-5,-1.20072 -0.19822,-2.09702 -0.59463,-2.68872 -0.39069,-0.59749 -1.02841,-0.89629 -1.91317,-0.89629 -0.88477,0 -1.52249,0.2988 -1.91315,0.89629 -0.38494,0.5917 -0.57741,1.488 -0.57741,2.68872 m -3.64408,4.74847 -1.56845,0 0,-8.13531 -2.2234,0 c -0.11492,1.48807 -0.2643,2.75483 -0.44813,3.8005 -0.18386,1.04563 -0.41366,1.89885 -0.68943,2.5595 -0.27003,0.66073 -0.59176,1.14334 -0.9652,1.44776 -0.37344,0.29881 -0.80721,0.44817 -1.30129,0.44817 -0.16088,0 -0.31313,-0.009 -0.45675,-0.0259 -0.13788,-0.0174 -0.25279,-0.0431 -0.34472,-0.0775 l 0,-1.12896 c 0.13214,0.0344 0.27578,0.0517 0.4309,0.0517 0.31598,0 0.60037,-0.16659 0.85317,-0.49979 0.25852,-0.33898 0.48546,-0.85318 0.6808,-1.54262 0.20108,-0.69513 0.37344,-1.56845 0.51707,-2.61981 0.14938,-1.05709 0.27578,-2.30382 0.37919,-3.74016 l 5.13624,0 0,9.46242 m -11.95557,0.17232 c -0.58028,0 -1.1232,-0.089 -1.62879,-0.2671 -0.50558,-0.18384 -0.94509,-0.47112 -1.31852,-0.86183 -0.37344,-0.39643 -0.66645,-0.89911 -0.87903,-1.50814 -0.21257,-0.61472 -0.31885,-1.35297 -0.31885,-2.21476 0,-0.90203 0.10915,-1.66612 0.32747,-2.29236 0.21832,-0.63198 0.51707,-1.14329 0.89626,-1.53401 0.38493,-0.39634 0.83306,-0.68361 1.34438,-0.86172 0.51132,-0.17811 1.06,-0.26713 1.64602,-0.26713 0.44812,0 0.88476,0.0488 1.30991,0.14645 0.43088,0.0977 0.78996,0.21831 1.07723,0.36195 l -0.46536,1.32711 c -0.13215,-0.0574 -0.27866,-0.11197 -0.43951,-0.16371 -0.16088,-0.0574 -0.32749,-0.10623 -0.49984,-0.14652 -0.17237,-0.0459 -0.34184,-0.0804 -0.50845,-0.10335 -0.16662,-0.0287 -0.32461,-0.0431 -0.47398,-0.0431 -0.90201,0 -1.55984,0.29009 -1.97349,0.87033 -0.41366,0.57455 -0.62049,1.47086 -0.62049,2.6888 0,1.21226 0.20683,2.09991 0.62049,2.66294 0.41939,0.55729 1.05425,0.83595 1.90455,0.83595 0.46535,0 0.88475,-0.0517 1.2582,-0.15516 0.37918,-0.10916 0.72389,-0.23554 1.03414,-0.37918 l 0,1.39613 c -0.31025,0.16663 -0.64347,0.29301 -0.99967,0.37922 -0.35047,0.0861 -0.78136,0.12919 -1.29267,0.12919 m -14.65076,-5.74806 2.03381,0 c 1.21799,0 2.11999,0.22405 2.70601,0.67218 0.58601,0.44813 0.87901,1.11743 0.87902,2.0079 -1e-5,0.44244 -0.069,0.84169 -0.20682,1.19792 -0.13215,0.35623 -0.34473,0.66072 -0.63772,0.91352 -0.28728,0.2528 -0.66072,0.44813 -1.12033,0.58597 -0.45388,0.13215 -1.00542,0.19825 -1.65463,0.19825 l -3.56779,0 0,-9.46242 1.56845,0 0,3.88668 m 8.65233,5.57574 -1.56845,0 0,-9.46242 1.56845,0 0,9.46242 m -8.65233,-4.25724 0,2.96454 1.88731,0 c 0.32173,0 0.61474,-0.0229 0.87902,-0.0689 0.27002,-0.0517 0.49984,-0.13503 0.68943,-0.24988 0.19533,-0.12069 0.34759,-0.27578 0.45675,-0.46539 0.10914,-0.18957 0.16373,-0.4223 0.16374,-0.69805 -10e-6,-0.28147 -0.0488,-0.51702 -0.14651,-0.70666 -0.0919,-0.18953 -0.23268,-0.34178 -0.42227,-0.45674 -0.18386,-0.11489 -0.41367,-0.19538 -0.68943,-0.24127 -0.27578,-0.0517 -0.59751,-0.0776 -0.9652,-0.0776 l -1.85284,0 m -3.84738,4.25724 -1.38748,0 0,-7.73027 c -0.0345,0.12069 -0.0776,0.26433 -0.12926,0.43091 -0.046,0.1609 -0.0977,0.32749 -0.15512,0.49987 -0.0575,0.16659 -0.11205,0.32748 -0.16375,0.48254 -0.0517,0.15517 -0.0977,0.28447 -0.13788,0.38782 l -2.27511,5.92913 -1.16342,0 -2.28372,-5.92913 c -0.0287,-0.0747 -0.069,-0.18096 -0.12066,-0.31887 -0.046,-0.14363 -0.0977,-0.29869 -0.15512,-0.46528 -0.0574,-0.17242 -0.11203,-0.34762 -0.16373,-0.52573 -0.0517,-0.17812 -0.0977,-0.34182 -0.13789,-0.49126 l 0,7.73027 -1.39609,0 0,-9.46242 1.90455,0 2.30096,6.00666 c 0.0747,0.19533 0.14363,0.39063 0.20682,0.58597 0.0632,0.18964 0.12065,0.37057 0.17237,0.54295 0.0574,0.17232 0.10628,0.3304 0.1465,0.47404 0.046,0.1436 0.0804,0.2613 0.10341,0.35331 0.0345,-0.0977 0.0718,-0.21551 0.11203,-0.35331 0.0402,-0.14364 0.0862,-0.2988 0.13789,-0.46539 0.0574,-0.17242 0.11778,-0.35054 0.18097,-0.53435 0.0632,-0.18957 0.13214,-0.37921 0.20683,-0.56875 l 2.32682,-6.04113 1.87008,0 0,9.46242 m -14.59051,-11.36697 c -0.61474,0 -1.17204,0.11777 -1.67187,0.35332 -0.49984,0.22984 -0.92785,0.56302 -1.28406,0.99973 -0.35046,0.43663 -0.62336,0.96807 -0.8187,1.59425 -0.18959,0.62625 -0.28439,1.33291 -0.28438,2.12005 -10e-6,0.81002 0.0833,1.53109 0.24991,2.16307 0.17236,0.62617 0.42802,1.15479 0.76699,1.58563 0.33897,0.43087 0.76125,0.75835 1.26683,0.98248 0.50557,0.22401 1.09734,0.33609 1.77528,0.33609 0.51132,0 0.99679,-0.0488 1.45641,-0.14656 0.45962,-0.10332 0.91349,-0.22113 1.36163,-0.35331 l 0,1.39606 c -0.22408,0.0862 -0.44814,0.16378 -0.6722,0.23273 -0.22407,0.0632 -0.45962,0.11489 -0.70666,0.1551 -0.24132,0.0403 -0.50272,0.0689 -0.78423,0.0862 -0.27578,0.0229 -0.58315,0.0344 -0.92211,0.0344 -0.94221,0 -1.75805,-0.15513 -2.44747,-0.46539 -0.68943,-0.31023 -1.26108,-0.74975 -1.71495,-1.31846 -0.44813,-0.56883 -0.78136,-1.25246 -0.99968,-2.0511 -0.21832,-0.7986 -0.32747,-1.68333 -0.32747,-2.65425 0,-0.95373 0.12352,-1.82696 0.37056,-2.61981 0.2528,-0.79286 0.62049,-1.47366 1.1031,-2.04248 0.48833,-0.56874 1.09158,-1.01116 1.80975,-1.32711 0.71815,-0.31603 1.54258,-0.47401 2.47332,-0.47401 0.62047,0 1.21223,0.0633 1.77527,0.18956 0.56302,0.12639 1.07148,0.31031 1.52537,0.55158 l -0.6722,1.34435 c -0.36196,-0.18383 -0.75551,-0.34181 -1.18064,-0.47392 -0.42517,-0.1322 -0.90777,-0.19826 -1.4478,-0.19826"
         style="font-style:normal;font-variant:normal;font-weight:normal;font-stretch:normal;font-size:206.80056763px;line-height:83.00001025%;font-family:'Droid Sans';-inkscape-font-specification:'Droid Sans Bold';text-align:end;letter-spacing:-11.29897022px;word-spacing:0px;text-anchor:end;fill:#333333;fill-opacity:1;stroke:none"
         id="path4318-2-5-6-2-7-3-5-8"
         inkscape:connector-curvature="0" />
      <path
         style="color:#000000;font-style:normal;font-variant:normal;font-weight:normal;font-stretch:normal;font-size:medium;line-height:normal;font-family:sans-serif;text-indent:0;text-align:start;text-decoration:none;text-decoration-line:none;text-decoration-style:solid;text-decoration-color:#000000;letter-spacing:normal;word-spacing:normal;text-transform:none;direction:ltr;block-progression:tb;writing-mode:lr-tb;baseline-shift:baseline;text-anchor:start;white-space:normal;clip-rule:nonzero;display:inline;overflow:visible;visibility:visible;opacity:1;isolation:auto;mix-blend-mode:normal;color-interpolation:sRGB;color-interpolation-filters:linearRGB;solid-color:#000000;solid-opacity:1;fill:#b20000;fill-opacity:1;fill-rule:nonzero;stroke:none;stroke-width:35.71311951;stroke-linecap:round;stroke-linejoin:round;stroke-miterlimit:4;stroke-dasharray:none;stroke-dashoffset:0;stroke-opacity:1;color-rendering:auto;image-rendering:auto;shape-rendering:auto;text-rendering:auto;enable-background:accumulate"
         d="m 164.94502,888.95669 c -7.90943,0 -14.05285,5.95929 -14.16925,13.4378 -0.1619,2.26624 0.39639,5.50073 2.38883,8.41919 0.10506,0.15388 0.23275,0.29981 0.34654,0.45087 -0.53497,0.80788 -1.02849,1.4985 -1.37902,1.91729 -0.16842,0.20114 -0.248,0.27497 -0.33837,0.36621 a 1.5241175,1.5241175 0 0 0 -0.91596,1.70184 c 0.0728,0.40216 0.62227,1.11385 1.18316,1.24219 0.56089,0.12826 0.82806,-0.0233 1.0003,-0.0982 0.34447,-0.14978 0.44198,-0.26134 0.57758,-0.37885 0.27118,-0.23513 0.52221,-0.50855 0.83045,-0.87683 0.3516,-0.41998 0.7695,-0.9854 1.21699,-1.63263 2.06236,1.62698 4.86175,2.77283 8.46248,2.88036 3.90848,0.11666 6.83849,-1.03983 8.76367,-2.28749 0.9626,-0.62387 1.67806,-1.26601 2.17213,-1.79256 0.24703,-0.26329 0.43769,-0.49536 0.58624,-0.70112 0.0743,-0.10284 0.1371,-0.19596 0.20203,-0.3097 0.0325,-0.0569 0.0656,-0.11659 0.10686,-0.21337 0.0413,-0.0967 0.13151,-0.15857 0.13151,-0.63046 a 1.5241175,1.5241175 0 0 0 -2.92656,-0.61302 c -0.0579,0.0789 -0.16399,0.21285 -0.32288,0.38217 -0.33264,0.3546 -0.86897,0.84183 -1.60705,1.3202 -1.47616,0.95672 -3.74277,1.89644 -7.01511,1.79874 -3.2076,-0.0958 -5.38136,-1.06504 -6.93027,-2.41749 0.76545,-1.34178 1.56552,-2.93007 2.33149,-4.74134 0.15969,0.25808 0.3419,0.50685 0.5809,0.72628 0.71821,0.65947 1.71357,0.95229 2.75438,0.96995 1.40472,0.024 2.54829,-0.76767 3.32445,-1.66072 0.44783,-0.51524 0.81001,-1.08617 1.12347,-1.6718 0.2225,0.46188 0.49043,0.91334 0.83829,1.33128 0.75831,0.91112 2.0115,1.63607 3.43896,1.58023 1.41867,-0.0555 2.64408,-0.85336 3.36779,-1.87475 0.72371,-1.02143 1.07566,-2.23117 1.24134,-3.48064 0.33108,-2.49693 -0.0457,-5.18221 -1.11416,-7.16443 -2.14979,-4.06301 -6.27337,-5.908 -10.22387,-5.97901 a 1.5241175,1.5241175 0 0 0 -0.0274,0 z m -0.014,3.0486 c 3.07253,0.0589 5.99346,1.36842 7.57419,4.36104 a 1.5241175,1.5241175 0 0 0 0.006,0.0124 c 0.60255,1.11597 1.01971,3.49274 0.77727,5.32098 -0.12122,0.91423 -0.39837,1.68371 -0.70693,2.1192 -0.30856,0.43542 -0.51857,0.57241 -0.99997,0.59118 -0.47261,0.0185 -0.65339,-0.0954 -0.97713,-0.48431 -0.32374,-0.38901 -0.64354,-1.08757 -0.85562,-1.84959 -0.42415,-1.52427 -0.45472,-3.1663 -0.45472,-3.1663 a 1.5241175,1.5241175 0 0 0 -3.02025,-0.27336 c 0,0 -0.34585,1.75324 -1.04747,3.43778 -0.35081,0.84228 -0.79687,1.64767 -1.22666,2.14215 -0.42979,0.49447 -0.71378,0.61712 -0.97213,0.61268 -0.56223,-0.01 -0.68625,-0.11341 -0.7451,-0.16743 -0.0589,-0.0541 -0.17061,-0.20639 -0.25404,-0.66749 -0.16685,-0.92217 -0.0425,-2.76374 -0.0398,-4.97996 a 1.5241175,1.5241175 0 0 0 -2.99957,-0.38328 c -1.01779,3.93806 -2.42214,7.22155 -3.75283,9.73153 -1.17233,-2.09588 -1.5223,-4.46507 -1.42003,-5.79118 a 1.5241175,1.5241175 0 0 0 0.004,-0.0978 c 0.0741,-5.87762 4.68972,-10.46149 11.11,-10.46823 z m 8.20793,17.95588 a 1.5241175,1.5241175 0 0 0 -0.0388,0.14338 c 0.0144,-0.0617 0.0233,-0.11581 0.0388,-0.14338 z"
         id="path3247-6-7-4-0-5-5-2-2-1-2-8-3"
         inkscape:connector-curvature="0" />
    </g>
    <text
       xml:space="preserve"
       style="font-style:normal;font-weight:normal;font-size:8.125px;line-height:125%;font-family:sans-serif;letter-spacing:0px;word-spacing:0px;fill:#333333;fill-opacity:1;stroke:none;stroke-width:1px;stroke-linecap:butt;stroke-linejoin:miter;stroke-opacity:1"
       x="52.095589"
       y="976.08038"
       id="text5329"
       sodipodi:linespacing="125%"><tspan
         sodipodi:role="line"
         x="52.095589"
         y="976.08038"
         id="tspan5335"
         style="font-style:normal;font-variant:normal;font-weight:normal;font-stretch:normal;font-size:8.125px;font-family:'Droid Sans';-inkscape-font-specification:'Droid Sans';fill:#333333;fill-opacity:1">+7 912 965 14 01</tspan><tspan
         sodipodi:role="line"
         x="52.095589"
         y="986.23663"
         id="tspan5337"
         style="font-style:normal;font-variant:normal;font-weight:normal;font-stretch:normal;font-size:8.125px;font-family:'Droid Sans';-inkscape-font-specification:'Droid Sans';fill:#333333;fill-opacity:1">roman@semantic-machines.com</tspan><tspan
         sodipodi:role="line"
         x="52.095589"
         y="996.39288"
         id="tspan5339"
         style="font-style:normal;font-variant:normal;font-weight:normal;font-stretch:normal;font-size:8.125px;font-family:'Droid Sans';-inkscape-font-specification:'Droid Sans';fill:#333333;fill-opacity:1" /><tspan
         sodipodi:role="line"
         x="52.095589"
         y="1006.5491"
         style="font-style:normal;font-variant:normal;font-weight:normal;font-stretch:normal;font-size:8.125px;font-family:'Droid Sans';-inkscape-font-specification:'Droid Sans';fill:#333333;fill-opacity:1"
         id="tspan5403">semantic-machines.com</tspan><tspan
         sodipodi:role="line"
         x="52.095589"
         y="1016.7054"
         style="font-style:normal;font-variant:normal;font-weight:normal;font-stretch:normal;font-size:8.125px;font-family:'Droid Sans';-inkscape-font-specification:'Droid Sans';fill:#333333;fill-opacity:1"
         id="tspan5401">Быстро разрабатываем приложения для вашего бизнеса!</tspan></text>
  </g>
</svg>
