<?xml version="1.0" encoding="UTF-8" standalone="no"?>
<svg
   xmlns:dc="http://purl.org/dc/elements/1.1/"
   xmlns:cc="http://creativecommons.org/ns#"
   xmlns:rdf="http://www.w3.org/1999/02/22-rdf-syntax-ns#"
   xmlns:svg="http://www.w3.org/2000/svg"
   xmlns="http://www.w3.org/2000/svg"
   xmlns:sodipodi="http://sodipodi.sourceforge.net/DTD/sodipodi-0.dtd"
   xmlns:inkscape="http://www.inkscape.org/namespaces/inkscape"
   enable-background="new 0 0 128 128"
   height="128px"
   id="Layer_1"
   version="1.1"
   viewBox="0 0 128 128"
   width="128px"
   xml:space="preserve"
   inkscape:version="0.91 r13725"
   sodipodi:docname="if_seo3-82_417779.svg"><metadata
     id="metadata157"><rdf:RDF><cc:Work
         rdf:about=""><dc:format>image/svg+xml</dc:format><dc:type
           rdf:resource="http://purl.org/dc/dcmitype/StillImage" /></cc:Work></rdf:RDF></metadata><defs
     id="defs155" /><sodipodi:namedview
     pagecolor="#ffffff"
     bordercolor="#666666"
     borderopacity="1"
     objecttolerance="10"
     gridtolerance="10"
     guidetolerance="10"
     inkscape:pageopacity="0"
     inkscape:pageshadow="2"
     inkscape:window-width="1920"
     inkscape:window-height="1035"
     id="namedview153"
     showgrid="false"
     inkscape:zoom="1.3037281"
     inkscape:cx="-178.73748"
     inkscape:cy="51.551212"
     inkscape:window-x="0"
     inkscape:window-y="24"
     inkscape:window-maximized="1"
     inkscape:current-layer="Layer_1" /><path
     d="m 95.542372,66.9 c 11.000008,0 20.000008,9 20.000008,20 0,11 -9,20 -20.000008,20 -11,0 -20,-9 -20,-20 0,-11 9,-20 20,-20 m 0,-4 c -13.3,0 -24,10.7 -24,24 0,13.3 10.7,24 24,24 13.300008,0 24.000008,-10.7 24.000008,-24 0,-13.3 -10.7,-24 -24.000008,-24 l 0,0 z"
     id="path137"
     style="fill:#ff4c00;fill-opacity:1"
     inkscape:connector-curvature="0" /><path
     d="m 95.542372,72.9 c 7.700008,0 14.000008,6.3 14.000008,14 0,7.7 -6.3,14 -14.000008,14 -7.7,0 -14,-6.3 -14,-14 0,-7.7 6.3,-14 14,-14 m 0,-2 c -8.8,0 -16,7.2 -16,16 0,8.8 7.2,16 16,16 8.800008,0 16.000008,-7.2 16.000008,-16 0,-8.8 -7.2,-16 -16.000008,-16 l 0,0 z"
     id="path139"
     style="fill:#ff4c00;fill-opacity:1"
     inkscape:connector-curvature="0" /><path
     d="M86.4,33H39.3c-0.6,0-1-0.4-1-1s0.4-1,1-1h47.2c0.6,0,1,0.4,1,1S87,33,86.4,33z"
     fill="#3B97D3"
     id="path141"
     style="fill:#5c5c5c;fill-opacity:1" /><path
     d="M86.4,45H39.3c-0.6,0-1-0.4-1-1s0.4-1,1-1h47.2c0.6,0,1,0.4,1,1S87,45,86.4,45z"
     fill="#3B97D3"
     id="path143"
     style="fill:#5c5c5c;fill-opacity:1" /><path
     d="M86.4,57H39.3c-0.6,0-1-0.4-1-1s0.4-1,1-1h47.2c0.6,0,1,0.4,1,1S87,57,86.4,57z"
     fill="#3B97D3"
     id="path145"
     style="fill:#5c5c5c;fill-opacity:1" /><path
     d="M101.6,112c-0.8,2.2-2.6,4-5.1,4h-66c-3.3,0-6.5-3.2-6.5-6.5v-90c0-3.3,3.2-5.5,6.5-5.5h66  c3.3,0,5.5,2.2,5.5,5.5v42.4c1.4,0.4,2.7,0.9,4,1.5V19.5c0-5.5-4-9.5-9.5-9.5h-66C25,10,20,14,20,19.5v90c0,5.5,5,10.5,10.5,10.5h66  c5.2,0,9-4.4,9.5-9.5C104.6,111.1,103.1,111.7,101.6,112z"
     fill="#2C3E50"
     id="path147"
     style="fill:#5c5c5c;fill-opacity:1" /><path
     d="M78.3,67h-39c-0.6,0-1,0.4-1,1s0.4,1,1,1h36.9C76.8,68.3,77.5,67.6,78.3,67z"
     fill="#3B97D3"
     id="path149"
     style="fill:#5c5c5c;fill-opacity:1" /><path
     d="M70.2,79h-31c-0.6,0-1,0.4-1,1s0.4,1,1,1h30.4C69.8,80.3,70,79.7,70.2,79z"
     fill="#3B97D3"
     id="path151"
     style="fill:#5c5c5c;fill-opacity:1" /><path
     inkscape:connector-curvature="0"
     style="color:#000000;font-style:normal;font-variant:normal;font-weight:normal;font-stretch:normal;font-size:medium;line-height:normal;font-family:sans-serif;text-indent:0;text-align:start;text-decoration:none;text-decoration-line:none;text-decoration-style:solid;text-decoration-color:#000000;letter-spacing:normal;word-spacing:normal;text-transform:none;direction:ltr;block-progression:tb;writing-mode:lr-tb;baseline-shift:baseline;text-anchor:start;white-space:normal;clip-rule:nonzero;display:inline;overflow:visible;visibility:visible;opacity:1;isolation:auto;mix-blend-mode:normal;color-interpolation:sRGB;color-interpolation-filters:linearRGB;solid-color:#000000;solid-opacity:1;fill:#ff4c00;fill-opacity:1;fill-rule:nonzero;stroke:none;stroke-width:3.20000005;stroke-linecap:square;stroke-linejoin:miter;stroke-miterlimit:10;stroke-dasharray:none;stroke-dashoffset:0;stroke-opacity:1;color-rendering:auto;image-rendering:auto;shape-rendering:auto;text-rendering:auto;enable-background:accumulate"
     d="m 91.720311,76.681192 0,8.137985 -1.27552,0 -1.59488,0 0,2.756955 1.59488,0 1.27552,0 0,2.800688 -1.27552,0 -1.59488,0 0,2.756963 1.59488,0 1.27552,0 0,2.366704 0,1.377638 3.19169,0 0,-1.377638 0,-2.366704 1.27747,0 1.59488,0 0,-2.756963 -1.59488,0 -1.27747,0 0,-2.800688 2.71072,0 c 1.53901,0 2.830269,-0.781656 3.657119,-1.786388 1.20149,-1.553183 1.26111,-2.524723 1.28719,-3.661922 0,-1.37961 -0.46035,-2.657189 -1.28719,-3.661921 -0.82685,-1.004741 -2.118109,-1.784709 -3.657119,-1.784709 l -5.90241,0 z m 3.19169,2.755276 2.71072,0 c 0.27913,0 0.66224,0.149596 1.05546,0.627417 0.39322,0.477829 0.69909,1.234242 0.69909,2.063937 0,0.829695 -0.30587,1.587788 -0.69909,2.065617 -0.39322,0.477821 -0.77633,0.625738 -1.05546,0.625738 l -2.71072,0 0,-5.382709 z"
     id="XMLID_11_-3" /></svg>