<?xml version="1.0" encoding="UTF-8" standalone="no"?>
<svg
   xmlns:dc="http://purl.org/dc/elements/1.1/"
   xmlns:cc="http://creativecommons.org/ns#"
   xmlns:rdf="http://www.w3.org/1999/02/22-rdf-syntax-ns#"
   xmlns:svg="http://www.w3.org/2000/svg"
   xmlns="http://www.w3.org/2000/svg"
   xmlns:sodipodi="http://sodipodi.sourceforge.net/DTD/sodipodi-0.dtd"
   xmlns:inkscape="http://www.inkscape.org/namespaces/inkscape"
   enable-background="new 0 0 128 128"
   height="128px"
   id="Layer_1"
   version="1.1"
   viewBox="0 0 128 128"
   width="128px"
   xml:space="preserve"
   inkscape:version="0.91 r13725"
   sodipodi:docname="act-failure.svg"><metadata
     id="metadata152"><rdf:RDF><cc:Work
         rdf:about=""><dc:format>image/svg+xml</dc:format><dc:type
           rdf:resource="http://purl.org/dc/dcmitype/StillImage" /></cc:Work></rdf:RDF></metadata><defs
     id="defs150" /><sodipodi:namedview
     pagecolor="#ffffff"
     bordercolor="#666666"
     borderopacity="1"
     objecttolerance="10"
     gridtolerance="10"
     guidetolerance="10"
     inkscape:pageopacity="0"
     inkscape:pageshadow="2"
     inkscape:window-width="1920"
     inkscape:window-height="1035"
     id="namedview148"
     showgrid="false"
     inkscape:zoom="1.84375"
     inkscape:cx="-143.80254"
     inkscape:cy="23.05122"
     inkscape:window-x="0"
     inkscape:window-y="24"
     inkscape:window-maximized="1"
     inkscape:current-layer="Layer_1" /><path
     d="M74.6,9.8L105,21.2L93.6,51.7c-1.3-0.2-2.9-0.5-4.7-0.9c2-1.5,3.5-3.5,4.4-5.9c2.6-6.8-0.9-14.4-7.7-17  C84.2,27.3,82.6,27,81,27c-5.5,0-10.4,3.4-12.4,8.6c-1.1,3-1.1,6.3,0,9.2c-4.9-2.2-5.9-3.9-6.1-4.2c-0.2-0.5-1.2-3.5,3-13.5l1.1-2.7  l1.5-3C70.5,16.8,73,12.5,74.6,9.8 M52.5,13.3c0.6,0,1.2,0.1,1.8,0.3c2,0.8,3.4,2.7,3.4,4.9l0,1.9l-1.3,1.5c-1,1.1-2.4,1.8-3.9,1.8  c-0.6,0-1.2-0.1-1.8-0.3c-1.3-0.5-2.3-1.5-2.9-2.7c-0.6-1.3-0.6-2.7-0.1-4C48.4,14.7,50.3,13.3,52.5,13.3 M72.9,4.9  c0,0-4.3,6.8-8.3,14.7l-2.9-1.1c0-3.7-2.3-7.2-6-8.6c-1.1-0.4-2.2-0.6-3.2-0.6c-3.7,0-7.2,2.3-8.6,6c-1.8,4.8,0.6,10.1,5.4,11.9  c1.1,0.4,2.2,0.6,3.2,0.6c2.7,0,5.2-1.2,7-3.2l2.5,0.9c-2.8,6.6-4.6,13.1-3,16.7c1.6,3.6,7.8,6.5,14.6,8.8l1.4-3.8  c-2.8-2.4-4-6.5-2.6-10.2c1.4-3.7,4.9-6,8.6-6c1.1,0,2.2,0.2,3.2,0.6c4.8,1.8,7.2,7.1,5.4,11.9c-1.4,3.7-4.9,6-8.6,6c0,0,0,0,0,0  l-1.2,3.3c8.6,2.3,16.4,3.4,16.4,3.4l14-37.3L72.9,4.9L72.9,4.9z"
     id="path142"
     fill="#2C3E50"
     style="fill:#cccccc;fill-opacity:1" /><path
     d="M49.3,41.3c0.4,1.2,0.9,2.8,1.4,4.5c-1.7-0.8-3.5-1.2-5.5-1.2c-0.6,0-1.2,0-1.8,0.1  c-3.5,0.5-6.6,2.3-8.7,5.1s-3,6.3-2.6,9.8C33,66.1,38.6,71,45.2,71c0.6,0,1.2,0,1.8-0.1c3.2-0.4,6-2,8.1-4.3c0.4,5.4-0.6,7-0.8,7.4  c-0.3,0.4-2.6,2.7-13.3,3.7L38,77.9L34.7,78c-1.7,0.1-3.5,0.1-5.4,0.1c-3.1,0-5.9-0.1-7.8-0.2L17,45.7L49.3,41.3 M38.9,87.7l1.9,0.4  c2.1,0.5,3.7,2.2,4,4.4c0.2,1.4-0.2,2.7-1,3.9c-0.8,1.1-2.1,1.8-3.4,2c-0.2,0-0.5,0.1-0.7,0.1c-2.6,0-4.8-1.9-5.1-4.5  c-0.3-2.1,0.8-4.3,2.7-5.3L38.9,87.7 M52,36.9l-39.4,5.5L18,81.8c0,0,4.9,0.4,11.4,0.4c1.8,0,3.6,0,5.5-0.1l0.4,3.1  c-3.3,1.8-5.3,5.4-4.8,9.4c0.6,4.6,4.6,7.9,9.1,7.9c0.4,0,0.8,0,1.3-0.1c5-0.7,8.6-5.3,7.9-10.4c-0.5-3.9-3.5-6.9-7.1-7.7l-0.4-2.6  c7.1-0.7,13.8-2.2,16.1-5.3c2.4-3.1,2-10,0.7-17l-4,0.5c-0.8,3.6-3.8,6.6-7.7,7.1C46,67,45.6,67,45.2,67c-4.5,0-8.5-3.3-9.1-7.9  c-0.7-5,2.8-9.7,7.9-10.4c0.4-0.1,0.9-0.1,1.3-0.1c3.4,0,6.5,1.9,8.1,4.8l3.5-0.5C54.7,44.4,52,36.9,52,36.9L52,36.9z"
     fill="#3B97D3"
     id="path144"
     style="fill:#3b97d3;fill-opacity:1" /><path
     d="M100.7,62.6c1,0,2,0.3,2.9,0.9c1.2,0.8,2,1.9,2.2,3.3c0.3,1.4,0,2.8-0.8,3.9c-1,1.5-2.6,2.3-4.3,2.3  c-0.4,0-0.8,0-1.2-0.1l-1.9-0.4l-1.1-1.6c-1.3-1.7-1.3-4.1-0.1-5.9C97.3,63.5,98.9,62.6,100.7,62.6L100.7,62.6 M77.4,72.7  c1.1,0,4.5,0.6,12,6l2.4,1.7l2.6,2.1c4,3.3,7.7,6.7,9.9,8.8l-17.9,27.1l-27.1-17.9c0.5-1.2,1.2-2.7,1.9-4.3c1,2.2,2.6,4.2,4.8,5.6  c2.2,1.4,4.7,2.2,7.3,2.2c4.5,0,8.6-2.2,11-5.9c1.9-2.9,2.6-6.5,1.9-9.9s-2.7-6.4-5.7-8.4c-2.2-1.4-4.7-2.2-7.3-2.2  c-0.6,0-1.1,0-1.7,0.1c3.3-4.3,5.1-4.9,5.5-5C77.1,72.7,77.2,72.7,77.4,72.7 M100.7,58.6c-3,0-5.9,1.5-7.7,4.1  c-2.2,3.3-1.9,7.5,0.3,10.5l-1.5,2.2c-5.2-3.8-10.6-6.8-14.4-6.8c-0.4,0-0.8,0-1.2,0.1c-3.9,0.8-8.1,6.1-11.8,12.3l3.3,2.2  c1.6-1.2,3.5-1.8,5.4-1.8c1.7,0,3.5,0.5,5,1.5c4.2,2.8,5.4,8.5,2.6,12.8c-1.8,2.7-4.7,4.1-7.7,4.1c-1.7,0-3.5-0.5-5.1-1.5  c-3.3-2.2-4.7-6.1-3.9-9.7l-2.9-1.9c-4.1,7.8-7,15.3-7,15.3L87.5,124l21.9-33.2c0,0-5.6-5.7-12.5-11.4l1.7-2.6  c0.7,0.2,1.4,0.2,2.1,0.2c3,0,5.9-1.4,7.7-4.1c2.8-4.2,1.6-10-2.6-12.8C104.2,59.1,102.4,58.6,100.7,58.6L100.7,58.6z"
     fill="#2C3E50"
     id="path146"
     style="fill:#999999;fill-opacity:1" /></svg>