<?xml version="1.0" encoding="UTF-8" standalone="no"?>
<svg
   xmlns:dc="http://purl.org/dc/elements/1.1/"
   xmlns:cc="http://creativecommons.org/ns#"
   xmlns:rdf="http://www.w3.org/1999/02/22-rdf-syntax-ns#"
   xmlns:svg="http://www.w3.org/2000/svg"
   xmlns="http://www.w3.org/2000/svg"
   xmlns:sodipodi="http://sodipodi.sourceforge.net/DTD/sodipodi-0.dtd"
   xmlns:inkscape="http://www.inkscape.org/namespaces/inkscape"
   enable-background="new 0 0 128 128"
   height="128px"
   id="Layer_1"
   version="1.1"
   viewBox="0 0 128 128"
   width="128px"
   xml:space="preserve"
   inkscape:version="0.91 r13725"
   sodipodi:docname="act-of-violation.svg"><metadata
     id="metadata46"><rdf:RDF><cc:Work
         rdf:about=""><dc:format>image/svg+xml</dc:format><dc:type
           rdf:resource="http://purl.org/dc/dcmitype/StillImage" /></cc:Work></rdf:RDF></metadata><defs
     id="defs44" /><sodipodi:namedview
     pagecolor="#ffffff"
     bordercolor="#666666"
     borderopacity="1"
     objecttolerance="10"
     gridtolerance="10"
     guidetolerance="10"
     inkscape:pageopacity="0"
     inkscape:pageshadow="2"
     inkscape:window-width="1920"
     inkscape:window-height="1035"
     id="namedview42"
     showgrid="false"
     inkscape:zoom="0.92187498"
     inkscape:cx="-498.61574"
     inkscape:cy="-56.21311"
     inkscape:window-x="0"
     inkscape:window-y="24"
     inkscape:window-maximized="1"
     inkscape:current-layer="Layer_1" /><path
     d="m 57.947246,108.7 c -0.341597,-0.1 -0.597794,-0.5 -0.597794,-0.9 0,-0.6 0.341597,-1 0.853992,-1 l 15.11565,0 c 0.512395,0 0.853991,0.4 0.853991,1 0,0.6 -0.341596,1 -0.853991,1 l -15.11565,0 c -0.0854,0 -0.170799,-0.1 -0.256198,-0.1 z"
     id="path26"
     inkscape:connector-curvature="0"
     style="fill:#cccccc;fill-opacity:1" /><path
     d="m 85.294118,5.7098393 -44.554337,0 c -5.105185,0 -9.282154,4.3999997 -9.282154,9.9999997 l 0,39.290161 c 0,5.5 2.504464,10 7.70247,10 l 1.95097,0 c 0,-1 0,-3 0.09282,-4 l -2.043791,0 c -3.06311,0 -3.989609,-2.7 -3.989609,-6 l 0,-39.290161 c 0,-3.3 2.506182,-5.9999997 5.569293,-5.9999997 l 44.554337,0 c 3.06311,0 5.569292,2.6999997 5.569292,5.9999997 l 0,39.290161 c 0,3.3 -2.506182,6 -5.569292,6 l -27.289532,0 c 0.464108,2 0.928215,3 1.392323,4 l 25.897209,0 c 5.105184,0 9.282153,-4.4 9.282153,-10 l 0,-39.290161 c 0,-5.5 -4.084147,-9.9999997 -9.282152,-9.9999997 z"
     id="path38"
     inkscape:connector-curvature="0"
     style="fill:#3b97d3;fill-opacity:1"
     sodipodi:nodetypes="sssssccssssssssccssss" /><path
     d="m 89.6,67 -4,0 c 0.1,0.7 0.1,1.2 0.1,1.7 0.4,6.9 -2.9,19.4 -4.7,26.1 -0.4,1.4 -0.7,2.7 -0.9,3.7 -0.4,1.5 -0.9,3 -1.4,4.3 -0.4,1 -0.7,2 -1,2.9 l -0.6,2.4 1.9,1.6 0.3,9.7 c 0,0.1 -0.1,0.2 -0.2,0.3 l -25.4,0.8 c -0.2,-0.1 -0.4,-0.3 -0.4,-0.4 l -0.3,-9.4 0,0 1.6,-1.7 -0.7,-2.3 -6.8,-22.6 c -1.2,-4 -0.8,-25.9 -0.1,-40.2 0.1,-2 0.7,-4.5 1.3,-5.3 0.4,0 0.8,0 1,0.1 l 0.3,0.1 c 0.6,0.5 1.5,3.2 1.8,16 0.1,4.3 2.4,15.3 7.5,17.3 1.9,0.9 3.9,1.3 6,1.3 3.3,0 6.4,-1.2 9,-3.6 0.8,-0.7 1.5,-1.7 1.9,-2.9 l -4.7,0 c -2.1,1.9 -4.4,2.5 -6.2,2.5 -2.5,0 -4.3,-1 -4.5,-1 -2,-0.7 -4.9,-8.1 -5,-13.7 C 55,38.1 53.6,35.8 50.3,34.8 49.9,34.7 48.6,34.6 47.9,34.6 l -0.2,0 c -4.5,0.1 -4.9,9.1 -4.9,9.1 0,0 -1.6,35.1 0.3,41.5 1.9,6.4 6.8,22.6 6.8,22.6 -0.7,0.7 -1.2,1.7 -1.1,2.7 l 0.3,9.7 c 0,1.8 1.5,3.5 3.2,4 0.4,0.1 0.8,0.2 1.1,0.2 l 0.1,0 25.7,-0.8 c 2.2,-0.1 3.9,-2.2 3.9,-4.4 l -0.3,-9.7 c 0,-1.2 -0.6,-2.2 -1.4,-2.9 0.5,-1.8 1.7,-4.5 2.4,-7.3 1.4,-5.7 6.2,-21.9 5.8,-30.9 0.1,-0.1 0.1,-0.7 0,-1.4 z"
     id="path40"
     inkscape:connector-curvature="0"
     style="fill:#999999;fill-opacity:1"
     sodipodi:nodetypes="ccccccccccccccccccccccccscccscccsccsccccscccccccc" /></svg>