<?xml version="1.0" encoding="UTF-8" standalone="no"?>
<svg
   xmlns:dc="http://purl.org/dc/elements/1.1/"
   xmlns:cc="http://creativecommons.org/ns#"
   xmlns:rdf="http://www.w3.org/1999/02/22-rdf-syntax-ns#"
   xmlns:svg="http://www.w3.org/2000/svg"
   xmlns="http://www.w3.org/2000/svg"
   xmlns:sodipodi="http://sodipodi.sourceforge.net/DTD/sodipodi-0.dtd"
   xmlns:inkscape="http://www.inkscape.org/namespaces/inkscape"
   enable-background="new 0 0 128 128"
   height="128px"
   id="Layer_1"
   version="1.1"
   viewBox="0 0 128 128"
   width="128px"
   xml:space="preserve"
   inkscape:version="0.91 r13725"
   sodipodi:docname="app-image.svg"><metadata
     id="metadata4196"><rdf:RDF><cc:Work
         rdf:about=""><dc:format>image/svg+xml</dc:format><dc:type
           rdf:resource="http://purl.org/dc/dcmitype/StillImage" /></cc:Work></rdf:RDF></metadata><defs
     id="defs4194" /><sodipodi:namedview
     pagecolor="#ffffff"
     bordercolor="#666666"
     borderopacity="1"
     objecttolerance="10"
     gridtolerance="10"
     guidetolerance="10"
     inkscape:pageopacity="0"
     inkscape:pageshadow="2"
     inkscape:window-width="1920"
     inkscape:window-height="1035"
     id="namedview4192"
     showgrid="false"
     inkscape:zoom="1.3037281"
     inkscape:cx="104.82381"
     inkscape:cy="11.378954"
     inkscape:window-x="0"
     inkscape:window-y="24"
     inkscape:window-maximized="1"
     inkscape:current-layer="Layer_1" /><path
     d="M111,25c3.3,0,6,2.7,6,6v66c0,3.3-2.7,6-6,6H17c-3.3,0-6-2.7-6-6V31c0-3.3,2.7-6,6-6H111 M111,21H17  c-5.5,0-10,4.5-10,10v66c0,5.5,4.5,10,10,10h94c5.5,0,10-4.5,10-10V31C121,25.5,116.5,21,111,21L111,21z"
     fill="#2C3E50"
     id="path4174"
     style="fill:#999999;fill-opacity:1" /><path
     d="M111.5,44H17c-0.6,0-1-0.4-1-1s0.4-1,1-1h94.5c0.6,0,1,0.4,1,1S112.1,44,111.5,44z"
     fill="#2C3E50"
     id="path4176"
     style="fill:#999999;fill-opacity:1" /><circle
     cx="21.5"
     cy="33.8"
     fill="#2C3E50"
     r="3"
     id="circle4178"
     style="fill:#cccccc;fill-opacity:1" /><circle
     cx="30.5"
     cy="33.8"
     fill="#2C3E50"
     r="3"
     id="circle4180"
     style="fill:#cccccc;fill-opacity:1" /><circle
     cx="39.5"
     cy="33.8"
     fill="#2C3E50"
     r="3"
     id="circle4182"
     style="fill:#cccccc;fill-opacity:1" /><path
     d="M59,56v34H22V56H59 M61,54H20v38h41V54L61,54z"
     fill="#3B97D3"
     id="path4184" /><path
     d="M105,56v13H69V56H105 M107,54H67v17h40V54L107,54z"
     fill="#3B97D3"
     id="path4186" /><path
     d="M105,78v12H93V78H105 M107,76H91v16h16V76L107,76z"
     fill="#3B97D3"
     id="path4188" /><path
     d="M82,78v12H69V78H82 M84,76H67v16h17V76L84,76z"
     fill="#3B97D3"
     id="path4190" /></svg>