<?xml version="1.0" encoding="UTF-8" standalone="no"?>
<svg
   xmlns:dc="http://purl.org/dc/elements/1.1/"
   xmlns:cc="http://creativecommons.org/ns#"
   xmlns:rdf="http://www.w3.org/1999/02/22-rdf-syntax-ns#"
   xmlns:svg="http://www.w3.org/2000/svg"
   xmlns="http://www.w3.org/2000/svg"
   xmlns:sodipodi="http://sodipodi.sourceforge.net/DTD/sodipodi-0.dtd"
   xmlns:inkscape="http://www.inkscape.org/namespaces/inkscape"
   enable-background="new 0 0 128 128"
   height="128px"
   id="Layer_1"
   version="1.1"
   viewBox="0 0 128 128"
   width="128px"
   xml:space="preserve"
   inkscape:version="0.91 r13725"
   sodipodi:docname="if_seo3-35_417822.svg"><metadata
     id="metadata195"><rdf:RDF><cc:Work
         rdf:about=""><dc:format>image/svg+xml</dc:format><dc:type
           rdf:resource="http://purl.org/dc/dcmitype/StillImage" /></cc:Work></rdf:RDF></metadata><defs
     id="defs193" /><sodipodi:namedview
     pagecolor="#ffffff"
     bordercolor="#666666"
     borderopacity="1"
     objecttolerance="10"
     gridtolerance="10"
     guidetolerance="10"
     inkscape:pageopacity="0"
     inkscape:pageshadow="2"
     inkscape:window-width="1920"
     inkscape:window-height="1035"
     id="namedview191"
     showgrid="false"
     inkscape:zoom="0.65186406"
     inkscape:cx="-425.00517"
     inkscape:cy="-114.24976"
     inkscape:window-x="0"
     inkscape:window-y="24"
     inkscape:window-maximized="1"
     inkscape:current-layer="Layer_1" /><path
     style="fill:#5c5c5c;fill-opacity:1"
     inkscape:connector-curvature="0"
     d="m 47.07418,77.532968 c -0.4,-0.4 -1,-0.4 -1.4,0 l -6.1,6.1 -4,-4 c -0.4,-0.4 -1,-0.4 -1.4,0 -0.4,0.4 -0.4,1 0,1.4 l 4.4,4.4 c 0,0 0.1,0.1 0.2,0.1 0,0 0.1,0.1 0.1,0.2 0.2,0.2 0.5,0.3 0.7,0.3 0.2,0 0.5,-0.1 0.7,-0.3 l 6.8,-6.8 c 0.4,-0.3 0.4,-1 0,-1.4 z"
     id="path171" /><path
     style="fill:#5c5c5c;fill-opacity:1"
     inkscape:connector-curvature="0"
     d="m 47.07418,66.832968 c -0.4,-0.4 -1,-0.4 -1.4,0 l -6.1,6.1 -4,-4 c -0.4,-0.4 -1,-0.4 -1.4,0 -0.4,0.4 -0.4,1 0,1.4 l 4.4,4.4 c 0,0 0.1,0.1 0.2,0.1 0,0 0.1,0.1 0.1,0.2 0.2,0.2 0.5,0.3 0.7,0.3 0.2,0 0.5,-0.1 0.7,-0.3 l 6.8,-6.8 c 0.4,-0.4 0.4,-1.1 0,-1.4 z"
     id="path173" /><path
     style="fill:#5c5c5c;fill-opacity:1"
     inkscape:connector-curvature="0"
     d="m 80.07418,83.232968 -26,0 c -0.6,0 -1,-0.4 -1,-1 0,-0.6 0.4,-1 1,-1 l 26.1,0 c 0.6,0 1,0.4 1,1 0,0.6 -0.5,1 -1.1,1 z"
     id="path179" /><path
     style="fill:#5c5c5c;fill-opacity:1"
     inkscape:connector-curvature="0"
     d="m 80.07418,72.232968 -26,0 c -0.6,0 -1,-0.4 -1,-1 0,-0.6 0.4,-1 1,-1 l 26.1,0 c 0.6,0 1,0.4 1,1 0,0.6 -0.5,1 -1.1,1 z"
     id="path181" /><path
     d="M95,100.9v7.9c0,3.3-2.2,6.2-5.5,6.2h-63c-3.3,0-6.5-2.9-6.5-6.2v-89c0-3.3,3.2-5.8,6.5-5.8h63  c3.3,0,5.5,2.5,5.5,5.8v48.9l4-4V19.8c0-5.5-4-9.8-9.5-9.8h-63C21,10,16,14.3,16,19.8v89c0,5.5,5,10.2,10.5,10.2h63  c5.5,0,9.5-4.7,9.5-10.2V96.9L95,100.9z"
     fill="#2C3E50"
     id="path183"
     style="fill:#5c5c5c;fill-opacity:1" /><path
     d="M115.7,71.2c0-0.5-0.2-0.9-0.6-1.2c0,0,0,0,0,0l-5.2-5.2c0,0,0,0,0,0c-0.3-0.3-0.8-0.5-1.3-0.6l-4.9-0.3  c-0.6,0-1.1,0.2-1.5,0.5c0,0,0,0,0,0L77.4,89.2c-0.8,0.8-0.8,2,0,2.8c0.4,0.4,0.9,0.6,1.4,0.6s1-0.2,1.4-0.6l24.2-24.2l3.3,0.2  l4.1,4.1l0.2,3.3L87.8,99.6c-0.8,0.8-0.8,2,0,2.8c0.4,0.4,0.9,0.6,1.4,0.6s1-0.2,1.4-0.6l24.8-24.8c0.4-0.4,0.6-1,0.6-1.5  c0,0,0,0,0,0L115.7,71.2z"
     fill="#3B97D3"
     id="path185"
     style="fill:#ff4c00;fill-opacity:1" /><path
     d="M84.4,96.6l23.9-23.9c0.4-0.4,0.4-1,0-1.4s-1-0.4-1.4,0L83,95.2c-0.4,0.4-0.4,1,0,1.4  c0.2,0.2,0.5,0.3,0.7,0.3S84.2,96.8,84.4,96.6z"
     fill="#3B97D3"
     id="path187"
     style="fill:#ff4c00;fill-opacity:1" /><path
     d="M84.8,103l-7,1.6l-2.7-2.7l1.7-7c0.3-1.1-0.4-2.2-1.5-2.4c-1.1-0.3-2.2,0.4-2.4,1.5l-3.2,13.7  c-0.3,1.1,0.4,2.2,1.5,2.4c0.2,0,0.3,0.1,0.5,0.1c0.2,0,0.3,0,0.5-0.1c0,0,0,0,0,0l13.7-3.2c1.1-0.3,1.7-1.3,1.5-2.4  C87,103.4,85.9,102.8,84.8,103z"
     fill="#3B97D3"
     id="path189"
     style="fill:#ff4c00;fill-opacity:1" /><path
     inkscape:connector-curvature="0"
     style="fill:none;stroke:#ff4c00;stroke-width:2.98017263;stroke-linecap:round;stroke-linejoin:round;stroke-miterlimit:10;stroke-opacity:1"
     d="m 51.426773,55.038607 1.788103,0 c 0,0 2.980173,1.639095 4.32125,1.788104 1.490087,0.149008 8.046466,0.298017 8.940518,0.298017 5.364311,-0.149009 8.940518,-0.298017 9.536552,-4.619268 0.298017,-3.129181 0.298017,-2.384138 0.745043,-5.513319 0.149009,-1.341077 0.298018,-7.748448 -2.980172,-7.748448 l -9.238535,0 c 0,0 2.086121,-4.470259 2.086121,-8.344484 0,-3.874224 -1.192069,-5.215302 -2.682156,-5.215302 -2.384138,0 -1.490086,4.768277 -2.384138,6.705389 -1.04306,2.384138 -3.725215,5.811336 -3.725215,5.811336 l -4.321251,4.768276 -2.08612,0"
     stroke-miterlimit="10"
     id="path240" /><path
     inkscape:connector-curvature="0"
     style="fill:none;stroke:#ff4c00;stroke-width:2.98017263;stroke-linecap:round;stroke-linejoin:round;stroke-miterlimit:10;stroke-opacity:1"
     d="m 39.506082,59.806883 c 5.364311,-0.149008 7.748449,-2.831164 8.195475,-5.36431 0.298017,-3.129182 1.490086,-13.559786 -2.980173,-13.559786 l -5.215302,0"
     stroke-miterlimit="10"
     id="path242" /></svg>