<?xml version="1.0" encoding="UTF-8" standalone="no"?>
<!-- Created with Inkscape (http://www.inkscape.org/) -->

<svg
   xmlns:dc="http://purl.org/dc/elements/1.1/"
   xmlns:cc="http://creativecommons.org/ns#"
   xmlns:rdf="http://www.w3.org/1999/02/22-rdf-syntax-ns#"
   xmlns:svg="http://www.w3.org/2000/svg"
   xmlns="http://www.w3.org/2000/svg"
   xmlns:sodipodi="http://sodipodi.sourceforge.net/DTD/sodipodi-0.dtd"
   xmlns:inkscape="http://www.inkscape.org/namespaces/inkscape"
   width="128"
   height="128"
   viewBox="0 0 128 128"
   id="svg4940"
   version="1.1"
   inkscape:version="0.91 r13725"
   sodipodi:docname="audit5s.svg">
  <defs
     id="defs4942" />
  <sodipodi:namedview
     id="base"
     pagecolor="#ffffff"
     bordercolor="#666666"
     borderopacity="1.0"
     inkscape:pageopacity="0.0"
     inkscape:pageshadow="2"
     inkscape:zoom="2.8"
     inkscape:cx="17.306004"
     inkscape:cy="49.34544"
     inkscape:document-units="px"
     inkscape:current-layer="layer1"
     showgrid="false"
     inkscape:window-width="1920"
     inkscape:window-height="1035"
     inkscape:window-x="0"
     inkscape:window-y="24"
     inkscape:window-maximized="1"
     units="px" />
  <metadata
     id="metadata4945">
    <rdf:RDF>
      <cc:Work
         rdf:about="">
        <dc:format>image/svg+xml</dc:format>
        <dc:type
           rdf:resource="http://purl.org/dc/dcmitype/StillImage" />
        <dc:title />
      </cc:Work>
    </rdf:RDF>
  </metadata>
  <g
     inkscape:label="Layer 1"
     inkscape:groupmode="layer"
     id="layer1"
     transform="translate(0,-924.36216)">
    <path
       style="color:#000000;font-style:normal;font-variant:normal;font-weight:normal;font-stretch:normal;font-size:medium;line-height:normal;font-family:sans-serif;text-indent:0;text-align:start;text-decoration:none;text-decoration-line:none;text-decoration-style:solid;text-decoration-color:#000000;letter-spacing:normal;word-spacing:normal;text-transform:none;direction:ltr;block-progression:tb;writing-mode:lr-tb;baseline-shift:baseline;text-anchor:start;white-space:normal;clip-rule:nonzero;display:inline;overflow:visible;visibility:visible;opacity:1;isolation:auto;mix-blend-mode:normal;color-interpolation:sRGB;color-interpolation-filters:linearRGB;solid-color:#000000;solid-opacity:1;fill:#3b97d3;fill-opacity:1;fill-rule:nonzero;stroke:none;stroke-width:2;stroke-linecap:butt;stroke-linejoin:round;stroke-miterlimit:4;stroke-dasharray:none;stroke-dashoffset:0;stroke-opacity:1;color-rendering:auto;image-rendering:auto;shape-rendering:auto;text-rendering:auto;enable-background:accumulate"
       d="m 63.150143,938.36699 c -1.46217,0.0185 -2.87647,0.068 -3.75737,0.15542 -5.17912,0.51348 -10.06161,1.72947 -14.65695,3.65037 a 1.0201316,1.0202942 0 0 0 0.014,1.88896 c 0.71843,0.28693 1.91697,0.77235 5.61415,2.27351 0.69972,0.2841 1.79637,0.73837 2.41859,1.00226 0.25274,0.1072 0.48196,0.20183 0.69927,0.29091 -0.003,0.009 -0.004,0.0149 -0.008,0.0239 -0.17026,0.43567 -0.38129,0.94276 -0.48412,1.16365 -0.0646,0.13874 -0.12028,0.28098 -0.2311,0.54994 -0.1108,0.26898 -0.25082,0.61287 -0.39446,0.96839 -0.28458,0.70435 -0.80501,1.98516 -1.1555,2.8414 -0.35386,0.86445 -0.68256,1.67962 -0.79491,1.99654 -0.0242,0.0684 -0.0576,0.14128 -0.0738,0.17335 0,0 0.002,0 0.002,0 0.0154,-0.0236 -0.0269,-0.0725 0.27493,-0.25902 -0.37542,0.23209 -0.47383,0.53406 -0.52396,0.73525 -0.0501,0.20119 -0.0495,0.36032 -0.0339,0.52005 0.0156,0.15974 0.0459,0.31704 0.13348,0.50412 0.0876,0.18709 0.24005,0.46255 0.64947,0.6197 0.35654,0.13689 0.41998,0.073 0.50404,0.0657 0.084,-0.007 0.14369,-0.0181 0.20321,-0.0299 0.11904,-0.0237 0.23352,-0.0543 0.36458,-0.0916 0.2621,-0.0747 0.57632,-0.17799 0.90647,-0.29888 1.83771,-0.67295 4.15465,-1.26353 6.16003,-1.56815 1.73155,-0.26303 2.59899,-0.31722 5.0324,-0.31682 2.96646,6e-4 3.99285,0.0977 6.92107,0.65954 0.5018,0.0963 2.73956,0.70595 3.62588,1.00226 1.87103,0.6255 4.9449,2.01806 6.05443,2.71187 0.97551,0.61002 3.22868,2.1354 3.51831,2.3592 l 0.50404,0.39055 a 1.0201316,1.0202942 0 0 0 0.62955,0.2132 l 5.82932,-0.0259 c 1.60663,-0.007 3.07667,-0.0233 4.15383,-0.0418 0.53859,-0.009 0.97711,-0.0192 1.29297,-0.0299 0.15793,-0.005 0.28447,-0.0115 0.3865,-0.018 0.051,-0.003 0.0938,-0.005 0.14941,-0.0119 0.0277,-0.003 0.0564,-0.006 0.11356,-0.018 0.0286,-0.006 0.0625,-0.012 0.12751,-0.0339 0.0325,-0.0109 0.0719,-0.0261 0.13149,-0.0558 0.0298,-0.0148 0.10733,-0.0596 0.10757,-0.0598 2.6e-4,-1.6e-4 0.15125,-0.12138 0.15141,-0.12154 1.8e-4,-1.7e-4 0.11539,-0.13328 0.11555,-0.13351 1.8e-4,-2.3e-4 0.0474,-0.0724 0.0638,-0.10161 0.0326,-0.0585 0.0506,-0.1012 0.0637,-0.13549 0.0263,-0.0686 0.0345,-0.10605 0.0418,-0.13749 0.0148,-0.0629 0.0181,-0.0945 0.0219,-0.12354 0.008,-0.0582 0.0107,-0.0985 0.014,-0.14546 0.006,-0.0938 0.0113,-0.20428 0.0159,-0.34073 0.009,-0.27288 0.0176,-0.64697 0.0239,-1.10587 0.0125,-0.91778 0.0187,-2.16678 0.0159,-3.53082 -0.003,-1.76041 0.009,-3.26752 0.0299,-4.16047 a 1.0201316,1.0202942 0 0 0 -0.33071,-0.77511 c -8.39255,-7.70565 -19.18544,-12.30731 -30.71048,-13.03136 -0.95913,-0.0603 -2.40302,-0.0722 -3.83109,-0.0558 a 1.0201316,1.0202942 0 0 0 -0.0936,-0.002 z m 0.0259,2.04038 c 1.42906,-0.0181 2.89932,-9.8e-4 3.77132,0.0538 10.92118,0.68611 21.12169,5.02274 29.12464,12.24031 -0.0165,0.93442 -0.0286,2.13955 -0.0259,3.69422 0.003,1.35522 -0.004,2.59694 -0.0159,3.49894 -0.003,0.2293 -0.008,0.36071 -0.0119,0.54198 -0.24879,0.006 -0.46526,0.012 -0.80487,0.0179 -1.06425,0.0184 -2.52843,0.0345 -4.12794,0.0418 l -5.47669,0.0259 -0.22712,-0.17534 a 1.0201316,1.0202942 0 0 0 0,-0.002 c -0.61481,-0.47546 -2.63242,-1.8149 -3.68764,-2.47476 -1.45367,-0.90901 -4.4143,-2.2236 -6.48874,-2.9171 -1.03671,-0.34658 -3.04442,-0.90838 -3.88688,-1.07001 -2.97753,-0.57124 -4.28864,-0.69679 -7.30556,-0.69741 -2.46759,-4e-4 -3.54341,0.0679 -5.33921,0.34074 -1.98248,0.30114 -4.13274,0.88273 -6.02058,1.53426 0.14851,-0.37546 0.23868,-0.61446 0.44229,-1.11184 0.35227,-0.86056 0.87282,-2.14186 1.15949,-2.85136 0.14198,-0.3514 0.28195,-0.69103 0.39047,-0.95444 0.10853,-0.2634 0.21081,-0.504 0.19325,-0.46626 0.15041,-0.3231 0.35392,-0.82061 0.53392,-1.28121 0.09,-0.2303 0.17212,-0.4464 0.23509,-0.62168 0.0315,-0.0876 0.0587,-0.16417 0.0817,-0.23712 0.0115,-0.0365 0.0219,-0.0712 0.0339,-0.11756 0.0119,-0.0463 0.0378,-0.0478 0.0378,-0.28892 0,-0.51095 -0.24096,-0.72192 -0.40443,-0.86676 -0.16346,-0.14486 -0.32693,-0.23249 -0.52595,-0.29291 0.10564,0.032 -0.15562,-0.0587 -0.39446,-0.15543 -0.23884,-0.0968 -0.546,-0.2249 -0.85666,-0.35666 -0.63995,-0.27141 -1.73259,-0.72435 -2.44648,-1.01421 -2.00593,-0.81447 -2.19295,-0.88775 -3.05213,-1.23539 3.66204,-1.28996 7.45966,-2.25421 11.51319,-2.65609 0.73563,-0.0729 2.15275,-0.1274 3.58206,-0.14546 z m -22.26135,3.6982 a 1.0201316,1.0202942 0 0 0 -0.48213,0.12154 1.0201316,1.0202942 0 0 0 -0.006,0.004 c -0.001,7e-4 -0.003,0.001 -0.004,0.002 a 1.0201316,1.0202942 0 0 0 -0.10957,0.0698 c -2.0934,1.13238 -4.12837,2.41025 -6.09627,3.86357 -4.12909,3.0494 -8.18222,7.18522 -11.09083,11.31976 -4.58494,6.51743 -7.56896,14.07431 -8.67423,21.968 -0.60448,4.31697 -0.60195,9.53153 0.006,13.92203 0.20489,1.47972 0.48948,2.96701 0.84073,4.44741 a 1.0201316,1.0202942 0 0 0 1.85079,0.31682 c 0.5977,-0.93027 1.41427,-2.27684 2.34885,-3.87754 0.24744,-0.42379 0.8584,-1.43525 1.42645,-2.36716 0.42435,-0.69614 0.68081,-1.10697 0.88655,-1.43663 0.17176,0.10059 0.3111,0.1844 0.47416,0.27896 0.30044,0.17422 1.00948,0.60626 1.53005,0.93252 0.85719,0.53721 3.41072,2.08417 4.02831,2.43889 0.30861,0.17726 0.78592,0.46978 1.39059,0.85282 0.25213,0.15972 0.46004,0.28603 0.6953,0.39054 0.23525,0.1045 0.57158,0.32137 1.15948,0.0378 0.29395,-0.14175 0.50857,-0.44376 0.58572,-0.66552 0.0771,-0.22176 0.0776,-0.38205 0.0737,-0.52006 -0.008,-0.27602 -0.0562,-0.48982 -0.11753,-0.75119 -0.62117,-2.64459 -0.90629,-7.15773 -0.62557,-10.07838 0.16001,-1.66478 0.49688,-3.69027 0.80487,-4.88975 0.50411,-1.96326 0.53158,-2.05192 1.26308,-4.08675 0.70347,-1.95683 2.76191,-5.72843 4.1877,-7.64347 0.34136,-0.4585 0.82409,-1.07681 1.22523,-1.57612 0.20058,-0.24966 0.38231,-0.47035 0.51201,-0.62367 0.0649,-0.0766 0.11766,-0.13697 0.14543,-0.16738 0.008,-0.009 0.006,-0.006 0.008,-0.008 0.002,-0.002 0.0173,-0.0116 0.0199,-0.014 0.0361,-0.0319 0.0605,-0.0566 0.0857,-0.0817 0.0505,-0.0502 0.10058,-0.10385 0.15739,-0.16539 0.11364,-0.12307 0.24944,-0.27719 0.39248,-0.44434 0.18663,-0.2181 0.91399,-0.94748 1.47426,-1.45856 0.58713,-0.53557 1.23067,-1.12442 1.4364,-1.3131 0.24403,-0.22377 1.76005,-1.37791 2.4923,-1.86503 0.79062,-0.52594 1.22998,-0.76732 1.63165,-1.25133 0.40168,-0.48402 0.54246,-0.9567 0.86065,-1.76541 0.50446,-1.2821 1.85405,-4.58954 2.33093,-5.71467 0.24117,-0.569 0.50037,-1.20885 0.6156,-1.53029 0.0758,-0.21142 0.23164,-0.5709 0.26099,-0.62766 0.15254,-0.29502 0.24125,-0.59231 0.255,-0.92654 0.0138,-0.33422 -0.007,-0.85762 -0.58572,-1.22144 -0.22449,-0.14095 -0.18729,-0.1007 -0.27493,-0.13948 -0.0881,-0.039 -0.19841,-0.0865 -0.32871,-0.14147 -0.2606,-0.10992 -0.59837,-0.24823 -0.95628,-0.39253 -0.70383,-0.28379 -2.17124,-0.87907 -3.25533,-1.32108 -1.08689,-0.44314 -2.71724,-1.10517 -3.62589,-1.4725 -0.29747,-0.12026 -0.53275,-0.22182 -0.78096,-0.32877 a 1.0201316,1.0202942 0 0 0 -0.0378,-0.0159 1.0201316,1.0202942 0 0 0 -0.40443,-0.0837 z m 0.0936,2.16592 c 0.12244,0.0517 0.22092,0.0973 0.36458,0.15541 0.90536,0.36602 2.53589,1.02655 3.61991,1.46853 1.08683,0.44312 2.55351,1.03887 3.2633,1.32505 0.26924,0.10855 0.49784,0.20236 0.71521,0.2929 -0.0838,0.18995 -0.17202,0.37771 -0.24305,0.57586 -0.069,0.19231 -0.3441,0.88081 -0.57377,1.42269 -0.49751,1.17381 -1.82879,4.44071 -2.34885,5.76249 -0.32753,0.83243 -0.44192,1.09862 -0.53393,1.20948 -0.092,0.11087 -0.38486,0.31896 -1.19335,0.85681 -0.85202,0.5668 -2.17596,1.54368 -2.73934,2.06031 -0.19816,0.18171 -0.84559,0.77182 -1.43243,1.30712 -0.61368,0.5598 -1.29163,1.22392 -1.64758,1.63988 -0.12826,0.14987 -0.2534,0.29186 -0.34267,0.38855 -0.0438,0.0473 -0.0796,0.0835 -0.0956,0.0997 0.0131,-0.0115 0.0139,-0.0392 0.21716,-0.1355 -0.30041,0.14063 -0.26838,0.17577 -0.30482,0.21122 -0.0387,0.0376 -0.066,0.0671 -0.0956,0.0997 -0.0593,0.0649 -0.1229,0.13728 -0.19724,0.22516 -0.14868,0.17577 -0.33817,0.40698 -0.54586,0.66552 -0.41541,0.51706 -0.90282,1.14197 -1.26906,1.6339 -1.61378,2.16753 -3.63593,5.84613 -4.4726,8.17349 -0.7333,2.03981 -0.81332,2.2992 -1.31887,4.26807 -0.35398,1.3786 -0.68811,3.42825 -0.85865,5.20258 -0.27541,2.86534 -0.0274,6.61363 0.50802,9.54039 -0.19959,-0.12139 -0.47176,-0.29338 -0.62358,-0.38058 -0.48574,-0.279 -3.1579,-1.89599 -3.96058,-2.39904 -0.53965,-0.33822 -1.23393,-0.76202 -1.58981,-0.96838 -0.32494,-0.18844 -0.75686,-0.44223 -0.94432,-0.55394 l -0.35861,-0.21321 a 1.0201316,1.0202942 0 0 0 -1.36668,0.30288 l -0.21715,0.31881 c -0.19746,0.29102 -0.66997,1.06943 -1.24117,2.00651 -0.5712,0.93707 -1.17375,1.93554 -1.44438,2.39904 -0.37724,0.64613 -0.60811,1.00292 -0.93834,1.5522 -0.10119,-0.56254 -0.24343,-1.12926 -0.32076,-1.68769 -0.57749,-4.17068 -0.57857,-9.27086 -0.006,-13.36014 1.06013,-7.57117 3.92418,-14.82644 8.32162,-21.07732 2.76214,-3.92636 6.70352,-7.94834 10.6346,-10.8515 1.80211,-1.33089 3.66984,-2.4872 5.58028,-3.5368 z m 59.542237,8.41259 a 1.0201316,1.0202942 0 0 0 -1.029987,1.02019 l 0,0.018 0.002,4.01502 0.004,4.23419 -4.43473,0 c -1.50275,0 -2.88503,0.006 -3.90481,0.0159 -0.50989,0.005 -0.92904,0.0111 -1.23122,0.018 -0.15108,0.003 -0.27073,0.008 -0.36657,0.0119 -0.0479,0.002 -0.0886,0.004 -0.13349,0.008 -0.0224,0.002 -0.0458,0.003 -0.0817,0.008 -0.0359,0.005 -0.0404,-0.0178 -0.24703,0.0617 -0.4756,0.18228 -0.7989,0.42525 -0.7989,1.13577 0,0.50399 0.10099,0.45744 0.13747,0.52603 0.0365,0.0686 0.0667,0.11506 0.0997,0.16539 0.0658,0.10069 0.13969,0.20503 0.22911,0.32479 0.17883,0.23951 0.4132,0.53342 0.67138,0.84285 0.40973,0.49104 0.98538,1.24044 1.48225,1.91685 0.49685,0.6764 0.95999,1.3761 0.99412,1.44062 0.13093,0.24747 0.46296,0.80964 0.8467,1.46055 1.61289,2.73588 2.66721,5.38934 3.50835,8.84099 1.1002,4.51464 1.13629,9.72957 0.0817,14.82268 l -0.12949,0.62965 a 1.0201316,1.0202942 0 0 0 0.0199,0.49217 l 0.78096,2.67601 c 0.4301,1.47467 0.95948,3.27497 1.18339,4.01697 0.21739,0.7205 0.5911,2.0031 0.8228,2.8275 0.33653,1.1973 0.53033,1.879 0.67338,2.3134 0.0715,0.2171 0.12494,0.3693 0.21516,0.5439 0.0903,0.1747 0.295557,0.4715 0.645487,0.6058 0.3011,0.1157 0.38726,0.077 0.4861,0.074 0.0988,-0 0.17807,-0.013 0.259,-0.026 0.16186,-0.026 0.32295,-0.065 0.49208,-0.1176 0.20471,-0.064 0.98141,-0.2913 1.65755,-0.4822 0.68984,-0.1948 1.90732,-0.5473 2.72141,-0.7891 0.80246,-0.2383 1.69832,-0.4965 1.89462,-0.5479 a 1.0201316,1.0202942 0 0 0 0.002,0 c 0.29751,-0.078 0.95963,-0.2696 1.54797,-0.4464 a 1.0201316,1.0202942 0 0 0 0.002,0 c 0.081,-0.024 0.14301,-0.042 0.23906,-0.07 a 1.0201316,1.0202942 0 0 0 0.6694,-0.6097 c 1.33456,-3.4259 2.31824,-7.03124 2.8788,-10.65422 0.78647,-5.08312 0.7415,-11.19814 -0.12353,-16.12979 -1.62724,-9.27709 -5.72529,-17.75192 -11.93155,-24.74564 -0.002,-0.002 -0.002,-0.004 -0.004,-0.006 a 1.0201316,1.0202942 0 0 0 -0.0797,-0.0997 1.0201316,1.0202942 0 0 0 -0.54786,-0.3208 1.0201316,1.0202942 0 0 0 -0.20321,-0.0219 z m 1.01207,3.99908 c 4.95593,6.2727 8.34328,13.56158 9.74406,21.54757 0.81676,4.65646 0.86374,10.64153 0.11754,15.46428 -0.51215,3.31019 -1.41789,6.61009 -2.61183,9.76559 -0.49586,0.1467 -1.05533,0.3096 -1.22722,0.3546 -0.30855,0.081 -1.14726,0.3225 -1.96037,0.5639 -0.80148,0.2381 -2.02021,0.593 -2.69352,0.7831 -0.54622,0.1543 -1.00313,0.2879 -1.3607,0.3945 -0.11983,-0.3854 -0.26466,-0.8802 -0.54985,-1.8949 -0.23666,-0.842 -0.60832,-2.1214 -0.83277,-2.8653 -0.217937,-0.7223 -0.750747,-2.5274 -1.179407,-3.99708 l -0.71123,-2.43291 0.0797,-0.38058 c 1.11222,-5.3714 1.08527,-10.86537 -0.0976,-15.71933 -0.87784,-3.60224 -2.0236,-6.49452 -3.73348,-9.39494 -0.37872,-0.6424 -0.7892,-1.35678 -0.80088,-1.37885 -0.23411,-0.44238 -0.63494,-0.99043 -1.15151,-1.69368 -0.45387,-0.61786 -0.94503,-1.2464 -1.37266,-1.77139 1.00877,-0.0102 2.37923,-0.0159 3.87093,-0.0159 l 5.454757,0 a 1.0201316,1.0202942 0 0 0 1.02003,-1.0202 l -0.004,-5.25637 0,-1.05208 z m -80.241677,33.489 c 0.10047,0.0599 0.30002,0.17647 0.46817,0.27498 l -0.002,0.004 -0.46618,-0.27896 z m 1.57785,2.80154 c -0.3725,-0.0499 -0.9124,0.17825 -1.13558,0.40848 -0.2235,0.23059 -0.32647,0.42441 -0.47016,0.6715 -0.12539,0.21559 -0.32227,0.54049 -0.40642,0.67149 -0.21854,0.3402 -0.28209,0.44663 -2.36878,3.91343 -0.81821,1.3593 -1.55748,2.5824 -1.79103,2.9689 a 1.0201316,1.0202942 0 0 0 -0.0916,0.8568 c 1.20004,3.5342 2.77485,6.932 4.6519,9.9548 2.66733,4.2955 6.11684,8.4053 9.68231,11.527 8.59624,7.5263 19.36722,11.8738 30.72839,12.3997 0.17937,0.01 0.35665,0.011 0.51599,0.016 a 1.0201316,1.0202942 0 0 0 0.7431,-1.7495 c -0.46382,-0.4514 -1.1926,-1.1523 -1.8209,-1.7494 -0.31416,-0.2986 -0.60313,-0.5696 -0.82081,-0.7731 -0.10884,-0.1018 -0.19819,-0.1866 -0.26895,-0.2511 -0.0354,-0.032 -0.0666,-0.058 -0.0956,-0.084 -0.0291,-0.025 0.0327,-0 -0.16735,-0.1275 0.12992,0.081 0.0962,0.069 0.0996,0.072 0.003,0 -10e-4,-0 -0.0102,-0.01 -0.0168,-0.015 -0.0486,-0.042 -0.0876,-0.078 -0.0782,-0.071 -0.19153,-0.177 -0.32871,-0.3049 -0.27437,-0.2557 -0.64555,-0.6044 -1.04394,-0.9823 -0.73358,-0.6959 -1.4568,-1.3805 -1.81892,-1.7196 0.24897,-0.2721 0.52406,-0.5714 0.87858,-0.9524 0.87492,-0.9404 1.98417,-2.1187 2.91067,-3.0865 0.9574,-1.0001 1.68543,-1.7845 2.18351,-2.3532 0.24903,-0.2844 0.43978,-0.5116 0.58572,-0.7074 0.0729,-0.098 0.13309,-0.1834 0.19922,-0.3029 0.0331,-0.06 0.0696,-0.1249 0.10758,-0.245 0.038,-0.1202 0.13425,-0.3179 -0.0159,-0.7094 -0.12856,-0.3352 -0.37781,-0.5147 -0.54189,-0.6018 -0.16409,-0.087 -0.28751,-0.1182 -0.40642,-0.1454 -0.23783,-0.054 -0.46923,-0.076 -0.77698,-0.1 -4.25788,-0.3207 -8.23004,-1.3745 -12.09293,-3.21 -1.36276,-0.6476 -2.33579,-1.2052 -4.05621,-2.3254 -0.74027,-0.482 -0.78251,-0.5147 -2.4923,-1.873 -0.53927,-0.4284 -1.50108,-1.3044 -2.37276,-2.1499 -0.87168,-0.8456 -1.71035,-1.7344 -1.90858,-1.9946 -0.20855,-0.2737 -0.64155,-0.8277 -0.97819,-1.2533 -0.76057,-0.9617 -1.40789,-1.9083 -2.1815,-3.1861 -0.69084,-1.1411 -0.63374,-1.0344 -1.55594,-2.8673 l -0.62358,-1.2394 a 1.0201316,1.0202942 0 0 0 -0.41439,-0.4324 l -0.72119,-0.4005 c -0.37161,-0.2068 -1.02974,-0.59541 -1.4125,-0.83289 -1.07808,-0.66885 -1.83871,-1.13837 -2.35085,-1.45058 -0.25607,-0.1561 -0.4507,-0.27257 -0.59369,-0.35667 -0.14299,-0.0841 -0.15375,-0.10822 -0.36458,-0.19726 0.17071,0.072 0.037,0.016 -0.0318,-0.0239 -0.069,-0.0399 -0.16734,-0.0987 -0.28488,-0.16937 -0.23509,-0.14132 -0.54641,-0.33039 -0.87062,-0.53202 -0.66495,-0.41354 -1.19825,-0.74991 -1.54598,-0.92654 -0.0634,-0.0321 -0.39531,-0.2248 -0.5897,-0.35268 -0.27396,-0.18021 -0.57352,-0.36011 -0.8487,-0.48818 -0.048,-0.0223 -0.14062,-0.0384 -0.19922,-0.0618 -7.1e-4,-2.8e-4 -10e-4,-0.002 -0.002,-0.002 a 1.0201316,1.0202942 0 0 0 -0.32474,-0.10161 c -8.5e-4,-1.2e-4 -0.001,1.2e-4 -0.002,0 z m 0.0698,2.24961 c 0.0759,0.0449 0.12838,0.0702 0.18529,0.1076 a 1.0201316,1.0202942 0 0 0 0.002,0 c 0.25998,0.171 0.54732,0.34656 0.78693,0.46825 -0.0448,-0.0227 0.74291,0.43607 1.39059,0.83887 0.33212,0.20655 0.64941,0.40139 0.89651,0.54995 0.12355,0.0743 0.22982,0.13609 0.31478,0.1853 0.085,0.0492 0.0527,0.0515 0.26098,0.13948 -0.14933,-0.063 -0.002,0.002 0.12352,0.0757 0.12592,0.0741 0.31455,0.18557 0.5658,0.33874 0.50248,0.3063 1.26269,0.7749 2.33889,1.4426 0.42502,0.2637 1.0737,0.6487 1.49418,0.8827 a 1.0201316,1.0202942 0 0 0 0.002,0 l 0.44428,0.2471 0.48411,0.9584 c 0.9218,1.8321 0.94173,1.8692 1.63165,3.0088 0.80512,1.3298 1.51224,2.3632 2.32694,3.3933 0.32842,0.4153 0.76676,0.9767 0.95628,1.2255 0.41947,0.5505 1.20813,1.347 2.10979,2.2217 0.90167,0.8746 1.85941,1.7533 2.52418,2.2814 1.71151,1.3597 1.89494,1.4965 2.64769,1.9866 1.75809,1.1447 2.86025,1.777 4.29528,2.4588 3.794,1.8028 7.74625,2.8323 11.8957,3.2499 -0.45243,0.5031 -0.96343,1.0627 -1.73725,1.871 -0.93594,0.9777 -2.04879,2.1606 -2.93058,3.1084 -0.4409,0.4739 -0.8237,0.8878 -1.09973,1.1916 -0.13801,0.1519 -0.24792,0.2758 -0.33071,0.3706 -0.0414,0.047 -0.0754,0.085 -0.10957,0.1275 -0.0171,0.021 -0.0339,0.042 -0.0618,0.082 -0.014,0.02 -0.0298,0.041 -0.0598,0.094 -0.015,0.026 -0.034,0.058 -0.0598,0.1216 -0.013,0.032 -0.0438,0.1292 -0.0439,0.1295 -9e-5,3e-4 -0.0318,0.2588 -0.0318,0.259 0,5e-4 0.007,0.1339 0.0159,0.1833 0.009,0.049 0.0195,0.088 0.0299,0.1216 0.0207,0.067 0.0409,0.1104 0.0577,0.1454 0.0337,0.07 0.0574,0.107 0.0777,0.1375 0.0406,0.061 0.067,0.093 0.0936,0.1256 0.0532,0.064 0.10361,0.1167 0.16137,0.1773 0.11552,0.1212 0.2584,0.2613 0.41638,0.4085 0.27967,0.2605 1.1769,1.1087 1.97631,1.867 0.40217,0.3815 0.77536,0.7328 1.05588,0.9943 0.14028,0.1307 0.25717,0.2389 0.34466,0.3188 0.0438,0.04 0.0798,0.072 0.11157,0.1 0.0159,0.014 0.0294,0.026 0.0478,0.042 0.0183,0.015 -10e-4,0.014 0.1295,0.096 -0.18931,-0.1187 -0.0999,-0.073 -0.0897,-0.064 0.0102,0.01 0.0323,0.029 0.0617,0.056 0.0588,0.054 0.14572,0.1347 0.25103,0.2331 0.11263,0.1054 0.28422,0.2685 0.4323,0.4085 -9.98782,-0.9757 -19.41369,-4.8973 -27.04272,-11.5768 -3.38693,-2.9653 -6.73344,-6.9486 -9.29184,-11.0687 -1.70911,-2.7524 -3.15184,-5.8734 -4.28532,-9.114 0.3187,-0.528 0.83092,-1.377 1.53005,-2.5385 2.08669,-3.46676 2.1238,-3.52984 2.33689,-3.86157 0.0975,-0.15179 0.23956,-0.39121 0.36658,-0.60574 z m 72.28066,4.30789 a 1.0201316,1.0202942 0 0 0 -0.1514,0.016 c -0.41072,0.074 -0.58173,0.2747 -0.70327,0.4085 -0.12153,0.1338 -0.2005,0.2551 -0.28688,0.3945 -0.17274,0.2788 -0.35789,0.6308 -0.60962,1.1298 -1.08659,2.1538 -2.52196,4.3198 -4.08013,6.157 -0.70501,0.8313 -3.336,3.4526 -3.78527,3.8138 -0.26239,0.211 -0.72373,0.591 -1.04593,0.8608 -0.29026,0.2431 -0.73059,0.5786 -0.83077,0.6456 -0.20577,0.1377 -0.48676,0.3336 -0.66342,0.4623 -2.69023,1.9588 -6.41819,3.7544 -10.05087,4.8259 -1.10834,0.327 -3.38206,0.7921 -4.51045,0.9226 l -0.82677,0.096 a 1.0201316,1.0202942 0 0 0 -0.61362,0.3029 l -0.78294,0.803 c -1.04185,1.0705 -2.73035,2.8524 -4.17376,4.3936 -0.72171,0.7705 -1.38194,1.4803 -1.86873,2.0105 -0.2434,0.2651 -0.44154,0.4853 -0.58771,0.6495 -0.0731,0.082 -0.13386,0.1488 -0.18329,0.2073 -0.0247,0.029 -0.0463,0.057 -0.0717,0.09 -0.0254,0.033 -0.0321,-0.01 -0.13946,0.2231 0.0313,-0.067 0.0376,-0.083 -0.0259,0.046 -0.0634,0.1292 -0.14547,0.4733 -0.0897,0.7293 0.11163,0.5121 0.28997,0.5804 0.46219,0.7612 0.34446,0.3614 0.97014,0.9372 2.35683,2.2396 2.55469,2.399 3.84011,3.6199 4.48853,4.2641 a 1.0201316,1.0202942 0 0 0 0.77299,0.2949 c 0.70583,-0.038 1.44752,-0.087 1.99225,-0.1474 9.49836,-1.0492 18.0724,-4.5233 25.58243,-10.3673 4.36059,-3.3933 8.244427,-7.6591 11.359787,-12.4715 0.90748,-1.4018 1.74594,-2.878 2.51222,-4.4095 a 1.0201316,1.0202942 0 0 0 -1.19137,-1.4387 c -0.98618,0.2812 -2.94507,0.8522 -5.36312,1.5662 -0.85779,0.2533 -1.71478,0.5064 -1.87868,0.5539 -0.16715,0.048 -0.630827,0.1845 -1.049907,0.3069 -0.0123,-0.043 -0.0186,-0.069 -0.0318,-0.1156 -0.12112,-0.4234 -0.28139,-0.9775 -0.45224,-1.5602 -0.34014,-1.1599 -0.7741,-2.6472 -0.96226,-3.2997 -0.53314,-1.8486 -0.85177,-2.9427 -1.05389,-3.6085 -0.20213,-0.6657 -0.21814,-0.8426 -0.44228,-1.1975 -0.0639,-0.1012 -0.15415,-0.2348 -0.35263,-0.3686 -0.0164,-0.011 -0.0495,-0 -0.0677,-0.014 a 1.0201316,1.0202942 0 0 0 -0.59966,-0.1754 z m -0.21316,3.2937 c 0.19582,0.6629 0.37704,1.2771 0.769,2.6362 0.19047,0.6604 0.62324,2.1468 0.96425,3.3097 0.16972,0.5787 0.32884,1.1268 0.44826,1.5442 0.0597,0.2087 0.10979,0.386 0.14543,0.5141 0.0356,0.128 0.068,0.2631 0.0518,0.1873 0.0307,0.1429 0.0721,0.2609 0.13348,0.3885 0.0614,0.1276 0.0362,0.2634 0.45024,0.5201 a 1.0201316,1.0202942 0 0 0 0,0 c 0.40695,0.2514 0.48539,0.1554 0.56979,0.1554 0.0844,-10e-5 0.13524,-0.01 0.18528,-0.012 0.10006,-0.012 0.18705,-0.029 0.28489,-0.05 0.19567,-0.041 0.42404,-0.098 0.6674,-0.1694 0.442457,-0.1292 0.950927,-0.2781 1.125617,-0.3288 0.1895,-0.055 1.02792,-0.3023 1.88666,-0.5559 1.3245,-0.3911 1.96963,-0.5763 2.93258,-0.8568 -0.39457,0.6911 -0.75617,1.4154 -1.1814,2.0723 -2.9937,4.6245 -6.729997,8.7267 -10.899567,11.9713 -7.22655,5.6235 -15.40992,8.9388 -24.55444,9.9489 -0.35647,0.039 -0.91633,0.075 -1.44836,0.1076 -0.7237,-0.7109 -1.82054,-1.76 -4.18371,-3.9792 -1.1474,-1.0776 -1.56049,-1.4728 -1.87869,-1.7853 0.0905,-0.1 0.1536,-0.1696 0.26497,-0.2909 0.47901,-0.5217 1.1342,-1.2293 1.85278,-1.9966 1.43717,-1.5344 3.12709,-3.3148 4.14786,-4.3637 l 0.52994,-0.5459 0.46618,-0.054 c 1.34276,-0.1553 3.54188,-0.6041 4.85112,-0.9903 3.85899,-1.1384 7.74519,-3.0005 10.67644,-5.1349 0.13591,-0.099 0.4223,-0.3004 0.59568,-0.4164 0.279,-0.1867 0.66509,-0.4896 1.00609,-0.7751 0.30904,-0.2588 0.776,-0.6419 1.01604,-0.8349 0.91551,-0.7361 3.16391,-3.0256 4.0622,-4.0848 1.56058,-1.8401 2.93239,-3.9804 4.06219,-6.1331 z"
       id="path4242"
       inkscape:connector-curvature="0" />
    <path
       style="fill:#5c5c5c;fill-opacity:0.99215686"
       d="m 78.706803,1006.7917 c 1.31703,-0.2124 2.29569,-0.4977 3.17809,-0.9264 1.7384,-0.8447 2.78696,-2.3683 3.27364,-4.7568 0.48358,-2.37334 0.34474,-6.7021 -0.28608,-8.91963 -0.65516,-2.30312 -1.98969,-3.56033 -6.43434,-6.0616 -1.69298,-0.95275 -2.95903,-1.80189 -3.62901,-2.43402 -0.95283,-0.899 -1.35041,-2.02472 -1.37002,-3.87907 -0.0113,-1.06762 0.0802,-1.49326 0.40351,-1.87756 0.31293,-0.37196 0.75787,-0.54546 1.40407,-0.54752 0.70538,-0.002 1.09971,0.11982 1.43311,0.44366 0.50921,0.49462 0.55339,0.7487 0.58635,3.37257 0.0212,1.68826 0.0558,2.36273 0.12341,2.40572 0.0516,0.0329 1.8499,0.0603 3.99611,0.0609 2.93035,8e-4 3.92596,-0.0225 3.99765,-0.0943 0.12046,-0.12048 0.131,-4.43227 0.0136,-5.55385 -0.36703,-3.50553 -2.26666,-5.34988 -6.24275,-6.0611 -0.94987,-0.1699 -1.25162,-0.18474 -3.69933,-0.1819 -2.36683,0.003 -2.7764,0.0224 -3.65954,0.17568 -2.27513,0.39485 -3.57084,0.96011 -4.54339,1.98207 -0.96621,1.01528 -1.52114,2.28776 -1.78652,4.09658 -0.18654,1.27144 -0.12615,4.39946 0.11042,5.71919 0.48756,2.71987 1.42852,4.24663 3.55178,5.76302 0.37361,0.26681 1.81486,1.1646 3.20278,1.99509 2.30778,1.38088 2.58148,1.56777 3.20188,2.18628 0.7439,0.74168 1.19414,1.43661 1.43653,2.21732 0.20616,0.664 0.34513,2.21893 0.29488,3.2993 -0.0347,0.74616 -0.0707,0.92177 -0.26835,1.30827 -0.312,0.6102 -0.74635,0.8411 -1.57213,0.8358 -0.94026,-0.01 -1.47869,-0.3173 -1.82787,-1.0565 -0.1604,-0.3396 -0.17119,-0.51017 -0.20891,-3.30211 l -0.0398,-2.94402 -3.97777,0 -3.97777,0 5.3e-4,3.54078 c 5.3e-4,3.45605 0.005,3.55865 0.1883,4.28815 0.23848,0.9491 0.83261,2.1394 1.36524,2.7352 1.14188,1.2771 2.75043,1.9458 5.4866,2.2809 0.98906,0.1211 5.31175,0.045 6.27512,-0.1101 z m -23.16356,-0.1596 c 4.54139,-0.5419 6.37206,-2.1903 7.07559,-6.3713 0.13361,-0.79406 0.14687,-1.40464 0.14687,-6.76093 0,-6.17641 -0.0129,-6.45142 -0.3683,-7.87723 -0.55434,-2.22363 -1.96699,-3.55539 -4.31629,-4.06909 -0.78746,-0.17219 -2.65463,-0.23225 -3.47776,-0.11187 -1.38629,0.20272 -2.80781,0.80893 -3.94885,1.68395 -0.33567,0.25742 -0.64244,0.46802 -0.68173,0.46802 -0.0397,0 -0.0508,-0.23842 -0.025,-0.53708 0.0255,-0.29539 0.0837,-1.45013 0.12914,-2.56606 0.0455,-1.11594 0.10271,-2.25256 0.12708,-2.52581 l 0.0444,-0.49681 6.13937,-0.0204 6.13937,-0.0204 0,-2.50639 0,-2.5064 -9.9842,0 -9.9842,0 -0.0205,8.91162 c -0.0191,8.30761 -0.0113,8.91836 0.11465,9.01108 0.10367,0.0762 1.01795,0.0995 3.92342,0.0995 2.91092,0 3.81719,-0.023 3.9132,-0.0995 0.0687,-0.0547 0.20117,-0.35667 0.29433,-0.67104 0.30128,-1.01666 0.87191,-1.53695 1.75581,-1.6009 1.10916,-0.0802 1.81675,0.48233 2.06195,1.63931 0.0604,0.28482 0.0893,1.95208 0.0893,5.13759 0,5.32284 0.002,5.30484 -0.54695,5.80054 -0.40676,0.3676 -0.79921,0.494 -1.52149,0.4902 -1.04312,-0 -1.59423,-0.3909 -1.8619,-1.30176 -0.10726,-0.36505 -0.12698,-0.94303 -0.12698,-3.72177 l 0,-3.28961 -0.20407,-0.0776 c -0.12183,-0.0463 -1.67474,-0.0776 -3.85326,-0.0776 -2.17852,0 -3.73143,0.0313 -3.85325,0.0776 l -0.20407,0.0776 5.3e-4,3.68199 c 5.3e-4,4.64165 0.0836,5.29965 0.85459,6.77095 0.33853,0.6461 1.20013,1.595 1.82459,2.0096 1.18852,0.789 3.0844,1.2967 5.47477,1.4661 1.21912,0.086 3.66063,0.028 4.86996,-0.1161 z"
       id="path4230-3"
       inkscape:connector-curvature="0"
       sodipodi:nodetypes="cssssscscsscccssscssssssssscsscccsssscccsssssssssscccccccscscsssscssscsssccssscc" />
    <g
       id="g4932"
       transform="matrix(0.99754079,0,0,1.0002289,-139.40222,266.81585)">
      <path
         inkscape:connector-curvature="0"
         id="path4136"
         d="m 76.925781,543.4375 c -4.275964,-0.10679 -8.598661,0.33466 -12.865234,1.35352 l -5.207031,1.24414 4.746093,2.47461 6.435547,3.35546 -5.5625,11.33594 4.09375,-0.93945 c 9.419172,-2.16307 19.30744,0.0481 26.90625,6.01953 l 0.421875,0.33203 14.265629,2.03906 1.93554,-11.52539 -0.71289,-0.72656 C 102.16242,549.01105 89.753675,543.75786 76.925781,543.4375 Z m -0.09766,3.99805 c 11.482248,0.28566 22.563947,4.91123 30.972659,13.11718 l -0.93946,5.58789 -9.486324,-1.35546 c -7.432853,-5.61857 -16.68474,-7.94258 -25.857422,-6.86133 l 3.828125,-7.80078 -4.638672,-2.41993 c 2.043424,-0.22254 4.087863,-0.31816 6.121094,-0.26757 z m -22.486328,0.75781 -0.914063,0.45508 c -15.695443,7.83173 -26.146286,23.31902 -27.537109,40.80468 l -0.425781,5.33399 8.992187,-8.82617 9.06836,8.80468 0.373047,-4.18359 c 0.853887,-9.6155 6.003926,-18.32676 14.017578,-23.70898 l 0.443359,-0.29883 6.365234,-12.9668 -10.382812,-5.41406 z m 0.0293,4.52539 5.042968,2.63086 -4.238281,8.63281 c -7.625979,5.33212 -12.685025,13.40347 -14.490234,22.44922 l -6.244141,-6.06055 -3.730468,3.66211 c 2.783899,-13.37356 11.422595,-24.8796 23.660156,-31.31445 z m 61.171877,10.0332 -0.87891,5.22852 -1.20508,7.18555 -12.58789,-1.80079 2.22852,3.63086 c 0.57718,0.93952 1.10497,1.90825 1.58203,2.90235 3.58526,7.70961 3.95317,16.52715 1.01953,24.50781 l -0.18555,0.50391 2.47266,14.22461 11.55859,-1.72266 0.47266,-0.90039 c 7.20624,-13.78647 7.58963,-30.14695 1.03711,-44.25586 l -0.004,-0.006 -0.002,-0.006 c -0.80941,-1.71212 -1.71671,-3.37691 -2.71484,-4.98633 l -2.79297,-4.50586 z m 2.08984,11.70703 c 5.65228,12.56747 5.35897,26.97423 -0.75586,39.30664 l -5.61719,0.8379 -1.64062,-9.44727 c 3.02648,-8.72211 2.61451,-18.26325 -1.21484,-26.67383 l 8.35156,1.19531 0.87695,-5.21875 z m -83.162108,17.0918 -1.392578,1.36719 -6.974609,6.84375 0.148437,1.00586 c 0.698756,4.76497 2.080982,9.4037 4.105469,13.77344 l 0.002,0.004 0.002,0.004 c 5.302954,11.31976 14.651802,20.24472 26.205078,25.01758 l 4.933594,2.03906 -5.611328,-11.26953 11.195312,-5.91602 -3.876953,-1.64258 c -7.258999,-3.07676 -13.122738,-8.72652 -16.46875,-15.86523 -0.701223,-1.53619 -1.28033,-3.12633 -1.730469,-4.75391 l -0.144531,-0.52343 -10.392578,-10.08399 z m 0.01563,5.58984 6.88086,6.67579 c 0.480081,1.62446 1.032108,3.22836 1.736328,4.76953 l 0.0039,0.008 0.0039,0.01 c 3.202709,6.83691 8.540561,12.33773 15.070313,15.99609 l -7.613282,4.02344 2.216797,4.44922 c -8.13252,-4.6838 -14.773237,-11.62824 -18.796875,-20.21289 l -0.002,-0.004 c -6.22e-4,-0.001 -0.0013,-0.003 -0.002,-0.004 -1.724696,-3.7245 -2.885902,-7.67402 -3.566406,-11.71875 l 4.068359,-3.99219 z m 68.058598,14.03516 -2.761723,3.18945 c -2.924818,3.37861 -6.52612,6.10484 -10.570312,8.00586 -8.14e-4,3.9e-4 -0.0011,0.002 -0.002,0.002 -4.591766,2.12716 -9.622865,3.13425 -14.679688,2.9375 l -0.537109,-0.0195 -0.47461,0.25 -12.310547,6.50781 5.214844,10.47656 1.003906,0.16992 c 9.980814,1.69196 20.241054,0.31568 29.423828,-3.94531 l 0.0039,-0.002 0.0039,-0.002 c 6.474351,-3.03836 12.221711,-7.42928 16.855471,-12.87695 l 3.45117,-4.05664 -12.45117,1.85156 -2.16992,-12.48828 z m -2.587895,8.47852 1.484375,8.54101 5.16406,-0.76758 c -3.40661,3.10829 -7.243272,5.72407 -11.437497,7.69336 -5.56e-4,2.6e-4 -0.0014,-2.5e-4 -0.002,0 -0.0021,10e-4 -0.0037,0.003 -0.0059,0.004 -8.152889,3.78122 -17.225072,5.02951 -26.101562,3.7168 l -2.529297,-5.08203 8.447265,-4.46289 c 5.490476,0.12172 10.940588,-0.9865 15.927735,-3.29883 l 0.0039,-0.002 0.0059,-0.002 c 3.366308,-1.58203 6.328609,-3.81972 9.042969,-6.33984 z"
         style="color:#000000;font-style:normal;font-variant:normal;font-weight:normal;font-stretch:normal;font-size:medium;line-height:normal;font-family:sans-serif;text-indent:0;text-align:start;text-decoration:none;text-decoration-line:none;text-decoration-style:solid;text-decoration-color:#000000;letter-spacing:normal;word-spacing:normal;text-transform:none;direction:ltr;block-progression:tb;writing-mode:lr-tb;baseline-shift:baseline;text-anchor:start;white-space:normal;clip-rule:nonzero;display:inline;overflow:visible;visibility:visible;opacity:1;isolation:auto;mix-blend-mode:normal;color-interpolation:sRGB;color-interpolation-filters:linearRGB;solid-color:#000000;solid-opacity:1;fill:#ff4c00;fill-opacity:1;fill-rule:nonzero;stroke:none;stroke-width:4;stroke-linecap:square;stroke-linejoin:miter;stroke-miterlimit:4;stroke-dasharray:none;stroke-dashoffset:0;stroke-opacity:1;color-rendering:auto;image-rendering:auto;shape-rendering:auto;text-rendering:auto;enable-background:accumulate" />
      <path
         style="fill:#5c5c5c;fill-opacity:0.99215686"
         d="m 90.006925,611.48632 c 1.291172,-0.20819 2.250616,-0.48783 3.115678,-0.90809 1.704278,-0.82796 2.732247,-2.32143 3.209368,-4.66269 0.474074,-2.32633 0.337962,-6.56942 -0.280463,-8.74306 -0.642298,-2.25753 -1.950618,-3.48986 -6.308,-5.94162 -1.659732,-0.93389 -2.900916,-1.76623 -3.557754,-2.38585 -0.934114,-0.8812 -1.323891,-1.98464 -1.343108,-3.80229 -0.01107,-1.04649 0.07861,-1.4637 0.395579,-1.8404 0.306789,-0.3646 0.742989,-0.53466 1.376507,-0.53668 0.691527,-0.002 1.078113,0.11745 1.404962,0.43488 0.499214,0.48483 0.542519,0.73388 0.574844,3.30582 0.0208,1.65484 0.05472,2.31596 0.120978,2.3581 0.05064,0.0322 1.813579,0.0591 3.91764,0.0597 2.872809,7.8e-4 3.848876,-0.0221 3.919159,-0.0924 0.118097,-0.11809 0.128423,-4.34454 0.01332,-5.44392 -0.359814,-3.43615 -2.222149,-5.244 -6.120172,-5.94114 -0.931204,-0.16654 -1.227035,-0.18108 -3.626683,-0.1783 -2.32035,0.003 -2.721885,0.022 -3.587687,0.1722 -2.230443,0.38704 -3.500718,0.94111 -4.454161,1.94284 -0.947244,0.99519 -1.49127,2.24248 -1.751448,4.0155 -0.182878,1.24628 -0.123668,4.31239 0.108258,5.60599 0.477989,2.66604 1.400461,4.16258 3.482035,5.64896 0.366269,0.26153 1.77922,1.14155 3.13989,1.9556 2.262463,1.35355 2.530793,1.53674 3.138998,2.14301 0.729307,0.727 1.170698,1.40818 1.408328,2.17343 0.202112,0.65086 0.338358,2.17502 0.289092,3.234 -0.03402,0.73139 -0.06935,0.90357 -0.263074,1.28237 -0.305888,0.59812 -0.7317,0.82445 -1.541265,0.81924 -0.921796,-0.006 -1.449654,-0.31099 -1.791982,-1.03561 -0.157245,-0.33283 -0.167826,-0.50003 -0.204807,-3.23671 l -0.039,-2.88575 -3.89966,0 -3.89966,0 5.19e-4,3.4707 c 5.2e-4,3.3876 0.0049,3.48824 0.184603,4.20328 0.233795,0.93034 0.816263,2.09708 1.338431,2.68102 1.119459,1.25188 2.696415,1.90735 5.378866,2.23576 0.969638,0.11871 5.20744,0.0444 6.151904,-0.10793 z m -22.708718,-0.15647 c 4.452221,-0.53113 6.246938,-2.14696 6.93665,-6.24521 0.130988,-0.77833 0.143992,-1.37683 0.143992,-6.6271 0,-6.05417 -0.01261,-6.32373 -0.36107,-7.72132 -0.543449,-2.17962 -1.928366,-3.48502 -4.231529,-3.98856 -0.772,-0.16878 -2.602498,-0.22765 -3.409473,-0.10965 -1.359068,0.19871 -2.752679,0.79292 -3.87131,1.65062 -0.329079,0.25232 -0.629832,0.45876 -0.66834,0.45876 -0.03893,0 -0.04983,-0.23371 -0.02454,-0.52645 0.02501,-0.28955 0.08198,-1.42143 0.126603,-2.51528 0.04462,-1.09385 0.100687,-2.20797 0.124587,-2.47581 l 0.04345,-0.48698 6.018819,-0.02 6.018819,-0.02 0,-2.45679 0,-2.45679 -9.788148,0 -9.788147,0 -0.02013,8.73524 c -0.01874,8.14318 -0.01115,8.74184 0.112398,8.83273 0.101636,0.0747 0.997962,0.0975 3.846378,0.0975 2.853758,0 3.742229,-0.0225 3.836359,-0.0975 0.06737,-0.0536 0.197221,-0.34961 0.288551,-0.65776 0.295363,-0.99654 0.854787,-1.50653 1.721333,-1.56921 1.087374,-0.0786 1.781082,0.47278 2.021459,1.60686 0.05918,0.27918 0.0876,1.91344 0.0876,5.0359 0,5.21747 0.0016,5.19981 -0.536206,5.68575 -0.398777,0.36027 -0.783525,0.48419 -1.491618,0.48044 -1.022636,-0.005 -1.562927,-0.38309 -1.825332,-1.27595 -0.105164,-0.35783 -0.124498,-0.92437 -0.124498,-3.64811 l 0,-3.2245 -0.200061,-0.0761 c -0.119433,-0.0454 -1.641855,-0.0761 -3.777593,-0.0761 -2.13574,0 -3.658159,0.0307 -3.777592,0.0761 l -0.200061,0.0761 5.2e-4,3.60912 c 5.2e-4,4.5498 0.08199,5.19476 0.837808,6.63695 0.331885,0.63327 1.176559,1.56343 1.788764,1.96978 1.16518,0.77341 3.023841,1.27107 5.367272,1.43709 1.195175,0.0846 3.588743,0.0276 4.774325,-0.11382 z"
         id="path4930"
         inkscape:connector-curvature="0"
         sodipodi:nodetypes="cssssscscsscccssscssssssssscsscccsssscccsssssssssscccccccscscsssscssscsssccssscc" />
    </g>
    <g
       transform="translate(-138,394.28568)"
       id="g4139">
      <path
         style="color:#000000;font-style:normal;font-variant:normal;font-weight:normal;font-stretch:normal;font-size:medium;line-height:normal;font-family:sans-serif;text-indent:0;text-align:start;text-decoration:none;text-decoration-line:none;text-decoration-style:solid;text-decoration-color:#000000;letter-spacing:normal;word-spacing:normal;text-transform:none;direction:ltr;block-progression:tb;writing-mode:lr-tb;baseline-shift:baseline;text-anchor:start;white-space:normal;clip-rule:nonzero;display:inline;overflow:visible;visibility:visible;opacity:1;isolation:auto;mix-blend-mode:normal;color-interpolation:sRGB;color-interpolation-filters:linearRGB;solid-color:#000000;solid-opacity:1;fill:#5c5c5c;fill-opacity:0.99215686;fill-rule:nonzero;stroke:none;stroke-width:2;stroke-linecap:butt;stroke-linejoin:round;stroke-miterlimit:4;stroke-dasharray:none;stroke-dashoffset:0;stroke-opacity:1;color-rendering:auto;image-rendering:auto;shape-rendering:auto;text-rendering:auto;enable-background:accumulate"
         d="m 73.15015,544.08131 c -1.46217,0.0185 -2.87647,0.068 -3.75737,0.15542 -5.17912,0.51348 -10.06161,1.72947 -14.65695,3.65037 a 1.0201316,1.0202942 0 0 0 0.014,1.88896 c 0.71843,0.28693 1.91697,0.77235 5.61415,2.27351 0.69972,0.2841 1.79637,0.73837 2.41859,1.00226 0.25274,0.1072 0.48196,0.20183 0.69927,0.29091 -0.003,0.009 -0.004,0.0149 -0.008,0.0239 -0.17026,0.43567 -0.38129,0.94276 -0.48412,1.16365 -0.0646,0.13874 -0.12028,0.28098 -0.2311,0.54994 -0.1108,0.26898 -0.25082,0.61287 -0.39446,0.96839 -0.28458,0.70435 -0.80501,1.98516 -1.1555,2.8414 -0.35386,0.86445 -0.68256,1.67962 -0.79491,1.99654 -0.0242,0.0684 -0.0576,0.14128 -0.0738,0.17335 0,0 0.002,0 0.002,0 0.0154,-0.0236 -0.0269,-0.0725 0.27493,-0.25902 -0.37542,0.23209 -0.47383,0.53406 -0.52396,0.73525 -0.0501,0.20119 -0.0495,0.36032 -0.0339,0.52005 0.0156,0.15974 0.0459,0.31704 0.13348,0.50412 0.0876,0.18709 0.24005,0.46255 0.64947,0.6197 0.35654,0.13689 0.41998,0.073 0.50404,0.0657 0.084,-0.007 0.14369,-0.0181 0.20321,-0.0299 0.11904,-0.0237 0.23352,-0.0543 0.36458,-0.0916 0.2621,-0.0747 0.57632,-0.17799 0.90647,-0.29888 1.83771,-0.67295 4.15465,-1.26353 6.16003,-1.56815 1.73155,-0.26303 2.59899,-0.31722 5.0324,-0.31682 2.96646,6e-4 3.99285,0.0977 6.92107,0.65954 0.5018,0.0963 2.73956,0.70595 3.62588,1.00226 1.87103,0.6255 4.9449,2.01806 6.05443,2.71187 0.97551,0.61002 3.22868,2.1354 3.51831,2.3592 l 0.50404,0.39055 a 1.0201316,1.0202942 0 0 0 0.62955,0.2132 l 5.82932,-0.0259 c 1.60663,-0.007 3.07667,-0.0233 4.15383,-0.0418 0.53859,-0.009 0.97711,-0.0192 1.29297,-0.0299 0.15793,-0.005 0.28447,-0.0115 0.3865,-0.018 0.051,-0.003 0.0938,-0.005 0.14941,-0.0119 0.0277,-0.003 0.0564,-0.006 0.11356,-0.018 0.0286,-0.006 0.0625,-0.012 0.12751,-0.0339 0.0325,-0.0109 0.0719,-0.0261 0.13149,-0.0558 0.0298,-0.0148 0.10733,-0.0596 0.10757,-0.0598 2.6e-4,-1.6e-4 0.15125,-0.12138 0.15141,-0.12154 1.8e-4,-1.7e-4 0.11539,-0.13328 0.11555,-0.13351 1.8e-4,-2.3e-4 0.0474,-0.0724 0.0638,-0.10161 0.0326,-0.0585 0.0506,-0.1012 0.0637,-0.13549 0.0263,-0.0686 0.0345,-0.10605 0.0418,-0.13749 0.0148,-0.0629 0.0181,-0.0945 0.0219,-0.12354 0.008,-0.0582 0.0107,-0.0985 0.014,-0.14546 0.006,-0.0938 0.0113,-0.20428 0.0159,-0.34073 0.009,-0.27288 0.0176,-0.64697 0.0239,-1.10587 0.0125,-0.91778 0.0187,-2.16678 0.0159,-3.53082 -0.003,-1.76041 0.009,-3.26752 0.0299,-4.16047 a 1.0201316,1.0202942 0 0 0 -0.33071,-0.77511 c -8.39255,-7.70565 -19.18544,-12.30731 -30.71048,-13.03136 -0.95913,-0.0603 -2.40302,-0.0722 -3.83109,-0.0558 a 1.0201316,1.0202942 0 0 0 -0.0936,-0.002 z m 0.0259,2.04038 c 1.42906,-0.0181 2.89932,-9.8e-4 3.77132,0.0538 10.92118,0.68611 21.12169,5.02274 29.12464,12.24031 -0.0165,0.93442 -0.0286,2.13955 -0.0259,3.69422 0.003,1.35522 -0.004,2.59694 -0.0159,3.49894 -0.003,0.2293 -0.008,0.36071 -0.0119,0.54198 -0.24879,0.006 -0.46526,0.012 -0.80487,0.0179 -1.06425,0.0184 -2.52843,0.0345 -4.12794,0.0418 l -5.47669,0.0259 -0.22712,-0.17534 a 1.0201316,1.0202942 0 0 0 0,-0.002 c -0.61481,-0.47546 -2.63242,-1.8149 -3.68764,-2.47476 -1.45367,-0.90901 -4.4143,-2.2236 -6.48874,-2.9171 -1.03671,-0.34658 -3.04442,-0.90838 -3.88688,-1.07001 -2.97753,-0.57124 -4.28864,-0.69679 -7.30556,-0.69741 -2.46759,-4e-4 -3.54341,0.0679 -5.33921,0.34074 -1.98248,0.30114 -4.13274,0.88273 -6.02058,1.53426 0.14851,-0.37546 0.23868,-0.61446 0.44229,-1.11184 0.35227,-0.86056 0.87282,-2.14186 1.15949,-2.85136 0.14198,-0.3514 0.28195,-0.69103 0.39047,-0.95444 0.10853,-0.2634 0.21081,-0.504 0.19325,-0.46626 0.15041,-0.3231 0.35392,-0.82061 0.53392,-1.28121 0.09,-0.2303 0.17212,-0.4464 0.23509,-0.62168 0.0315,-0.0876 0.0587,-0.16417 0.0817,-0.23712 0.0115,-0.0365 0.0219,-0.0712 0.0339,-0.11756 0.0119,-0.0463 0.0378,-0.0478 0.0378,-0.28892 0,-0.51095 -0.24096,-0.72192 -0.40443,-0.86676 -0.16346,-0.14486 -0.32693,-0.23249 -0.52595,-0.29291 0.10564,0.032 -0.15562,-0.0587 -0.39446,-0.15543 -0.23884,-0.0968 -0.546,-0.2249 -0.85666,-0.35666 -0.63995,-0.27141 -1.73259,-0.72435 -2.44648,-1.01421 -2.00593,-0.81447 -2.19295,-0.88775 -3.05213,-1.23539 3.66204,-1.28996 7.45966,-2.25421 11.51319,-2.65609 0.73563,-0.0729 2.15275,-0.1274 3.58206,-0.14546 z m -22.26135,3.6982 a 1.0201316,1.0202942 0 0 0 -0.48213,0.12154 1.0201316,1.0202942 0 0 0 -0.006,0.004 c -10e-4,7e-4 -0.003,10e-4 -0.004,0.002 a 1.0201316,1.0202942 0 0 0 -0.10957,0.0698 c -2.0934,1.13238 -4.12837,2.41025 -6.09627,3.86357 -4.12909,3.0494 -8.18222,7.18522 -11.09083,11.31976 -4.58494,6.51743 -7.56896,14.07431 -8.67423,21.968 -0.60448,4.31697 -0.60195,9.53153 0.006,13.92203 0.20489,1.47972 0.48948,2.96701 0.84073,4.44741 a 1.0201316,1.0202942 0 0 0 1.85079,0.31681 c 0.5977,-0.93026 1.41427,-2.27683 2.34885,-3.87753 0.24744,-0.42379 0.8584,-1.43525 1.42645,-2.36716 0.42435,-0.69614 0.68081,-1.10697 0.88655,-1.43663 0.17176,0.10059 0.3111,0.1844 0.47416,0.27896 0.30044,0.17422 1.00948,0.60626 1.53005,0.93252 0.85719,0.53721 3.41072,2.08417 4.02831,2.43889 0.30861,0.17726 0.78592,0.46978 1.39059,0.85282 0.25213,0.15972 0.46004,0.28603 0.6953,0.39054 0.23525,0.1045 0.57158,0.32137 1.15948,0.0378 0.29395,-0.14175 0.50857,-0.44376 0.58572,-0.66552 0.0771,-0.22176 0.0776,-0.38205 0.0737,-0.52006 -0.008,-0.27602 -0.0562,-0.48982 -0.11753,-0.75119 -0.62117,-2.64459 -0.90629,-7.15773 -0.62557,-10.07838 0.16001,-1.66478 0.49688,-3.69027 0.80487,-4.88975 0.50411,-1.96326 0.53158,-2.05192 1.26308,-4.08675 0.70347,-1.95683 2.76191,-5.72843 4.1877,-7.64347 0.34136,-0.4585 0.82409,-1.07681 1.22523,-1.57612 0.20058,-0.24966 0.38231,-0.47035 0.51201,-0.62367 0.0649,-0.0766 0.11766,-0.13697 0.14543,-0.16738 0.008,-0.009 0.006,-0.006 0.008,-0.008 0.002,-0.002 0.0173,-0.0116 0.0199,-0.014 0.0361,-0.0319 0.0605,-0.0566 0.0857,-0.0817 0.0505,-0.0502 0.10058,-0.10385 0.15739,-0.16539 0.11364,-0.12307 0.24944,-0.27719 0.39248,-0.44434 0.18663,-0.2181 0.91399,-0.94748 1.47426,-1.45856 0.58713,-0.53557 1.23067,-1.12442 1.4364,-1.3131 0.24403,-0.22377 1.76005,-1.37791 2.4923,-1.86503 0.79062,-0.52594 1.22998,-0.76732 1.63165,-1.25133 0.40168,-0.48402 0.54246,-0.9567 0.86065,-1.76541 0.50446,-1.2821 1.85405,-4.58954 2.33093,-5.71467 0.24117,-0.569 0.50037,-1.20885 0.6156,-1.53029 0.0758,-0.21142 0.23164,-0.5709 0.26099,-0.62766 0.15254,-0.29502 0.24125,-0.59231 0.255,-0.92654 0.0138,-0.33422 -0.007,-0.85762 -0.58572,-1.22144 -0.22449,-0.14095 -0.18729,-0.1007 -0.27493,-0.13948 -0.0881,-0.039 -0.19841,-0.0865 -0.32871,-0.14147 -0.2606,-0.10992 -0.59837,-0.24823 -0.95628,-0.39253 -0.70383,-0.28379 -2.17124,-0.87907 -3.25533,-1.32108 -1.08689,-0.44314 -2.71724,-1.10517 -3.62589,-1.4725 -0.29747,-0.12026 -0.53275,-0.22182 -0.78096,-0.32877 a 1.0201316,1.0202942 0 0 0 -0.0378,-0.0159 1.0201316,1.0202942 0 0 0 -0.40443,-0.0837 z m 0.0936,2.16592 c 0.12244,0.0517 0.22092,0.0973 0.36458,0.15541 0.90536,0.36602 2.53589,1.02655 3.61991,1.46853 1.08683,0.44312 2.55351,1.03887 3.2633,1.32505 0.26924,0.10855 0.49784,0.20236 0.71521,0.2929 -0.0838,0.18995 -0.17202,0.37771 -0.24305,0.57586 -0.069,0.19231 -0.3441,0.88081 -0.57377,1.42269 -0.49751,1.17381 -1.82879,4.44071 -2.34885,5.76249 -0.32753,0.83243 -0.44192,1.09862 -0.53393,1.20948 -0.092,0.11087 -0.38486,0.31896 -1.19335,0.85681 -0.85202,0.5668 -2.17596,1.54368 -2.73934,2.06031 -0.19816,0.18171 -0.84559,0.77182 -1.43243,1.30712 -0.61368,0.5598 -1.29163,1.22392 -1.64758,1.63988 -0.12826,0.14987 -0.2534,0.29186 -0.34267,0.38855 -0.0438,0.0473 -0.0796,0.0835 -0.0956,0.0997 0.0131,-0.0115 0.0139,-0.0392 0.21716,-0.1355 -0.30041,0.14063 -0.26838,0.17577 -0.30482,0.21122 -0.0387,0.0376 -0.066,0.0671 -0.0956,0.0997 -0.0593,0.0649 -0.1229,0.13728 -0.19724,0.22516 -0.14868,0.17577 -0.33817,0.40698 -0.54586,0.66552 -0.41541,0.51706 -0.90282,1.14197 -1.26906,1.6339 -1.61378,2.16753 -3.63593,5.84613 -4.4726,8.17349 -0.7333,2.03981 -0.81332,2.2992 -1.31887,4.26807 -0.35398,1.3786 -0.68811,3.42825 -0.85865,5.20258 -0.27541,2.86534 -0.0274,6.61363 0.50802,9.54039 -0.19959,-0.12139 -0.47176,-0.29338 -0.62358,-0.38058 -0.48574,-0.279 -3.1579,-1.89599 -3.96058,-2.39904 -0.53965,-0.33822 -1.23393,-0.76202 -1.58981,-0.96838 -0.32494,-0.18844 -0.75686,-0.44223 -0.94432,-0.55394 l -0.35861,-0.21321 a 1.0201316,1.0202942 0 0 0 -1.36668,0.30288 l -0.21715,0.31881 c -0.19746,0.29102 -0.66997,1.06943 -1.24117,2.00651 -0.5712,0.93707 -1.17375,1.93554 -1.44438,2.39904 -0.37724,0.64613 -0.60811,1.00292 -0.93834,1.5522 -0.10119,-0.56254 -0.24343,-1.12926 -0.32076,-1.68769 -0.57749,-4.17068 -0.57857,-9.27086 -0.006,-13.36014 1.06013,-7.57117 3.92418,-14.82644 8.32162,-21.07732 2.76214,-3.92636 6.70352,-7.94834 10.6346,-10.8515 1.80211,-1.33089 3.66984,-2.4872 5.58028,-3.5368 z m 59.54224,8.41259 a 1.0201316,1.0202942 0 0 0 -1.02999,1.02019 l 0,0.018 0.002,4.01502 0.004,4.23419 -4.43473,0 c -1.50275,0 -2.88503,0.006 -3.90481,0.0159 -0.50989,0.005 -0.92904,0.0111 -1.23122,0.018 -0.15108,0.003 -0.27073,0.008 -0.36657,0.0119 -0.0479,0.002 -0.0886,0.004 -0.13349,0.008 -0.0224,0.002 -0.0458,0.003 -0.0817,0.008 -0.0359,0.005 -0.0404,-0.0178 -0.24703,0.0617 -0.4756,0.18228 -0.7989,0.42525 -0.7989,1.13577 0,0.50399 0.10099,0.45744 0.13747,0.52603 0.0365,0.0686 0.0667,0.11506 0.0997,0.16539 0.0658,0.10069 0.13969,0.20503 0.22911,0.32479 0.17883,0.23951 0.4132,0.53342 0.67138,0.84285 0.40973,0.49104 0.98538,1.24044 1.48225,1.91685 0.49685,0.6764 0.95999,1.3761 0.99412,1.44062 0.13093,0.24747 0.46296,0.80964 0.8467,1.46055 1.61289,2.73588 2.66721,5.38934 3.50835,8.84099 1.1002,4.51464 1.13629,9.72957 0.0817,14.82268 l -0.12949,0.62965 a 1.0201316,1.0202942 0 0 0 0.0199,0.49217 l 0.78096,2.67601 c 0.4301,1.47466 0.95948,3.27493 1.18339,4.01701 0.21739,0.72047 0.5911,2.00309 0.8228,2.82744 0.33653,1.19727 0.53033,1.87905 0.67338,2.31337 0.0715,0.21715 0.12494,0.36932 0.21516,0.54396 0.0903,0.17465 0.29556,0.47144 0.64549,0.60574 0.3011,0.11576 0.38726,0.0774 0.4861,0.0738 0.0988,-0.004 0.17807,-0.0128 0.259,-0.0259 0.16186,-0.026 0.32295,-0.0648 0.49208,-0.11757 0.20471,-0.064 0.98141,-0.29127 1.65755,-0.48219 0.68984,-0.19479 1.90732,-0.5473 2.72141,-0.78906 0.80246,-0.2383 1.69832,-0.4965 1.89462,-0.54795 a 1.0201316,1.0202942 0 0 0 0.002,0 c 0.29751,-0.078 0.95963,-0.26956 1.54797,-0.44634 a 1.0201316,1.0202942 0 0 0 0.002,0 c 0.081,-0.0244 0.14301,-0.0423 0.23906,-0.0698 a 1.0201316,1.0202942 0 0 0 0.6694,-0.60973 c 1.33456,-3.42589 2.31824,-7.03125 2.8788,-10.65423 0.78647,-5.08312 0.7415,-11.19814 -0.12353,-16.12979 -1.62724,-9.27709 -5.72529,-17.75192 -11.93155,-24.74564 -0.002,-0.002 -0.002,-0.004 -0.004,-0.006 a 1.0201316,1.0202942 0 0 0 -0.0797,-0.0997 1.0201316,1.0202942 0 0 0 -0.54786,-0.3208 1.0201316,1.0202942 0 0 0 -0.20321,-0.0219 z m 1.01207,3.99908 c 4.95593,6.2727 8.34328,13.56158 9.74406,21.54757 0.81676,4.65646 0.86374,10.64153 0.11754,15.46428 -0.51215,3.31019 -1.41789,6.61007 -2.61183,9.76556 -0.49586,0.14677 -1.05533,0.30958 -1.22722,0.35467 -0.30855,0.0809 -1.14726,0.32244 -1.96037,0.5639 -0.80148,0.23801 -2.02021,0.59296 -2.69352,0.78308 -0.54622,0.15424 -1.00313,0.28789 -1.3607,0.39452 -0.11983,-0.38545 -0.26466,-0.88028 -0.54985,-1.89493 -0.23666,-0.84198 -0.60832,-2.12143 -0.83277,-2.8653 -0.21794,-0.72228 -0.75075,-2.52737 -1.17941,-3.99709 l -0.71123,-2.43291 0.0797,-0.38058 c 1.11222,-5.3714 1.08527,-10.86537 -0.0976,-15.71933 -0.87784,-3.60224 -2.0236,-6.49452 -3.73348,-9.39494 -0.37872,-0.6424 -0.7892,-1.35678 -0.80088,-1.37885 -0.23411,-0.44238 -0.63494,-0.99043 -1.15151,-1.69368 -0.45387,-0.61786 -0.94503,-1.2464 -1.37266,-1.77139 1.00877,-0.0102 2.37923,-0.0159 3.87093,-0.0159 l 5.45476,0 a 1.0201316,1.0202942 0 0 0 1.02003,-1.0202 l -0.004,-5.25637 0,-1.05208 z m -80.24168,33.489 c 0.10047,0.0599 0.30002,0.17647 0.46817,0.27498 l -0.002,0.004 -0.46618,-0.27896 z m 1.57785,2.80154 c -0.3725,-0.0499 -0.9124,0.17825 -1.13558,0.40848 -0.2235,0.23059 -0.32647,0.42441 -0.47016,0.6715 -0.12539,0.21559 -0.32227,0.54049 -0.40642,0.67149 -0.21854,0.3402 -0.28209,0.44663 -2.36878,3.9134 -0.81821,1.35932 -1.55748,2.58244 -1.79103,2.96891 a 1.0201316,1.0202942 0 0 0 -0.0916,0.85681 c 1.20004,3.53423 2.77485,6.93201 4.6519,9.95484 2.66733,4.2955 6.11684,8.40529 9.68231,11.52698 8.59624,7.52626 19.36722,11.87378 30.72839,12.39971 0.17937,0.008 0.35665,0.0107 0.51599,0.0159 a 1.0201316,1.0202942 0 0 0 0.7431,-1.74948 c -0.46382,-0.45144 -1.1926,-1.15233 -1.8209,-1.74946 -0.31416,-0.29856 -0.60313,-0.56956 -0.82081,-0.77311 -0.10884,-0.10182 -0.19819,-0.18659 -0.26895,-0.25106 -0.0354,-0.0322 -0.0666,-0.0583 -0.0956,-0.0837 -0.0291,-0.0254 0.0327,-0.002 -0.16735,-0.12752 0.12992,0.0814 0.0962,0.0689 0.0996,0.0717 0.003,0.003 -0.001,-0.002 -0.0102,-0.0102 -0.0168,-0.0149 -0.0486,-0.042 -0.0876,-0.0777 -0.0782,-0.0714 -0.19153,-0.17699 -0.32871,-0.30487 -0.27437,-0.25575 -0.64555,-0.60442 -1.04394,-0.98233 -0.73358,-0.69585 -1.4568,-1.3805 -1.81892,-1.71958 0.24897,-0.27216 0.52406,-0.57139 0.87858,-0.95245 0.87492,-0.9404 1.98417,-2.11865 2.91067,-3.08648 0.9574,-1.0001 1.68543,-1.78451 2.18351,-2.35321 0.24903,-0.28436 0.43978,-0.51157 0.58572,-0.70736 0.0729,-0.0979 0.13309,-0.18342 0.19922,-0.30288 0.0331,-0.0597 0.0696,-0.1249 0.10758,-0.24508 0.038,-0.12018 0.13425,-0.31789 -0.0159,-0.70935 -0.12856,-0.33524 -0.37781,-0.51467 -0.54189,-0.60176 -0.16409,-0.0871 -0.28751,-0.11825 -0.40642,-0.14546 -0.23783,-0.0544 -0.46923,-0.0764 -0.77698,-0.0997 -4.25788,-0.32068 -8.23004,-1.37452 -12.09293,-3.21002 -1.36276,-0.64754 -2.33579,-1.20514 -4.05621,-2.32532 -0.74027,-0.482 -0.78251,-0.51471 -2.4923,-1.87301 -0.53927,-0.42841 -1.50108,-1.30442 -2.37276,-2.14997 -0.87168,-0.84556 -1.71035,-1.7344 -1.90858,-1.99456 -0.20855,-0.27373 -0.64155,-0.8277 -0.97819,-1.25333 -0.76057,-0.96164 -1.40789,-1.9083 -2.1815,-3.1861 -0.69084,-1.14107 -0.63374,-1.03437 -1.55594,-2.8673 l -0.62358,-1.23937 a 1.0201316,1.0202942 0 0 0 -0.41439,-0.43239 l -0.72119,-0.4005 c -0.37161,-0.20684 -1.02974,-0.59542 -1.4125,-0.8329 -1.07808,-0.66885 -1.83871,-1.13837 -2.35085,-1.45058 -0.25607,-0.1561 -0.4507,-0.27257 -0.59369,-0.35667 -0.14299,-0.0841 -0.15375,-0.10822 -0.36458,-0.19726 0.17071,0.072 0.037,0.016 -0.0318,-0.0239 -0.069,-0.0399 -0.16734,-0.0987 -0.28488,-0.16937 -0.23509,-0.14132 -0.54641,-0.33039 -0.87062,-0.53202 -0.66495,-0.41354 -1.19825,-0.74991 -1.54598,-0.92654 -0.0634,-0.0321 -0.39531,-0.2248 -0.5897,-0.35268 -0.27396,-0.18021 -0.57352,-0.36011 -0.8487,-0.48818 -0.048,-0.0223 -0.14062,-0.0384 -0.19922,-0.0618 -7.1e-4,-2.8e-4 -10e-4,-0.002 -0.002,-0.002 a 1.0201316,1.0202942 0 0 0 -0.32474,-0.10161 c -8.5e-4,-1.2e-4 -10e-4,1.2e-4 -0.002,0 z m 0.0698,2.24961 c 0.0759,0.0449 0.12838,0.0702 0.18529,0.1076 a 1.0201316,1.0202942 0 0 0 0.002,0 c 0.25998,0.171 0.54732,0.34656 0.78693,0.46825 -0.0448,-0.0227 0.74291,0.43607 1.39059,0.83887 0.33212,0.20655 0.64941,0.40139 0.89651,0.54995 0.12355,0.0743 0.22982,0.13609 0.31478,0.1853 0.085,0.0492 0.0527,0.0515 0.26098,0.13948 -0.14933,-0.063 -0.002,0.002 0.12352,0.0757 0.12592,0.0741 0.31455,0.18557 0.5658,0.33874 0.50248,0.30632 1.26269,0.77493 2.33889,1.44261 0.42502,0.26369 1.0737,0.64868 1.49418,0.88271 a 1.0201316,1.0202942 0 0 0 0.002,0 l 0.44428,0.24707 0.48411,0.95843 c 0.9218,1.83211 0.94173,1.86922 1.63165,3.00877 0.80512,1.32984 1.51224,2.36325 2.32694,3.39333 0.32842,0.41524 0.76676,0.97667 0.95628,1.22543 0.41947,0.55054 1.20813,1.34706 2.10979,2.22171 0.90167,0.87464 1.85941,1.75338 2.52418,2.28148 1.71151,1.35967 1.89494,1.49647 2.64769,1.98659 1.75809,1.1447 2.86025,1.77695 4.29528,2.45881 3.794,1.80276 7.74625,2.83221 11.8957,3.24988 -0.45243,0.50306 -0.96343,1.06268 -1.73725,1.87102 -0.93594,0.97769 -2.04879,2.16059 -2.93058,3.10839 -0.4409,0.4739 -0.8237,0.88772 -1.09973,1.19155 -0.13801,0.15192 -0.24792,0.27577 -0.33071,0.37062 -0.0414,0.0474 -0.0754,0.0854 -0.10957,0.12752 -0.0171,0.0211 -0.0339,0.0423 -0.0618,0.0817 -0.014,0.0197 -0.0298,0.0411 -0.0598,0.0937 -0.015,0.0263 -0.034,0.0582 -0.0598,0.12154 -0.013,0.0316 -0.0438,0.12921 -0.0439,0.12951 -9e-5,3.1e-4 -0.0318,0.25882 -0.0318,0.25904 0,5.3e-4 0.007,0.1339 0.0159,0.18331 0.009,0.0494 0.0195,0.0881 0.0299,0.12154 0.0207,0.0668 0.0409,0.11045 0.0577,0.14546 0.0337,0.07 0.0574,0.10698 0.0777,0.1375 0.0406,0.061 0.067,0.0933 0.0936,0.12553 0.0532,0.0644 0.10361,0.11674 0.16137,0.17733 0.11552,0.1212 0.2584,0.26131 0.41638,0.40847 0.27967,0.26053 1.1769,1.10874 1.97631,1.86704 0.40217,0.38149 0.77536,0.73279 1.05588,0.99429 0.14028,0.13074 0.25717,0.23893 0.34466,0.31881 0.0438,0.0399 0.0798,0.0715 0.11157,0.0997 0.0159,0.0141 0.0294,0.0263 0.0478,0.0418 0.0183,0.0153 -10e-4,0.0136 0.1295,0.0956 -0.18931,-0.11868 -0.0999,-0.0726 -0.0897,-0.0638 0.0102,0.009 0.0323,0.029 0.0617,0.0558 0.0588,0.0536 0.14572,0.13467 0.25103,0.23314 0.11263,0.10532 0.28422,0.2685 0.4323,0.40847 -9.98782,-0.97569 -19.41369,-4.89734 -27.04272,-11.57679 -3.38693,-2.96535 -6.73344,-6.94862 -9.29184,-11.06869 -1.70911,-2.75238 -3.15184,-5.8734 -4.28532,-9.11398 0.3187,-0.52809 0.83092,-1.37703 1.53005,-2.53852 2.08669,-3.46678 2.1238,-3.52986 2.33689,-3.86159 0.0975,-0.15179 0.23956,-0.39121 0.36658,-0.60574 z m 72.28066,4.30792 a 1.0201316,1.0202942 0 0 0 -0.1514,0.0159 c -0.41072,0.0739 -0.58173,0.27468 -0.70327,0.40847 -0.12153,0.1338 -0.2005,0.25514 -0.28688,0.39453 -0.17274,0.27878 -0.35789,0.6308 -0.60962,1.12978 -1.08659,2.15378 -2.52196,4.31978 -4.08013,6.15703 -0.70501,0.83128 -3.336,3.45254 -3.78527,3.81376 -0.26239,0.21096 -0.72373,0.591 -1.04593,0.86079 -0.29026,0.24306 -0.73059,0.57856 -0.83077,0.64559 -0.20577,0.13769 -0.48676,0.33364 -0.66342,0.46227 -2.69023,1.95885 -6.41819,3.7544 -10.05087,4.82599 -1.10834,0.32695 -3.38206,0.79205 -4.51045,0.92255 l -0.82677,0.0956 a 1.0201316,1.0202942 0 0 0 -0.61362,0.30288 l -0.78294,0.803 c -1.04185,1.07053 -2.73035,2.85246 -4.17376,4.3936 -0.72171,0.77057 -1.38194,1.4803 -1.86873,2.0105 -0.2434,0.26509 -0.44154,0.48537 -0.58771,0.64957 -0.0731,0.0821 -0.13386,0.14873 -0.18329,0.20723 -0.0247,0.0293 -0.0463,0.057 -0.0717,0.0897 -0.0254,0.0326 -0.0321,-0.006 -0.13946,0.22317 0.0313,-0.0669 0.0376,-0.0833 -0.0259,0.0458 -0.0634,0.12915 -0.14547,0.47326 -0.0897,0.72928 0.11163,0.51203 0.28997,0.58042 0.46219,0.76116 0.34446,0.36146 0.97014,0.93725 2.35683,2.23964 2.55469,2.399 3.84011,3.61992 4.48853,4.26409 a 1.0201316,1.0202942 0 0 0 0.77299,0.29489 c 0.70583,-0.0379 1.44752,-0.0872 1.99225,-0.14744 9.49836,-1.04915 18.0724,-4.52322 25.58243,-10.36731 4.36059,-3.39329 8.24443,-7.65906 11.35979,-12.47145 0.90748,-1.40184 1.74594,-2.87799 2.51222,-4.40955 a 1.0201316,1.0202942 0 0 0 -1.19137,-1.43862 c -0.98618,0.28117 -2.94507,0.85214 -5.36312,1.56615 -0.85779,0.2533 -1.71478,0.50639 -1.87868,0.55393 -0.16715,0.0485 -0.63083,0.1845 -1.04991,0.30685 -0.0123,-0.0431 -0.0186,-0.0692 -0.0318,-0.11556 -0.12112,-0.42337 -0.28139,-0.97754 -0.45224,-1.56018 -0.34014,-1.15988 -0.7741,-2.64727 -0.96226,-3.29968 -0.53314,-1.84865 -0.85177,-2.94278 -1.05389,-3.60853 -0.20213,-0.66576 -0.21814,-0.8426 -0.44228,-1.19754 -0.0639,-0.1012 -0.15415,-0.23479 -0.35263,-0.36862 -0.0164,-0.011 -0.0495,-0.003 -0.0677,-0.014 a 1.0201316,1.0202942 0 0 0 -0.59966,-0.17534 z m -0.21316,3.2937 c 0.19582,0.66283 0.37704,1.27706 0.769,2.63617 0.19047,0.66042 0.62324,2.14679 0.96425,3.30965 0.16972,0.57873 0.32884,1.12682 0.44826,1.54423 0.0597,0.20871 0.10979,0.38601 0.14543,0.51408 0.0356,0.12807 0.068,0.26314 0.0518,0.1873 0.0307,0.14291 0.0721,0.26093 0.13348,0.38855 0.0614,0.12762 0.0362,0.26337 0.45024,0.52006 a 1.0201316,1.0202942 0 0 0 0,0.002 c 0.40695,0.25144 0.48539,0.15547 0.56979,0.15541 0.0844,-6e-5 0.13524,-0.006 0.18528,-0.0119 0.10006,-0.0123 0.18705,-0.0291 0.28489,-0.0498 0.19567,-0.0414 0.42404,-0.0982 0.6674,-0.16936 0.44246,-0.12925 0.95093,-0.27815 1.12562,-0.32878 0.1895,-0.055 1.02792,-0.30234 1.88666,-0.55592 1.3245,-0.3911 1.96963,-0.57633 2.93258,-0.8568 -0.39457,0.69106 -0.75617,1.41538 -1.1814,2.07227 -2.9937,4.62446 -6.73,8.72666 -10.89957,11.97131 -7.22655,5.6235 -15.40992,8.93881 -24.55444,9.94886 -0.35647,0.0394 -0.91633,0.0749 -1.44836,0.1076 -0.7237,-0.71089 -1.82054,-1.75997 -4.18371,-3.97915 -1.1474,-1.07764 -1.56049,-1.47285 -1.87869,-1.78533 0.0905,-0.0996 0.1536,-0.16962 0.26497,-0.29091 0.47901,-0.52172 1.1342,-1.22932 1.85278,-1.99655 1.43717,-1.53447 3.12709,-3.31484 4.14786,-4.36372 l 0.52994,-0.54595 0.46618,-0.0538 c 1.34276,-0.15529 3.54188,-0.60408 4.85112,-0.9903 3.85899,-1.13834 7.74519,-3.0005 10.67644,-5.13483 0.13591,-0.099 0.4223,-0.30043 0.59568,-0.41645 0.279,-0.18669 0.66509,-0.48956 1.00609,-0.7751 0.30904,-0.25879 0.776,-0.64191 1.01604,-0.83489 0.91551,-0.73606 3.16391,-3.02558 4.0622,-4.08475 1.56058,-1.84009 2.93239,-3.98041 4.06219,-6.13311 z"
         id="path4141"
         inkscape:connector-curvature="0" />
      <path
         style="fill:#ff4c00;fill-opacity:1"
         d="m 88.70681,612.50605 c 1.31703,-0.21239 2.29569,-0.49768 3.17809,-0.92642 1.7384,-0.84468 2.78696,-2.36831 3.27364,-4.75684 0.48358,-2.37331 0.34474,-6.70207 -0.28608,-8.9196 -0.65516,-2.30312 -1.98969,-3.56033 -6.43434,-6.0616 -1.69298,-0.95275 -2.95903,-1.80189 -3.62901,-2.43402 -0.95283,-0.899 -1.35041,-2.02472 -1.37002,-3.87907 -0.0113,-1.06762 0.0802,-1.49326 0.40351,-1.87756 0.31293,-0.37196 0.75787,-0.54546 1.40407,-0.54752 0.70538,-0.002 1.09971,0.11982 1.43311,0.44366 0.50921,0.49462 0.55339,0.7487 0.58635,3.37257 0.0212,1.68826 0.0558,2.36273 0.12341,2.40572 0.0516,0.0329 1.8499,0.0603 3.99611,0.0609 2.93035,8e-4 3.92596,-0.0225 3.99765,-0.0943 0.12046,-0.12048 0.131,-4.43227 0.0136,-5.55385 -0.36703,-3.50553 -2.26666,-5.34988 -6.24275,-6.0611 -0.94987,-0.1699 -1.25162,-0.18474 -3.69933,-0.1819 -2.36683,0.003 -2.7764,0.0224 -3.65954,0.17568 -2.27513,0.39485 -3.57084,0.96011 -4.54339,1.98207 -0.96621,1.01528 -1.52114,2.28776 -1.78652,4.09658 -0.18654,1.27144 -0.12615,4.39946 0.11042,5.71919 0.48756,2.71987 1.42852,4.24663 3.55178,5.76302 0.37361,0.26681 1.81486,1.1646 3.20278,1.99509 2.30778,1.38088 2.58148,1.56777 3.20188,2.18628 0.7439,0.74168 1.19414,1.43661 1.43653,2.21732 0.20616,0.664 0.34513,2.21893 0.29488,3.2993 -0.0347,0.74616 -0.0707,0.92181 -0.26835,1.30826 -0.312,0.6102 -0.74635,0.8411 -1.57213,0.83578 -0.94026,-0.006 -1.47869,-0.31727 -1.82787,-1.05652 -0.1604,-0.33955 -0.17119,-0.51012 -0.20891,-3.30206 l -0.0398,-2.94402 -3.97777,0 -3.97777,0 5.3e-4,3.54078 c 5.3e-4,3.456 0.005,3.55867 0.1883,4.28815 0.23848,0.94913 0.83261,2.13943 1.36524,2.73516 1.14188,1.27715 2.75043,1.94586 5.4866,2.2809 0.98906,0.12111 5.31175,0.0453 6.27512,-0.11011 z m -23.16356,-0.15963 c 4.54139,-0.54185 6.37206,-2.19031 7.07559,-6.37131 0.13361,-0.79405 0.14687,-1.40463 0.14687,-6.76092 0,-6.17641 -0.0129,-6.45142 -0.3683,-7.87723 -0.55434,-2.22363 -1.96699,-3.55539 -4.31629,-4.06909 -0.78746,-0.17219 -2.65463,-0.23225 -3.47776,-0.11187 -1.38629,0.20272 -2.80781,0.80893 -3.94885,1.68395 -0.33567,0.25742 -0.64244,0.46802 -0.68173,0.46802 -0.0397,0 -0.0508,-0.23842 -0.025,-0.53708 0.0255,-0.29539 0.0837,-1.45013 0.12914,-2.56606 0.0455,-1.11594 0.10271,-2.25256 0.12708,-2.52581 l 0.0444,-0.49681 6.13937,-0.0204 6.13937,-0.0204 0,-2.50639 0,-2.5064 -9.9842,0 -9.9842,0 -0.0205,8.91162 c -0.0191,8.30761 -0.0113,8.91836 0.11465,9.01108 0.10367,0.0762 1.01795,0.0995 3.92342,0.0995 2.91092,0 3.81719,-0.023 3.9132,-0.0995 0.0687,-0.0547 0.20117,-0.35667 0.29433,-0.67104 0.30128,-1.01666 0.87191,-1.53695 1.75581,-1.6009 1.10916,-0.0802 1.81675,0.48233 2.06195,1.63931 0.0604,0.28482 0.0893,1.95208 0.0893,5.13759 0,5.32282 0.002,5.3048 -0.54695,5.80055 -0.40676,0.36755 -0.79921,0.49397 -1.52149,0.49014 -1.04312,-0.005 -1.59423,-0.39082 -1.8619,-1.30171 -0.10726,-0.36505 -0.12698,-0.94303 -0.12698,-3.72177 l 0,-3.28961 -0.20407,-0.0776 c -0.12183,-0.0463 -1.67474,-0.0776 -3.85326,-0.0776 -2.17852,0 -3.73143,0.0313 -3.85325,0.0776 l -0.20407,0.0776 5.3e-4,3.68199 c 5.3e-4,4.64167 0.0836,5.29966 0.85459,6.77097 0.33853,0.64606 1.20013,1.595 1.82459,2.00955 1.18852,0.78903 3.0844,1.29674 5.47477,1.46611 1.21912,0.0863 3.66063,0.0282 4.86996,-0.11612 z"
         id="path4143"
         inkscape:connector-curvature="0"
         sodipodi:nodetypes="cssssscscsscccssscssssssssscsscccsssscccsssssssssscccccccscscsssscssscsssccssscc" />
    </g>
    <g
       transform="matrix(0.99754079,0,0,1.0002289,-11.402217,266.81585)"
       id="g4145">
      <path
         style="color:#000000;font-style:normal;font-variant:normal;font-weight:normal;font-stretch:normal;font-size:medium;line-height:normal;font-family:sans-serif;text-indent:0;text-align:start;text-decoration:none;text-decoration-line:none;text-decoration-style:solid;text-decoration-color:#000000;letter-spacing:normal;word-spacing:normal;text-transform:none;direction:ltr;block-progression:tb;writing-mode:lr-tb;baseline-shift:baseline;text-anchor:start;white-space:normal;clip-rule:nonzero;display:inline;overflow:visible;visibility:visible;opacity:1;isolation:auto;mix-blend-mode:normal;color-interpolation:sRGB;color-interpolation-filters:linearRGB;solid-color:#000000;solid-opacity:1;fill:#5c5c5c;fill-opacity:0.99215686;fill-rule:nonzero;stroke:none;stroke-width:4;stroke-linecap:square;stroke-linejoin:miter;stroke-miterlimit:4;stroke-dasharray:none;stroke-dashoffset:0;stroke-opacity:1;color-rendering:auto;image-rendering:auto;shape-rendering:auto;text-rendering:auto;enable-background:accumulate"
         d="m 76.925781,543.4375 c -4.275964,-0.10679 -8.598661,0.33466 -12.865234,1.35352 l -5.207031,1.24414 4.746093,2.47461 6.435547,3.35546 -5.5625,11.33594 4.09375,-0.93945 c 9.419172,-2.16307 19.30744,0.0481 26.90625,6.01953 l 0.421875,0.33203 14.265629,2.03906 1.93554,-11.52539 -0.71289,-0.72656 C 102.16242,549.01105 89.753675,543.75786 76.925781,543.4375 Z m -0.09766,3.99805 c 11.482248,0.28566 22.563947,4.91123 30.972659,13.11718 l -0.93946,5.58789 -9.486324,-1.35546 c -7.432853,-5.61857 -16.68474,-7.94258 -25.857422,-6.86133 l 3.828125,-7.80078 -4.638672,-2.41993 c 2.043424,-0.22254 4.087863,-0.31816 6.121094,-0.26757 z m -22.486328,0.75781 -0.914063,0.45508 c -15.695443,7.83173 -26.146286,23.31902 -27.537109,40.80468 l -0.425781,5.33399 8.992187,-8.82617 9.06836,8.80468 0.373047,-4.18359 c 0.853887,-9.6155 6.003926,-18.32676 14.017578,-23.70898 l 0.443359,-0.29883 6.365234,-12.9668 -10.382812,-5.41406 z m 0.0293,4.52539 5.042968,2.63086 -4.238281,8.63281 c -7.625979,5.33212 -12.685025,13.40347 -14.490234,22.44922 l -6.244141,-6.06055 -3.730468,3.66211 c 2.783899,-13.37356 11.422595,-24.8796 23.660156,-31.31445 z m 61.171877,10.0332 -0.87891,5.22852 -1.20508,7.18555 -12.58789,-1.80079 2.22852,3.63086 c 0.57718,0.93952 1.10497,1.90825 1.58203,2.90235 3.58526,7.70961 3.95317,16.52715 1.01953,24.50781 l -0.18555,0.50391 2.47266,14.22461 11.55859,-1.72266 0.47266,-0.90039 c 7.20624,-13.78647 7.58963,-30.14695 1.03711,-44.25586 l -0.004,-0.006 -0.002,-0.006 c -0.80941,-1.71212 -1.71671,-3.37691 -2.71484,-4.98633 l -2.79297,-4.50586 z m 2.08984,11.70703 c 5.65228,12.56747 5.35897,26.97423 -0.75586,39.30664 l -5.61719,0.8379 -1.64062,-9.44727 c 3.02648,-8.72211 2.61451,-18.26325 -1.21484,-26.67383 l 8.35156,1.19531 0.87695,-5.21875 z m -83.162108,17.0918 -1.392578,1.36719 -6.974609,6.84375 0.148437,1.00586 c 0.698756,4.76497 2.080982,9.4037 4.105469,13.77344 l 0.002,0.004 0.002,0.004 c 5.302954,11.31976 14.651802,20.24472 26.205078,25.01758 l 4.933594,2.03906 -5.611328,-11.26953 11.195312,-5.91602 -3.876953,-1.64258 c -7.258999,-3.07676 -13.122738,-8.72652 -16.46875,-15.86523 -0.701223,-1.53619 -1.28033,-3.12633 -1.730469,-4.75391 l -0.144531,-0.52343 -10.392578,-10.08399 z m 0.01563,5.58984 6.88086,6.67579 c 0.480081,1.62446 1.032108,3.22836 1.736328,4.76953 l 0.0039,0.008 0.0039,0.01 c 3.202709,6.83691 8.540561,12.33773 15.070313,15.99609 l -7.613282,4.02344 2.216797,4.44922 c -8.13252,-4.6838 -14.773237,-11.62824 -18.796875,-20.21289 l -0.002,-0.004 c -6.22e-4,-0.001 -0.0013,-0.003 -0.002,-0.004 -1.724696,-3.7245 -2.885902,-7.67402 -3.566406,-11.71875 l 4.068359,-3.99219 z m 68.058598,14.03516 -2.761723,3.18945 c -2.924818,3.37861 -6.52612,6.10484 -10.570312,8.00586 -8.14e-4,3.9e-4 -0.0011,0.002 -0.002,0.002 -4.591766,2.12716 -9.622865,3.13425 -14.679688,2.9375 l -0.537109,-0.0195 -0.47461,0.25 -12.310547,6.50781 5.214844,10.47656 1.003906,0.16992 c 9.980814,1.69196 20.241054,0.31568 29.423828,-3.94531 l 0.0039,-0.002 0.0039,-0.002 c 6.474351,-3.03836 12.221711,-7.42928 16.855471,-12.87695 l 3.45117,-4.05664 -12.45117,1.85156 -2.16992,-12.48828 z m -2.587895,8.47852 1.484375,8.54101 5.16406,-0.76758 c -3.40661,3.10829 -7.243272,5.72407 -11.437497,7.69336 -5.56e-4,2.6e-4 -0.0014,-2.5e-4 -0.002,0 -0.0021,10e-4 -0.0037,0.003 -0.0059,0.004 -8.152889,3.78122 -17.225072,5.02951 -26.101562,3.7168 l -2.529297,-5.08203 8.447265,-4.46289 c 5.490476,0.12172 10.940588,-0.9865 15.927735,-3.29883 l 0.0039,-0.002 0.0059,-0.002 c 3.366308,-1.58203 6.328609,-3.81972 9.042969,-6.33984 z"
         id="path4147"
         inkscape:connector-curvature="0" />
      <path
         sodipodi:nodetypes="cssssscscsscccssscssssssssscsscccsssscccsssssssssscccccccscscsssscssscsssccssscc"
         inkscape:connector-curvature="0"
         id="path4149"
         d="m 90.006925,611.48632 c 1.291172,-0.20819 2.250616,-0.48783 3.115678,-0.90809 1.704278,-0.82796 2.732247,-2.32143 3.209368,-4.66269 0.474074,-2.32633 0.337962,-6.56942 -0.280463,-8.74306 -0.642298,-2.25753 -1.950618,-3.48986 -6.308,-5.94162 -1.659732,-0.93389 -2.900916,-1.76623 -3.557754,-2.38585 -0.934114,-0.8812 -1.323891,-1.98464 -1.343108,-3.80229 -0.01107,-1.04649 0.07861,-1.4637 0.395579,-1.8404 0.306789,-0.3646 0.742989,-0.53466 1.376507,-0.53668 0.691527,-0.002 1.078113,0.11745 1.404962,0.43488 0.499214,0.48483 0.542519,0.73388 0.574844,3.30582 0.0208,1.65484 0.05472,2.31596 0.120978,2.3581 0.05064,0.0322 1.813579,0.0591 3.91764,0.0597 2.872809,7.8e-4 3.848876,-0.0221 3.919159,-0.0924 0.118097,-0.11809 0.128423,-4.34454 0.01332,-5.44392 -0.359814,-3.43615 -2.222149,-5.244 -6.120172,-5.94114 -0.931204,-0.16654 -1.227035,-0.18108 -3.626683,-0.1783 -2.32035,0.003 -2.721885,0.022 -3.587687,0.1722 -2.230443,0.38704 -3.500718,0.94111 -4.454161,1.94284 -0.947244,0.99519 -1.49127,2.24248 -1.751448,4.0155 -0.182878,1.24628 -0.123668,4.31239 0.108258,5.60599 0.477989,2.66604 1.400461,4.16258 3.482035,5.64896 0.366269,0.26153 1.77922,1.14155 3.13989,1.9556 2.262463,1.35355 2.530793,1.53674 3.138998,2.14301 0.729307,0.727 1.170698,1.40818 1.408328,2.17343 0.202112,0.65086 0.338358,2.17502 0.289092,3.234 -0.03402,0.73139 -0.06935,0.90357 -0.263074,1.28237 -0.305888,0.59812 -0.7317,0.82445 -1.541265,0.81924 -0.921796,-0.006 -1.449654,-0.31099 -1.791982,-1.03561 -0.157245,-0.33283 -0.167826,-0.50003 -0.204807,-3.23671 l -0.039,-2.88575 -3.89966,0 -3.89966,0 5.19e-4,3.4707 c 5.2e-4,3.3876 0.0049,3.48824 0.184603,4.20328 0.233795,0.93034 0.816263,2.09708 1.338431,2.68102 1.119459,1.25188 2.696415,1.90735 5.378866,2.23576 0.969638,0.11871 5.20744,0.0444 6.151904,-0.10793 z m -22.708718,-0.15647 c 4.452221,-0.53113 6.246938,-2.14696 6.93665,-6.24521 0.130988,-0.77833 0.143992,-1.37683 0.143992,-6.6271 0,-6.05417 -0.01261,-6.32373 -0.36107,-7.72132 -0.543449,-2.17962 -1.928366,-3.48502 -4.231529,-3.98856 -0.772,-0.16878 -2.602498,-0.22765 -3.409473,-0.10965 -1.359068,0.19871 -2.752679,0.79292 -3.87131,1.65062 -0.329079,0.25232 -0.629832,0.45876 -0.66834,0.45876 -0.03893,0 -0.04983,-0.23371 -0.02454,-0.52645 0.02501,-0.28955 0.08198,-1.42143 0.126603,-2.51528 0.04462,-1.09385 0.100687,-2.20797 0.124587,-2.47581 l 0.04345,-0.48698 6.018819,-0.02 6.018819,-0.02 0,-2.45679 0,-2.45679 -9.788148,0 -9.788147,0 -0.02013,8.73524 c -0.01874,8.14318 -0.01115,8.74184 0.112398,8.83273 0.101636,0.0747 0.997962,0.0975 3.846378,0.0975 2.853758,0 3.742229,-0.0225 3.836359,-0.0975 0.06737,-0.0536 0.197221,-0.34961 0.288551,-0.65776 0.295363,-0.99654 0.854787,-1.50653 1.721333,-1.56921 1.087374,-0.0786 1.781082,0.47278 2.021459,1.60686 0.05918,0.27918 0.0876,1.91344 0.0876,5.0359 0,5.21747 0.0016,5.19981 -0.536206,5.68575 -0.398777,0.36027 -0.783525,0.48419 -1.491618,0.48044 -1.022636,-0.005 -1.562927,-0.38309 -1.825332,-1.27595 -0.105164,-0.35783 -0.124498,-0.92437 -0.124498,-3.64811 l 0,-3.2245 -0.200061,-0.0761 c -0.119433,-0.0454 -1.641855,-0.0761 -3.777593,-0.0761 -2.13574,0 -3.658159,0.0307 -3.777592,0.0761 l -0.200061,0.0761 5.2e-4,3.60912 c 5.2e-4,4.5498 0.08199,5.19476 0.837808,6.63695 0.331885,0.63327 1.176559,1.56343 1.788764,1.96978 1.16518,0.77341 3.023841,1.27107 5.367272,1.43709 1.195175,0.0846 3.588743,0.0276 4.774325,-0.11382 z"
         style="fill:#ff4c00;fill-opacity:1" />
    </g>
  </g>
</svg>
