<?xml version="1.0" encoding="UTF-8" standalone="no"?>
<svg
   xmlns:dc="http://purl.org/dc/elements/1.1/"
   xmlns:cc="http://creativecommons.org/ns#"
   xmlns:rdf="http://www.w3.org/1999/02/22-rdf-syntax-ns#"
   xmlns:svg="http://www.w3.org/2000/svg"
   xmlns="http://www.w3.org/2000/svg"
   xmlns:sodipodi="http://sodipodi.sourceforge.net/DTD/sodipodi-0.dtd"
   xmlns:inkscape="http://www.inkscape.org/namespaces/inkscape"
   enable-background="new 0 0 128 128"
   height="128px"
   id="Layer_1"
   version="1.1"
   viewBox="0 0 128 128"
   width="128px"
   xml:space="preserve"
   inkscape:version="0.91 r13725"
   sodipodi:docname="audit-safety.svg"><metadata
     id="metadata139"><rdf:RDF><cc:Work
         rdf:about=""><dc:format>image/svg+xml</dc:format><dc:type
           rdf:resource="http://purl.org/dc/dcmitype/StillImage" /></cc:Work></rdf:RDF></metadata><defs
     id="defs137" /><sodipodi:namedview
     pagecolor="#ffffff"
     bordercolor="#666666"
     borderopacity="1"
     objecttolerance="10"
     gridtolerance="10"
     guidetolerance="10"
     inkscape:pageopacity="0"
     inkscape:pageshadow="2"
     inkscape:window-width="1920"
     inkscape:window-height="1035"
     id="namedview135"
     showgrid="false"
     inkscape:zoom="1.3037281"
     inkscape:cx="94.594075"
     inkscape:cy="76.829506"
     inkscape:window-x="0"
     inkscape:window-y="24"
     inkscape:window-maximized="1"
     inkscape:current-layer="Layer_1" /><path
     d="m 46.8,72.3 c -0.4,-0.4 -1,-0.4 -1.4,0 l -6.1,6.1 -4,-4 c -0.4,-0.4 -1,-0.4 -1.4,0 -0.4,0.4 -0.4,1 0,1.4 l 4.4,4.4 c 0,0 0.1,0.1 0.2,0.1 0,0 0.1,0.1 0.1,0.2 0.2,0.2 0.5,0.3 0.7,0.3 0.2,0 0.5,-0.1 0.7,-0.3 l 6.8,-6.8 c 0.4,-0.3 0.4,-1 0,-1.4 z"
     id="path115"
     inkscape:connector-curvature="0"
     style="fill:#5c5c5c;fill-opacity:1" /><path
     d="m 46.8,61.6 c -0.4,-0.4 -1,-0.4 -1.4,0 l -6.1,6.1 -4,-4 c -0.4,-0.4 -1,-0.4 -1.4,0 -0.4,0.4 -0.4,1 0,1.4 l 4.4,4.4 c 0,0 0.1,0.1 0.2,0.1 0,0 0.1,0.1 0.1,0.2 0.2,0.2 0.5,0.3 0.7,0.3 0.2,0 0.5,-0.1 0.7,-0.3 L 46.8,63 c 0.4,-0.4 0.4,-1.1 0,-1.4 z"
     id="path117"
     inkscape:connector-curvature="0"
     style="fill:#5c5c5c;fill-opacity:1" /><path
     d="m 79.8,78 -26,0 c -0.6,0 -1,-0.4 -1,-1 0,-0.6 0.4,-1 1,-1 l 26.1,0 c 0.6,0 1,0.4 1,1 0,0.6 -0.5,1 -1.1,1 z"
     id="path123"
     inkscape:connector-curvature="0"
     style="fill:#5c5c5c;fill-opacity:1" /><path
     d="m 79.8,67 -26,0 c -0.6,0 -1,-0.4 -1,-1 0,-0.6 0.4,-1 1,-1 l 26.1,0 c 0.6,0 1,0.4 1,1 0,0.6 -0.5,1 -1.1,1 z"
     id="path125"
     inkscape:connector-curvature="0"
     style="fill:#5c5c5c;fill-opacity:1" /><path
     d="M95,100.9v7.9c0,3.3-2.2,6.2-5.5,6.2h-63c-3.3,0-6.5-2.9-6.5-6.2v-89c0-3.3,3.2-5.8,6.5-5.8h63  c3.3,0,5.5,2.5,5.5,5.8v48.9l4-4V19.8c0-5.5-4-9.8-9.5-9.8h-63C21,10,16,14.3,16,19.8v89c0,5.5,5,10.2,10.5,10.2h63  c5.5,0,9.5-4.7,9.5-10.2V96.9L95,100.9z"
     fill="#2C3E50"
     id="path127"
     style="fill:#5c5c5c;fill-opacity:1" /><path
     d="M115.7,71.2c0-0.5-0.2-0.9-0.6-1.2c0,0,0,0,0,0l-5.2-5.2c0,0,0,0,0,0c-0.3-0.3-0.8-0.5-1.3-0.6l-4.9-0.3  c-0.6,0-1.1,0.2-1.5,0.5c0,0,0,0,0,0L77.4,89.2c-0.8,0.8-0.8,2,0,2.8c0.4,0.4,0.9,0.6,1.4,0.6s1-0.2,1.4-0.6l24.2-24.2l3.3,0.2  l4.1,4.1l0.2,3.3L87.8,99.6c-0.8,0.8-0.8,2,0,2.8c0.4,0.4,0.9,0.6,1.4,0.6s1-0.2,1.4-0.6l24.8-24.8c0.4-0.4,0.6-1,0.6-1.5  c0,0,0,0,0,0L115.7,71.2z"
     fill="#3B97D3"
     id="path129"
     style="fill:#ff4c00;fill-opacity:1" /><path
     d="M84.4,96.6l23.9-23.9c0.4-0.4,0.4-1,0-1.4s-1-0.4-1.4,0L83,95.2c-0.4,0.4-0.4,1,0,1.4  c0.2,0.2,0.5,0.3,0.7,0.3S84.2,96.8,84.4,96.6z"
     fill="#3B97D3"
     id="path131"
     style="fill:#ff4c00;fill-opacity:1" /><path
     d="M84.8,103l-7,1.6l-2.7-2.7l1.7-7c0.3-1.1-0.4-2.2-1.5-2.4c-1.1-0.3-2.2,0.4-2.4,1.5l-3.2,13.7  c-0.3,1.1,0.4,2.2,1.5,2.4c0.2,0,0.3,0.1,0.5,0.1c0.2,0,0.3,0,0.5-0.1c0,0,0,0,0,0l13.7-3.2c1.1-0.3,1.7-1.3,1.5-2.4  C87,103.4,85.9,102.8,84.8,103z"
     fill="#3B97D3"
     id="path133"
     style="fill:#ff4c00;fill-opacity:1" /><path
     id="line23"
     style="color:#000000;font-style:normal;font-variant:normal;font-weight:normal;font-stretch:normal;font-size:medium;line-height:normal;font-family:sans-serif;text-indent:0;text-align:start;text-decoration:none;text-decoration-line:none;text-decoration-style:solid;text-decoration-color:#000000;letter-spacing:normal;word-spacing:normal;text-transform:none;direction:ltr;block-progression:tb;writing-mode:lr-tb;baseline-shift:baseline;text-anchor:start;white-space:normal;clip-rule:nonzero;display:inline;overflow:visible;visibility:visible;opacity:1;isolation:auto;mix-blend-mode:normal;color-interpolation:sRGB;color-interpolation-filters:linearRGB;solid-color:#000000;solid-opacity:1;fill:#ff4c00;fill-opacity:1;fill-rule:nonzero;stroke:none;stroke-width:2.77988267;stroke-linecap:round;stroke-linejoin:round;stroke-miterlimit:10;stroke-dasharray:none;stroke-dashoffset:0;stroke-opacity:1;color-rendering:auto;image-rendering:auto;shape-rendering:auto;text-rendering:auto;enable-background:accumulate"
     d="m 65.175781,26.90625 a 1.3900803,1.3900803 0 0 0 -1.304687,1.179688 l -1.390625,8.339843 a 1.3900803,1.3900803 0 1 0 2.742187,0.457031 l 1.388672,-8.339843 A 1.3900803,1.3900803 0 0 0 65.175781,26.90625 Z m -12.419922,-0.002 a 1.3900803,1.3900803 0 0 0 -1.394531,1.638672 L 52.75,36.882812 a 1.3900803,1.3900803 0 1 0 2.742188,-0.457031 l -1.388672,-8.339843 a 1.3900803,1.3900803 0 0 0 -1.347657,-1.181641 z m 17.648438,16.693359 a 1.3900803,1.3900803 0 0 0 -0.371094,0.05078 c -3.085779,0.804986 -6.702685,1.345703 -11.603515,1.345703 -4.360941,0 -8.442176,-0.419019 -11.462891,-1.207032 a 1.3900803,1.3900803 0 1 0 -0.701172,2.689453 c 3.373015,0.879918 7.629379,1.296876 12.164063,1.296876 5.106747,0 8.996736,-0.572603 12.304687,-1.435547 A 1.3900803,1.3900803 0 0 0 70.404297,43.597654 Z M 52.732422,24.144531 a 1.3900803,1.3900803 0 0 0 -1.390625,1.388672 l 0,1.466797 c -1.000107,0.29346 -2.465218,0.820155 -4.335938,2.117188 -2.644152,1.833278 -5.489152,5.119259 -6.833984,10.316406 l -0.505859,0 a 1.3900803,1.3900803 0 0 0 -1.375,1.183594 c -0.199753,1.331687 -0.342726,1.759426 -0.480469,2.330078 -0.137744,0.570651 -0.228516,1.226933 -0.228516,2.46289 0,1.455875 0.8673,2.693969 2.041016,3.63086 1.173716,0.93689 2.72232,1.683673 4.587891,2.308593 3.731141,1.249841 8.745947,1.982422 14.359374,1.982422 5.613428,0 10.760266,-0.732314 14.621094,-1.976562 1.930414,-0.622124 3.542515,-1.3645 4.767578,-2.292969 1.225064,-0.928469 2.154297,-2.16083 2.154297,-3.652344 0,-2.012105 -0.151392,-3.399538 -0.443359,-4.859375 a 1.3900803,1.3900803 0 0 0 -1.363281,-1.117187 l -1.339844,0 C 75.64986,34.401525 73.013912,31.248671 70.5625,29.507812 68.908351,28.333127 67.581998,27.835905 66.630859,27.550781 l 0,-2.017578 a 1.3900803,1.3900803 0 0 0 -1.390625,-1.388672 l -12.507812,0 z m 1.388672,2.779297 9.730468,0 0,1.667969 a 1.3900803,1.3900803 0 0 0 1.164063,1.371094 c 0,0 1.782368,0.282044 3.9375,1.8125 2.155132,1.530456 4.584472,4.236512 5.628906,9.328125 a 1.3900803,1.3900803 0 0 0 1.361328,1.109375 l 1.101563,0 c 0.143269,0.947557 0.289062,1.80429 0.289062,3.197265 0,0.31541 -0.216557,0.802286 -1.054687,1.4375 -0.83813,0.635215 -2.20585,1.302002 -3.941406,1.861328 -3.471112,1.118653 -8.400469,1.84375 -13.767579,1.84375 -5.367108,0 -10.153752,-0.726784 -13.476562,-1.839843 -1.661405,-0.55653 -2.951096,-1.216957 -3.736328,-1.84375 -0.785233,-0.626793 -0.996094,-1.107936 -0.996094,-1.458985 0,-1.126942 0.04685,-1.37349 0.152344,-1.810547 0.05692,-0.235819 0.184126,-0.925736 0.285156,-1.386718 l 0.396484,0 a 1.3900803,1.3900803 0 0 0 1.363282,-1.117188 c 1.041403,-5.207014 3.661359,-8.050235 6.03125,-9.693359 2.369891,-1.643125 4.386718,-1.998047 4.386718,-1.998047 a 1.3900803,1.3900803 0 0 0 1.144532,-1.369141 l 0,-1.111328 z"
     inkscape:connector-curvature="0" /></svg>