<?xml version="1.0" encoding="UTF-8" standalone="no"?>
<svg
   xmlns:dc="http://purl.org/dc/elements/1.1/"
   xmlns:cc="http://creativecommons.org/ns#"
   xmlns:rdf="http://www.w3.org/1999/02/22-rdf-syntax-ns#"
   xmlns:svg="http://www.w3.org/2000/svg"
   xmlns="http://www.w3.org/2000/svg"
   xmlns:sodipodi="http://sodipodi.sourceforge.net/DTD/sodipodi-0.dtd"
   xmlns:inkscape="http://www.inkscape.org/namespaces/inkscape"
   enable-background="new 0 0 128 128"
   height="128px"
   id="Layer_1"
   version="1.1"
   viewBox="0 0 128 128"
   width="128px"
   xml:space="preserve"
   inkscape:version="0.91 r13725"
   sodipodi:docname="contractor.svg"><metadata
     id="metadata25"><rdf:RDF><cc:Work
         rdf:about=""><dc:format>image/svg+xml</dc:format><dc:type
           rdf:resource="http://purl.org/dc/dcmitype/StillImage" /></cc:Work></rdf:RDF></metadata><defs
     id="defs23" /><sodipodi:namedview
     pagecolor="#ffffff"
     bordercolor="#666666"
     borderopacity="1"
     objecttolerance="10"
     gridtolerance="10"
     guidetolerance="10"
     inkscape:pageopacity="0"
     inkscape:pageshadow="2"
     inkscape:window-width="1920"
     inkscape:window-height="1035"
     id="namedview21"
     showgrid="false"
     inkscape:zoom="0.92187498"
     inkscape:cx="-185.62961"
     inkscape:cy="-37.646865"
     inkscape:window-x="0"
     inkscape:window-y="24"
     inkscape:window-maximized="1"
     inkscape:current-layer="Layer_1" /><path
     style="fill:#5c5c5c;fill-opacity:1"
     d="m 13.919766,8.8482958 c -5.5000004,0 -10.5000004,4.2988392 -10.5000004,9.7988292 l 0,88.999995 c 0,5.5 5,10.20117 10.5000004,10.20117 l 63,0 c 5.5,0 9.5,-4.70117 9.5,-10.20117 l 0,-11.613275 c -0.88565,0.49195 -1.78849,0.9526 -2.70508,1.38281 l -1.29492,0.79883 0,9.431635 c 0,3.29999 -2.2,6.20117 -5.5,6.20117 l -63,0 c -3.3,0 -6.5000004,-2.90118 -6.5000004,-6.20117 l 0,-88.999995 c 0,-3.29999 3.2000004,-5.79883 6.5000004,-5.79883 l 63,0 c 3.17373,0 5.32401,2.31341 5.48437,5.42578 1.37107,0.58742 2.71192,1.24518 4.01563,1.97266 l 0,-1.59961 c 0,-5.49999 -4,-9.7988292 -9.5,-9.7988292 z"
     id="path4433"
     inkscape:connector-curvature="0" /><path
     style="fill:#ff4c00;fill-opacity:1"
     d="m 19.142416,33.533845 c -0.40591,0 -0.67773,0.4 -0.67773,1 0,0.6 0.27182,1 0.67773,1 l 9.2168,0 c 0.42389,-0.67885 0.86629,-1.34467 1.32617,-2 z"
     id="path4431"
     inkscape:connector-curvature="0" /><path
     style="fill:#5c5c5c;fill-opacity:1"
     d="m 88.419766,35.352205 0,45.39453 c 1.48121,-1.48941 2.82344,-3.10949 4,-4.83789 l 0,-35.67969 c -1.17979,-1.74135 -2.52144,-3.37591 -4,-4.87695 z"
     id="path4429"
     inkscape:connector-curvature="0" /><path
     style="fill:#ff4c00;fill-opacity:1"
     d="m 38.904136,39.436185 c -0.53615,0.75331 -1.03845,1.52937 -1.50781,2.32617 l 35.59961,0 c 0.55166,0 1.01172,-0.46427 1.01172,-1.1621 0,-0.69783 -0.36826,-1.16407 -0.91993,-1.16407 z"
     id="path4427"
     inkscape:connector-curvature="0" /><path
     style="fill:#ff4c00;fill-opacity:1"
     d="m 19.142416,45.533845 c -0.40591,0 -0.67773,0.4 -0.67773,1 0,0.6 0.27182,1 0.67773,1 l 4.04492,0 c 0.17155,-0.6722 0.35929,-1.33845 0.56446,-2 z"
     id="path4425"
     inkscape:connector-curvature="0" /><path
     style="fill:#ff4c00;fill-opacity:1"
     d="m 33.327966,53.393215 c -0.12895,0.77363 -0.21726,1.54979 -0.2793,2.32618 l 39.94727,0 c 0.55166,0 1.01172,-0.46428 1.01172,-1.16211 0,-0.69783 -0.36826,-1.16407 -0.91993,-1.16407 z"
     id="path4423"
     inkscape:connector-curvature="0" /><path
     style="fill:#ff4c00;fill-opacity:1"
     d="m 19.142416,57.533845 c -0.40591,0 -0.67773,0.40001 -0.67773,1 0,0.60001 0.27182,1 0.67773,1 l 2.82422,0 c -0.005,-0.44707 -0.0161,-0.89276 -0.006,-1.3418 -0.005,-0.22008 0.004,-0.43858 0.002,-0.6582 z"
     id="path4421"
     inkscape:connector-curvature="0" /><path
     style="fill:#ff4c00;fill-opacity:1"
     d="m 34.249836,66.645175 c 0.23502,0.78463 0.50688,1.55944 0.80078,2.32617 l 37.94532,0 c 0.55166,0 1.01172,-0.46428 1.01172,-1.16211 0,-0.69783 -0.36826,-1.16406 -0.91993,-1.16406 z"
     id="path4419"
     inkscape:connector-curvature="0" /><path
     style="fill:#ff4c00;fill-opacity:1"
     d="m 19.142416,68.928375 c -0.40591,0 -0.67773,0.4 -0.67773,1 0,0.6 0.27182,1 0.67773,1 l 4.6543,0 c -0.20759,-0.66145 -0.39829,-1.32781 -0.57227,-2 z"
     id="path4417"
     inkscape:connector-curvature="0" /><path
     style="fill:#ff4c00;fill-opacity:1"
     d="m 42.460776,80.602205 c 0.78472,0.81613 1.60913,1.59253 2.46875,2.32617 l 28.06641,0 c 0.55166,0 1.01172,-0.46428 1.01172,-1.16211 0,-0.69783 -0.36826,-1.16406 -0.91993,-1.16406 z"
     id="path4415"
     inkscape:connector-curvature="0" /><path
     style="fill:#ff4c00;fill-opacity:1"
     d="m 19.142416,80.928375 c -0.40591,0 -0.67773,0.40001 -0.67773,1 0,0.60001 0.27182,1 0.67773,1 l 10.63477,0 c -0.46286,-0.65464 -0.90711,-1.32166 -1.33399,-2 z"
     id="path4413"
     inkscape:connector-curvature="0" /><path
     style="fill:#ff4c00;fill-opacity:1"
     d="m 19.142416,92.928375 c -0.40591,0 -0.67773,0.4 -0.67773,1 0,0.6 0.27182,1 0.67773,1 l 23.17578,0 c -0.97979,-0.62729 -1.9311,-1.29781 -2.85937,-2 z"
     id="path143-7-7-6"
     inkscape:connector-curvature="0" /><path
     inkscape:connector-curvature="0"
     d="M 123.66197,106.42112 98.161966,80.921125 c 4.500004,-6.5 7.100004,-14.3 7.100004,-22.8 0,-0.3 0,-0.6 0,-0.9 0,-0.3 0,-0.7 0,-1 0,-0.4 0,-0.8 -0.1,-1.1 0,-0.5 -0.1,-1 -0.2,-1.5 0,-0.2 0,-0.4 -0.1,-0.5 0,0 0,0 0,0 -0.8,-5.9 -2.9,-11.8 -6.300004,-16.9 0,0 0,0 0,0 -0.5,-0.7 -0.9,-1.4 -1.5,-2 0,0 0,0 -0.1,-0.1 -1.1,-1.4 -2.2,-2.7 -3.5,-4 -0.5,-0.5 -1,-0.9 -1.5,-1.4 -0.1,-0.1 -0.2,-0.2 -0.3,-0.3 -0.4,-0.3 -0.7,-0.6 -1.1,-0.9 -0.3,-0.3 -0.7,-0.60001 -1,-0.80002 0,0 0,0 -0.1,0 0,0 0,0 0,0 -6.7,-5.20001 -15.2,-8.30001 -24.3,-8.30001 -21.99999,0 -39.89999,17.90003 -39.89999,39.90003 0,22 17.9,39.9 39.89999,39.9 8.5,0 16.4,-2.7 22.9,-7.2 l 25.500004,25.499995 c 1.4,1.4 3.2,2.10001 5,2.10001 1.8,0 3.6,-0.70001 5,-2.10001 2.8,-2.9 2.8,-7.3 0.1,-10.1 z M 29.361976,58.121125 c 0,-19.8 16.1,-35.90003 35.89999,-35.90003 8.3,0 16,2.9 22.1,7.60003 l 0,0 c 0.1,0.1 0.1,0.1 0.2,0.2 3.4,2.7 6.4,6.1 8.6,9.9 l 0,0 c 1.5,2.5 2.6,5.1 3.4,7.8 0,0 0,0 0,0 1.300004,4.3 1.800004,8.7 1.400004,13.1 l 0,0 c -1.200006,18.6 -16.700004,33.3 -35.600004,33.3 -19.79999,0 -35.99999,-16.2 -35.99999,-36 z m 91.499994,55.399995 c -0.6,0.6 -1.3,0.9 -2.1,0.9 -0.8,0 -1.6,-0.3 -2.1,-0.9 L 91.461966,88.321125 c 1.5,-1.3 2.9,-2.7 4.2,-4.3 l 25.200004,25.199995 c 1.1,1.2 1.1,3.1 0,4.3 z"
     id="path19-3-6"
     style="fill:#5c5c5c;fill-opacity:1" /></svg>