<?xml version="1.0" encoding="UTF-8" standalone="no"?>
<svg
   xmlns:dc="http://purl.org/dc/elements/1.1/"
   xmlns:cc="http://creativecommons.org/ns#"
   xmlns:rdf="http://www.w3.org/1999/02/22-rdf-syntax-ns#"
   xmlns:svg="http://www.w3.org/2000/svg"
   xmlns="http://www.w3.org/2000/svg"
   xmlns:sodipodi="http://sodipodi.sourceforge.net/DTD/sodipodi-0.dtd"
   xmlns:inkscape="http://www.inkscape.org/namespaces/inkscape"
   enable-background="new 0 0 128 128"
   id="Layer_1"
   version="1.1"
   viewBox="0 0 128 128"
   xml:space="preserve"
   inkscape:version="0.91 r13725"
   sodipodi:docname="if_free-36_685033.svg"><metadata
     id="metadata131"><rdf:RDF><cc:Work
         rdf:about=""><dc:format>image/svg+xml</dc:format><dc:type
           rdf:resource="http://purl.org/dc/dcmitype/StillImage" /></cc:Work></rdf:RDF></metadata><defs
     id="defs129" /><sodipodi:namedview
     pagecolor="#ffffff"
     bordercolor="#666666"
     borderopacity="1"
     objecttolerance="10"
     gridtolerance="10"
     guidetolerance="10"
     inkscape:pageopacity="0"
     inkscape:pageshadow="2"
     inkscape:window-width="1920"
     inkscape:window-height="1035"
     id="namedview127"
     showgrid="false"
     inkscape:zoom="0.92187498"
     inkscape:cx="242.84296"
     inkscape:cy="-79.734926"
     inkscape:window-x="0"
     inkscape:window-y="24"
     inkscape:window-maximized="1"
     inkscape:current-layer="Layer_1" /><path
     d="M73.2,51.7c-1.3-1.4-4.7-0.5-6,0.6c-1.3,1.1-10.1,7-10.1,7s-6.1-0.1-9-0.1c-3,0-2.9,2-1.3,2.4  c1.6,0.4,3.5,1.6,3.5,1.6l-6.4,4.4c0,0-3.5-0.8-6.9-1.5c-3.4-0.7-4,1.2-2.3,2.3c1.7,1.1,9,5.4,9,5.4l9.7-5c0,0,0.2,2.7,0.2,4.1  c0,1.4,1.5,3.5,2.8,1c1.3-2.5,4.1-9.3,4.1-9.3s9.1-6.9,10.8-8.3C72.9,54.8,74.4,53.2,73.2,51.7z M69.9,54.7  C68.3,56.1,59.3,63,59.2,63l-0.4,0.3l-0.2,0.5c0,0.1-1.7,4.2-3.1,7.1c-0.1-1.2-0.2-2.3-0.2-2.4L55,65.7l-11.3,5.8  c-1.2-0.7-3.4-2-5.2-3.1c2.7,0.5,4.9,1.1,5,1.1l0.9,0.2l9.6-6.6l-2.6-1.6c-0.1,0-0.2-0.1-0.5-0.3c2.9,0,6.2,0.1,6.2,0.1l0.6,0  l0.5-0.4c0.9-0.6,8.9-6,10.2-7.1c0.3-0.3,1.3-0.7,2.3-0.8c0.4,0,0.7,0,0.8,0C71.4,53.3,71,53.8,69.9,54.7z"
     fill="#2C3E50"
     id="path101"
     style="fill:#5c5c5c;fill-opacity:1" /><path
     d="M19.8,18.6l8.4,90.1c0.2,2.2,2.2,3.8,4.4,3.6l51-4.7c2.2-0.2,3.8-2.2,3.6-4.4l-8.4-90.1  c-0.2-2.2-2.2-3.8-4.4-3.6l-51,4.7C21.2,14.4,19.6,16.4,19.8,18.6z M74.8,13.4l8.4,90.1l-51,4.7l-8.4-90.1L74.8,13.4z"
     fill="#3B97D3"
     id="path103"
     style="fill:#ff4c00;fill-opacity:1" /><circle
     cx="71.7"
     cy="40.5"
     fill="#3B97D3"
     r="3"
     id="circle105"
     style="fill:#ff4c00;fill-opacity:1" /><circle
     cx="63.8"
     cy="41.2"
     fill="#3B97D3"
     r="3"
     id="circle107"
     style="fill:#ff4c00;fill-opacity:1" /><circle
     cx="55.8"
     cy="42"
     fill="#3B97D3"
     r="3"
     id="circle109"
     style="fill:#ff4c00;fill-opacity:1" /><circle
     cx="47.8"
     cy="42.7"
     fill="#3B97D3"
     r="3"
     id="circle111"
     style="fill:#ff4c00;fill-opacity:1" /><circle
     cx="39.9"
     cy="43.4"
     fill="#3B97D3"
     r="3"
     id="circle113"
     style="fill:#ff4c00;fill-opacity:1" /><circle
     cx="31.9"
     cy="44.2"
     fill="#3B97D3"
     r="3"
     id="circle115"
     style="fill:#ff4c00;fill-opacity:1" /><path
     d="M72.8,84.3l-33.4,3.1c-0.5,0.1-1-0.4-1.1-0.9c-0.1-0.5,0.4-1,0.9-1.1l33.4-3.1c0.5-0.1,1,0.4,1.1,0.9  C73.7,83.8,73.3,84.3,72.8,84.3z"
     fill="#3B97D3"
     id="path117"
     style="fill:#ff4c00;fill-opacity:1" /><path
     d="M73.3,90.3L40,93.4c-0.5,0.1-1-0.4-1.1-0.9c-0.1-0.5,0.4-1,0.9-1.1l33.4-3.1c0.5-0.1,1,0.4,1.1,0.9  C74.3,89.8,73.9,90.2,73.3,90.3z"
     fill="#3B97D3"
     id="path119"
     style="fill:#ff4c00;fill-opacity:1" /><path
     d="M67.5,27.6l-33.4,3.1c-0.5,0.1-1-0.4-1.1-0.9c-0.1-0.5,0.4-1,0.9-1.1l33.4-3.1c0.5-0.1,1,0.4,1.1,0.9  C68.4,27,68,27.5,67.5,27.6z"
     fill="#3B97D3"
     id="path121"
     style="fill:#ff4c00;fill-opacity:1" /><path
     d="M73.9,96.3l-33.4,3.1c-0.5,0.1-1-0.4-1.1-0.9c-0.1-0.5,0.4-1,0.9-1.1l33.4-3.1c0.5-0.1,1,0.4,1.1,0.9  C74.8,95.7,74.4,96.2,73.9,96.3z"
     fill="#3B97D3"
     id="path123"
     style="fill:#ff4c00;fill-opacity:1" /><path
     d="M98.7,19.1l-17.4-0.9l0.4,4l16.9,0.9l-4.8,90.4l-32.9-1.8l-21,2c0.7,0.6,1.5,1,2.5,1.1l51.2,2.7  c2.2,0.1,4.1-1.6,4.2-3.8l4.8-90.4C102.6,21.1,100.9,19.2,98.7,19.1z"
     fill="#3B97D3"
     id="path125"
     style="fill:#5c5c5c;fill-opacity:1" /></svg>