<?xml version="1.0" encoding="UTF-8" standalone="no"?>
<svg
   xmlns:dc="http://purl.org/dc/elements/1.1/"
   xmlns:cc="http://creativecommons.org/ns#"
   xmlns:rdf="http://www.w3.org/1999/02/22-rdf-syntax-ns#"
   xmlns:svg="http://www.w3.org/2000/svg"
   xmlns="http://www.w3.org/2000/svg"
   xmlns:sodipodi="http://sodipodi.sourceforge.net/DTD/sodipodi-0.dtd"
   xmlns:inkscape="http://www.inkscape.org/namespaces/inkscape"
   enable-background="new 0 0 128 128"
   height="128px"
   id="Layer_1"
   version="1.1"
   viewBox="0 0 128 128"
   width="128px"
   xml:space="preserve"
   inkscape:version="0.91 r13725"
   sodipodi:docname="if_seo3-37_417821.svg"><metadata
     id="metadata105"><rdf:RDF><cc:Work
         rdf:about=""><dc:format>image/svg+xml</dc:format><dc:type
           rdf:resource="http://purl.org/dc/dcmitype/StillImage" /></cc:Work></rdf:RDF></metadata><defs
     id="defs103" /><sodipodi:namedview
     pagecolor="#ffffff"
     bordercolor="#666666"
     borderopacity="1"
     objecttolerance="10"
     gridtolerance="10"
     guidetolerance="10"
     inkscape:pageopacity="0"
     inkscape:pageshadow="2"
     inkscape:window-width="1920"
     inkscape:window-height="1035"
     id="namedview101"
     showgrid="false"
     inkscape:zoom="0.65186406"
     inkscape:cx="-57.691181"
     inkscape:cy="115.22625"
     inkscape:window-x="0"
     inkscape:window-y="24"
     inkscape:window-maximized="1"
     inkscape:current-layer="Layer_1" /><path
     d="M122.4,85.4c-1-18.4-17.8-17.6-24.5-15.7c-5.8,1.6-10.4,6.8-14.1,18.4c-1.2,3.8-5.3,6.6-4.2,7.8  c1.1,1.2,2.8,1.3,2.8,1.3s1.5,2.8-1.5,9.1c-1.6,3.4,9,6.3,9,6.3V123c13.9,1.5,20.7-4.6,20.7-4.6v-9.8  C110.5,108.6,123.4,101.5,122.4,85.4z M108.5,105.1l-2.1,1.1v10.1c-1.9,1.1-5.9,2.9-12.3,2.9c0,0-0.3,0-0.4,0v-9.8l-3-0.8  c-2.1-0.6-4.4-1.5-5.7-2.3c2.7-6.6,1.2-10.2,0.7-11.2l-0.7-1.3c0.9-1.3,1.9-2.8,2.5-4.6c4-12.4,8.5-15,11.4-15.8  c0.8-0.2,3.1-0.8,6-0.8c8.4,0,13,4.3,13.4,12.9C119.2,99.1,108.6,105,108.5,105.1z"
     fill="#2C3E50"
     id="path87"
     style="fill:#5c5c5c;fill-opacity:1" /><path
     d="M49.9,89.2c1.1-1.2-3-4-4.2-7.8C41.9,69.8,37.3,64.7,31.5,63C24.9,61.1,8.1,60.3,7,78.7  C6.1,94.9,19,102,19,102v9.8c0,0,6.7,6.2,20.7,4.6V106c0,0,10.6-2.9,9-6.3c-3-6.4-1.5-9.1-1.5-9.1S48.8,90.4,49.9,89.2z M38.6,102.1  l-2.9,0.8l0,9.7c-0.1,0-0.3,0-0.4,0c-6.3,0-10.4-1.8-12.3-3V99.6l-2.1-1.1C20.5,98.2,10.3,92.3,11,79c0.5-8.5,5-12.9,13.4-12.9  c2.9,0,5.1,0.5,6,0.8c3,0.8,7.4,3.4,11.4,15.8c0.6,1.7,1.5,3.2,2.4,4.5l-0.6,1.5c-0.6,1-2,4.6,0.7,11.2  C43,100.6,40.7,101.5,38.6,102.1z"
     fill="#3B97D3"
     id="path89"
     style="fill:#5c5c5c;fill-opacity:1" /><path
     d="M94,17h-4v4h4c3.3,0,6,2.7,6,6v29c0,3.3-2.7,6-6,6h-9h-4v4v3.9l-10-7L70,62h-1.4H52c-1.9,0-3.6-0.9-4.7-2.3  L44.1,62c1.8,2.4,4.7,4,7.9,4h16.6L85,78V66h9c5.5,0,10-4.5,10-10V27C104,21.5,99.5,17,94,17z"
     fill="#2C3E50"
     id="path91"
     style="fill:#5c5c5c;fill-opacity:1" /><path
     d="M36,7c-3.3,0-6,2.7-6,6v29c0,3.3,2.7,6,6,6h2h4v4v3.9l10-7L53,48h1.4H78c3.3,0,6-2.7,6-6V13c0-3.3-2.7-6-6-6  H36 M36,3h42c5.5,0,10,4.5,10,10v29c0,5.5-4.5,10-10,10H54.4L38,64V52h-2c-5.5,0-10-4.5-10-10V13C26,7.5,30.5,3,36,3L36,3z"
     fill="#3B97D3"
     id="path93"
     style="fill:#ff4c00;fill-opacity:1" /><g
     id="g6062"
     style="fill:#ff4c00;fill-opacity:1"
     transform="translate(0,1.1505466)"><path
       inkscape:connector-curvature="0"
       id="path5472-6"
       d="m 63.826172,13.175781 c -0.943448,0 -6.470755,0.109184 -8.09375,0.271485 a 1.3268568,1.3268568 0 0 0 -0.01367,0.002 c -1.020483,0.113386 -1.933268,0.561191 -2.789062,0.96289 -0.676895,0.317727 -1.014982,0.507009 -1.226563,0.621094 l -1.277344,0 a 1.3271485,1.3271485 0 1 0 0,2.654297 l 1.591797,0 a 1.3268568,1.3268568 0 0 0 0.638672,-0.164062 c 0,0 0.630948,-0.347818 1.400391,-0.708985 0.767841,-0.360415 1.774488,-0.705954 1.951171,-0.726562 1.042348,-0.102869 7.139073,-0.257272 7.804688,-0.257813 2.369639,0.0663 4.272628,0.173356 5.396484,0.582031 1.128725,0.410446 1.576417,0.814762 1.792969,2.384766 l -0.0059,-0.05469 c 0.265022,2.782729 0.279719,2.24994 0.664062,4.929687 0.04609,0.414778 0.107494,2.132454 -0.164062,3.490234 -0.135778,0.67889 -0.362654,1.270679 -0.583985,1.580079 -0.221331,0.309399 -0.288429,0.355468 -0.585937,0.355468 l -8.226563,0 a 1.3268568,1.3268568 0 0 0 -1.201171,1.886719 c 0,0 1.732421,3.895918 1.732421,6.869141 0,1.588667 -0.272784,2.535101 -0.511718,2.939453 -0.221825,0.375395 -0.290739,0.351131 -0.509766,0.349609 -0.08153,-0.153666 -0.210011,-0.590714 -0.283203,-1.154297 C 61.17772,38.84555 61.292193,37.37023 60.656211,35.982466 59.577442,33.524434 57.175742,30.5352 57.175742,30.5352 a 1.3268568,1.3268568 0 0 0 -0.0625,-0.07422 l -3.847656,-4.246094 a 1.3268568,1.3268568 0 0 0 -0.982422,-0.435547 l -1.857422,0 a 1.3271485,1.3271485 0 1 0 0,2.654297 l 1.269531,0 3.402344,3.755859 c 0.01839,0.02414 2.356736,3.090787 3.134766,4.869141 a 1.3268568,1.3268568 0 0 0 0.0098,0.02344 c 0.15393,0.333517 0.270279,1.84014 0.453124,3.248047 0.09142,0.703953 0.20822,1.41728 0.59961,2.121094 0.391389,0.703814 1.302459,1.373047 2.27539,1.373047 1.06138,0 2.210549,-0.626596 2.833985,-1.681641 0.623436,-1.055045 0.880859,-2.428247 0.880859,-4.289062 0,-2.4572 -0.661276,-4.568179 -1.242187,-6.103516 l 6.283203,0 c 1.161889,0 2.173583,-0.667258 2.74414,-1.464844 0.570558,-0.797585 0.848025,-1.706921 1.027344,-2.603515 0.358638,-1.79319 0.287758,-3.525414 0.201172,-4.304688 a 1.3268568,1.3268568 0 0 0 -0.0059,-0.04102 c -0.402187,-2.815308 -0.39279,-2.079369 -0.65625,-4.845704 a 1.3268568,1.3268568 0 0 0 -0.0059,-0.05664 c -0.314137,-2.277497 -1.723603,-3.862738 -3.513671,-4.513672 -1.790069,-0.650935 -3.863666,-0.677691 -6.25586,-0.744141 a 1.3268568,1.3268568 0 0 0 -0.03516,0 z"
       style="color:#000000;font-style:normal;font-variant:normal;font-weight:normal;font-stretch:normal;font-size:medium;line-height:normal;font-family:sans-serif;text-indent:0;text-align:start;text-decoration:none;text-decoration-line:none;text-decoration-style:solid;text-decoration-color:#000000;letter-spacing:normal;word-spacing:normal;text-transform:none;direction:ltr;block-progression:tb;writing-mode:lr-tb;baseline-shift:baseline;text-anchor:start;white-space:normal;clip-rule:nonzero;display:inline;overflow:visible;visibility:visible;opacity:1;isolation:auto;mix-blend-mode:normal;color-interpolation:sRGB;color-interpolation-filters:linearRGB;solid-color:#000000;solid-opacity:1;fill:#ff4c00;fill-opacity:1;fill-rule:nonzero;stroke:none;stroke-width:2.65344834;stroke-linecap:round;stroke-linejoin:round;stroke-miterlimit:10;stroke-dasharray:none;stroke-dashoffset:0;stroke-opacity:1;color-rendering:auto;image-rendering:auto;shape-rendering:auto;text-rendering:auto;enable-background:accumulate" /><path
       inkscape:connector-curvature="0"
       id="path5474-2"
       d="m 39.714844,10.789062 a 1.3268568,1.3268568 0 0 0 0.06055,2.652344 c 4.314341,0.119843 5.71429,2.033372 6.013671,3.644532 0.137405,1.436567 0.44525,4.324739 0.261719,6.787109 -0.09269,1.243581 -0.331287,2.360335 -0.652343,3.003906 -0.321057,0.643572 -0.464265,0.759766 -0.94336,0.759766 l -4.642578,0 a 1.3271485,1.3271485 0 1 0 0,2.654297 l 4.642578,0 c 1.510992,0 2.727293,-1.043696 3.31836,-2.228516 0.591066,-1.18482 0.817508,-2.565736 0.923828,-3.992188 0.212638,-2.852903 -0.137544,-5.939328 -0.267578,-7.304687 a 1.3268568,1.3268568 0 0 0 -0.01367,-0.105469 c -0.510463,-2.892625 -3.36133,-5.726454 -8.56836,-5.871094 a 1.3268568,1.3268568 0 0 0 -0.132812,0 z"
       style="color:#000000;font-style:normal;font-variant:normal;font-weight:normal;font-stretch:normal;font-size:medium;line-height:normal;font-family:sans-serif;text-indent:0;text-align:start;text-decoration:none;text-decoration-line:none;text-decoration-style:solid;text-decoration-color:#000000;letter-spacing:normal;word-spacing:normal;text-transform:none;direction:ltr;block-progression:tb;writing-mode:lr-tb;baseline-shift:baseline;text-anchor:start;white-space:normal;clip-rule:nonzero;display:inline;overflow:visible;visibility:visible;opacity:1;isolation:auto;mix-blend-mode:normal;color-interpolation:sRGB;color-interpolation-filters:linearRGB;solid-color:#000000;solid-opacity:1;fill:#ff4c00;fill-opacity:1;fill-rule:nonzero;stroke:none;stroke-width:2.65344834;stroke-linecap:round;stroke-linejoin:round;stroke-miterlimit:10;stroke-dasharray:none;stroke-dashoffset:0;stroke-opacity:1;color-rendering:auto;image-rendering:auto;shape-rendering:auto;text-rendering:auto;enable-background:accumulate" /></g></svg>