<?xml version="1.0" encoding="UTF-8" standalone="no"?>
<svg
   xmlns:dc="http://purl.org/dc/elements/1.1/"
   xmlns:cc="http://creativecommons.org/ns#"
   xmlns:rdf="http://www.w3.org/1999/02/22-rdf-syntax-ns#"
   xmlns:svg="http://www.w3.org/2000/svg"
   xmlns="http://www.w3.org/2000/svg"
   xmlns:sodipodi="http://sodipodi.sourceforge.net/DTD/sodipodi-0.dtd"
   xmlns:inkscape="http://www.inkscape.org/namespaces/inkscape"
   enable-background="new 0 0 128 128"
   height="128px"
   id="Layer_1"
   version="1.1"
   viewBox="0 0 128 128"
   width="128px"
   xml:space="preserve"
   inkscape:version="0.91 r13725"
   sodipodi:docname="if_files-19_437794.svg"><metadata
     id="metadata44"><rdf:RDF><cc:Work
         rdf:about=""><dc:format>image/svg+xml</dc:format><dc:type
           rdf:resource="http://purl.org/dc/dcmitype/StillImage" /></cc:Work></rdf:RDF></metadata><defs
     id="defs42" /><sodipodi:namedview
     pagecolor="#ffffff"
     bordercolor="#666666"
     borderopacity="1"
     objecttolerance="10"
     gridtolerance="10"
     guidetolerance="10"
     inkscape:pageopacity="0"
     inkscape:pageshadow="2"
     inkscape:window-width="1920"
     inkscape:window-height="1035"
     id="namedview40"
     showgrid="false"
     inkscape:zoom="0.921875"
     inkscape:cx="347.28048"
     inkscape:cy="75.356166"
     inkscape:window-x="0"
     inkscape:window-y="24"
     inkscape:window-maximized="1"
     inkscape:current-layer="Layer_1" /><g
     id="g4660"
     transform="translate(0,4)"><path
       style="fill:#5c5c5c;fill-opacity:1"
       id="path30"
       d="m 89.4,75 -47.1,0 c -0.6,0 -1,-0.4 -1,-1 0,-0.6 0.4,-1 1,-1 l 47.2,0 c 0.6,0 1,0.4 1,1 0,0.6 -0.5,1 -1.1,1 z"
       inkscape:connector-curvature="0" /><path
       style="fill:#5c5c5c;fill-opacity:1"
       id="path32"
       d="m 89.4,83 -47.1,0 c -0.6,0 -1,-0.4 -1,-1 0,-0.6 0.4,-1 1,-1 l 47.2,0 c 0.6,0 1,0.4 1,1 0,0.6 -0.5,1 -1.1,1 z"
       inkscape:connector-curvature="0" /><path
       style="fill:#5c5c5c;fill-opacity:1"
       id="path34"
       d="m 89.4,91 -47.1,0 c -0.6,0 -1,-0.4 -1,-1 0,-0.6 0.4,-1 1,-1 l 47.2,0 c 0.6,0 1,0.4 1,1 0,0.6 -0.5,1 -1.1,1 z"
       inkscape:connector-curvature="0" /><path
       style="fill:#5c5c5c;fill-opacity:1"
       id="path36"
       d="m 89.4,99 -47.1,0 c -0.6,0 -1,-0.4 -1,-1 0,-0.6 0.4,-1 1,-1 l 47.2,0 c 0.6,0 1,0.4 1,1 0,0.6 -0.5,1 -1.1,1 z"
       inkscape:connector-curvature="0" /></g><path
     d="M99.5,9h-66C28,9,23,13,23,18.5v90c0,5.5,5,10.5,10.5,10.5h66c5.5,0,9.5-5,9.5-10.5v-90C109,13,105,9,99.5,9  z M105,108.5c0,3.3-2.2,6.5-5.5,6.5h-66c-3.3,0-6.5-3.2-6.5-6.5v-90c0-3.3,3.2-5.5,6.5-5.5h66c3.3,0,5.5,2.2,5.5,5.5V108.5z"
     fill="#2C3E50"
     id="path38"
     style="fill:#5c5c5c;fill-opacity:1" /><g
     id="g3762"
     transform="translate(-116.61017,16.20339)"
     style="fill:#5c5c5c;fill-opacity:1"><g
       id="g4651"><path
         inkscape:connector-curvature="0"
         id="path5-2"
         d="m 164.01857,30.061541 a 1.50015,1.50015 0 0 0 -0.11914,0.01367 c -0.97718,0.139598 -2.11591,0.572314 -2.83593,1.652343 l 0.1875,-0.228513 -0.19922,0.199218 a 1.50015,1.50015 0 0 0 -0.11133,0.123047 c -0.83047,1.038092 -2.02734,2.638676 -2.02734,2.638676 a 1.50015,1.50015 0 0 0 -0.0879,0.12695 c -0.37944,0.63241 -0.6621,1.36315 -0.66211,2.14648 1e-5,0.78334 0.25525,1.49292 0.60743,2.19727 a 1.50015,1.50015 0 0 0 0.0469,0.084 c 0.8932,1.53119 3.40581,4.7769 5.73438,7.10547 a 1.50015,1.50015 0 0 0 0.0254,0.0234 c 1.15278,1.10038 2.73966,2.45977 4.1582,3.625 1.41854,1.16523 2.50056,2.03722 3.18164,2.46289 0.84782,0.52989 1.71245,0.54899 2.46875,0.43555 0.7563,-0.11345 1.4558,-0.26799 2.09766,-1.07032 0.10858,-0.13572 0.7536,-0.86851 1.37109,-1.57422 0.59455,-0.67948 1.14947,-1.31354 1.51953,-1.82031 0.73187,-0.88742 1.03906,-2.02701 1.03906,-3.14258 a 1.50015,1.50015 0 0 0 -0.0117,-0.18554 c -0.23031,-1.84253 -1.58853,-3.24189 -3.27539,-3.71875 0.0973,-0.31812 0.22859,-0.60486 0.17774,-1.0625 a 1.50015,1.50015 0 0 0 -0.004,-0.0195 c -0.25214,-2.01709 -1.86228,-3.46397 -3.77149,-3.78321 0.0182,-0.17863 0.10092,-0.28835 0.0723,-0.51757 -0.29636,-2.370927 -2.44339,-4.056276 -4.78125,-3.91016 a 1.50015,1.50015 0 0 0 -0.11914,0.01172 c -0.33372,0.04767 -0.44104,0.190255 -0.64062,0.294922 -0.83478,-1.335732 -2.35148,-2.213018 -4.04102,-2.107422 z m 0.24414,3.009765 c 0.68633,-0.01958 1.1081,0.35406 1.30664,0.888672 -0.0374,0.06537 -0.0643,0.116089 -0.10351,0.183594 -0.21797,0.37539 -0.43945,0.74414 -0.43945,0.74414 a 1.50015,1.50015 0 0 0 2.45703,1.70899 c 0.14667,-0.18334 0.61391,-0.72451 1.06445,-1.16407 0.22451,-0.21903 0.45159,-0.41641 0.60938,-0.5332 0.77435,0.0215 1.37029,0.47411 1.46679,1.24609 -0.0303,-0.2427 0.002,-0.0911 -0.0684,0.11719 -0.0705,0.20826 -0.19878,0.50303 -0.34765,0.80078 -0.29775,0.5955 -0.68642,1.2269 -0.84375,1.46289 a 1.50015,1.50015 0 0 0 2.08007,2.08008 c 0.34702,-0.23134 0.40699,-0.32902 0.59571,-0.50781 0.18872,-0.17879 0.39846,-0.38296 0.59961,-0.57227 0.1278,-0.12028 0.22263,-0.20215 0.32812,-0.29492 0.70582,0.0684 1.25331,0.47941 1.34961,1.20117 -0.0188,-0.17508 0.002,-0.0603 -0.0781,0.15039 -0.0843,0.22158 -0.23462,0.53132 -0.41211,0.83789 -0.35498,0.61315 -0.88085,1.2832 -0.97461,1.37696 a 1.50015,1.50015 0 0 0 1.73047,2.40234 c 0.31569,-0.15784 0.31832,-0.20059 0.40039,-0.26758 0.0821,-0.067 0.15888,-0.13382 0.24219,-0.20703 0.16662,-0.14642 0.35435,-0.31517 0.53516,-0.47265 0.10854,-0.0945 0.186,-0.15614 0.27734,-0.23047 0.69456,0.0545 1.21806,0.4589 1.34375,1.14453 -0.0153,0.55479 -0.0861,0.84939 -0.32227,1.13281 a 1.50015,1.50015 0 0 0 -0.0684,0.0879 c -0.13218,0.18505 -0.78702,0.96391 -1.39453,1.6582 -0.6075,0.69429 -1.16366,1.31151 -1.45507,1.67578 0.24185,-0.30232 0.0425,-0.058 -0.20118,-0.0215 -0.2437,0.0365 -0.48141,-0.0436 -0.43359,-0.0137 -0.11892,-0.0743 -1.48573,-1.10155 -2.86719,-2.23632 -1.37604,-1.13033 -2.92944,-2.46454 -3.97656,-3.46289 -2.05786,-2.061 -4.69666,-5.5543 -5.22461,-6.44727 -0.21242,-0.44076 -0.27539,-0.69659 -0.27539,-0.80664 0,-0.11176 0.0315,-0.24368 0.22656,-0.57617 0.0872,-0.11603 1.11617,-1.48243 1.85547,-2.410159 l 0.12696,-0.126953 a 1.50015,1.50015 0 0 0 0.1875,-0.228516 c 0.0735,-0.110239 0.33881,-0.249881 0.70312,-0.320313 z m 8.34961,3.087896 c -0.0233,0 -0.0112,0.009 -0.0332,0.01 -0.0209,0.001 -0.0396,-0.009 -0.0606,-0.008 l 0.0937,-0.002 z m 3.09961,4.80078 c -0.0231,0 -0.0134,0.009 -0.0352,0.01 -0.0202,9.9e-4 -0.0383,-0.009 -0.0586,-0.008 l 0.0937,-0.002 z"
         style="color:#000000;font-style:normal;font-variant:normal;font-weight:normal;font-stretch:normal;font-size:medium;line-height:normal;font-family:sans-serif;text-indent:0;text-align:start;text-decoration:none;text-decoration-line:none;text-decoration-style:solid;text-decoration-color:#000000;letter-spacing:normal;word-spacing:normal;text-transform:none;direction:ltr;block-progression:tb;writing-mode:lr-tb;baseline-shift:baseline;text-anchor:start;white-space:normal;clip-rule:nonzero;display:inline;overflow:visible;visibility:visible;opacity:1;isolation:auto;mix-blend-mode:normal;color-interpolation:sRGB;color-interpolation-filters:linearRGB;solid-color:#000000;solid-opacity:1;fill:#ff4c00;fill-opacity:1;fill-rule:nonzero;stroke:none;stroke-width:3;stroke-linecap:round;stroke-linejoin:round;stroke-miterlimit:10;stroke-dasharray:none;stroke-dashoffset:0;stroke-opacity:1;color-rendering:auto;image-rendering:auto;shape-rendering:auto;text-rendering:auto;enable-background:accumulate" /><path
         inkscape:connector-curvature="0"
         id="path7-9"
         d="m 164.8174,7.7783373 c -0.34155,0.0058 -0.6629,0.08173 -0.93945,0.175781 -0.55311,0.188109 -1.03468,0.47594 -1.52539,0.824219 -0.98143,0.696557 -1.98619,1.6610357 -2.99219,2.7519527 -2.01199,2.181834 -3.95953,4.809199 -4.97461,6.726563 -0.96797,1.828388 -1.66344,3.760763 -1.97461,5.486328 -0.15558,0.862783 -0.22009,1.671955 -0.1289,2.449219 0.0912,0.777264 0.33897,1.609302 1.07031,2.21875 1.23148,1.026237 4.31836,3.515625 4.31836,3.515625 a 1.50015,1.50015 0 1 0 1.88281,-2.335937 c 0,0 -3.11273,-2.510612 -4.28125,-3.484375 0.13134,0.109447 0.0283,0.07977 -0.0117,-0.261719 -0.0401,-0.341486 -0.0159,-0.908095 0.10352,-1.570313 0.23883,-1.324434 0.8418,-3.041669 1.67383,-4.613281 0.78492,-1.482636 2.68933,-4.10449 4.52734,-6.097657 0.919,-0.996583 1.83807,-1.852026 2.52539,-2.339844 0.3239,-0.229882 0.5789,-0.354183 0.71094,-0.404297 2.24517,1.053537 11.09961,5.009767 11.09961,5.009767 a 1.5003143,1.5003143 0 1 0 1.22265,-2.740235 c 0,0 -9.40322,-4.2034147 -11.24023,-5.0722657 -0.3622,-0.181097 -0.72485,-0.244085 -1.06641,-0.238281 z"
         style="color:#000000;font-style:normal;font-variant:normal;font-weight:normal;font-stretch:normal;font-size:medium;line-height:normal;font-family:sans-serif;text-indent:0;text-align:start;text-decoration:none;text-decoration-line:none;text-decoration-style:solid;text-decoration-color:#000000;letter-spacing:normal;word-spacing:normal;text-transform:none;direction:ltr;block-progression:tb;writing-mode:lr-tb;baseline-shift:baseline;text-anchor:start;white-space:normal;clip-rule:nonzero;display:inline;overflow:visible;visibility:visible;opacity:1;isolation:auto;mix-blend-mode:normal;color-interpolation:sRGB;color-interpolation-filters:linearRGB;solid-color:#000000;solid-opacity:1;fill:#ff4c00;fill-opacity:1;fill-rule:nonzero;stroke:none;stroke-width:3;stroke-linecap:round;stroke-linejoin:round;stroke-miterlimit:10;stroke-dasharray:none;stroke-dashoffset:0;stroke-opacity:1;color-rendering:auto;image-rendering:auto;shape-rendering:auto;text-rendering:auto;enable-background:accumulate" /><path
         inkscape:connector-curvature="0"
         id="path9-1"
         d="m 203.22756,37.639662 a 1.50015,1.50015 0 0 0 -1.37305,1.875 c 0.36883,1.51629 0.0939,2.05361 -0.32812,2.4961 -0.42207,0.44249 -1.28418,0.799 -2.27149,0.9707 a 1.50015,1.50015 0 0 0 -1.24219,1.47852 c 0,0.0833 -0.171,0.60188 -0.80078,1.07422 -0.62977,0.47233 -1.63395,0.88474 -2.94726,0.92578 a 1.50015,1.50015 0 0 0 -1.44141,1.32031 c -0.0925,0.77079 -0.56521,1.49969 -1.27734,1.88672 -0.71213,0.38703 -1.68282,0.52147 -3.07813,-0.15625 a 1.50015,1.50015 0 0 0 -1.79101,0.36914 c -0.93311,1.0824 -1.8743,1.27452 -2.96094,1.16211 -1.08665,-0.11241 -2.25331,-0.68498 -2.89258,-1.17383 a 1.50015,1.50015 0 1 0 -1.82226,2.38281 c 1.06073,0.81115 2.59289,1.5878 4.40625,1.77539 1.52125,0.15737 3.22335,-0.39827 4.67773,-1.59375 1.78563,0.59848 3.54395,0.60316 4.89453,-0.13086 1.21098,-0.65814 1.95443,-1.78332 2.39844,-3.02148 1.42036,-0.20684 2.69432,-0.64037 3.63476,-1.3457 0.79966,-0.59975 1.31896,-1.38476 1.64454,-2.2461 1.06593,-0.27161 2.15933,-0.68308 3.04101,-1.60742 1.12793,-1.18251 1.60344,-3.09363 1.07227,-5.27734 a 1.50015,1.50015 0 0 0 -1.54297,-1.16407 z"
         style="color:#000000;font-style:normal;font-variant:normal;font-weight:normal;font-stretch:normal;font-size:medium;line-height:normal;font-family:sans-serif;text-indent:0;text-align:start;text-decoration:none;text-decoration-line:none;text-decoration-style:solid;text-decoration-color:#000000;letter-spacing:normal;word-spacing:normal;text-transform:none;direction:ltr;block-progression:tb;writing-mode:lr-tb;baseline-shift:baseline;text-anchor:start;white-space:normal;clip-rule:nonzero;display:inline;overflow:visible;visibility:visible;opacity:1;isolation:auto;mix-blend-mode:normal;color-interpolation:sRGB;color-interpolation-filters:linearRGB;solid-color:#000000;solid-opacity:1;fill:#ff4c00;fill-opacity:1;fill-rule:nonzero;stroke:none;stroke-width:3;stroke-linecap:round;stroke-linejoin:round;stroke-miterlimit:10;stroke-dasharray:none;stroke-dashoffset:0;stroke-opacity:1;color-rendering:auto;image-rendering:auto;shape-rendering:auto;text-rendering:auto;enable-background:accumulate" /><path
         inkscape:connector-curvature="0"
         id="path11-2"
         d="m 203.76857,13.670915 c -0.39344,-0.147522 -1.00512,-0.264039 -1.62695,0.04687 -1.50023,0.750115 -6.03403,2.607001 -6.64844,2.859376 -0.58264,-0.137447 -5.72558,-1.343855 -8.22265,-2.146486 -3.11368,-1.000823 -5.24022,-0.209847 -6.89453,0.720704 -0.68879,0.387445 -2.46182,1.255665 -4.14454,2.035157 -1.68271,0.779492 -3.44199,1.5334 -3.79296,1.65039 l 0.0508,-0.01758 c -1.09634,0.322451 -2.04935,0.924743 -2.4629,1.931641 -0.41354,1.006898 -0.11205,2.046845 0.34375,2.791015 0.91161,1.488341 2.50252,2.530837 4.25391,3.134766 1.97292,0.680317 4.12138,0.346873 6.05078,-0.152344 1.92769,-0.498773 3.59085,-1.206413 4.56836,-1.755859 1.4e-4,2.11e-4 0.002,-2.12e-4 0.002,0 0.091,0.138482 0.15282,0.269236 0.61328,0.638672 0.23958,0.226393 0.44401,0.385232 0.81055,0.667969 0.41498,0.320099 0.95356,0.725749 1.58594,1.195312 1.26475,0.939126 2.90065,2.13191 4.60351,3.365234 3.40573,2.46665 7.07451,5.08887 8.59375,6.15234 a 1.50015,1.50015 0 0 0 0.85938,0.27149 c 5.7,0 10.00446,-3.943753 11.46484,-4.974611 0.55849,-0.394223 0.76499,-1.015078 0.8125,-1.447265 0.0475,-0.432188 -0.005,-0.786816 -0.082,-1.150391 -0.15474,-0.72715 -0.44785,-1.488871 -0.83594,-2.347656 -0.77616,-1.717572 -1.94849,-3.776904 -3.23437,-5.779297 -1.28588,-2.002393 -2.67483,-3.931089 -3.91406,-5.363281 -0.61962,-0.716098 -1.18917,-1.305255 -1.77539,-1.755861 -0.29312,-0.225302 -0.58507,-0.422791 -0.97852,-0.570312 z m -0.83203,2.966798 c 0.29963,0.233 0.78107,0.703263 1.31836,1.324218 1.08889,1.258433 2.43159,3.109425 3.6582,5.019532 1.22662,1.910106 2.34843,3.896477 3.0254,5.394531 0.31481,0.696646 0.50194,1.253527 0.58984,1.613281 -1.93125,1.416411 -4.98973,3.833394 -8.82422,4.00586 -1.62042,-1.139662 -4.87964,-3.46544 -8.08789,-5.789063 -1.69714,-1.229175 -3.32452,-2.417251 -4.57227,-3.34375 -0.62387,-0.46325 -1.15326,-0.861506 -1.54296,-1.162109 -0.38971,-0.300604 -0.71121,-0.584254 -0.62891,-0.501954 a 1.50015,1.50015 0 0 0 -0.13867,-0.123046 c -0.18284,-0.142205 -0.21247,-0.41063 -0.92969,-0.964844 -0.35861,-0.277107 -0.99932,-0.500521 -1.54492,-0.457031 -0.5456,0.04349 -0.98119,0.230722 -1.45313,0.482421 a 1.50015,1.50015 0 0 0 -0.0293,0.01563 c -0.62284,0.350347 -2.20596,1.042966 -3.85156,1.46875 -1.6456,0.425783 -3.39714,0.540386 -4.32422,0.220703 -1.1486,-0.396071 -2.35848,-1.353575 -2.67187,-1.865235 -0.1567,-0.25583 -0.0728,-0.215882 -0.12696,-0.08398 -0.0542,0.131898 -0.0705,-0.01581 0.53321,-0.19336 a 1.50015,1.50015 0 0 0 0.0508,-0.01562 c 0.84903,-0.28301 2.39013,-0.979883 4.10742,-1.775391 1.71729,-0.795508 3.44426,-1.62807 4.35547,-2.140625 1.54568,-0.86945 2.01758,-1.277692 4.5039,-0.478516 2.96289,0.952358 8.91797,2.332032 8.91797,2.332032 a 1.50015,1.50015 0 0 0 0.9082,-0.07227 c 0,0 4.49512,-1.843545 6.75782,-2.910156 z"
         style="color:#000000;font-style:normal;font-variant:normal;font-weight:normal;font-stretch:normal;font-size:medium;line-height:normal;font-family:sans-serif;text-indent:0;text-align:start;text-decoration:none;text-decoration-line:none;text-decoration-style:solid;text-decoration-color:#000000;letter-spacing:normal;word-spacing:normal;text-transform:none;direction:ltr;block-progression:tb;writing-mode:lr-tb;baseline-shift:baseline;text-anchor:start;white-space:normal;clip-rule:nonzero;display:inline;overflow:visible;visibility:visible;opacity:1;isolation:auto;mix-blend-mode:normal;color-interpolation:sRGB;color-interpolation-filters:linearRGB;solid-color:#000000;solid-opacity:1;fill:#ff4c00;fill-opacity:1;fill-rule:nonzero;stroke:none;stroke-width:3;stroke-linecap:round;stroke-linejoin:round;stroke-miterlimit:10;stroke-dasharray:none;stroke-dashoffset:0;stroke-opacity:1;color-rendering:auto;image-rendering:auto;shape-rendering:auto;text-rendering:auto;enable-background:accumulate" /><path
         inkscape:connector-curvature="0"
         id="line13-7"
         d="m 183.54201,45.946302 a 1.50015,1.50015 0 0 0 -0.83789,2.70704 l 4.59961,3.5 a 1.5004281,1.5004281 0 1 0 1.81641,-2.38868 l -4.59961,-3.5 a 1.50015,1.50015 0 0 0 -0.97852,-0.31836 z"
         style="color:#000000;font-style:normal;font-variant:normal;font-weight:normal;font-stretch:normal;font-size:medium;line-height:normal;font-family:sans-serif;text-indent:0;text-align:start;text-decoration:none;text-decoration-line:none;text-decoration-style:solid;text-decoration-color:#000000;letter-spacing:normal;word-spacing:normal;text-transform:none;direction:ltr;block-progression:tb;writing-mode:lr-tb;baseline-shift:baseline;text-anchor:start;white-space:normal;clip-rule:nonzero;display:inline;overflow:visible;visibility:visible;opacity:1;isolation:auto;mix-blend-mode:normal;color-interpolation:sRGB;color-interpolation-filters:linearRGB;solid-color:#000000;solid-opacity:1;fill:#ff4c00;fill-opacity:1;fill-rule:nonzero;stroke:none;stroke-width:3;stroke-linecap:round;stroke-linejoin:round;stroke-miterlimit:10;stroke-dasharray:none;stroke-dashoffset:0;stroke-opacity:1;color-rendering:auto;image-rendering:auto;shape-rendering:auto;text-rendering:auto;enable-background:accumulate" /><path
         inkscape:connector-curvature="0"
         id="line15-0"
         d="m 187.9131,41.848652 a 1.50015,1.50015 0 0 0 -0.78515,2.72265 l 6.30078,4.59961 a 1.50015,1.50015 0 1 0 1.76758,-2.42382 l -6.29883,-4.59961 a 1.50015,1.50015 0 0 0 -0.98438,-0.29883 z"
         style="color:#000000;font-style:normal;font-variant:normal;font-weight:normal;font-stretch:normal;font-size:medium;line-height:normal;font-family:sans-serif;text-indent:0;text-align:start;text-decoration:none;text-decoration-line:none;text-decoration-style:solid;text-decoration-color:#000000;letter-spacing:normal;word-spacing:normal;text-transform:none;direction:ltr;block-progression:tb;writing-mode:lr-tb;baseline-shift:baseline;text-anchor:start;white-space:normal;clip-rule:nonzero;display:inline;overflow:visible;visibility:visible;opacity:1;isolation:auto;mix-blend-mode:normal;color-interpolation:sRGB;color-interpolation-filters:linearRGB;solid-color:#000000;solid-opacity:1;fill:#ff4c00;fill-opacity:1;fill-rule:nonzero;stroke:none;stroke-width:3;stroke-linecap:round;stroke-linejoin:round;stroke-miterlimit:10;stroke-dasharray:none;stroke-dashoffset:0;stroke-opacity:1;color-rendering:auto;image-rendering:auto;shape-rendering:auto;text-rendering:auto;enable-background:accumulate" /><path
         inkscape:connector-curvature="0"
         id="line17-9"
         d="m 192.54592,37.846702 a 1.50015,1.50015 0 0 0 -0.90625,2.73242 l 7,5 a 1.5002089,1.5002089 0 0 0 1.74414,-2.44141 l -7,-5 a 1.50015,1.50015 0 0 0 -0.83789,-0.29101 z"
         style="color:#000000;font-style:normal;font-variant:normal;font-weight:normal;font-stretch:normal;font-size:medium;line-height:normal;font-family:sans-serif;text-indent:0;text-align:start;text-decoration:none;text-decoration-line:none;text-decoration-style:solid;text-decoration-color:#000000;letter-spacing:normal;word-spacing:normal;text-transform:none;direction:ltr;block-progression:tb;writing-mode:lr-tb;baseline-shift:baseline;text-anchor:start;white-space:normal;clip-rule:nonzero;display:inline;overflow:visible;visibility:visible;opacity:1;isolation:auto;mix-blend-mode:normal;color-interpolation:sRGB;color-interpolation-filters:linearRGB;solid-color:#000000;solid-opacity:1;fill:#ff4c00;fill-opacity:1;fill-rule:nonzero;stroke:none;stroke-width:3;stroke-linecap:round;stroke-linejoin:round;stroke-miterlimit:10;stroke-dasharray:none;stroke-dashoffset:0;stroke-opacity:1;color-rendering:auto;image-rendering:auto;shape-rendering:auto;text-rendering:auto;enable-background:accumulate" /></g></g></svg>