<?xml version="1.0" encoding="UTF-8" standalone="no"?>
<svg
   xmlns:dc="http://purl.org/dc/elements/1.1/"
   xmlns:cc="http://creativecommons.org/ns#"
   xmlns:rdf="http://www.w3.org/1999/02/22-rdf-syntax-ns#"
   xmlns:svg="http://www.w3.org/2000/svg"
   xmlns="http://www.w3.org/2000/svg"
   xmlns:sodipodi="http://sodipodi.sourceforge.net/DTD/sodipodi-0.dtd"
   xmlns:inkscape="http://www.inkscape.org/namespaces/inkscape"
   enable-background="new 0 0 128 128"
   height="128px"
   id="Layer_1"
   version="1.1"
   viewBox="0 0 128 128"
   width="128px"
   xml:space="preserve"
   inkscape:version="0.91 r13725"
   sodipodi:docname="if_seo-99_363971.svg"><metadata
     id="metadata102"><rdf:RDF><cc:Work
         rdf:about=""><dc:format>image/svg+xml</dc:format><dc:type
           rdf:resource="http://purl.org/dc/dcmitype/StillImage" /></cc:Work></rdf:RDF></metadata><defs
     id="defs100" /><sodipodi:namedview
     pagecolor="#ffffff"
     bordercolor="#666666"
     borderopacity="1"
     objecttolerance="10"
     gridtolerance="10"
     guidetolerance="10"
     inkscape:pageopacity="0"
     inkscape:pageshadow="2"
     inkscape:window-width="1920"
     inkscape:window-height="1035"
     id="namedview98"
     showgrid="false"
     inkscape:zoom="1.3037281"
     inkscape:cx="-75.396172"
     inkscape:cy="6.0197206"
     inkscape:window-x="0"
     inkscape:window-y="24"
     inkscape:window-maximized="1"
     inkscape:current-layer="Layer_1" /><path
     d="M71,40.3c2.9,0.7,7.9,2,10.3,2.6c0.4,0.8,0.9,2.7,1.1,5.7c-3,1-9.3,2.4-20.2,2.4c-11,0-17.3-1.5-20.3-2.4  c0.2-3,0.7-4.9,1.1-5.7c2.4-0.6,7.5-1.9,10.3-2.6l6.1,5.7l2.7,2.5l2.7-2.5L71,40.3 M69.8,35.9L69.8,35.9l-7.7,7.2L54.4,36  c0,0-10.1,2.5-13.1,3.3c-2.9,0.8-3.5,7.4-3.5,12.1c0,0,6.4,3.7,24.3,3.7c18,0,24.3-3.7,24.3-3.7c0-4.7-0.6-11.3-3.5-12.1  C80,38.5,69.8,35.9,69.8,35.9L69.8,35.9z"
     fill="#2C3E50"
     id="path84"
     style="fill:#5c5c5c;fill-opacity:1" /><path
     d="M61.6,10.7L61.6,10.7c4.8,0,6,2.6,6.4,4.1c0.9,4-1,10.9-2.7,13.3c-2,2.8-2.7,2.9-3.2,2.9c0,0,0,0,0,0  c-0.9,0-1.8-0.3-3.7-2.7c-1.4-1.8-3.6-8.2-3.1-12.8C55.6,12.6,56.8,10.7,61.6,10.7 M61.6,6.7c-3.6,0-9.3,0.8-10.3,8.3  c-0.7,5.8,1.9,13.2,3.9,15.7c2.2,2.8,4.1,4.2,6.9,4.2c2.5,0,4.2-1.2,6.5-4.6c2.1-3.1,4.4-11,3.3-16.3C70.5,7.7,64.5,6.7,61.6,6.7  L61.6,6.7z"
     fill="#2C3E50"
     id="path86"
     style="fill:#5c5c5c;fill-opacity:1" /><path
     d="M39,104.3c2.9,0.7,7.9,2,10.3,2.6c0.4,0.8,0.9,2.7,1.1,5.7c-3,1-9.3,2.4-20.2,2.4c-11,0-17.3-1.5-20.3-2.4  c0.2-3,0.7-4.9,1.1-5.7c2.4-0.6,7.5-1.9,10.3-2.6l6.1,5.7l2.7,2.5l2.7-2.5L39,104.3 M37.8,99.9L37.8,99.9l-7.7,7.2l-7.7-7.2  c0,0-10.1,2.5-13.1,3.3c-2.9,0.8-3.5,7.4-3.5,12.1c0,0,6.4,3.7,24.3,3.7c18,0,24.3-3.7,24.3-3.7c0-4.7-0.6-11.3-3.5-12.1  C48,102.5,37.8,99.9,37.8,99.9L37.8,99.9z"
     fill="#2C3E50"
     id="path88"
     style="fill:#5c5c5c;fill-opacity:1" /><path
     d="M29.6,74.7L29.6,74.7c4.8,0,6,2.6,6.4,4.1c0.9,4-1,10.9-2.7,13.3c-2,2.8-2.7,2.9-3.2,2.9c0,0,0,0,0,0  c-0.9,0-1.8-0.3-3.7-2.7c-1.4-1.8-3.6-8.2-3.1-12.8C23.6,76.6,24.8,74.7,29.6,74.7 M29.6,70.7c-3.6,0-9.3,0.8-10.3,8.3  c-0.7,5.8,1.9,13.2,3.9,15.7c2.2,2.8,4.1,4.2,6.9,4.2c2.5,0,4.2-1.2,6.5-4.6c2.1-3.1,4.4-11,3.3-16.3C38.5,71.7,32.5,70.7,29.6,70.7  L29.6,70.7z"
     fill="#2C3E50"
     id="path90"
     style="fill:#5c5c5c;fill-opacity:1" /><path
     d="M107,104.3c2.9,0.7,7.9,2,10.3,2.6c0.4,0.8,0.9,2.7,1.1,5.7c-3,1-9.3,2.4-20.2,2.4c-11,0-17.3-1.5-20.3-2.4  c0.2-3,0.7-4.9,1.1-5.7c2.4-0.6,7.5-1.9,10.3-2.6l6.1,5.7l2.7,2.5l2.7-2.5L107,104.3 M105.8,99.9L105.8,99.9l-7.7,7.2l-7.7-7.2  c0,0-10.1,2.5-13.1,3.3c-2.9,0.8-3.5,7.4-3.5,12.1c0,0,6.4,3.7,24.3,3.7c18,0,24.3-3.7,24.3-3.7c0-4.7-0.6-11.3-3.5-12.1  C116,102.5,105.8,99.9,105.8,99.9L105.8,99.9z"
     fill="#2C3E50"
     id="path92"
     style="fill:#5c5c5c;fill-opacity:1" /><path
     d="M97.6,74.7L97.6,74.7c4.8,0,6,2.6,6.4,4.1c0.9,4-1,10.9-2.7,13.3c-2,2.8-2.7,2.9-3.2,2.9c0,0,0,0,0,0  c-0.9,0-1.8-0.3-3.7-2.7c-1.4-1.8-3.6-8.2-3.1-12.8C91.6,76.6,92.8,74.7,97.6,74.7 M97.6,70.7c-3.6,0-9.3,0.8-10.3,8.3  c-0.7,5.8,1.9,13.2,3.9,15.7c2.2,2.8,4.1,4.2,6.9,4.2c2.5,0,4.2-1.2,6.5-4.6c2.1-3.1,4.4-11,3.3-16.3  C106.5,71.7,100.5,70.7,97.6,70.7L97.6,70.7z"
     fill="#2C3E50"
     id="path94"
     style="fill:#5c5c5c;fill-opacity:1" /><path
     d="M 63 61.199219 C 62.4 61.199219 62 61.599219 62 62.199219 L 62 78 L 49.921875 90.277344 C 49.914916 90.273421 49.909321 90.269576 49.902344 90.265625 L 49.289062 90.878906 L 49.605469 87.869141 C 49.625659 87.359639 49.232116 86.853723 48.746094 86.736328 C 48.45448 86.665888 48.092972 86.888157 47.828125 87.132812 C 47.683963 87.303742 47.636802 87.496997 47.589844 87.691406 L 47.169922 92.837891 L 47.123047 93.03125 C 47.22354 93.467026 47.542822 93.85335 47.931641 93.947266 L 52.978516 94.34375 C 53.488018 94.36394 53.995433 93.97044 54.015625 93.460938 C 54.035815 92.951436 53.642314 92.445972 53.132812 92.425781 L 50.923828 92.201172 L 51.705078 91.318359 C 51.697724 91.312862 51.690934 91.310122 51.683594 91.304688 L 62.900391 79.800781 L 75.199219 91.800781 C 75.304737 91.9063 75.412999 91.979449 75.533203 92.029297 L 75.646484 92.125 L 72.619141 92.070312 C 72.109796 92.094143 71.639491 92.527147 71.564453 93.021484 C 71.519423 93.318088 71.770522 93.659582 72.037109 93.902344 C 72.219829 94.031241 72.417515 94.061747 72.615234 94.091797 L 77.779297 94.066406 L 77.976562 94.095703 C 78.402047 93.957999 78.758329 93.608361 78.818359 93.212891 L 78.777344 88.150391 C 78.753524 87.641046 78.319891 87.169531 77.810547 87.193359 C 77.301202 87.217189 76.829687 87.650812 76.853516 88.160156 L 76.820312 90.380859 L 76.65625 90.259766 L 64 77.900391 L 64 62.199219 C 64 61.599219 63.6 61.199219 63 61.199219 z "
     id="path96"
     style="fill:#ff4c00;fill-opacity:1" /></svg>