<?xml version="1.0" encoding="UTF-8" standalone="no"?>
<svg
   xmlns:dc="http://purl.org/dc/elements/1.1/"
   xmlns:cc="http://creativecommons.org/ns#"
   xmlns:rdf="http://www.w3.org/1999/02/22-rdf-syntax-ns#"
   xmlns:svg="http://www.w3.org/2000/svg"
   xmlns="http://www.w3.org/2000/svg"
   xmlns:sodipodi="http://sodipodi.sourceforge.net/DTD/sodipodi-0.dtd"
   xmlns:inkscape="http://www.inkscape.org/namespaces/inkscape"
   enable-background="new 0 0 128 128"
   height="128px"
   id="Layer_1"
   version="1.1"
   viewBox="0 0 128 128"
   width="128px"
   xml:space="preserve"
   inkscape:version="0.91 r13725"
   sodipodi:docname="download.svg"><metadata
     id="metadata4207"><rdf:RDF><cc:Work
         rdf:about=""><dc:format>image/svg+xml</dc:format><dc:type
           rdf:resource="http://purl.org/dc/dcmitype/StillImage" /></cc:Work></rdf:RDF></metadata><defs
     id="defs4205" /><sodipodi:namedview
     pagecolor="#ffffff"
     bordercolor="#666666"
     borderopacity="1"
     objecttolerance="10"
     gridtolerance="10"
     guidetolerance="10"
     inkscape:pageopacity="0"
     inkscape:pageshadow="2"
     inkscape:window-width="1920"
     inkscape:window-height="1035"
     id="namedview4203"
     showgrid="false"
     inkscape:zoom="1.84375"
     inkscape:cx="142.51847"
     inkscape:cy="61.255596"
     inkscape:window-x="0"
     inkscape:window-y="24"
     inkscape:window-maximized="1"
     inkscape:current-layer="Layer_1" /><path
     d="M34.1,43h4l-0.8-5.8c-0.4-3.3,2.4-5.9,5.7-6.3l53.5-7c3.3-0.4,5.7,1.5,6.2,4.7l1.9,14.4h4l-2-14.9  c-0.7-5.5-5.2-8.9-10.7-8.2l-53.5,7c-5.5,0.7-9.9,5.3-9.2,10.8L34.1,43z"
     fill="#3B97D3"
     id="path4199" /><path
     d="M109.9,45h-74c-5.5,0-9.9,4.5-9.9,10v45c0,3.3-2.7,6-6,6s-6-2.7-6-6V28c0-3.3,2.6-6,5.9-6h37  c1,0,1.9,0.2,2.7,0.7l5.2-0.7c-1.8-2.4-4.7-4-7.9-4h-37c-5.5,0-9.9,4.5-9.9,10v72c0,5.5,4.4,10,9.9,10h89.6c5.5,0,9.5-4.5,9.5-10V55  C119,49.8,115,46,109.9,45z M115,100c0,3.3-2.2,6-5.5,6H27.9c1.3-1.7,2.1-3.8,2.1-6V55c0-3.3,2.6-6,5.9-6h73c3.3,0,6.1,2.7,6.1,6  V100z"
     id="path4201"
     fill="#2C3E50"
     style="fill:#999999;fill-opacity:1" /></svg>