<?xml version="1.0" encoding="UTF-8" standalone="no"?>
<!-- Created with Inkscape (http://www.inkscape.org/) -->

<svg
   xmlns:dc="http://purl.org/dc/elements/1.1/"
   xmlns:cc="http://creativecommons.org/ns#"
   xmlns:rdf="http://www.w3.org/1999/02/22-rdf-syntax-ns#"
   xmlns:svg="http://www.w3.org/2000/svg"
   xmlns="http://www.w3.org/2000/svg"
   xmlns:sodipodi="http://sodipodi.sourceforge.net/DTD/sodipodi-0.dtd"
   xmlns:inkscape="http://www.inkscape.org/namespaces/inkscape"
   width="16"
   height="16"
   viewBox="0 0 16 16"
   id="svg4158"
   version="1.1"
   inkscape:version="0.91 r13725"
   sodipodi:docname="favicon.svg"
   inkscape:export-filename="/repo/veda-site/files/site/favicon.png"
   inkscape:export-xdpi="90"
   inkscape:export-ydpi="90">
  <defs
     id="defs4160" />
  <sodipodi:namedview
     id="base"
     pagecolor="#ffffff"
     bordercolor="#666666"
     borderopacity="1.0"
     inkscape:pageopacity="0.0"
     inkscape:pageshadow="2"
     inkscape:zoom="3.959798"
     inkscape:cx="8.6731148"
     inkscape:cy="-23.879276"
     inkscape:document-units="px"
     inkscape:current-layer="layer1"
     showgrid="false"
     units="px"
     inkscape:window-width="1920"
     inkscape:window-height="1035"
     inkscape:window-x="0"
     inkscape:window-y="24"
     inkscape:window-maximized="1" />
  <metadata
     id="metadata4163">
    <rdf:RDF>
      <cc:Work
         rdf:about="">
        <dc:format>image/svg+xml</dc:format>
        <dc:type
           rdf:resource="http://purl.org/dc/dcmitype/StillImage" />
        <dc:title></dc:title>
      </cc:Work>
    </rdf:RDF>
  </metadata>
  <g
     inkscape:label="Layer 1"
     inkscape:groupmode="layer"
     id="layer1"
     transform="translate(0,-1036.3622)">
    <path
       inkscape:connector-curvature="0"
       id="path3247-6-7-4-0-5-5-2-2-1-2-8"
       d="m 8.7554186,1037.2291 c -4.1467076,0 -7.3675406,3.1243 -7.4285635,7.0451 -0.084879,1.1881 0.2078155,2.8839 1.2523995,4.414 0.055082,0.081 0.1220235,0.1572 0.1816843,0.2364 -0.2804741,0.4235 -0.5392095,0.7855 -0.7229824,1.0051 -0.088303,0.1055 -0.1300226,0.1442 -0.1774035,0.1921 a 0.79905462,0.79905462 0 0 0 -0.4802151,0.8921 c 0.03816,0.2109 0.3262434,0.5841 0.6203003,0.6513 0.2940638,0.067 0.4341336,-0.012 0.524432,-0.052 0.1805959,-0.079 0.2317208,-0.137 0.3028107,-0.1986 0.1421738,-0.1233 0.2737831,-0.2667 0.4353807,-0.4597 0.1843365,-0.2202 0.4034317,-0.5166 0.6380371,-0.8559 1.0812443,0.8529 2.5488896,1.4537 4.4366543,1.51 2.049117,0.061 3.585241,-0.5451 4.594565,-1.1992 0.504662,-0.3271 0.87976,-0.6638 1.138788,-0.9398 0.129513,-0.138 0.22947,-0.2597 0.307352,-0.3676 0.03895,-0.054 0.07188,-0.1027 0.105918,-0.1624 0.01703,-0.03 0.03439,-0.061 0.05602,-0.1118 0.02163,-0.051 0.06895,-0.083 0.06895,-0.3306 a 0.79905462,0.79905462 0 0 0 -1.534317,-0.3214 c -0.03036,0.041 -0.08598,0.1116 -0.169276,0.2004 -0.174394,0.1859 -0.45558,0.4414 -0.842536,0.6922 -0.773914,0.5015 -1.962235,0.9942 -3.6778376,0.943 -1.681662,-0.051 -2.8213047,-0.5584 -3.6333556,-1.2674 0.4013037,-0.7035 0.820761,-1.5362 1.2223349,-2.4858 0.083721,0.1353 0.1792527,0.2657 0.3045544,0.3808 0.3765347,0.3457 0.8983807,0.4992 1.4440479,0.5085 0.7364554,0.013 1.3359983,-0.4024 1.7429189,-0.8707 0.2347897,-0.2701 0.4246713,-0.5694 0.5890101,-0.8765 0.116649,0.2422 0.257118,0.4789 0.43949,0.698 0.397565,0.4777 1.054576,0.8578 1.802956,0.8285 0.743771,-0.029 1.386219,-0.4475 1.765645,-0.9829 0.379422,-0.5355 0.563937,-1.1698 0.650798,-1.8248 0.173581,-1.3091 -0.02393,-2.7169 -0.58412,-3.7561 -1.12708,-2.1301 -3.288965,-3.0975 -5.360107,-3.1347 a 0.79905462,0.79905462 0 0 0 -0.014341,0 z m -0.00738,1.5984 c 1.6108484,0.031 3.1422144,0.7174 3.9709504,2.2863 a 0.79905462,0.79905462 0 0 0 0.0034,0.01 c 0.315901,0.585 0.534606,1.8311 0.407501,2.7896 -0.06355,0.4794 -0.208852,0.8827 -0.370624,1.1111 -0.161768,0.2282 -0.271869,0.3001 -0.524257,0.3099 -0.247774,0.01 -0.342556,-0.05 -0.512283,-0.2539 -0.169729,-0.204 -0.337392,-0.5702 -0.448578,-0.9697 -0.222369,-0.7992 -0.2384,-1.66 -0.2384,-1.66 a 0.79905462,0.79905462 0 0 0 -1.583435,-0.1433 c 0,0 -0.1813198,0.9191 -0.5491596,1.8023 -0.1839221,0.4416 -0.4177795,0.8638 -0.6431069,1.1231 -0.2253258,0.2592 -0.3742163,0.3235 -0.5096656,0.3212 -0.2947611,-0.01 -0.3597827,-0.059 -0.3906329,-0.088 -0.030861,-0.028 -0.089448,-0.1082 -0.1331867,-0.35 -0.087478,-0.4834 -0.022275,-1.4489 -0.020885,-2.6108 a 0.79905462,0.79905462 0 0 0 -1.572596,-0.2009 c -0.5335992,2.0646 -1.2698668,3.786 -1.9675124,5.1019 -0.6146163,-1.0988 -0.7980984,-2.3409 -0.7444819,-3.0361 a 0.79905462,0.79905462 0 0 0 0.00232,-0.052 c 0.038837,-3.0814 2.4586976,-5.4846 5.824678,-5.4882 z m 4.3032044,9.4137 a 0.79905462,0.79905462 0 0 0 -0.02036,0.075 c 0.0075,-0.033 0.0122,-0.061 0.02036,-0.075 z"
       style="color:#000000;font-style:normal;font-variant:normal;font-weight:normal;font-stretch:normal;font-size:medium;line-height:normal;font-family:sans-serif;text-indent:0;text-align:start;text-decoration:none;text-decoration-line:none;text-decoration-style:solid;text-decoration-color:#000000;letter-spacing:normal;word-spacing:normal;text-transform:none;direction:ltr;block-progression:tb;writing-mode:lr-tb;baseline-shift:baseline;text-anchor:start;white-space:normal;clip-rule:nonzero;display:inline;overflow:visible;visibility:visible;opacity:1;isolation:auto;mix-blend-mode:normal;color-interpolation:sRGB;color-interpolation-filters:linearRGB;solid-color:#000000;solid-opacity:1;fill:#b20000;fill-opacity:1;fill-rule:nonzero;stroke:none;stroke-width:35.71311951;stroke-linecap:round;stroke-linejoin:round;stroke-miterlimit:4;stroke-dasharray:none;stroke-dashoffset:0;stroke-opacity:1;color-rendering:auto;image-rendering:auto;shape-rendering:auto;text-rendering:auto;enable-background:accumulate" />
  </g>
</svg>
