<?xml version="1.0" encoding="UTF-8" standalone="no"?>
<svg
   xmlns:dc="http://purl.org/dc/elements/1.1/"
   xmlns:cc="http://creativecommons.org/ns#"
   xmlns:rdf="http://www.w3.org/1999/02/22-rdf-syntax-ns#"
   xmlns:svg="http://www.w3.org/2000/svg"
   xmlns="http://www.w3.org/2000/svg"
   xmlns:sodipodi="http://sodipodi.sourceforge.net/DTD/sodipodi-0.dtd"
   xmlns:inkscape="http://www.inkscape.org/namespaces/inkscape"
   id="Layer_1"
   style="enable-background:new 0 0 128 128;"
   version="1.1"
   viewBox="0 0 128 128"
   xml:space="preserve"
   inkscape:version="0.91 r13725"
   sodipodi:docname="it-services.svg"><metadata
     id="metadata31"><rdf:RDF><cc:Work
         rdf:about=""><dc:format>image/svg+xml</dc:format><dc:type
           rdf:resource="http://purl.org/dc/dcmitype/StillImage" /></cc:Work></rdf:RDF></metadata><defs
     id="defs29" /><sodipodi:namedview
     pagecolor="#ffffff"
     bordercolor="#666666"
     borderopacity="1"
     objecttolerance="10"
     gridtolerance="10"
     guidetolerance="10"
     inkscape:pageopacity="0"
     inkscape:pageshadow="2"
     inkscape:window-width="1920"
     inkscape:window-height="1035"
     id="namedview27"
     showgrid="false"
     inkscape:zoom="3.6875"
     inkscape:cx="53.629418"
     inkscape:cy="37.523598"
     inkscape:window-x="0"
     inkscape:window-y="24"
     inkscape:window-maximized="1"
     inkscape:current-layer="Layer_1" /><style
     type="text/css"
     id="style3">
	.st0{fill:none;stroke:#E7E5EA;stroke-width:4;stroke-linecap:round;stroke-linejoin:round;stroke-miterlimit:10;}
	.st1{fill:none;stroke:#B5B1BA;stroke-width:4;stroke-linecap:round;stroke-linejoin:round;stroke-miterlimit:10;}
	.st2{fill:none;stroke:#736D7C;stroke-width:4;stroke-linecap:round;stroke-linejoin:round;}
	.st3{fill:none;stroke:#736D7C;stroke-width:4;stroke-linecap:round;stroke-linejoin:round;stroke-dasharray:0.107,8.562;}
	.st4{fill:none;stroke:#3E8DFF;stroke-width:4;stroke-linecap:round;stroke-linejoin:round;stroke-miterlimit:10;}
	.st5{fill-rule:evenodd;clip-rule:evenodd;fill:#736D7C;}
	.st6{fill:none;stroke:#15BA77;stroke-width:4;stroke-linecap:round;stroke-linejoin:round;stroke-miterlimit:10;}
	.st7{fill:none;stroke:#736D7C;stroke-width:4;stroke-linecap:round;stroke-linejoin:round;stroke-dasharray:0.0905,7.2397;}
	.st8{fill:none;stroke:#EF5B77;stroke-width:4;stroke-linecap:round;stroke-linejoin:round;stroke-miterlimit:10;}
	.st9{fill:none;stroke:#736D7C;stroke-width:4;stroke-linecap:round;stroke-linejoin:round;stroke-dasharray:0.0965,7.7213;}
	.st10{fill:none;stroke:#F4B463;stroke-width:4;stroke-linecap:round;stroke-linejoin:round;stroke-miterlimit:10;}
	
		.st11{fill-rule:evenodd;clip-rule:evenodd;fill:none;stroke:#3E8DFF;stroke-width:4;stroke-linecap:round;stroke-linejoin:round;stroke-miterlimit:10;}
	
		.st12{fill-rule:evenodd;clip-rule:evenodd;fill:none;stroke:#B5B1BA;stroke-width:4;stroke-linecap:round;stroke-linejoin:round;stroke-miterlimit:10;}
	.st13{fill:none;stroke:#15BA77;stroke-width:4;stroke-linecap:round;stroke-linejoin:round;}
	.st14{fill:none;stroke:#15BA77;stroke-width:4;stroke-linecap:round;stroke-linejoin:round;stroke-dasharray:0.0966,7.7295;}
	
		.st15{fill:none;stroke:#15BA77;stroke-width:4;stroke-linecap:round;stroke-linejoin:round;stroke-miterlimit:10;stroke-dasharray:0.1,8;}
	.st16{fill:none;stroke:#15BA77;stroke-width:4;stroke-linecap:round;stroke-linejoin:round;stroke-dasharray:0.0951,7.6059;}
	.st17{fill:none;stroke:#736D7C;stroke-width:4;stroke-linecap:round;stroke-linejoin:round;stroke-dasharray:0.0988,7.9008;}
	
		.st18{fill-rule:evenodd;clip-rule:evenodd;fill:none;stroke:#F4B463;stroke-width:4;stroke-linecap:round;stroke-linejoin:round;stroke-miterlimit:10;}
	.st19{fill:none;stroke:#736D7C;stroke-width:4;stroke-linecap:round;stroke-linejoin:round;stroke-dasharray:0.1112,8.8944;}
	.st20{fill:none;stroke:#736D7C;stroke-width:4;stroke-linecap:round;stroke-linejoin:round;stroke-dasharray:0.1056,10.5629;}
	.st21{fill:none;stroke:#736D7C;stroke-width:4;stroke-linecap:round;stroke-linejoin:round;stroke-dasharray:0.1073,10.7273;}
	.st22{fill:none;stroke:#736D7C;stroke-width:4;stroke-linecap:round;stroke-linejoin:round;stroke-dasharray:0.109,10.8955;}
	
		.st23{fill-rule:evenodd;clip-rule:evenodd;fill:none;stroke:#15BA77;stroke-width:4;stroke-linecap:round;stroke-linejoin:round;stroke-miterlimit:10;}
	.st24{fill:none;stroke:#736D7C;stroke-width:4;stroke-linecap:round;stroke-linejoin:round;stroke-dasharray:0.097,7.7599;}
	.st25{fill:#30D68F;}
	.st26{fill:none;stroke:#736D7C;stroke-width:4;stroke-linecap:round;stroke-linejoin:round;stroke-dasharray:0.1078,8.6261;}
	.st27{fill:#3E8DFF;}
	.st28{fill:#15BA77;}
	.st29{fill:#EF5B77;}
	.st30{fill:#F4B463;}
</style><path
     style="color:#000000;font-style:normal;font-variant:normal;font-weight:normal;font-stretch:normal;font-size:medium;line-height:normal;font-family:sans-serif;text-indent:0;text-align:start;text-decoration:none;text-decoration-line:none;text-decoration-style:solid;text-decoration-color:#000000;letter-spacing:normal;word-spacing:normal;text-transform:none;direction:ltr;block-progression:tb;writing-mode:lr-tb;baseline-shift:baseline;text-anchor:start;white-space:normal;clip-rule:nonzero;display:inline;overflow:visible;visibility:visible;opacity:1;isolation:auto;mix-blend-mode:normal;color-interpolation:sRGB;color-interpolation-filters:linearRGB;solid-color:#000000;solid-opacity:1;fill:#999999;fill-opacity:1;fill-rule:nonzero;stroke:none;stroke-width:4;stroke-linecap:round;stroke-linejoin:round;stroke-miterlimit:10;stroke-dasharray:none;stroke-dashoffset:0;stroke-opacity:1;color-rendering:auto;image-rendering:auto;shape-rendering:auto;text-rendering:auto;enable-background:accumulate"
     d="m 9,97 a 2.0002,2.0002 0 0 0 -2,2 l 0,6 c 0,4.39467 3.605332,8 8,8 l 98,0 c 4.39467,0 8,-3.60533 8,-8 l 0,-6 a 2.0002,2.0002 0 0 0 -2,-2 l -38,0 a 2.0002,2.0002 0 0 0 -2,2 c 0,1.12797 -0.872032,2 -2,2 l -26,0 c -1.127968,0 -2,-0.87203 -2,-2 A 2.0002,2.0002 0 0 0 47,97 L 9,97 Z m 2,4 34.408203,0 c 0.837335,2.30982 3.008952,4 5.591797,4 l 26,0 c 2.582845,0 4.754462,-1.69018 5.591797,-4 L 117,101 l 0,4 c 0,2.23333 -1.76667,4 -4,4 l -98,0 c -2.233332,0 -4,-1.76667 -4,-4 l 0,-4 z"
     id="path5"
     inkscape:connector-curvature="0" /><path
     style="color:#000000;font-style:normal;font-variant:normal;font-weight:normal;font-stretch:normal;font-size:medium;line-height:normal;font-family:sans-serif;text-indent:0;text-align:start;text-decoration:none;text-decoration-line:none;text-decoration-style:solid;text-decoration-color:#000000;letter-spacing:normal;word-spacing:normal;text-transform:none;direction:ltr;block-progression:tb;writing-mode:lr-tb;baseline-shift:baseline;text-anchor:start;white-space:normal;clip-rule:nonzero;display:inline;overflow:visible;visibility:visible;opacity:1;isolation:auto;mix-blend-mode:normal;color-interpolation:sRGB;color-interpolation-filters:linearRGB;solid-color:#000000;solid-opacity:1;fill:#999999;fill-opacity:1;fill-rule:nonzero;stroke:none;stroke-width:4;stroke-linecap:round;stroke-linejoin:round;stroke-miterlimit:10;stroke-dasharray:none;stroke-dashoffset:0;stroke-opacity:1;color-rendering:auto;image-rendering:auto;shape-rendering:auto;text-rendering:auto;enable-background:accumulate"
     d="m 22,34 c -4.394668,0 -8,3.605332 -8,8 l 0,57 c -0.03825,2.70465 4.03825,2.70465 4,0 l 0,-57 c 0,-2.233332 1.766668,-4 4,-4 l 15.25,0 c 2.704645,0.03825 2.704645,-4.03825 0,-4 z"
     id="path7"
     inkscape:connector-curvature="0"
     sodipodi:nodetypes="ssccssccs" /><path
     style="color:#000000;font-style:normal;font-variant:normal;font-weight:normal;font-stretch:normal;font-size:medium;line-height:normal;font-family:sans-serif;text-indent:0;text-align:start;text-decoration:none;text-decoration-line:none;text-decoration-style:solid;text-decoration-color:#000000;letter-spacing:normal;word-spacing:normal;text-transform:none;direction:ltr;block-progression:tb;writing-mode:lr-tb;baseline-shift:baseline;text-anchor:start;white-space:normal;clip-rule:nonzero;display:inline;overflow:visible;visibility:visible;opacity:1;isolation:auto;mix-blend-mode:normal;color-interpolation:sRGB;color-interpolation-filters:linearRGB;solid-color:#000000;solid-opacity:1;fill:#999999;fill-opacity:1;fill-rule:nonzero;stroke:none;stroke-width:4;stroke-linecap:round;stroke-linejoin:round;stroke-miterlimit:10;stroke-dasharray:none;stroke-dashoffset:0;stroke-opacity:1;color-rendering:auto;image-rendering:auto;shape-rendering:auto;text-rendering:auto;enable-background:accumulate"
     d="m 90,34 c -2.704645,-0.03825 -2.704645,4.03825 0,4 l 16,0 c 2.23333,0 4,1.766668 4,4 l 0,57 c -0.0383,2.70465 4.03825,2.70465 4,0 l 0,-57 c 0,-4.394668 -3.60533,-8 -8,-8 z"
     id="path9"
     inkscape:connector-curvature="0"
     sodipodi:nodetypes="ccssccssc" /><path
     style="color:#000000;font-style:normal;font-variant:normal;font-weight:normal;font-stretch:normal;font-size:medium;line-height:normal;font-family:sans-serif;text-indent:0;text-align:start;text-decoration:none;text-decoration-line:none;text-decoration-style:solid;text-decoration-color:#000000;letter-spacing:normal;word-spacing:normal;text-transform:none;direction:ltr;block-progression:tb;writing-mode:lr-tb;baseline-shift:baseline;text-anchor:start;white-space:normal;clip-rule:evenodd;display:inline;overflow:visible;visibility:visible;opacity:1;isolation:auto;mix-blend-mode:normal;color-interpolation:sRGB;color-interpolation-filters:linearRGB;solid-color:#000000;solid-opacity:1;fill:#3b97d3;fill-opacity:1;fill-rule:evenodd;stroke:none;stroke-width:4;stroke-linecap:round;stroke-linejoin:round;stroke-miterlimit:10;stroke-dasharray:none;stroke-dashoffset:0;stroke-opacity:1;color-rendering:auto;image-rendering:auto;shape-rendering:auto;text-rendering:auto;enable-background:accumulate"
     d="m 61.349609,22.066406 c -1.813967,0 -3.326172,1.512205 -3.326171,3.326172 l 0,3.648438 c -1.096925,0.34894 -2.146058,0.784154 -3.150391,1.308593 l -2.582031,-2.583984 c -1.28153,-1.28153 -3.423549,-1.28153 -4.705078,0 l -3.751954,3.751953 c -1.281529,1.28153 -1.281529,3.421595 0,4.703125 l 2.583985,2.583985 c -0.52444,1.004332 -0.959653,2.053466 -1.308594,3.15039 l -3.648437,0 c -1.813968,0 -3.326172,1.512205 -3.326172,3.326172 l 0,5.302734 c 0,1.813968 1.512204,3.326172 3.326172,3.326172 l 3.648437,0 c 0.348986,1.097253 0.784009,2.145779 1.308594,3.150391 l -2.583985,2.583984 c -1.281529,1.28153 -1.281529,3.421596 0,4.703125 l 3.75,3.75 c 1.28153,1.28153 3.421596,1.28153 4.703125,0 l 2.583985,-2.583984 c 1.004647,0.524549 2.053105,0.959653 3.15039,1.308594 l 0,3.648437 c 0,1.813967 1.512205,3.326172 3.326172,3.326172 l 5.302735,0 c 1.813967,0 3.326171,-1.512205 3.326171,-3.326172 l 0,-3.648437 c 1.096925,-0.348941 2.146058,-0.784155 3.150391,-1.308594 l 2.582031,2.583984 c 1.28153,1.28153 3.423549,1.28153 4.705078,0 l 3.75,-3.75 c 1.28153,-1.281529 1.28153,-3.421595 0,-4.703125 l -2.583984,-2.583984 c 0.524585,-1.004612 0.959608,-2.053138 1.308594,-3.150391 l 3.648437,0 c 1.813968,0 3.326172,-1.512204 3.326172,-3.326172 l 0,-5.294922 c 0.0074,-1.817886 -1.510251,-3.333984 -3.324219,-3.333984 l -3.648437,0 c -0.34885,-1.097001 -0.784223,-2.145977 -1.308594,-3.15039 l 2.583985,-2.583985 c 1.281529,-1.28153 1.281529,-3.421595 0,-4.703125 l -3.75,-3.75 c -1.28153,-1.28153 -3.421596,-1.28153 -4.703125,0 l -2.583985,2.583984 c -1.004682,-0.524595 -2.05306,-0.95962 -3.15039,-1.308593 l 0,-3.650391 c 0,-1.813967 -1.512205,-3.326172 -3.326172,-3.326172 l -5.302735,0 z m 0.673829,4 3.955078,0 0,4.427735 a 2.0002,2.0002 0 0 0 1.55664,1.949218 c 1.765791,0.402445 3.41636,1.102736 4.910156,2.044922 a 2.0002,2.0002 0 0 0 2.480469,-0.277343 l 3.138672,-3.138672 2.796875,2.796875 -3.138672,3.138671 a 2.0002,2.0002 0 0 0 -0.277344,2.480469 c 0.942187,1.493797 1.640525,3.144366 2.042969,4.910157 a 2.0002,2.0002 0 0 0 1.951172,1.55664 l 4.423828,0 0,3.955078 -4.427734,0 a 2.0002,2.0002 0 0 0 -1.949219,1.554688 c -0.402444,1.76579 -1.102735,3.418312 -2.044922,4.912109 a 2.0002,2.0002 0 0 0 0.279297,2.480469 l 3.136719,3.138672 -2.794922,2.796875 -3.138672,-3.138672 a 2.0002,2.0002 0 0 0 -2.482422,-0.277344 c -1.493797,0.942186 -3.144366,1.640525 -4.910156,2.042969 a 2.0002,2.0002 0 0 0 -1.554688,1.951172 l 0,4.425781 -3.955078,0 0,-4.425781 a 2.0002,2.0002 0 0 0 -1.55664,-1.951172 c -1.765791,-0.402444 -3.41636,-1.100783 -4.910156,-2.042969 a 2.0002,2.0002 0 0 0 -2.480469,0.277344 l -3.138672,3.138672 -2.796875,-2.796875 3.138672,-3.138672 a 2.0002,2.0002 0 0 0 0.277344,-2.480469 c -0.942187,-1.493797 -1.640525,-3.146319 -2.042969,-4.912109 a 2.0002,2.0002 0 0 0 -1.951172,-1.554688 l -4.425781,0 0,-3.955078 4.427734,0 a 2.0002,2.0002 0 0 0 1.949219,-1.554687 c 0.402444,-1.765791 1.100782,-3.418313 2.042969,-4.91211 a 2.0002,2.0002 0 0 0 -0.277344,-2.480469 l -3.136719,-3.138671 2.796875,-2.798829 3.138672,3.138672 a 2.0002,2.0002 0 0 0 2.482422,0.277344 c 1.493797,-0.942186 3.144366,-1.640524 4.910156,-2.042969 a 2.0002,2.0002 0 0 0 1.554688,-1.949218 l 0,-4.427735 z"
     id="path23"
     inkscape:connector-curvature="0" /><path
     style="color:#000000;font-style:normal;font-variant:normal;font-weight:normal;font-stretch:normal;font-size:medium;line-height:normal;font-family:sans-serif;text-indent:0;text-align:start;text-decoration:none;text-decoration-line:none;text-decoration-style:solid;text-decoration-color:#000000;letter-spacing:normal;word-spacing:normal;text-transform:none;direction:ltr;block-progression:tb;writing-mode:lr-tb;baseline-shift:baseline;text-anchor:start;white-space:normal;clip-rule:evenodd;display:inline;overflow:visible;visibility:visible;opacity:1;isolation:auto;mix-blend-mode:normal;color-interpolation:sRGB;color-interpolation-filters:linearRGB;solid-color:#000000;solid-opacity:1;fill:#3b97d3;fill-opacity:1;fill-rule:evenodd;stroke:none;stroke-width:4;stroke-linecap:round;stroke-linejoin:round;stroke-miterlimit:10;stroke-dasharray:none;stroke-dashoffset:0;stroke-opacity:1;color-rendering:auto;image-rendering:auto;shape-rendering:auto;text-rendering:auto;enable-background:accumulate"
     d="m 64,36.126953 c -6.496584,0 -11.806641,5.308103 -11.806641,11.804688 0,6.496584 5.310057,11.80664 11.806641,11.80664 6.496584,0 11.806641,-5.310056 11.806641,-11.80664 0,-6.496585 -5.310057,-11.804688 -11.806641,-11.804688 z m 0,4 c 4.334824,0 7.806641,3.469864 7.806641,7.804688 0,4.334824 -3.471817,7.80664 -7.806641,7.80664 -4.334824,0 -7.806641,-3.471816 -7.806641,-7.80664 0,-4.334824 3.471817,-7.804688 7.806641,-7.804688 z"
     id="circle25"
     inkscape:connector-curvature="0" /><path
     style="color:#000000;font-style:normal;font-variant:normal;font-weight:normal;font-stretch:normal;font-size:medium;line-height:normal;font-family:sans-serif;text-indent:0;text-align:start;text-decoration:none;text-decoration-line:none;text-decoration-style:solid;text-decoration-color:#000000;letter-spacing:normal;word-spacing:normal;text-transform:none;direction:ltr;block-progression:tb;writing-mode:lr-tb;baseline-shift:baseline;text-anchor:start;white-space:normal;clip-rule:nonzero;display:inline;overflow:visible;visibility:visible;opacity:1;isolation:auto;mix-blend-mode:normal;color-interpolation:sRGB;color-interpolation-filters:linearRGB;solid-color:#000000;solid-opacity:1;fill:#cccccc;fill-opacity:1;fill-rule:nonzero;stroke:none;stroke-width:2;stroke-linecap:round;stroke-linejoin:round;stroke-miterlimit:10;stroke-dasharray:none;stroke-dashoffset:0;stroke-opacity:1;color-rendering:auto;image-rendering:auto;shape-rendering:auto;text-rendering:auto;enable-background:accumulate"
     d="m 41.455078,79.584024 a 1.0001,2.0446287 0 1 0 0,4.088849 l 7.386719,0 a 1.0001,2.0446287 0 1 0 0,-4.088849 l -7.386719,0 z"
     id="line27"
     inkscape:connector-curvature="0" /><path
     style="color:#000000;font-style:normal;font-variant:normal;font-weight:normal;font-stretch:normal;font-size:medium;line-height:normal;font-family:sans-serif;text-indent:0;text-align:start;text-decoration:none;text-decoration-line:none;text-decoration-style:solid;text-decoration-color:#000000;letter-spacing:normal;word-spacing:normal;text-transform:none;direction:ltr;block-progression:tb;writing-mode:lr-tb;baseline-shift:baseline;text-anchor:start;white-space:normal;clip-rule:nonzero;display:inline;overflow:visible;visibility:visible;opacity:1;isolation:auto;mix-blend-mode:normal;color-interpolation:sRGB;color-interpolation-filters:linearRGB;solid-color:#000000;solid-opacity:1;fill:#cccccc;fill-opacity:1;fill-rule:nonzero;stroke:none;stroke-width:2;stroke-linecap:round;stroke-linejoin:round;stroke-miterlimit:10;stroke-dasharray:none;stroke-dashoffset:0;stroke-opacity:1;color-rendering:auto;image-rendering:auto;shape-rendering:auto;text-rendering:auto;enable-background:accumulate"
     d="m 79.214844,79.584024 a 1.0001,2.0446287 0 1 0 0,4.088849 l 7.388672,0 a 1.0001,2.0446287 0 1 0 0,-4.088849 l -7.388672,0 z"
     id="line31"
     inkscape:connector-curvature="0" /><path
     style="color:#000000;font-style:normal;font-variant:normal;font-weight:normal;font-stretch:normal;font-size:medium;line-height:normal;font-family:sans-serif;text-indent:0;text-align:start;text-decoration:none;text-decoration-line:none;text-decoration-style:solid;text-decoration-color:#000000;letter-spacing:normal;word-spacing:normal;text-transform:none;direction:ltr;block-progression:tb;writing-mode:lr-tb;baseline-shift:baseline;text-anchor:start;white-space:normal;clip-rule:nonzero;display:inline;overflow:visible;visibility:visible;opacity:1;isolation:auto;mix-blend-mode:normal;color-interpolation:sRGB;color-interpolation-filters:linearRGB;solid-color:#000000;solid-opacity:1;fill:#cccccc;fill-opacity:1;fill-rule:nonzero;stroke:none;stroke-width:2;stroke-linecap:round;stroke-linejoin:round;stroke-miterlimit:10;stroke-dasharray:none;stroke-dashoffset:0;stroke-opacity:1;color-rendering:auto;image-rendering:auto;shape-rendering:auto;text-rendering:auto;enable-background:accumulate"
     d="m 55.410156,79.584024 a 1.0001,2.0446287 0 1 0 0,4.088849 l 17.238282,0 a 1.0001,2.0446287 0 1 0 0,-4.088849 l -17.238282,0 z"
     id="line33"
     inkscape:connector-curvature="0" /><path
     style="color:#000000;font-style:normal;font-variant:normal;font-weight:normal;font-stretch:normal;font-size:medium;line-height:normal;font-family:sans-serif;text-indent:0;text-align:start;text-decoration:none;text-decoration-line:none;text-decoration-style:solid;text-decoration-color:#000000;letter-spacing:normal;word-spacing:normal;text-transform:none;direction:ltr;block-progression:tb;writing-mode:lr-tb;baseline-shift:baseline;text-anchor:start;white-space:normal;clip-rule:nonzero;display:inline;overflow:visible;visibility:visible;opacity:1;isolation:auto;mix-blend-mode:normal;color-interpolation:sRGB;color-interpolation-filters:linearRGB;solid-color:#000000;solid-opacity:1;fill:#cccccc;fill-opacity:1;fill-rule:nonzero;stroke:none;stroke-width:2;stroke-linecap:round;stroke-linejoin:round;stroke-miterlimit:10;stroke-dasharray:none;stroke-dashoffset:0;stroke-opacity:1;color-rendering:auto;image-rendering:auto;shape-rendering:auto;text-rendering:auto;enable-background:accumulate"
     d="m 41.455078,88.444118 a 1.0001,2.0446287 0 1 0 0,4.088849 l 17.238281,0 a 1.0001,2.0446287 0 1 0 0,-4.088849 l -17.238281,0 z"
     id="line35"
     inkscape:connector-curvature="0" /><path
     style="color:#000000;font-style:normal;font-variant:normal;font-weight:normal;font-stretch:normal;font-size:medium;line-height:normal;font-family:sans-serif;text-indent:0;text-align:start;text-decoration:none;text-decoration-line:none;text-decoration-style:solid;text-decoration-color:#000000;letter-spacing:normal;word-spacing:normal;text-transform:none;direction:ltr;block-progression:tb;writing-mode:lr-tb;baseline-shift:baseline;text-anchor:start;white-space:normal;clip-rule:nonzero;display:inline;overflow:visible;visibility:visible;opacity:1;isolation:auto;mix-blend-mode:normal;color-interpolation:sRGB;color-interpolation-filters:linearRGB;solid-color:#000000;solid-opacity:1;fill:#999999;fill-opacity:1;fill-rule:nonzero;stroke:none;stroke-width:4;stroke-linecap:round;stroke-linejoin:round;stroke-miterlimit:4;stroke-dasharray:none;stroke-dashoffset:0;stroke-opacity:1;color-rendering:auto;image-rendering:auto;shape-rendering:auto;text-rendering:auto;enable-background:accumulate"
     d="m 94.644906,102.85348 a 2.0002,2.0002 0 1 0 0,4 l 0.0508,0 a 2.0002,2.0002 0 1 0 0,-4 l -0.0508,0 z"
     id="line17"
     inkscape:connector-curvature="0" /><path
     style="color:#000000;font-style:normal;font-variant:normal;font-weight:normal;font-stretch:normal;font-size:medium;line-height:normal;font-family:sans-serif;text-indent:0;text-align:start;text-decoration:none;text-decoration-line:none;text-decoration-style:solid;text-decoration-color:#000000;letter-spacing:normal;word-spacing:normal;text-transform:none;direction:ltr;block-progression:tb;writing-mode:lr-tb;baseline-shift:baseline;text-anchor:start;white-space:normal;clip-rule:nonzero;display:inline;overflow:visible;visibility:visible;opacity:1;isolation:auto;mix-blend-mode:normal;color-interpolation:sRGB;color-interpolation-filters:linearRGB;solid-color:#000000;solid-opacity:1;fill:#999999;fill-opacity:1;fill-rule:nonzero;stroke:none;stroke-width:4;stroke-linecap:round;stroke-linejoin:round;stroke-miterlimit:4;stroke-dasharray:none;stroke-dashoffset:0;stroke-opacity:1;color-rendering:auto;image-rendering:auto;shape-rendering:auto;text-rendering:auto;enable-background:accumulate"
     d="m 103.29468,102.85348 a 2.0002,2.0002 0 1 0 0,4 l 0.0508,0 a 2.0002,2.0002 0 1 0 0,-4 l -0.0508,0 z"
     id="line17-7"
     inkscape:connector-curvature="0" /><path
     style="color:#000000;font-style:normal;font-variant:normal;font-weight:normal;font-stretch:normal;font-size:medium;line-height:normal;font-family:sans-serif;text-indent:0;text-align:start;text-decoration:none;text-decoration-line:none;text-decoration-style:solid;text-decoration-color:#000000;letter-spacing:normal;word-spacing:normal;text-transform:none;direction:ltr;block-progression:tb;writing-mode:lr-tb;baseline-shift:baseline;text-anchor:start;white-space:normal;clip-rule:nonzero;display:inline;overflow:visible;visibility:visible;opacity:1;isolation:auto;mix-blend-mode:normal;color-interpolation:sRGB;color-interpolation-filters:linearRGB;solid-color:#000000;solid-opacity:1;fill:#999999;fill-opacity:1;fill-rule:nonzero;stroke:none;stroke-width:4;stroke-linecap:round;stroke-linejoin:round;stroke-miterlimit:4;stroke-dasharray:none;stroke-dashoffset:0;stroke-opacity:1;color-rendering:auto;image-rendering:auto;shape-rendering:auto;text-rendering:auto;enable-background:accumulate"
     d="m 111.94441,102.85348 a 2.0002,2.0002 0 1 0 0,4 l 0.0508,0 a 2.0002,2.0002 0 1 0 0,-4 l -0.0508,0 z"
     id="line17-0"
     inkscape:connector-curvature="0" /></svg>