<?xml version="1.0" encoding="UTF-8" standalone="no"?>
<svg
   xmlns:dc="http://purl.org/dc/elements/1.1/"
   xmlns:cc="http://creativecommons.org/ns#"
   xmlns:rdf="http://www.w3.org/1999/02/22-rdf-syntax-ns#"
   xmlns:svg="http://www.w3.org/2000/svg"
   xmlns="http://www.w3.org/2000/svg"
   xmlns:sodipodi="http://sodipodi.sourceforge.net/DTD/sodipodi-0.dtd"
   xmlns:inkscape="http://www.inkscape.org/namespaces/inkscape"
   enable-background="new 0 0 64 64"
   id="Layer_1"
   version="1.1"
   viewBox="0 0 64 64"
   xml:space="preserve"
   inkscape:version="0.91 r13725"
   sodipodi:docname="if_aami15-36_703155.svg"><metadata
     id="metadata98"><rdf:RDF><cc:Work
         rdf:about=""><dc:format>image/svg+xml</dc:format><dc:type
           rdf:resource="http://purl.org/dc/dcmitype/StillImage" /></cc:Work></rdf:RDF></metadata><defs
     id="defs96" /><sodipodi:namedview
     pagecolor="#ffffff"
     bordercolor="#666666"
     borderopacity="1"
     objecttolerance="10"
     gridtolerance="10"
     guidetolerance="10"
     inkscape:pageopacity="0"
     inkscape:pageshadow="2"
     inkscape:window-width="1920"
     inkscape:window-height="1035"
     id="namedview94"
     showgrid="false"
     inkscape:zoom="5.2149125"
     inkscape:cx="38.553605"
     inkscape:cy="34.644029"
     inkscape:window-x="0"
     inkscape:window-y="24"
     inkscape:window-maximized="1"
     inkscape:current-layer="Layer_1" /><path
     style="color:#000000;font-style:normal;font-variant:normal;font-weight:normal;font-stretch:normal;font-size:medium;line-height:normal;font-family:sans-serif;text-indent:0;text-align:start;text-decoration:none;text-decoration-line:none;text-decoration-style:solid;text-decoration-color:#000000;letter-spacing:normal;word-spacing:normal;text-transform:none;direction:ltr;block-progression:tb;writing-mode:lr-tb;baseline-shift:baseline;text-anchor:start;white-space:normal;clip-rule:nonzero;display:inline;overflow:visible;visibility:visible;opacity:1;isolation:auto;mix-blend-mode:normal;color-interpolation:sRGB;color-interpolation-filters:linearRGB;solid-color:#000000;solid-opacity:1;fill:#5c5c5c;fill-opacity:1;fill-rule:nonzero;stroke:none;stroke-width:2;stroke-linecap:round;stroke-linejoin:round;stroke-miterlimit:10;stroke-dasharray:none;stroke-dashoffset:0;stroke-opacity:1;color-rendering:auto;image-rendering:auto;shape-rendering:auto;text-rendering:auto;enable-background:accumulate"
     d="M 19,7 A 1.0001,1.0001 0 0 0 18.292969,7.2929688 L 9.2929688,16.292969 A 1.0001,1.0001 0 0 0 9,17 l 0,35 c 0,2.745455 2.254545,5 5,5 l 28,0 c 2.745455,0 5,-2.254545 5,-5 l 0,-5 a 1.0001,1.0001 0 1 0 -2,0 l 0,5 c 0,1.654545 -1.345455,3 -3,3 l -28,0 c -1.654545,0 -3,-1.345455 -3,-3 L 11,17.414062 19.414062,9 42,9 c 1.654545,0 3,1.345455 3,3 l 0,16 a 1.0001,1.0001 0 1 0 2,0 L 47,12 C 47,9.2545455 44.745455,7 42,7 L 19,7 Z"
     id="path70"
     inkscape:connector-curvature="0" /><path
     style="color:#000000;font-style:normal;font-variant:normal;font-weight:normal;font-stretch:normal;font-size:medium;line-height:normal;font-family:sans-serif;text-indent:0;text-align:start;text-decoration:none;text-decoration-line:none;text-decoration-style:solid;text-decoration-color:#000000;letter-spacing:normal;word-spacing:normal;text-transform:none;direction:ltr;block-progression:tb;writing-mode:lr-tb;baseline-shift:baseline;text-anchor:start;white-space:normal;clip-rule:nonzero;display:inline;overflow:visible;visibility:visible;opacity:1;isolation:auto;mix-blend-mode:normal;color-interpolation:sRGB;color-interpolation-filters:linearRGB;solid-color:#000000;solid-opacity:1;fill:#5c5c5c;fill-opacity:1;fill-rule:nonzero;stroke:none;stroke-width:2;stroke-linecap:round;stroke-linejoin:round;stroke-miterlimit:10;stroke-dasharray:none;stroke-dashoffset:0;stroke-opacity:1;color-rendering:auto;image-rendering:auto;shape-rendering:auto;text-rendering:auto;enable-background:accumulate"
     d="M 19.984375,9.9863281 A 1.0001,1.0001 0 0 0 19,11 l 0,3 c 0,1.624242 -1.445064,3 -3.099609,3 L 13,17 a 1.0001,1.0001 0 1 0 0,2 l 2.900391,0 C 18.645845,19 21,16.775758 21,14 l 0,-3 A 1.0001,1.0001 0 0 0 19.984375,9.9863281 Z"
     id="path72"
     inkscape:connector-curvature="0" /><path
     style="color:#000000;font-style:normal;font-variant:normal;font-weight:normal;font-stretch:normal;font-size:medium;line-height:normal;font-family:sans-serif;text-indent:0;text-align:start;text-decoration:none;text-decoration-line:none;text-decoration-style:solid;text-decoration-color:#000000;letter-spacing:normal;word-spacing:normal;text-transform:none;direction:ltr;block-progression:tb;writing-mode:lr-tb;baseline-shift:baseline;text-anchor:start;white-space:normal;clip-rule:nonzero;display:inline;overflow:visible;visibility:visible;opacity:1;isolation:auto;mix-blend-mode:normal;color-interpolation:sRGB;color-interpolation-filters:linearRGB;solid-color:#000000;solid-opacity:1;fill:#ff4c00;fill-opacity:1;fill-rule:nonzero;stroke:none;stroke-width:2;stroke-linecap:round;stroke-linejoin:round;stroke-miterlimit:10;stroke-dasharray:none;stroke-dashoffset:0;stroke-opacity:1;color-rendering:auto;image-rendering:auto;shape-rendering:auto;text-rendering:auto;enable-background:accumulate"
     d="m 55.634766,26 a 1.0001,1.0001 0 0 0 -0.296875,0.03516 c 0,0 -1.915561,0.531056 -5.054688,2.363282 -3.139127,1.832225 -7.583383,4.987679 -12.890625,10.294921 a 1.0001,1.0001 0 1 0 1.414063,1.414063 c 5.192758,-5.192758 9.498501,-8.237694 12.484375,-9.980469 1.463776,-0.854367 1.471618,-0.736038 2.240234,-1.060547 -0.325612,0.770095 -0.20498,0.778967 -1.068359,2.253906 -1.755185,2.998441 -4.827015,7.328968 -10.070313,12.572266 a 1.0001,1.0001 0 1 0 1.414063,1.414063 c 5.356702,-5.356702 8.536044,-9.825003 10.380859,-12.976563 1.844815,-3.151559 2.376953,-5.068359 2.376953,-5.068359 A 1.0001,1.0001 0 0 0 55.634766,26 Z"
     id="path74"
     inkscape:connector-curvature="0" /><path
     style="color:#000000;font-style:normal;font-variant:normal;font-weight:normal;font-stretch:normal;font-size:medium;line-height:normal;font-family:sans-serif;text-indent:0;text-align:start;text-decoration:none;text-decoration-line:none;text-decoration-style:solid;text-decoration-color:#000000;letter-spacing:normal;word-spacing:normal;text-transform:none;direction:ltr;block-progression:tb;writing-mode:lr-tb;baseline-shift:baseline;text-anchor:start;white-space:normal;clip-rule:nonzero;display:inline;overflow:visible;visibility:visible;opacity:1;isolation:auto;mix-blend-mode:normal;color-interpolation:sRGB;color-interpolation-filters:linearRGB;solid-color:#000000;solid-opacity:1;fill:#ff4c00;fill-opacity:1;fill-rule:nonzero;stroke:none;stroke-width:2;stroke-linecap:round;stroke-linejoin:round;stroke-miterlimit:10;stroke-dasharray:none;stroke-dashoffset:0;stroke-opacity:1;color-rendering:auto;image-rendering:auto;shape-rendering:auto;text-rendering:auto;enable-background:accumulate"
     d="m 36.085938,41.199219 a 1.0001,1.0001 0 0 0 -0.707032,0.308593 c -1.391248,1.449218 -2.319564,3.535676 -2.966797,5.283204 -0.647232,1.747528 -0.984375,3.179687 -0.984375,3.179687 a 1.0001,1.0001 0 0 0 1.199219,1.203125 c 0,0 1.457239,-0.336761 3.21875,-0.984375 1.761511,-0.647614 3.850569,-1.571272 5.261719,-2.982422 a 1.0001,1.0001 0 0 0 0,-1.414062 l -4.300781,-4.300781 a 1.0001,1.0001 0 0 0 -0.720703,-0.292969 z m 0.15039,2.550781 2.621094,2.621094 c -1.046409,0.755915 -2.402484,1.461276 -3.703125,1.939453 -0.682742,0.251008 -0.737931,0.232235 -1.242188,0.380859 0.147858,-0.493568 0.127954,-0.540006 0.375,-1.207031 0.478493,-1.291929 1.184657,-2.656467 1.949219,-3.734375 z"
     id="path76"
     inkscape:connector-curvature="0" /><path
     style="color:#000000;font-style:normal;font-variant:normal;font-weight:normal;font-stretch:normal;font-size:medium;line-height:normal;font-family:sans-serif;text-indent:0;text-align:start;text-decoration:none;text-decoration-line:none;text-decoration-style:solid;text-decoration-color:#000000;letter-spacing:normal;word-spacing:normal;text-transform:none;direction:ltr;block-progression:tb;writing-mode:lr-tb;baseline-shift:baseline;text-anchor:start;white-space:normal;clip-rule:nonzero;display:inline;overflow:visible;visibility:visible;opacity:1;isolation:auto;mix-blend-mode:normal;color-interpolation:sRGB;color-interpolation-filters:linearRGB;solid-color:#000000;solid-opacity:1;fill:#ff4c00;fill-opacity:1;fill-rule:nonzero;stroke:none;stroke-width:2;stroke-linecap:round;stroke-linejoin:round;stroke-miterlimit:10;stroke-dasharray:none;stroke-dashoffset:0;stroke-opacity:1;color-rendering:auto;image-rendering:auto;shape-rendering:auto;text-rendering:auto;enable-background:accumulate"
     d="m 50.089844,28.890625 a 1.0001,1.0001 0 0 0 -0.697266,1.716797 l 3.984375,3.984375 c -0.313305,0.708593 -1.516919,3.282104 -4.908203,6.927734 a 1.0001,1.0001 0 1 0 1.462891,1.361328 c 4.105058,-4.412938 5.597656,-8.109375 5.597656,-8.109375 a 1.0001,1.0001 0 0 0 -0.222656,-1.078125 l -4.5,-4.5 a 1.0001,1.0001 0 0 0 -0.716797,-0.302734 z"
     id="path78"
     inkscape:connector-curvature="0" /><path
     style="color:#000000;font-style:normal;font-variant:normal;font-weight:normal;font-stretch:normal;font-size:medium;line-height:normal;font-family:sans-serif;text-indent:0;text-align:start;text-decoration:none;text-decoration-line:none;text-decoration-style:solid;text-decoration-color:#000000;letter-spacing:normal;word-spacing:normal;text-transform:none;direction:ltr;block-progression:tb;writing-mode:lr-tb;baseline-shift:baseline;text-anchor:start;white-space:normal;clip-rule:nonzero;display:inline;overflow:visible;visibility:visible;opacity:1;isolation:auto;mix-blend-mode:normal;color-interpolation:sRGB;color-interpolation-filters:linearRGB;solid-color:#000000;solid-opacity:1;fill:#ff4c00;fill-opacity:1;fill-rule:nonzero;stroke:none;stroke-width:2;stroke-linecap:round;stroke-linejoin:round;stroke-miterlimit:10;stroke-dasharray:none;stroke-dashoffset:0;stroke-opacity:1;color-rendering:auto;image-rendering:auto;shape-rendering:auto;text-rendering:auto;enable-background:accumulate"
     d="m 33.78125,47.791016 a 1.0001,1.0001 0 0 0 -0.6875,0.302734 l -3,3 a 1.0001,1.0001 0 1 0 1.414062,1.414062 l 3,-3 A 1.0001,1.0001 0 0 0 33.78125,47.791016 Z"
     id="line80"
     inkscape:connector-curvature="0" /><path
     style="color:#000000;font-style:normal;font-variant:normal;font-weight:normal;font-stretch:normal;font-size:medium;line-height:normal;font-family:sans-serif;text-indent:0;text-align:start;text-decoration:none;text-decoration-line:none;text-decoration-style:solid;text-decoration-color:#000000;letter-spacing:normal;word-spacing:normal;text-transform:none;direction:ltr;block-progression:tb;writing-mode:lr-tb;baseline-shift:baseline;text-anchor:start;white-space:normal;clip-rule:nonzero;display:inline;overflow:visible;visibility:visible;opacity:1;isolation:auto;mix-blend-mode:normal;color-interpolation:sRGB;color-interpolation-filters:linearRGB;solid-color:#000000;solid-opacity:1;fill:#ff4c00;fill-opacity:1;fill-rule:nonzero;stroke:none;stroke-width:2;stroke-linecap:round;stroke-linejoin:round;stroke-miterlimit:10;stroke-dasharray:none;stroke-dashoffset:0;stroke-opacity:1;color-rendering:auto;image-rendering:auto;shape-rendering:auto;text-rendering:auto;enable-background:accumulate"
     d="m 30.046875,41.095703 a 1.0001,1.0001 0 0 0 -0.363281,0.05469 c -1.195662,0.398554 -1.899424,1.368289 -2.451172,2.279297 -0.131609,-0.180232 -0.150837,-0.385409 -0.351563,-0.535157 -0.536799,-0.400469 -1.313554,-0.540701 -2.09375,-0.371093 -0.864145,0.187857 -1.448226,0.669135 -1.884765,1.220703 -0.136591,-0.229764 -0.209423,-0.477472 -0.41211,-0.683594 -0.442119,-0.449613 -1.315753,-0.78698 -2.0625,-0.488281 a 1.0001,1.0001 0 0 0 -0.05078,0.02148 C 19.713574,42.903327 19.16264,43.422693 18.650391,44.005859 17.913268,43.559454 17.108284,43.279388 16.21875,43.541016 15.021464,43.893159 14.232878,44.7698 13.703125,45.5 c -0.529753,0.7302 -0.820313,1.400391 -0.820313,1.400391 a 1.0002034,1.0002034 0 0 0 1.833985,0.798828 c 0,0 0.210221,-0.48059 0.605469,-1.025391 0.395247,-0.5448 0.95627,-1.066987 1.458984,-1.214844 0.0932,-0.02741 0.408235,0.251666 0.617188,0.322266 -0.565459,0.90185 -1.108023,1.835517 -1.353516,2.621094 -0.204965,0.655886 -0.07597,1.410745 0.335937,1.898437 0.411903,0.487693 0.991974,0.706057 1.5625,0.746094 1.141053,0.08007 2.431764,-0.59308 2.984375,-1.974609 0.523482,-1.308703 0.01743,-2.595428 -0.728515,-3.615235 0.328821,-0.343503 0.681148,-0.799264 0.902343,-0.927734 0.115102,0.135568 0.290581,0.414464 0.433594,0.769531 0.31066,0.771293 0.480469,1.677734 0.480469,1.677734 a 1.0001,1.0001 0 0 0 1.978516,-0.283203 c 0,0 -0.04625,-0.536466 0.107421,-1.08789 0.153676,-0.551425 0.348789,-0.963137 1.111329,-1.128907 0.369804,-0.08039 0.41883,-0.02062 0.472656,0.01953 0.05383,0.04016 0.15009,0.172132 0.21875,0.402344 0.137319,0.460423 0.09961,1.105468 0.09961,1.105468 a 1.0001,1.0001 0 0 0 1.939453,0.429688 c 0,0 0.276041,-0.776723 0.751953,-1.615235 0.475913,-0.838512 1.195436,-1.627645 1.621094,-1.769531 a 1.0001,1.0001 0 0 0 -0.269531,-1.953125 z m -11.128906,6.056641 c 0.186785,0.438906 0.278596,0.865032 0.154297,1.175781 -0.247389,0.618471 -0.706288,0.744535 -0.990235,0.724609 -0.141973,-0.01 -0.193152,-0.06621 -0.171875,-0.04102 0.02128,0.02519 -1.13e-4,0.130441 0.04492,-0.01367 0.138011,-0.441636 0.573985,-1.17103 0.962891,-1.845703 z"
     id="path82"
     inkscape:connector-curvature="0" /><path
     style="color:#000000;font-style:normal;font-variant:normal;font-weight:normal;font-stretch:normal;font-size:medium;line-height:normal;font-family:sans-serif;text-indent:0;text-align:start;text-decoration:none;text-decoration-line:none;text-decoration-style:solid;text-decoration-color:#000000;letter-spacing:normal;word-spacing:normal;text-transform:none;direction:ltr;block-progression:tb;writing-mode:lr-tb;baseline-shift:baseline;text-anchor:start;white-space:normal;clip-rule:nonzero;display:inline;overflow:visible;visibility:visible;opacity:1;isolation:auto;mix-blend-mode:normal;color-interpolation:sRGB;color-interpolation-filters:linearRGB;solid-color:#000000;solid-opacity:1;fill:#5c5c5c;fill-opacity:1;fill-rule:nonzero;stroke:none;stroke-width:2;stroke-linecap:round;stroke-linejoin:round;stroke-miterlimit:10;stroke-dasharray:none;stroke-dashoffset:0;stroke-opacity:1;color-rendering:auto;image-rendering:auto;shape-rendering:auto;text-rendering:auto;enable-background:accumulate"
     d="m 20,24 a 1.0001,1.0001 0 1 0 0,2 l 16,0 a 1.0001,1.0001 0 1 0 0,-2 l -16,0 z"
     id="line84"
     inkscape:connector-curvature="0" /><path
     style="color:#000000;font-style:normal;font-variant:normal;font-weight:normal;font-stretch:normal;font-size:medium;line-height:normal;font-family:sans-serif;text-indent:0;text-align:start;text-decoration:none;text-decoration-line:none;text-decoration-style:solid;text-decoration-color:#000000;letter-spacing:normal;word-spacing:normal;text-transform:none;direction:ltr;block-progression:tb;writing-mode:lr-tb;baseline-shift:baseline;text-anchor:start;white-space:normal;clip-rule:nonzero;display:inline;overflow:visible;visibility:visible;opacity:1;isolation:auto;mix-blend-mode:normal;color-interpolation:sRGB;color-interpolation-filters:linearRGB;solid-color:#000000;solid-opacity:1;fill:#5c5c5c;fill-opacity:1;fill-rule:nonzero;stroke:none;stroke-width:2;stroke-linecap:round;stroke-linejoin:round;stroke-miterlimit:10;stroke-dasharray:none;stroke-dashoffset:0;stroke-opacity:1;color-rendering:auto;image-rendering:auto;shape-rendering:auto;text-rendering:auto;enable-background:accumulate"
     d="m 20,28 a 1.0001,1.0001 0 1 0 0,2 l 16,0 a 1.0001,1.0001 0 1 0 0,-2 l -16,0 z"
     id="line86"
     inkscape:connector-curvature="0" /><path
     style="color:#000000;font-style:normal;font-variant:normal;font-weight:normal;font-stretch:normal;font-size:medium;line-height:normal;font-family:sans-serif;text-indent:0;text-align:start;text-decoration:none;text-decoration-line:none;text-decoration-style:solid;text-decoration-color:#000000;letter-spacing:normal;word-spacing:normal;text-transform:none;direction:ltr;block-progression:tb;writing-mode:lr-tb;baseline-shift:baseline;text-anchor:start;white-space:normal;clip-rule:nonzero;display:inline;overflow:visible;visibility:visible;opacity:1;isolation:auto;mix-blend-mode:normal;color-interpolation:sRGB;color-interpolation-filters:linearRGB;solid-color:#000000;solid-opacity:1;fill:#5c5c5c;fill-opacity:1;fill-rule:nonzero;stroke:none;stroke-width:2;stroke-linecap:round;stroke-linejoin:round;stroke-miterlimit:10;stroke-dasharray:none;stroke-dashoffset:0;stroke-opacity:1;color-rendering:auto;image-rendering:auto;shape-rendering:auto;text-rendering:auto;enable-background:accumulate"
     d="m 20,32 a 1.0001,1.0001 0 1 0 0,2 l 16,0 a 1.0001,1.0001 0 1 0 0,-2 l -16,0 z"
     id="line88"
     inkscape:connector-curvature="0" /><path
     style="color:#000000;font-style:normal;font-variant:normal;font-weight:normal;font-stretch:normal;font-size:medium;line-height:normal;font-family:sans-serif;text-indent:0;text-align:start;text-decoration:none;text-decoration-line:none;text-decoration-style:solid;text-decoration-color:#000000;letter-spacing:normal;word-spacing:normal;text-transform:none;direction:ltr;block-progression:tb;writing-mode:lr-tb;baseline-shift:baseline;text-anchor:start;white-space:normal;clip-rule:nonzero;display:inline;overflow:visible;visibility:visible;opacity:1;isolation:auto;mix-blend-mode:normal;color-interpolation:sRGB;color-interpolation-filters:linearRGB;solid-color:#000000;solid-opacity:1;fill:#5c5c5c;fill-opacity:1;fill-rule:nonzero;stroke:none;stroke-width:2;stroke-linecap:round;stroke-linejoin:round;stroke-miterlimit:10;stroke-dasharray:none;stroke-dashoffset:0;stroke-opacity:1;color-rendering:auto;image-rendering:auto;shape-rendering:auto;text-rendering:auto;enable-background:accumulate"
     d="m 30,16 a 1.0001,1.0001 0 1 0 0,2 l 6,0 a 1.0001,1.0001 0 1 0 0,-2 l -6,0 z"
     id="line90"
     inkscape:connector-curvature="0" /><path
     style="color:#000000;font-style:normal;font-variant:normal;font-weight:normal;font-stretch:normal;font-size:medium;line-height:normal;font-family:sans-serif;text-indent:0;text-align:start;text-decoration:none;text-decoration-line:none;text-decoration-style:solid;text-decoration-color:#000000;letter-spacing:normal;word-spacing:normal;text-transform:none;direction:ltr;block-progression:tb;writing-mode:lr-tb;baseline-shift:baseline;text-anchor:start;white-space:normal;clip-rule:nonzero;display:inline;overflow:visible;visibility:visible;opacity:1;isolation:auto;mix-blend-mode:normal;color-interpolation:sRGB;color-interpolation-filters:linearRGB;solid-color:#000000;solid-opacity:1;fill:#5c5c5c;fill-opacity:1;fill-rule:nonzero;stroke:none;stroke-width:2;stroke-linecap:round;stroke-linejoin:round;stroke-miterlimit:10;stroke-dasharray:none;stroke-dashoffset:0;stroke-opacity:1;color-rendering:auto;image-rendering:auto;shape-rendering:auto;text-rendering:auto;enable-background:accumulate"
     d="m 30,20 a 1.0001,1.0001 0 1 0 0,2 l 6,0 a 1.0001,1.0001 0 1 0 0,-2 l -6,0 z"
     id="line92"
     inkscape:connector-curvature="0" /></svg>