<?xml version="1.0" encoding="UTF-8" standalone="no"?>
<svg
   xmlns:dc="http://purl.org/dc/elements/1.1/"
   xmlns:cc="http://creativecommons.org/ns#"
   xmlns:rdf="http://www.w3.org/1999/02/22-rdf-syntax-ns#"
   xmlns:svg="http://www.w3.org/2000/svg"
   xmlns="http://www.w3.org/2000/svg"
   xmlns:sodipodi="http://sodipodi.sourceforge.net/DTD/sodipodi-0.dtd"
   xmlns:inkscape="http://www.inkscape.org/namespaces/inkscape"
   enable-background="new 0 0 128 128"
   height="128px"
   id="Layer_1"
   version="1.1"
   viewBox="0 0 128 128"
   width="128px"
   xml:space="preserve"
   inkscape:version="0.91 r13725"
   sodipodi:docname="meeting.svg"><metadata
     id="metadata194"><rdf:RDF><cc:Work
         rdf:about=""><dc:format>image/svg+xml</dc:format><dc:type
           rdf:resource="http://purl.org/dc/dcmitype/StillImage" /></cc:Work></rdf:RDF></metadata><defs
     id="defs192" /><sodipodi:namedview
     pagecolor="#ffffff"
     bordercolor="#666666"
     borderopacity="1"
     objecttolerance="10"
     gridtolerance="10"
     guidetolerance="10"
     inkscape:pageopacity="0"
     inkscape:pageshadow="2"
     inkscape:window-width="1920"
     inkscape:window-height="1035"
     id="namedview190"
     showgrid="false"
     inkscape:zoom="1.84375"
     inkscape:cx="-58.149397"
     inkscape:cy="49.526549"
     inkscape:window-x="0"
     inkscape:window-y="24"
     inkscape:window-maximized="1"
     inkscape:current-layer="Layer_1" /><path
     d="M122.4,85.4c-1-18.4-17.8-17.6-24.5-15.7c-5.8,1.6-10.4,6.8-14.1,18.4c-1.2,3.8-5.3,6.6-4.2,7.8  c1.1,1.2,2.8,1.3,2.8,1.3s1.5,2.8-1.5,9.1c-1.6,3.4,9,6.3,9,6.3V123c13.9,1.5,20.7-4.6,20.7-4.6v-9.8  C110.5,108.6,123.4,101.5,122.4,85.4z M108.5,105.1l-2.1,1.1v10.1c-1.9,1.1-5.9,2.9-12.3,2.9c0,0-0.3,0-0.4,0v-9.8l-3-0.8  c-2.1-0.6-4.4-1.5-5.7-2.3c2.7-6.6,1.2-10.2,0.7-11.2l-0.7-1.3c0.9-1.3,1.9-2.8,2.5-4.6c4-12.4,8.5-15,11.4-15.8  c0.8-0.2,3.1-0.8,6-0.8c8.4,0,13,4.3,13.4,12.9C119.2,99.1,108.6,105,108.5,105.1z"
     fill="#2C3E50"
     id="path176"
     style="fill:#5c5c5c;fill-opacity:1" /><path
     d="M49.9,89.2c1.1-1.2-3-4-4.2-7.8C41.9,69.8,37.3,64.7,31.5,63C24.9,61.1,8.1,60.3,7,78.7  C6.1,94.9,19,102,19,102v9.8c0,0,6.7,6.2,20.7,4.6V106c0,0,10.6-2.9,9-6.3c-3-6.4-1.5-9.1-1.5-9.1S48.8,90.4,49.9,89.2z M38.6,102.1  l-2.9,0.8l0,9.7c-0.1,0-0.3,0-0.4,0c-6.3,0-10.4-1.8-12.3-3V99.6l-2.1-1.1C20.5,98.2,10.3,92.3,11,79c0.5-8.5,5-12.9,13.4-12.9  c2.9,0,5.1,0.5,6,0.8c3,0.8,7.4,3.4,11.4,15.8c0.6,1.7,1.5,3.2,2.4,4.5l-0.6,1.5c-0.6,1-2,4.6,0.7,11.2  C43,100.6,40.7,101.5,38.6,102.1z"
     fill="#3B97D3"
     id="path178"
     style="fill:#ff4c00;fill-opacity:1" /><path
     d="M94,17h-4v4h4c3.3,0,6,2.7,6,6v29c0,3.3-2.7,6-6,6h-9h-4v4v3.9l-10-7L70,62h-1.4H52c-1.9,0-3.6-0.9-4.7-2.3  L44.1,62c1.8,2.4,4.7,4,7.9,4h16.6L85,78V66h9c5.5,0,10-4.5,10-10V27C104,21.5,99.5,17,94,17z"
     fill="#2C3E50"
     id="path180"
     style="fill:#5c5c5c;fill-opacity:1" /><path
     d="M36,7c-3.3,0-6,2.7-6,6v29c0,3.3,2.7,6,6,6h2h4v4v3.9l10-7L53,48h1.4H78c3.3,0,6-2.7,6-6V13c0-3.3-2.7-6-6-6  H36 M36,3h42c5.5,0,10,4.5,10,10v29c0,5.5-4.5,10-10,10H54.4L38,64V52h-2c-5.5,0-10-4.5-10-10V13C26,7.5,30.5,3,36,3L36,3z"
     fill="#3B97D3"
     id="path182"
     style="fill:#ff4c00;fill-opacity:1" /><path
     d="M57,23.3c2.2,0,4,1.8,4,4s-1.8,4-4,4s-4-1.8-4-4S54.8,23.3,57,23.3 M57,21.3c-3.3,0-6,2.7-6,6s2.7,6,6,6  s6-2.7,6-6S60.3,21.3,57,21.3L57,21.3z"
     fill="#3B97D3"
     id="path184"
     style="fill:#ff4c00;fill-opacity:1" /><path
     d="M72.5,23.3c2.2,0,4,1.8,4,4s-1.8,4-4,4s-4-1.8-4-4S70.3,23.3,72.5,23.3 M72.5,21.3c-3.3,0-6,2.7-6,6  s2.7,6,6,6s6-2.7,6-6S75.8,21.3,72.5,21.3L72.5,21.3z"
     fill="#3B97D3"
     id="path186"
     style="fill:#ff4c00;fill-opacity:1" /><path
     d="M41.5,23.3c2.2,0,4,1.8,4,4s-1.8,4-4,4s-4-1.8-4-4S39.3,23.3,41.5,23.3 M41.5,21.3c-3.3,0-6,2.7-6,6  s2.7,6,6,6s6-2.7,6-6S44.8,21.3,41.5,21.3L41.5,21.3z"
     fill="#3B97D3"
     id="path188"
     style="fill:#ff4c00;fill-opacity:1" /></svg>