<?xml version="1.0" encoding="UTF-8" standalone="no"?>
<svg
   xmlns:dc="http://purl.org/dc/elements/1.1/"
   xmlns:cc="http://creativecommons.org/ns#"
   xmlns:rdf="http://www.w3.org/1999/02/22-rdf-syntax-ns#"
   xmlns:svg="http://www.w3.org/2000/svg"
   xmlns="http://www.w3.org/2000/svg"
   xmlns:sodipodi="http://sodipodi.sourceforge.net/DTD/sodipodi-0.dtd"
   xmlns:inkscape="http://www.inkscape.org/namespaces/inkscape"
   enable-background="new 0 0 128 128"
   height="128px"
   id="Layer_1"
   version="1.1"
   viewBox="0 0 128 128"
   width="128px"
   xml:space="preserve"
   inkscape:version="0.91 r13725"
   sodipodi:docname="pass-request.svg"><metadata
     id="metadata23"><rdf:RDF><cc:Work
         rdf:about=""><dc:format>image/svg+xml</dc:format><dc:type
           rdf:resource="http://purl.org/dc/dcmitype/StillImage" /></cc:Work></rdf:RDF></metadata><defs
     id="defs21" /><sodipodi:namedview
     pagecolor="#ffffff"
     bordercolor="#666666"
     borderopacity="1"
     objecttolerance="10"
     gridtolerance="10"
     guidetolerance="10"
     inkscape:pageopacity="0"
     inkscape:pageshadow="2"
     inkscape:window-width="1920"
     inkscape:window-height="1035"
     id="namedview19"
     showgrid="false"
     inkscape:zoom="2.6074562"
     inkscape:cx="-17.358537"
     inkscape:cy="46.958849"
     inkscape:window-x="0"
     inkscape:window-y="24"
     inkscape:window-maximized="1"
     inkscape:current-layer="Layer_1" /><path
     d="M106,35H80v4h26c3.3,0,6,2.7,6,6v48c0,3.3-2.7,6-6,6H24c-3.3,0-6-2.7-6-6V45c0-3.3,2.7-6,6-6h26v-4H24  c-5.5,0-10,4.5-10,10v48c0,5.5,4.5,10,10,10h82c5.5,0,10-4.5,10-10V45C116,39.5,111.5,35,106,35z"
     fill="#2C3E50"
     id="path3"
     style="fill:#999999;fill-opacity:1" /><path
     d="M74,33v6H56v-6H74 M65,21.3c-4.2,0-7.7,3.4-7.7,7.7H56c-2.2,0-4,1.8-4,4v6c0,2.2,1.8,4,4,4h18  c2.2,0,4-1.8,4-4v-6c0-2.2-1.8-4-4-4h-1.3C72.7,24.8,69.2,21.3,65,21.3L65,21.3z M61.3,29c0-2,1.6-3.7,3.7-3.7s3.7,1.6,3.7,3.7H61.3  L61.3,29z"
     fill="#2C3E50"
     id="path5"
     style="fill:#999999;fill-opacity:1" /><path
     d="M58.4,76.2C56.6,75.7,50,74,50,74v0l-4.6,4.5l-4.7-4.5c0,0-6.3,1.6-8.2,2.1s-2.2,4.7-2.2,7.6  c0,0,4,2.4,15.3,2.4c11.3,0,15.2-2.4,15.2-2.4C60.8,80.8,60.3,76.6,58.4,76.2z M45.6,84.1c-7.4,0-11.5-1.1-13.3-1.7  c0.1-2.8,0.6-4.1,0.9-4.4c1.5-0.4,5.2-1.3,7-1.8l5.4,5l5.4-5.1c1.8,0.5,5.5,1.4,7,1.8c0.2,0.3,0.7,1.6,0.9,4.4  C57.1,83,53.1,84.1,45.6,84.1z"
     fill="#3B97D3"
     id="path7"
     style="fill:#3b97d3;fill-opacity:1" /><path
     d="M51.4,60.3c-0.9-4-4.6-4.6-6.5-4.6c-2.2,0-5.9,0.5-6.5,5.2c-0.5,3.6,1.2,8.3,2.4,9.9  c1.4,1.7,2.6,2.6,4.3,2.6c1.6,0,2.7-0.8,4.1-2.9C50.7,68.6,52.1,63.6,51.4,60.3z M47.7,69.4c-1.4,2-2,2-2.5,2  c-0.8,0-1.5-0.3-2.8-1.9c-0.9-1.2-2.4-5.3-2-8.4c0.3-2.5,1.6-3.5,4.5-3.5c1.4,0,4,0.4,4.5,3C50,63.3,48.8,67.8,47.7,69.4z"
     fill="#3B97D3"
     id="path9"
     style="fill:#3b97d3;fill-opacity:1" /><path
     d="M98.4,60H71.3c-0.6,0-1-0.4-1-1s0.4-1,1-1h27.2c0.6,0,1,0.4,1,1S99,60,98.4,60z"
     fill="#3B97D3"
     id="path11"
     style="fill:#3b97d3;fill-opacity:1" /><path
     d="M98.4,68H71.3c-0.6,0-1-0.4-1-1s0.4-1,1-1h27.2c0.6,0,1,0.4,1,1S99,68,98.4,68z"
     fill="#3B97D3"
     id="path13"
     style="fill:#3b97d3;fill-opacity:1" /><path
     d="M98.4,76H71.3c-0.6,0-1-0.4-1-1s0.4-1,1-1h27.2c0.6,0,1,0.4,1,1S99,76,98.4,76z"
     fill="#3B97D3"
     id="path15"
     style="fill:#3b97d3;fill-opacity:1" /><path
     d="M98.4,84H71.3c-0.6,0-1-0.4-1-1s0.4-1,1-1h27.2c0.6,0,1,0.4,1,1S99,84,98.4,84z"
     fill="#3B97D3"
     id="path17"
     style="fill:#3b97d3;fill-opacity:1" /></svg>