<?xml version="1.0" encoding="UTF-8" standalone="no"?>
<svg
   xmlns:dc="http://purl.org/dc/elements/1.1/"
   xmlns:cc="http://creativecommons.org/ns#"
   xmlns:rdf="http://www.w3.org/1999/02/22-rdf-syntax-ns#"
   xmlns:svg="http://www.w3.org/2000/svg"
   xmlns="http://www.w3.org/2000/svg"
   xmlns:sodipodi="http://sodipodi.sourceforge.net/DTD/sodipodi-0.dtd"
   xmlns:inkscape="http://www.inkscape.org/namespaces/inkscape"
   enable-background="new 0 0 128 128"
   id="Layer_1"
   version="1.1"
   viewBox="0 0 128 128"
   xml:space="preserve"
   inkscape:version="0.91 r13725"
   sodipodi:docname="platform.svg"><metadata
     id="metadata25"><rdf:RDF><cc:Work
         rdf:about=""><dc:format>image/svg+xml</dc:format><dc:type
           rdf:resource="http://purl.org/dc/dcmitype/StillImage" /><dc:title /></cc:Work></rdf:RDF></metadata><defs
     id="defs23" /><sodipodi:namedview
     pagecolor="#ffffff"
     bordercolor="#666666"
     borderopacity="1"
     objecttolerance="10"
     gridtolerance="10"
     guidetolerance="10"
     inkscape:pageopacity="0"
     inkscape:pageshadow="2"
     inkscape:window-width="1920"
     inkscape:window-height="1035"
     id="namedview21"
     showgrid="false"
     inkscape:zoom="3.6875"
     inkscape:cx="36.693639"
     inkscape:cy="64.756019"
     inkscape:window-x="0"
     inkscape:window-y="24"
     inkscape:window-maximized="1"
     inkscape:current-layer="Layer_1" /><path
     d="m 86.106209,48.305873 c 1.17697,0 2.236243,0.941576 2.236243,2.118546 l 0,9.768851 c 0,1.176969 -0.941576,2.118545 -2.118546,2.118545 l -25.386643,0 c -1.17697,0 -2.118546,-0.941576 -2.118546,-2.118545 l 0,-9.768851 c 0,-1.17697 0.941576,-2.118546 2.118546,-2.118546 l 25.268946,0 m 0.117697,-4.70788 -25.386643,0 c -3.766304,0 -6.826426,3.060122 -6.826426,6.826426 l 0,9.768851 c 0,3.766303 3.060122,6.826425 6.826426,6.826425 l 25.268946,0 c 3.766304,0 6.826426,-3.060122 6.826426,-6.826425 l 0,-9.768851 c 0.117697,-3.766304 -2.942425,-6.826426 -6.708729,-6.826426 z"
     id="path3"
     style="fill:#999999;fill-opacity:1"
     inkscape:connector-curvature="0"
     sodipodi:nodetypes="csssssssccssssssccc" /><path
     d="m 58.198059,103.62346 c 1.17697,0 2.236242,0.94157 2.236242,2.11855 l 0,9.76885 c 0,1.17697 -0.941575,2.11854 -2.118545,2.11854 l -15.771398,0 c -1.17697,0 -2.118546,-0.94157 -2.118546,-2.11854 l 0,-9.76885 c 0,-1.17698 0.941576,-2.11855 2.118546,-2.11855 l 15.653701,0 m 0.117697,-4.707879 -15.771398,0 c -3.766304,0 -6.826426,3.060119 -6.826426,6.826429 l 0,9.76885 c 0,3.7663 3.060122,6.82642 6.826426,6.82642 l 15.653701,0 c 3.766303,0 6.826425,-3.06012 6.826425,-6.82642 l 0,-9.76885 c 0.117697,-3.76631 -2.942425,-6.826429 -6.708728,-6.826429 l 0,0 z"
     id="path5"
     style="fill:#999999;fill-opacity:1"
     inkscape:connector-curvature="0" /><path
     d="m 105.59603,103.62346 c 1.17697,0 2.23625,0.94157 2.23625,2.11855 l 0,9.76885 c 0,1.17697 -0.94158,2.11854 -2.11855,2.11854 l -15.771396,0 c -1.17697,0 -2.118546,-0.94157 -2.118546,-2.11854 l 0,-9.76885 c 0,-1.17698 0.941576,-2.11855 2.118546,-2.11855 l 15.653696,0 m 0.1177,-4.707879 -15.771396,0 c -3.766304,0 -6.826426,3.060119 -6.826426,6.826429 l 0,9.76885 c 0,3.7663 3.060122,6.82642 6.826426,6.82642 l 15.653696,0 c 3.76631,0 6.82643,-3.06012 6.82643,-6.82642 l 0,-9.76885 c 0.1177,-3.76631 -2.94242,-6.826429 -6.70873,-6.826429 l 0,0 z"
     id="path7"
     style="fill:#999999;fill-opacity:1"
     inkscape:connector-curvature="0" /><path
     d="m 24.254483,48.005942 c 1.17697,0 2.236243,0.941576 2.236243,2.118546 l 0,9.768855 c 0,1.17697 -0.941576,2.118546 -2.118546,2.118546 l -11.063518,0 c -1.17697,0 -2.118546,-0.941576 -2.118546,-2.118546 l 0,-9.768855 c 0,-1.17697 0.941576,-2.118546 2.118546,-2.118546 l 10.945821,0 m 0.117697,-4.70788 -11.063518,0 c -3.7663059,0 -6.826429,3.060122 -6.826429,6.826426 l 0,9.768855 c 0,3.766304 3.0601231,6.826426 6.826429,6.826426 l 10.945821,0 c 3.766304,0 6.826426,-3.060122 6.826426,-6.826426 l 0,-9.768855 c 0.117697,-3.766304 -2.942425,-6.826426 -6.708729,-6.826426 z"
     id="path9"
     style="fill:#999999;fill-opacity:1"
     inkscape:connector-curvature="0"
     sodipodi:nodetypes="csssssssccssssssccc" /><path
     d="m 51.647119,36.536173 0,-28.831519 43.547888,0 0,28.831519 z m 38.840009,-4.707879 0,-19.41576 -34.132129,0 0,19.41576 z"
     id="path11"
     style="fill:#999999;fill-opacity:1"
     inkscape:connector-curvature="0"
     sodipodi:nodetypes="cccccccccc" /><path
     d="m 112.49517,26.382314 -12.946664,0 0,2.489891 12.946664,0 c 3.884,0 7.06182,2.73888 7.06182,6.847201 l 0,9.959565 c 0,4.10832 -3.17782,8.092147 -7.06182,8.092147 l -12.24048,0 4.09545,-4.367862 c 0.47079,-0.497978 0.47079,-1.36944 0,-1.867418 -0.47078,-0.497978 -1.16449,-0.60891 -1.64775,-0.124494 l -6.096309,6.110785 c -0.362451,0.363311 -0.470788,1.12045 -0.117697,1.618429 0,0 0,0.124494 0.117697,0.124494 l 5.659429,5.817483 c 0.23874,0.245403 0.58849,0.373483 0.82388,0.373483 0.2354,0 0.58849,-0.124494 0.82388,-0.373483 0.47079,-0.497978 0.47079,-0.995957 0,-1.493935 l -3.25961,-3.327592 11.84151,0 c 5.17866,0 9.41576,-5.104276 9.41576,-10.582037 l 0,-9.959565 c 0,-5.477761 -4.2371,-9.337092 -9.41576,-9.337092 z"
     id="path13"
     inkscape:connector-curvature="0"
     style="fill:#3b97d3"
     sodipodi:nodetypes="sccssssccsssccsssccssss" /><path
     inkscape:connector-curvature="0"
     d="m 73.726266,69.116587 c -0.706182,0 -1.17697,0.470788 -1.17697,1.17697 l 0,11.535225 -14.215585,9.742185 c -0.0082,-0.0046 -0.01483,-0.0092 -0.02295,-0.01379 l -0.721813,0.721813 0.372394,-3.542403 c 0.02377,-0.599668 -0.439422,-1.195116 -1.011453,-1.333286 -0.343228,-0.08291 -0.768703,0.178698 -1.080423,0.466649 -0.169672,0.20118 -0.225178,0.428635 -0.280449,0.657449 l -0.494233,6.057258 -0.0552,0.227578 c 0.118274,0.512895 0.494057,0.967587 0.951687,1.078123 l 5.940014,0.466652 c 0.599678,0.02378 1.196884,-0.439377 1.220647,-1.039046 0.02378,-0.599668 -0.439374,-1.194584 -1.039041,-1.218348 l -2.599903,-0.264358 0.919508,-1.039045 c -0.0082,-0.0065 -0.0166,-0.0097 -0.02531,-0.01609 l 13.201825,-8.831873 14.475353,9.41576 c 0.124194,0.124192 0.251613,0.210287 0.393097,0.268956 l 0.133327,0.112636 -3.5631,-0.06437 c -0.599478,0.02805 -1.153019,0.537681 -1.241327,1.119501 -0.05296,0.349094 0.242526,0.751022 0.556295,1.036745 0.215056,0.151708 0.447731,0.187613 0.680441,0.222981 l 6.077944,-0.02988 0.232169,0.03449 c 0.500789,-0.162074 0.92012,-0.573587 0.990773,-1.039043 l -0.04825,-5.958411 c -0.02801,-0.599484 -0.538405,-1.154443 -1.137895,-1.126398 -0.599478,0.02805 -1.154443,0.538409 -1.126396,1.137891 l -0.03907,2.613701 -0.193105,-0.142522 -14.896026,-9.838733 0,-11.417988 c 0,-0.706182 -0.470788,-1.17697 -1.17697,-1.17697 z"
     id="path96"
     style="fill:#3b97d3;fill-opacity:1"
     sodipodi:nodetypes="sscccccscccccccccccccccccccccccsccccss" /><path
     style="fill:#3b97d3;fill-opacity:1"
     d="m 45.362379,50.33362 c -0.294302,-0.0029 -0.584144,0.09996 -0.78618,0.321829 -0.404088,0.443702 -0.43453,1.19818 0.0092,1.602242 l 1.820626,1.875796 -0.239072,0.03449 -10.905362,-0.0184 c 0,0 -1.030781,0.07337 -1.03733,1.232998 -0.0066,1.159626 1.03733,1.263465 1.03733,1.263465 l 10.976624,0.0184 c 0.175637,0 0.325127,-0.0311 0.46665,-0.08965 l 0.174707,-0.01379 -2.565428,2.473475 c -0.404086,0.443702 -0.434017,1.195053 -0.08506,1.668907 0.209392,0.284295 0.702486,0.360042 1.126398,0.340218 0.259334,-0.0448 0.449496,-0.184585 0.639057,-0.324126 l 4.275711,-4.31709 0.188499,-0.140224 c 0.239511,-0.468712 0.244689,-1.057645 -0.03449,-1.436731 L 46.178432,50.648564 C 45.956576,50.446516 45.65667,50.336557 45.362369,50.333633 Z"
     id="path96-1"
     inkscape:connector-curvature="0"
     sodipodi:nodetypes="sccccczccccccccccccs" /><path
     style="color:#000000;font-style:normal;font-variant:normal;font-weight:normal;font-stretch:normal;font-size:medium;line-height:normal;font-family:sans-serif;text-indent:0;text-align:start;text-decoration:none;text-decoration-line:none;text-decoration-style:solid;text-decoration-color:#000000;letter-spacing:normal;word-spacing:normal;text-transform:none;direction:ltr;block-progression:tb;writing-mode:lr-tb;baseline-shift:baseline;text-anchor:start;white-space:normal;clip-rule:nonzero;display:inline;overflow:visible;visibility:visible;opacity:1;isolation:auto;mix-blend-mode:normal;color-interpolation:sRGB;color-interpolation-filters:linearRGB;solid-color:#000000;solid-opacity:1;fill:#cccccc;fill-opacity:1;fill-rule:nonzero;stroke:none;stroke-width:4;stroke-linecap:round;stroke-linejoin:round;stroke-miterlimit:10;stroke-dasharray:none;stroke-dashoffset:0;stroke-opacity:1;color-rendering:auto;image-rendering:auto;shape-rendering:auto;text-rendering:auto;enable-background:accumulate"
     d="m 44.989178,109.06889 a 2.0002,2.0002 0 1 0 0,4 l 7.38868,0 a 2.0002,2.0002 0 1 0 0,-4 l -7.38868,0 z"
     id="line27"
     inkscape:connector-curvature="0" /><path
     style="color:#000000;font-style:normal;font-variant:normal;font-weight:normal;font-stretch:normal;font-size:medium;line-height:normal;font-family:sans-serif;text-indent:0;text-align:start;text-decoration:none;text-decoration-line:none;text-decoration-style:solid;text-decoration-color:#000000;letter-spacing:normal;word-spacing:normal;text-transform:none;direction:ltr;block-progression:tb;writing-mode:lr-tb;baseline-shift:baseline;text-anchor:start;white-space:normal;clip-rule:nonzero;display:inline;overflow:visible;visibility:visible;opacity:1;isolation:auto;mix-blend-mode:normal;color-interpolation:sRGB;color-interpolation-filters:linearRGB;solid-color:#000000;solid-opacity:1;fill:#cccccc;fill-opacity:1;fill-rule:nonzero;stroke:none;stroke-width:4;stroke-linecap:round;stroke-linejoin:round;stroke-miterlimit:10;stroke-dasharray:none;stroke-dashoffset:0;stroke-opacity:1;color-rendering:auto;image-rendering:auto;shape-rendering:auto;text-rendering:auto;enable-background:accumulate"
     d="m 91.781818,108.52048 c -2.704645,-0.0383 -2.704645,4.03825 0,4 l 5.38672,0 c 2.704645,0.0382 2.704645,-4.03825 0,-4 z"
     id="line31"
     inkscape:connector-curvature="0"
     sodipodi:nodetypes="ccccc" /><path
     style="color:#000000;font-style:normal;font-variant:normal;font-weight:normal;font-stretch:normal;font-size:medium;line-height:normal;font-family:sans-serif;text-indent:0;text-align:start;text-decoration:none;text-decoration-line:none;text-decoration-style:solid;text-decoration-color:#000000;letter-spacing:normal;word-spacing:normal;text-transform:none;direction:ltr;block-progression:tb;writing-mode:lr-tb;baseline-shift:baseline;text-anchor:start;white-space:normal;clip-rule:nonzero;display:inline;overflow:visible;visibility:visible;opacity:1;isolation:auto;mix-blend-mode:normal;color-interpolation:sRGB;color-interpolation-filters:linearRGB;solid-color:#000000;solid-opacity:1;fill:#cccccc;fill-opacity:1;fill-rule:nonzero;stroke:none;stroke-width:4;stroke-linecap:round;stroke-linejoin:round;stroke-miterlimit:10;stroke-dasharray:none;stroke-dashoffset:0;stroke-opacity:1;color-rendering:auto;image-rendering:auto;shape-rendering:auto;text-rendering:auto;enable-background:accumulate"
     d="m 63.546445,53.23449 a 2.0002,2.0002 0 1 0 0,4 l 17.23828,0 a 2.0002,2.0002 0 1 0 0,-4 l -17.23828,0 z"
     id="line33"
     inkscape:connector-curvature="0" /><path
     style="color:#000000;font-style:normal;font-variant:normal;font-weight:normal;font-stretch:normal;font-size:medium;line-height:normal;font-family:sans-serif;text-indent:0;text-align:start;text-decoration:none;text-decoration-line:none;text-decoration-style:solid;text-decoration-color:#000000;letter-spacing:normal;word-spacing:normal;text-transform:none;direction:ltr;block-progression:tb;writing-mode:lr-tb;baseline-shift:baseline;text-anchor:start;white-space:normal;clip-rule:nonzero;display:inline;overflow:visible;visibility:visible;opacity:1;isolation:auto;mix-blend-mode:normal;color-interpolation:sRGB;color-interpolation-filters:linearRGB;solid-color:#000000;solid-opacity:1;fill:#cccccc;fill-opacity:1;fill-rule:nonzero;stroke:none;stroke-width:4;stroke-linecap:round;stroke-linejoin:round;stroke-miterlimit:10;stroke-dasharray:none;stroke-dashoffset:0;stroke-opacity:1;color-rendering:auto;image-rendering:auto;shape-rendering:auto;text-rendering:auto;enable-background:accumulate"
     d="m 15.715383,53.379317 c -2.70464,-0.0383 -2.70464,4.03825 0,4 l 5.38672,0 c 2.70465,0.0382 2.70465,-4.03825 0,-4 z"
     id="line31-3"
     inkscape:connector-curvature="0"
     sodipodi:nodetypes="ccccc" /><path
     style="color:#000000;font-style:normal;font-variant:normal;font-weight:normal;font-stretch:normal;font-size:medium;line-height:normal;font-family:sans-serif;text-indent:0;text-align:start;text-decoration:none;text-decoration-line:none;text-decoration-style:solid;text-decoration-color:#000000;letter-spacing:normal;word-spacing:normal;text-transform:none;direction:ltr;block-progression:tb;writing-mode:lr-tb;baseline-shift:baseline;text-anchor:start;white-space:normal;clip-rule:nonzero;display:inline;overflow:visible;visibility:visible;opacity:1;isolation:auto;mix-blend-mode:normal;color-interpolation:sRGB;color-interpolation-filters:linearRGB;solid-color:#000000;solid-opacity:1;fill:#cccccc;fill-opacity:1;fill-rule:nonzero;stroke:none;stroke-width:4;stroke-linecap:round;stroke-linejoin:round;stroke-miterlimit:10;stroke-dasharray:none;stroke-dashoffset:0;stroke-opacity:1;color-rendering:auto;image-rendering:auto;shape-rendering:auto;text-rendering:auto;enable-background:accumulate"
     d="m 61.180689,16.337163 a 2.0002,2.0002 0 1 0 0,4 l 17.238281,0 a 2.0002,2.0002 0 1 0 0,-4 l -17.238281,0 z"
     id="line33-6"
     inkscape:connector-curvature="0" /><path
     style="color:#000000;font-style:normal;font-variant:normal;font-weight:normal;font-stretch:normal;font-size:medium;line-height:normal;font-family:sans-serif;text-indent:0;text-align:start;text-decoration:none;text-decoration-line:none;text-decoration-style:solid;text-decoration-color:#000000;letter-spacing:normal;word-spacing:normal;text-transform:none;direction:ltr;block-progression:tb;writing-mode:lr-tb;baseline-shift:baseline;text-anchor:start;white-space:normal;clip-rule:nonzero;display:inline;overflow:visible;visibility:visible;opacity:1;isolation:auto;mix-blend-mode:normal;color-interpolation:sRGB;color-interpolation-filters:linearRGB;solid-color:#000000;solid-opacity:1;fill:#cccccc;fill-opacity:1;fill-rule:nonzero;stroke:none;stroke-width:4;stroke-linecap:round;stroke-linejoin:round;stroke-miterlimit:10;stroke-dasharray:none;stroke-dashoffset:0;stroke-opacity:1;color-rendering:auto;image-rendering:auto;shape-rendering:auto;text-rendering:auto;enable-background:accumulate"
     d="m 61.180692,23.623958 c -2.70465,-0.0383 -2.70465,4.03825 0,4 l 5.38672,0 c 2.70464,0.0382 2.70464,-4.03825 0,-4 z"
     id="line31-7"
     inkscape:connector-curvature="0"
     sodipodi:nodetypes="ccccc" /></svg>