<?xml version="1.0" encoding="UTF-8" standalone="no"?>
<svg
   xmlns:dc="http://purl.org/dc/elements/1.1/"
   xmlns:cc="http://creativecommons.org/ns#"
   xmlns:rdf="http://www.w3.org/1999/02/22-rdf-syntax-ns#"
   xmlns:svg="http://www.w3.org/2000/svg"
   xmlns="http://www.w3.org/2000/svg"
   xmlns:sodipodi="http://sodipodi.sourceforge.net/DTD/sodipodi-0.dtd"
   xmlns:inkscape="http://www.inkscape.org/namespaces/inkscape"
   enable-background="new 0 0 128 128"
   height="128px"
   id="Layer_1"
   version="1.1"
   viewBox="0 0 128 128"
   width="128px"
   xml:space="preserve"
   inkscape:version="0.91 r13725"
   sodipodi:docname="if_files-08_437808.svg"><metadata
     id="metadata27"><rdf:RDF><cc:Work
         rdf:about=""><dc:format>image/svg+xml</dc:format><dc:type
           rdf:resource="http://purl.org/dc/dcmitype/StillImage" /></cc:Work></rdf:RDF></metadata><defs
     id="defs25" /><sodipodi:namedview
     pagecolor="#ffffff"
     bordercolor="#666666"
     borderopacity="1"
     objecttolerance="10"
     gridtolerance="10"
     guidetolerance="10"
     inkscape:pageopacity="0"
     inkscape:pageshadow="2"
     inkscape:window-width="1920"
     inkscape:window-height="1035"
     id="namedview23"
     showgrid="false"
     inkscape:zoom="1.84375"
     inkscape:cx="-58.139322"
     inkscape:cy="38.478147"
     inkscape:window-x="0"
     inkscape:window-y="24"
     inkscape:window-maximized="1"
     inkscape:current-layer="Layer_1" /><path
     d="m 87.4,64 -47.1,0 c -0.6,0 -1,-0.4 -1,-1 0,-0.6 0.4,-1 1,-1 l 47.2,0 c 0.6,0 1,0.4 1,1 0,0.6 -0.5,1 -1.1,1 z"
     id="path11"
     inkscape:connector-curvature="0"
     style="fill:#ff4c00;fill-opacity:1" /><path
     d="m 87.4,72 -47.1,0 c -0.6,0 -1,-0.4 -1,-1 0,-0.6 0.4,-1 1,-1 l 47.2,0 c 0.6,0 1,0.4 1,1 0,0.6 -0.5,1 -1.1,1 z"
     id="path13"
     inkscape:connector-curvature="0"
     style="fill:#ff4c00;fill-opacity:1" /><path
     d="m 60.2,82.9 0.2,0.1 c 1.2,0.7 2.6,1.1 4.2,1.1 1.6,0 3,-0.4 4.2,-1.1 l 0.2,-0.1 0.1,0.2 c 1.1,2.6 3.9,4.7 6.8,4.9 l 0.3,0 -0.1,0.2 c -0.7,2.8 0.4,6.1 2.6,8 l 0.2,0.2 -0.2,0.2 c -2.2,1.8 -3.3,5.2 -2.6,8 l 0.1,0.2 -0.3,0 c -2.8,0.2 -5.7,2.3 -6.8,4.9 L 69,110 68.8,109.9 c -1.2,-0.7 -2.6,-1.1 -4.2,-1.1 -1.6,0 -3,0.4 -4.2,1.1 l -0.2,0.1 -0.1,-0.2 c -1.1,-2.6 -3.9,-4.7 -6.8,-4.9 l -0.3,0 0.1,-0.2 c 0.7,-2.8 -0.4,-6.1 -2.6,-8 l -0.2,-0.2 0.2,-0.2 c 2.2,-1.8 3.3,-5.2 2.6,-8 l -0.1,-0.2 0.3,0 c 2.8,-0.2 5.7,-2.3 6.8,-4.9 l 0.1,-0.3 M 70,78 c -0.4,0 -0.8,0.1 -1.1,0.3 l -2.1,1.3 c -0.6,0.4 -1.3,0.5 -2.1,0.5 -0.8,0 -1.5,-0.2 -2.1,-0.5 L 60.5,78.3 C 60,78.1 59.6,78 59.3,78 c -0.8,0 -1.5,0.5 -1.9,1.3 l -1,2.3 c -0.5,1.2 -2,2.4 -3.4,2.5 l -2.5,0.2 c -1.3,0.1 -2.2,1.3 -1.9,2.6 l 0.6,2.5 c 0.3,1.3 -0.3,3.1 -1.3,4 L 46,95 c -1,0.9 -1,2.3 0,3.2 l 1.9,1.6 c 1,0.9 1.6,2.7 1.3,4 l -0.6,2.5 c -0.3,1.3 0.5,2.5 1.9,2.6 l 2.5,0.2 c 1.3,0.1 2.9,1.2 3.4,2.5 l 1,2.3 c 0.3,0.8 1.1,1.3 1.9,1.3 0.4,0 0.8,-0.1 1.1,-0.3 l 2.1,-1.3 c 0.6,-0.4 1.3,-0.5 2.1,-0.5 0.8,0 1.5,0.2 2.1,0.5 l 2.1,1.3 c 0.4,0.2 0.8,0.3 1.1,0.3 0.8,0 1.5,-0.5 1.9,-1.3 l 1,-2.3 c 0.5,-1.2 2,-2.4 3.4,-2.5 l 2.5,-0.2 c 1.3,-0.1 2.2,-1.3 1.9,-2.6 L 80,103.8 c -0.3,-1.3 0.3,-3.1 1.3,-4 l 1.9,-1.6 c 1,-0.9 1,-2.3 0,-3.2 l -1.9,-1.6 c -1,-0.9 -1.6,-2.7 -1.3,-4 l 0.6,-2.5 c 0.3,-1.3 -0.5,-2.5 -1.9,-2.6 L 76.2,84.1 C 74.9,84 73.3,82.9 72.8,81.6 l -1,-2.3 C 71.5,78.4 70.8,78 70,78 l 0,0 z"
     id="path15"
     inkscape:connector-curvature="0"
     style="fill:#ff4c00;fill-opacity:1" /><path
     d="m 74.5,112.1 -1.1,2.3 c -0.1,0.2 0.6,0.4 -0.4,0.5 l 0,7.7 -7.4,-4.1 -0.8,-0.5 -0.8,0.5 -8,4.1 0,-7.6 c 0,-0.2 -0.3,-0.4 -0.4,-0.5 l -0.9,-2.3 C 54.6,111.9 54,111.6 54,111.4 l 0,14.6 10.7,-5.6 10.3,5.6 0,-14.8 c 0,0.3 -0.4,0.6 -0.5,0.9 z"
     id="path17"
     inkscape:connector-curvature="0"
     style="fill:#ff4c00;fill-opacity:1" /><path
     d="m 64.6,88.9 c 4.3,0 7.9,3.5 7.9,7.9 0,4.4 -3.5,7.9 -7.9,7.9 -4.4,0 -7.9,-3.5 -7.9,-7.9 0,-4.4 3.6,-7.9 7.9,-7.9 m 0,-2 c -5.4,0 -9.9,4.4 -9.9,9.9 0,5.5 4.4,9.9 9.9,9.9 5.4,0 9.9,-4.4 9.9,-9.9 0,-5.5 -4.4,-9.9 -9.9,-9.9 l 0,0 z"
     id="path19"
     inkscape:connector-curvature="0"
     style="fill:#ff4c00;fill-opacity:1" /><path
     d="M97.5,7h-66C26,7,21,11,21,16.5v90c0,5.5,5,10.5,10.5,10.5H52v-4H31.5c-3.3,0-6.5-3.2-6.5-6.5v-90  c0-3.3,3.2-5.5,6.5-5.5h66c3.3,0,5.5,2.2,5.5,5.5v90c0,3.3-2.2,6.5-5.5,6.5H77v4h20.5c5.5,0,9.5-5,9.5-10.5v-90C107,11,103,7,97.5,7  z"
     fill="#2C3E50"
     id="path21"
     style="fill:#5c5c5c;fill-opacity:1" /><path
     inkscape:connector-curvature="0"
     style="fill:#ff4c00;fill-opacity:1"
     d="m 80.549994,43.854237 c -2.3,-0.6 -10.2,-2.6 -10.2,-2.6 l 0,0 -6.3,5.7 -6.2,-5.7 c 0,0 -8.1,2 -10.4,2.6 -2.3,0.6 -2.8,5.9 -2.8,9.6 0,0 5,3 19.3,3 14.3,0 19.4,-3 19.4,-3 0,-3.7 -0.4,-8.9 -2.8,-9.6 z m -16.6,10.6 c -10,0 -15.3,-1.5 -17.3,-2.3 0.1,-4.2 1,-6.1 1.4,-6.4 1.7,-0.5 7,-1.8 9.2,-2.3 l 6.7,6.2 6.7,-6.3 c 2.3,0.6 7.5,1.9 9.3,2.4 0.4,0.2 1.2,2.2 1.3,6.4 -2,0.8 -7.3,2.3 -17.3,2.3 z"
     id="path30" /><path
     inkscape:connector-curvature="0"
     style="fill:#ff4c00;fill-opacity:1"
     d="m 71.249994,23.854237 c -1.1,-5 -5.9,-5.8 -8.2,-5.8 -2.8,0 -7.4,0.6 -8.2,6.6 -0.6,4.6 1.5,10.5 3.1,12.5 1.7,2.2 3.3,3.3 5.5,3.3 2,0 3.4,-1 5.2,-3.6 1.7,-2.6 3.5,-8.8 2.6,-13 z m -4.2,11.8 c -1.8,2.6 -2.6,2.8 -3.5,2.8 -1.2,0 -2.2,-0.4 -3.9,-2.5 -1.2,-1.6 -3.2,-6.9 -2.7,-11 0.4,-3.4 2.3,-4.8 6.2,-4.8 1.6,0 5.4,0.4 6.2,4.2 0.7,3.4 -0.9,9.1 -2.3,11.3 z"
     id="path32" /></svg>