<?xml version="1.0" encoding="UTF-8" standalone="no"?>
<svg
   xmlns:dc="http://purl.org/dc/elements/1.1/"
   xmlns:cc="http://creativecommons.org/ns#"
   xmlns:rdf="http://www.w3.org/1999/02/22-rdf-syntax-ns#"
   xmlns:svg="http://www.w3.org/2000/svg"
   xmlns="http://www.w3.org/2000/svg"
   xmlns:sodipodi="http://sodipodi.sourceforge.net/DTD/sodipodi-0.dtd"
   xmlns:inkscape="http://www.inkscape.org/namespaces/inkscape"
   enable-background="new 0 0 64 64"
   id="Layer_1"
   version="1.1"
   viewBox="0 0 64 64"
   xml:space="preserve"
   inkscape:version="0.91 r13725"
   sodipodi:docname="if_aami7-57_641990.svg"><metadata
     id="metadata46"><rdf:RDF><cc:Work
         rdf:about=""><dc:format>image/svg+xml</dc:format><dc:type
           rdf:resource="http://purl.org/dc/dcmitype/StillImage" /></cc:Work></rdf:RDF></metadata><defs
     id="defs44" /><sodipodi:namedview
     pagecolor="#ffffff"
     bordercolor="#666666"
     borderopacity="1"
     objecttolerance="10"
     gridtolerance="10"
     guidetolerance="10"
     inkscape:pageopacity="0"
     inkscape:pageshadow="2"
     inkscape:window-width="1920"
     inkscape:window-height="1035"
     id="namedview42"
     showgrid="false"
     inkscape:zoom="3.6875"
     inkscape:cx="32.770172"
     inkscape:cy="28.880367"
     inkscape:window-x="0"
     inkscape:window-y="24"
     inkscape:window-maximized="1"
     inkscape:current-layer="Layer_1" /><path
     style="color:#000000;font-style:normal;font-variant:normal;font-weight:normal;font-stretch:normal;font-size:medium;line-height:normal;font-family:sans-serif;text-indent:0;text-align:start;text-decoration:none;text-decoration-line:none;text-decoration-style:solid;text-decoration-color:#000000;letter-spacing:normal;word-spacing:normal;text-transform:none;direction:ltr;block-progression:tb;writing-mode:lr-tb;baseline-shift:baseline;text-anchor:start;white-space:normal;clip-rule:nonzero;display:inline;overflow:visible;visibility:visible;opacity:1;isolation:auto;mix-blend-mode:normal;color-interpolation:sRGB;color-interpolation-filters:linearRGB;solid-color:#000000;solid-opacity:1;fill:#5c5c5c;fill-opacity:1;fill-rule:nonzero;stroke:none;stroke-width:2;stroke-linecap:round;stroke-linejoin:round;stroke-miterlimit:10;stroke-dasharray:none;stroke-dashoffset:0;stroke-opacity:1;color-rendering:auto;image-rendering:auto;shape-rendering:auto;text-rendering:auto;enable-background:accumulate"
     d="m 25.5,38.599609 c -1.633333,0 -3.048456,0.317327 -4.105469,0.78711 -1.279983,0.533695 -12.6855466,5.392578 -12.6855466,5.392578 A 1.0001,1.0001 0 0 0 8.203125,46.142578 l 4.300781,8.701172 a 1.0001,1.0001 0 0 0 1.427735,0.404297 l 7.107421,-4.455078 c 0.363744,0.112676 2.214226,0.683112 4.644532,1.458984 2.657266,0.848329 5.626641,1.83262 6.427734,2.169922 a 1.0001,1.0001 0 0 0 0.04687,0.01758 C 33.271923,54.844442 34.3,55.199219 35.5,55.199219 c 1.048148,0 2.181617,-0.236019 3.558594,-0.765625 a 1.0001,1.0001 0 0 0 0.01367,-0.0059 c 1.731229,-0.692492 6.108871,-3.100749 10.240234,-5.404296 4.131363,-2.303548 7.884766,-4.455079 7.884766,-4.455079 a 1.0001,1.0001 0 0 0 0.4375,-1.224609 c 0,0 -1.174375,-2.744141 -4.234375,-2.744141 -0.282162,0 -0.691201,0.008 -1.144532,0.142579 -1.728372,0.312746 -4.156195,1.377883 -6.521484,2.460937 -2.392128,1.095343 -4.724162,2.226175 -5.367187,2.453125 a 1.0004105,1.0004105 0 1 0 0.666015,1.886719 c 1.056974,-0.37305 3.175332,-1.441828 5.533203,-2.521485 2.357872,-1.079657 4.934968,-2.134463 6.103516,-2.335937 a 1.0001,1.0001 0 0 0 0.146484,-0.03711 c 0.110264,-0.03675 0.283985,-0.04883 0.583985,-0.04883 0.977948,0 1.566323,0.367418 1.914062,0.734375 -0.712565,0.4078 -3.323209,1.906339 -6.976562,3.94336 -4.114833,2.294331 -8.726217,4.780317 -10,5.291015 -1.220207,0.468816 -2.087133,0.63086 -2.837891,0.63086 -0.8,0 -1.571923,-0.243661 -2.658203,-0.638672 l 0.04687,0.01758 c -1.098907,-0.462698 -3.929923,-1.378798 -6.597656,-2.230469 -2.667734,-0.851671 -5.095704,-1.603515 -5.095704,-1.603515 a 1.0001,1.0001 0 0 0 -0.826171,0.109375 l -6.5625,4.111328 -3.341797,-6.759766 c 1.514402,-0.645154 10.656383,-4.538955 11.720703,-4.982422 a 1.0001,1.0001 0 0 0 0.02148,-0.0098 c 0.742988,-0.330217 1.926302,-0.613282 3.292969,-0.613282 1.654386,0 3.83491,0.63326 6.666016,2 a 1.0001,1.0001 0 0 0 0.02539,0.01367 c 2.545778,1.141211 4.197154,1.889672 5.183594,2.451172 -0.07888,0.12279 -0.107184,0.284518 -0.197266,0.369141 -0.243739,0.228967 -0.375128,0.212196 -0.361328,0.216797 a 1.0001,1.0001 0 0 0 -0.04102,-0.01172 c -0.234148,-0.0669 -0.397938,-0.08482 -0.677735,-0.125 -0.279796,-0.04018 -0.627492,-0.08344 -1.023437,-0.13086 -0.791892,-0.09484 -1.773454,-0.20245 -2.732422,-0.302734 -1.917936,-0.200568 -3.746094,-0.375 -3.746094,-0.375 a 1.0001,1.0001 0 1 0 -0.191406,1.990234 c 0,0 1.821451,0.175569 3.728515,0.375 0.953533,0.09972 1.929392,0.204213 2.703126,0.296876 0.386866,0.04633 0.723155,0.09057 0.976562,0.126953 0.253407,0.03639 0.471257,0.08526 0.412109,0.06836 l -0.04102,-0.01367 c 0.9138,0.3046 1.78202,-0.11217 2.363281,-0.658203 0.581261,-0.546033 0.997942,-1.282576 1.138672,-2.126953 A 1.0001,1.0001 0 0 0 39.273438,43.78125 C 38.04382,42.920518 35.902539,42.083207 33.035156,40.798828 l -0.0059,-0.002 C 30.063255,39.365557 27.644108,38.599609 25.5,38.599609 Z"
     id="path28"
     inkscape:connector-curvature="0" /><path
     style="color:#000000;font-style:normal;font-variant:normal;font-weight:normal;font-stretch:normal;font-size:medium;line-height:normal;font-family:sans-serif;text-indent:0;text-align:start;text-decoration:none;text-decoration-line:none;text-decoration-style:solid;text-decoration-color:#000000;letter-spacing:normal;word-spacing:normal;text-transform:none;direction:ltr;block-progression:tb;writing-mode:lr-tb;baseline-shift:baseline;text-anchor:start;white-space:normal;clip-rule:nonzero;display:inline;overflow:visible;visibility:visible;opacity:1;isolation:auto;mix-blend-mode:normal;color-interpolation:sRGB;color-interpolation-filters:linearRGB;solid-color:#000000;solid-opacity:1;fill:#ff4c00;fill-opacity:1;fill-rule:nonzero;stroke:none;stroke-width:2;stroke-linecap:round;stroke-linejoin:round;stroke-miterlimit:10;stroke-dasharray:none;stroke-dashoffset:0;stroke-opacity:1;color-rendering:auto;image-rendering:auto;shape-rendering:auto;text-rendering:auto;enable-background:accumulate"
     d="m 27.400391,15 c -0.733334,0 -1.477828,0.33444 -1.886719,0.902344 C 25.104781,16.470248 25,17.129569 25,17.800781 l 0,3.09961 c 0,0.6 0.06784,1.272391 0.392578,1.921875 0.324742,0.649483 1.094176,1.277343 2.007813,1.277343 L 28,24.099609 28,35 c 0,0.833333 0.3726,1.552648 0.894531,2.109375 0.521931,0.556727 1.238802,0.990234 2.105469,0.990234 l 19,0 c 0.866667,0 1.583538,-0.433507 2.105469,-0.990234 C 52.6274,36.552648 53,35.833333 53,35 l 0,-11 0.599609,0 c 0.9,0 1.624389,-0.625799 1.958985,-1.257812 C 55.893189,22.110174 56,21.434115 56,20.800781 l 0,-3.101562 c 0,-0.6 -0.06486,-1.229783 -0.470703,-1.802735 C 55.123456,15.323533 54.361731,15 53.599609,15 l -26.199218,0 z m 0,2 26.199218,0 c 0.337879,0 0.277716,0.02569 0.296875,0.05273 C 53.915644,17.079783 54,17.299219 54,17.699219 l 0,3.101562 c 0,0.366667 -0.09358,0.787873 -0.208984,1.00586 C 53.675611,22.024627 53.699609,22 53.599609,22 L 52,22 a 1.0001,1.0001 0 0 0 -1,1 l 0,12 c 0,0.166667 -0.1274,0.496961 -0.355469,0.740234 C 50.416462,35.983508 50.133333,36.099609 50,36.099609 l -19,0 c -0.133333,0 -0.416462,-0.116101 -0.644531,-0.359375 C 30.1274,35.496961 30,35.166667 30,35 l 0,-11.900391 a 1.0001,1.0001 0 0 0 -1,-1 l -1.599609,0 c -0.186364,0 -0.118492,0.02864 -0.21875,-0.171875 C 27.081382,21.727218 27,21.300391 27,20.900391 l 0,-3.09961 c 0,-0.428788 0.09561,-0.671419 0.136719,-0.728515 C 27.177828,17.015169 27.133724,17 27.400391,17 Z"
     id="path30"
     inkscape:connector-curvature="0" /><path
     style="color:#000000;font-style:normal;font-variant:normal;font-weight:normal;font-stretch:normal;font-size:medium;line-height:normal;font-family:sans-serif;text-indent:0;text-align:start;text-decoration:none;text-decoration-line:none;text-decoration-style:solid;text-decoration-color:#000000;letter-spacing:normal;word-spacing:normal;text-transform:none;direction:ltr;block-progression:tb;writing-mode:lr-tb;baseline-shift:baseline;text-anchor:start;white-space:normal;clip-rule:nonzero;display:inline;overflow:visible;visibility:visible;opacity:1;isolation:auto;mix-blend-mode:normal;color-interpolation:sRGB;color-interpolation-filters:linearRGB;solid-color:#000000;solid-opacity:1;fill:#ff4c00;fill-opacity:1;fill-rule:nonzero;stroke:none;stroke-width:2;stroke-linecap:round;stroke-linejoin:round;stroke-miterlimit:10;stroke-dasharray:none;stroke-dashoffset:0;stroke-opacity:1;color-rendering:auto;image-rendering:auto;shape-rendering:auto;text-rendering:auto;enable-background:accumulate"
     d="M 47.841797,5.3007812 C 45.462581,5.433951 43.57098,7.3558402 42.130859,9.0839844 40.690346,10.8126 39.730469,12.505859 39.730469,12.505859 A 1.0001,1.0001 0 0 0 40.570312,14 c 0,0 1.67023,0.04982 3.5625,0.01172 0.946136,-0.01905 1.948901,-0.05927 2.845704,-0.142578 0.885378,-0.08225 1.627976,-0.179124 2.273437,-0.439453 0.962806,-0.343541 1.769246,-0.845034 2.292969,-1.595704 0.528192,-0.757075 0.713004,-1.695339 0.654297,-2.693359 C 52.06659,6.8859347 50.084521,5.1700621 47.84375,5.3007812 l -0.002,0 z m 0.113281,1.9980469 a 1.0001,1.0001 0 0 0 0.0039,0 c 1.158408,-0.068142 2.174856,0.8143462 2.242188,1.9589844 0.04129,0.70198 -0.07507,1.1137165 -0.296875,1.4316405 -0.221808,0.317924 -0.611688,0.610881 -1.337891,0.867188 a 1.0001,1.0001 0 0 0 -0.04687,0.01953 c -0.198846,0.08188 -0.90774,0.224716 -1.726562,0.300781 -0.818823,0.07607 -1.784807,0.118269 -2.701172,0.136719 -0.835691,0.01683 -0.962199,2.78e-4 -1.578125,-0.0059 0.388065,-0.594104 0.466901,-0.817703 1.154297,-1.642578 1.309487,-1.5713838 3.06724,-2.9986354 4.287109,-3.0664059 z"
     id="path32"
     inkscape:connector-curvature="0" /><path
     style="color:#000000;font-style:normal;font-variant:normal;font-weight:normal;font-stretch:normal;font-size:medium;line-height:normal;font-family:sans-serif;text-indent:0;text-align:start;text-decoration:none;text-decoration-line:none;text-decoration-style:solid;text-decoration-color:#000000;letter-spacing:normal;word-spacing:normal;text-transform:none;direction:ltr;block-progression:tb;writing-mode:lr-tb;baseline-shift:baseline;text-anchor:start;white-space:normal;clip-rule:nonzero;display:inline;overflow:visible;visibility:visible;opacity:1;isolation:auto;mix-blend-mode:normal;color-interpolation:sRGB;color-interpolation-filters:linearRGB;solid-color:#000000;solid-opacity:1;fill:#ff4c00;fill-opacity:1;fill-rule:nonzero;stroke:none;stroke-width:2;stroke-linecap:round;stroke-linejoin:round;stroke-miterlimit:10;stroke-dasharray:none;stroke-dashoffset:0;stroke-opacity:1;color-rendering:auto;image-rendering:auto;shape-rendering:auto;text-rendering:auto;enable-background:accumulate"
     d="m 33.15625,5.3007812 c -2.240771,-0.1307191 -4.22284,1.5851535 -4.355469,3.8398438 -0.05871,0.99802 0.126105,1.936284 0.654297,2.693359 0.523723,0.75067 1.330163,1.252163 2.292969,1.595704 0.645461,0.260329 1.388059,0.357204 2.273437,0.439453 0.896803,0.08331 1.899568,0.123528 2.845704,0.142578 1.89227,0.0381 3.5625,-0.01172 3.5625,-0.01172 a 1.0001,1.0001 0 0 0 0.839843,-1.494141 c 0,0 -0.959877,-1.693259 -2.40039,-3.4218746 C 37.42902,7.3558402 35.537419,5.433951 33.158203,5.3007812 l -0.002,0 z m -0.115234,1.9980469 a 1.0001,1.0001 0 0 0 0.0039,0 c 1.219869,0.06777 2.977622,1.4950221 4.287109,3.0664059 0.687396,0.824875 0.766232,1.048474 1.154297,1.642578 -0.615926,0.0061 -0.742434,0.02269 -1.578125,0.0059 -0.916365,-0.01845 -1.882349,-0.06065 -2.701172,-0.136719 -0.818822,-0.07606 -1.527716,-0.218903 -1.726562,-0.300781 a 1.0001,1.0001 0 0 0 -0.04687,-0.01953 c -0.726203,-0.256307 -1.116083,-0.549264 -1.337891,-0.867188 -0.221808,-0.317924 -0.338168,-0.7296605 -0.296875,-1.4316405 0.06733,-1.1446382 1.08378,-2.027126 2.242188,-1.9589844 z"
     id="path34"
     inkscape:connector-curvature="0" /><path
     style="color:#000000;font-style:normal;font-variant:normal;font-weight:normal;font-stretch:normal;font-size:medium;line-height:normal;font-family:sans-serif;text-indent:0;text-align:start;text-decoration:none;text-decoration-line:none;text-decoration-style:solid;text-decoration-color:#000000;letter-spacing:normal;word-spacing:normal;text-transform:none;direction:ltr;block-progression:tb;writing-mode:lr-tb;baseline-shift:baseline;text-anchor:start;white-space:normal;clip-rule:nonzero;display:inline;overflow:visible;visibility:visible;opacity:1;isolation:auto;mix-blend-mode:normal;color-interpolation:sRGB;color-interpolation-filters:linearRGB;solid-color:#000000;solid-opacity:1;fill:#ff4c00;fill-opacity:1;fill-rule:nonzero;stroke:none;stroke-width:2;stroke-linecap:round;stroke-linejoin:round;stroke-miterlimit:10;stroke-dasharray:none;stroke-dashoffset:0;stroke-opacity:1;color-rendering:auto;image-rendering:auto;shape-rendering:auto;text-rendering:auto;enable-background:accumulate"
     d="M 36.984375,17.986328 A 1.0001,1.0001 0 0 0 36,19 l 0,8.400391 a 1.0001,1.0001 0 0 0 1.658203,0.751953 l 2.595703,-2.271485 3.152344,2.324219 A 1.0001,1.0001 0 0 0 45,27.400391 L 45,19 a 1.0001,1.0001 0 1 0 -2,0 l 0,6.421875 -2.207031,-1.626953 a 1.0001,1.0001 0 0 0 -1.251953,0.05273 L 38,25.195312 38,19 a 1.0001,1.0001 0 0 0 -1.015625,-1.013672 z"
     id="polyline36"
     inkscape:connector-curvature="0" /><path
     style="color:#000000;font-style:normal;font-variant:normal;font-weight:normal;font-stretch:normal;font-size:medium;line-height:normal;font-family:sans-serif;text-indent:0;text-align:start;text-decoration:none;text-decoration-line:none;text-decoration-style:solid;text-decoration-color:#000000;letter-spacing:normal;word-spacing:normal;text-transform:none;direction:ltr;block-progression:tb;writing-mode:lr-tb;baseline-shift:baseline;text-anchor:start;white-space:normal;clip-rule:nonzero;display:inline;overflow:visible;visibility:visible;opacity:1;isolation:auto;mix-blend-mode:normal;color-interpolation:sRGB;color-interpolation-filters:linearRGB;solid-color:#000000;solid-opacity:1;fill:#ff4c00;fill-opacity:1;fill-rule:nonzero;stroke:none;stroke-width:2;stroke-linecap:round;stroke-linejoin:round;stroke-miterlimit:10;stroke-dasharray:none;stroke-dashoffset:0;stroke-opacity:1;color-rendering:auto;image-rendering:auto;shape-rendering:auto;text-rendering:auto;enable-background:accumulate"
     d="m 29,22 a 1.0001,1.0001 0 1 0 0,2 l 5,0 a 1.0001,1.0001 0 1 0 0,-2 l -5,0 z"
     id="line38"
     inkscape:connector-curvature="0" /><path
     style="color:#000000;font-style:normal;font-variant:normal;font-weight:normal;font-stretch:normal;font-size:medium;line-height:normal;font-family:sans-serif;text-indent:0;text-align:start;text-decoration:none;text-decoration-line:none;text-decoration-style:solid;text-decoration-color:#000000;letter-spacing:normal;word-spacing:normal;text-transform:none;direction:ltr;block-progression:tb;writing-mode:lr-tb;baseline-shift:baseline;text-anchor:start;white-space:normal;clip-rule:nonzero;display:inline;overflow:visible;visibility:visible;opacity:1;isolation:auto;mix-blend-mode:normal;color-interpolation:sRGB;color-interpolation-filters:linearRGB;solid-color:#000000;solid-opacity:1;fill:#ff4c00;fill-opacity:1;fill-rule:nonzero;stroke:none;stroke-width:2;stroke-linecap:round;stroke-linejoin:round;stroke-miterlimit:10;stroke-dasharray:none;stroke-dashoffset:0;stroke-opacity:1;color-rendering:auto;image-rendering:auto;shape-rendering:auto;text-rendering:auto;enable-background:accumulate"
     d="m 47,22 a 1.0001,1.0001 0 1 0 0,2 l 5,0 a 1.0001,1.0001 0 1 0 0,-2 l -5,0 z"
     id="line40"
     inkscape:connector-curvature="0" /></svg>