<?xml version="1.0" ?><!DOCTYPE svg  PUBLIC '-//W3C//DTD SVG 1.1//EN'  'http://www.w3.org/Graphics/SVG/1.1/DTD/svg11.dtd'><svg enable-background="new 0 0 128 128" height="128px" id="Layer_1" version="1.1" viewBox="0 0 128 128" width="128px" xml:space="preserve" xmlns="http://www.w3.org/2000/svg" xmlns:xlink="http://www.w3.org/1999/xlink"><path d="M49.7,87.8h-2.3c-1.3,0-2.3,1-2.3,2.3v1.5c0,0.9,0.5,1.7,1.3,2l-1,12.6h6.2l-1-12.6c0.8-0.4,1.3-1.1,1.3-2  V90C52,88.8,51,87.8,49.7,87.8L49.7,87.8z" fill="#3B97D3"/><path d="M33.4,91.4c0.1,0.3,0.2,0.6,0.2,0.8c3.2,11.9,5.9,20.4,11.9,20.4h6.2c5.4,0,8.3-7,10.4-13.9  c0.8-2.6,1.5-5.3,2-7.4c5.1,1.3,13.8,3.5,17,4.4c0.9,0.6,2.5,4.5,2.8,13.1c-4.1,1.5-14.8,4.6-35.2,4.6c-20.4,0-31.2-3.1-35.3-4.6  c0.3-8.6,1.9-12.5,2.8-13.1C19.4,94.9,28.3,92.7,33.4,91.4 M61.1,86.5c0,0-4.3,22.1-9.4,22.1h-6.2c-4.6,0-8.2-19.8-9.4-22  c0,0-16.4,4.1-21.1,5.3c-4.7,1.3-5.7,12-5.7,19.5c0,0,10.3,6,39.3,6c29.1,0,39.3-6,39.3-6c0-7.6-1-18.3-5.7-19.5  C77.5,90.7,61.1,86.5,61.1,86.5L61.1,86.5z" fill="#2C3E50"/><path d="M108,11H66c-5.5,0-10,4.5-10,10v17.7c1.5,0.6,2.9,1.3,4,2.2V21c0-3.3,2.7-6,6-6h42c3.3,0,6,2.7,6,6v29  c0,3.3-2.7,6-6,6H91.4H90L89,56.8l-10,7V60v-4h-4h-8.2c0,1.3-0.1,2.7-0.2,4H75v12l16.4-12H108c5.5,0,10-4.5,10-10V21  C118,15.5,113.5,11,108,11z" fill="#3B97D3"/><path d="M47.7,43.3L47.7,43.3c3.3,0,11,0.8,12.7,8.6c1.5,7.2-1.7,18.9-4.7,23.2c-3.6,5.2-5.4,5.7-7.3,5.7  c-2.4,0-4.5-0.9-8-5.2C38,72.4,34,61.4,35.1,53.2C36,46.2,39.7,43.3,47.7,43.3 M47.7,39.3c-5.7,0-15.1,1.3-16.6,13.4  C29.9,62,34.2,74,37.4,78c3.5,4.5,6.7,6.7,11.1,6.7c4,0,6.8-2,10.6-7.4c3.4-5,7.1-17.8,5.3-26.3C62.1,40.9,52.4,39.3,47.7,39.3  L47.7,39.3z" fill="#2C3E50"/><path d="M85.2,48.8v-16h-2.6v-2.8h5.9v18.8H85.2z M87,22.8c0.6,0,1.1,0.2,1.5,0.6c0.4,0.4,0.6,0.9,0.6,1.4  c0,0.6-0.2,1.1-0.6,1.5c-0.4,0.4-0.9,0.6-1.5,0.6c-0.6,0-1-0.2-1.5-0.6c-0.4-0.4-0.6-0.9-0.6-1.5c0-0.6,0.2-1.1,0.6-1.5  C86,23,86.5,22.8,87,22.8z" fill="#3B97D3"/></svg>