<?xml version="1.0" ?><!DOCTYPE svg  PUBLIC '-//W3C//DTD SVG 1.1//EN'  'http://www.w3.org/Graphics/SVG/1.1/DTD/svg11.dtd'><svg enable-background="new 0 0 128 128" height="128px" id="Layer_1" version="1.1" viewBox="0 0 128 128" width="128px" xml:space="preserve" xmlns="http://www.w3.org/2000/svg" xmlns:xlink="http://www.w3.org/1999/xlink"><path d="M110,17c3.3,0,6,2.7,6,6v66c0,3.3-2.7,6-6,6H17c-3.3,0-6-2.7-6-6V23c0-3.3,2.7-6,6-6H110 M110,13H17  c-5.5,0-10,4.5-10,10v66c0,5.5,4.5,10,10,10h93c5.5,0,10-4.5,10-10V23C120,17.5,115.5,13,110,13L110,13z" fill="#2C3E50"/><circle cx="64" cy="87" fill="#2C3E50" r="3"/><path d="M82.5,112H66v-8.5c0-1.1-0.9-2-2-2s-2,0.9-2,2v8.5H45.5c-1.1,0-2,0.9-2,2s0.9,2,2,2h37c1.1,0,2-0.9,2-2  S83.6,112,82.5,112z" fill="#2C3E50"/><path d="M107,26v51H20V26H107 M109,24H18v55h91V24L109,24z" fill="#3B97D3"/><path d="M42,49.8l-2.3,0l2.1,1.4l0.6,0.8l-1.7,1.4l-0.7-0.9L39,50.5l-1.2,2.2l-0.6,0.9l-1.8-1.4l0.7-0.9l2.1-1.1  l-2.4-0.4l-1.2-0.4l1-2l1.3,0.5l1.7,1.3l-0.9-2.8v-1.1h2.4v1l-0.8,2.9l2.1-1.5l1-0.4l0.8,2.2L42,49.8z" fill="#3B97D3"/><path d="M47.1,54.2c0.4,0,0.7,0.1,1,0.4c0.3,0.3,0.4,0.6,0.4,1c0,0.4-0.1,0.7-0.4,1c-0.3,0.3-0.6,0.4-1,0.4  c-0.4,0-0.7-0.1-1-0.4c-0.3-0.3-0.4-0.6-0.4-1c0-0.4,0.1-0.7,0.4-1S46.7,54.2,47.1,54.2z" fill="#3B97D3"/><path d="M59.6,47.7L58.7,49c-0.2-0.2-0.5-0.4-1-0.5s-0.9-0.2-1.3-0.2c-1,0-1.7,0.3-2.3,1c-0.6,0.7-0.8,1.6-0.8,2.8  c0,1.2,0.3,2.1,0.9,2.7c0.6,0.6,1.4,0.9,2.4,0.9c0.8,0,1.6-0.3,2.4-0.9l0.7,1.5c-0.9,0.6-2.1,0.9-3.5,0.9c-1.4,0-2.5-0.5-3.4-1.4  c-0.9-0.9-1.3-2.1-1.3-3.7c0-1.6,0.5-2.9,1.4-3.8s2.2-1.4,3.8-1.4c0.5,0,1.1,0.1,1.7,0.3C58.9,47.3,59.3,47.5,59.6,47.7z" fill="#3B97D3"/><path d="M60.9,51.9c0-1.5,0.4-2.8,1.2-3.7c0.8-0.9,1.9-1.4,3.3-1.4c1.4,0,2.5,0.5,3.3,1.4c0.8,0.9,1.2,2.2,1.2,3.8  c0,1.6-0.4,2.9-1.2,3.8S66.7,57,65.4,57c-1.4,0-2.5-0.5-3.3-1.4C61.2,54.7,60.9,53.4,60.9,51.9z M62.7,51.9c0,2.5,0.9,3.7,2.6,3.7  c0.8,0,1.5-0.3,1.9-1S68,53,68,51.9c0-2.5-0.9-3.7-2.6-3.7c-0.8,0-1.4,0.3-1.9,1C62.9,49.8,62.7,50.7,62.7,51.9z" fill="#3B97D3"/><path d="M78,56.8v-0.7c-0.6,0.6-1.5,0.9-2.7,0.9c-1.2,0-2.3-0.4-3-1.3s-1.2-2.1-1.2-3.6c0-1.5,0.4-2.8,1.3-3.8  c0.9-1.1,2-1.6,3.2-1.6c1,0,1.8,0.2,2.3,0.7v-4.6h1.8v14H78z M78,49.2c-0.4-0.7-1.1-1-1.8-1c-0.9,0-1.7,0.4-2.3,1.1  C73.3,50,73,50.9,73,52c0,2.4,1.1,3.6,3.3,3.6c0.3,0,0.6-0.1,1-0.3c0.4-0.2,0.6-0.4,0.7-0.6V49.2z" fill="#3B97D3"/><path d="M90.7,52.1h-7.2c0,1.2,0.3,2.1,1,2.7c0.6,0.5,1.3,0.8,2.2,0.8c1,0,1.9-0.3,2.5-0.9l0.7,1.3  c-0.3,0.3-0.7,0.5-1.3,0.7C88,56.9,87.2,57,86.3,57c-1.3,0-2.3-0.4-3.2-1.3c-1-0.9-1.5-2.2-1.5-3.8c0-1.6,0.5-3,1.5-4  c0.9-0.9,1.9-1.3,3.2-1.3c1.4,0,2.5,0.4,3.3,1.2c0.8,0.8,1.2,1.8,1.2,3.1C90.9,51.4,90.8,51.7,90.7,52.1z M86.4,48.2  c-0.8,0-1.4,0.3-2,0.8c-0.5,0.5-0.8,1.1-0.9,1.8h5.5c0-0.7-0.2-1.3-0.7-1.8C87.9,48.5,87.3,48.2,86.4,48.2z" fill="#3B97D3"/></svg>