<?xml version="1.0" ?><!DOCTYPE svg  PUBLIC '-//W3C//DTD SVG 1.1//EN'  'http://www.w3.org/Graphics/SVG/1.1/DTD/svg11.dtd'><svg enable-background="new 0 0 128 128" height="128px" id="Layer_1" version="1.1" viewBox="0 0 128 128" width="128px" xml:space="preserve" xmlns="http://www.w3.org/2000/svg" xmlns:xlink="http://www.w3.org/1999/xlink"><path d="M105,26c3.3,0,6,2.7,6,6v60c0,3.3-2.7,6-6,6H94h-4v4v6.9l-13-10L76,98h-1.4H22c-3.3,0-6-2.7-6-6V32  c0-3.3,2.7-6,6-6H105 M105,22H22c-5.5,0-10,4.5-10,10v60c0,5.5,4.5,10,10,10h52.6L94,117v-15h11c5.5,0,10-4.5,10-10V32  C115,26.5,110.5,22,105,22L105,22z" fill="#3B97D3"/><path d="M83.1,54.4c-1.9-0.3-3.9-0.4-5.9-0.4c-4.3,0-8,0.5-8,0.5s3.3-6.5,3.3-12.8c0-6.3-2.2-7.7-4.5-7.7  c0,0,0,0,0,0c-3,0-2.4,6.7-3.9,10c-1.8,3.8-6.1,8.7-6.1,8.7L50.9,62H41v22h9.9c0,0,4.9,2.7,7.1,3c2.5,0.3,6,0.6,10.7,0.6  c1.2,0,2.6,0,4-0.1c8.7-0.2,12.5-1.1,13.3-8c0.6-5.2,0.7-6,0.7-6c0,0,0,0.1,0,0.1c0,0,0.1-0.8,0.7-6C87.7,65.3,89.4,55.5,83.1,54.4z   M85.5,66.8l-0.1,0.6c-0.4,3.4-0.6,5.3-0.7,5.8c-0.1,0.4-0.1,0.8-0.2,1.1c-0.1,0.8-0.3,2.4-0.6,5c-0.6,5.1-2.3,6-11.4,6.3  c-1.4,0-2.7,0.1-3.9,0.1c-4,0-7.6-0.2-10.4-0.5c-1.2-0.2-4.5-1.7-6.4-2.7L51.4,82H43V64h8.9l7.6-9.9c0.6-0.6,4.6-5.1,6.4-8.9  c0.7-1.4,1-3.2,1.3-4.9c0.2-1.2,0.6-3.2,1-3.7c0.9,0,2.3,0.2,2.4,5.4c0,5.7-3,11.6-3.1,11.7L65.6,57l3.9-0.5c0,0,3.7-0.5,7.8-0.5  c2.2,0,4,0.1,5.6,0.4C85.5,56.8,86.3,60.2,85.5,66.8z" fill="#2C3E50"/></svg>