<?xml version="1.0" ?><!DOCTYPE svg  PUBLIC '-//W3C//DTD SVG 1.1//EN'  'http://www.w3.org/Graphics/SVG/1.1/DTD/svg11.dtd'><svg enable-background="new 0 0 128 128" height="128px" id="Layer_1" version="1.1" viewBox="0 0 128 128" width="128px" xml:space="preserve" xmlns="http://www.w3.org/2000/svg" xmlns:xlink="http://www.w3.org/1999/xlink"><polygon fill="#3B97D3" points="104,80 104,86 25,86 25,80 23,80 23,88 106,88 106,80 "/><path d="M86,20c3.3,0,6,2.7,6,6v32c0,3.3-2.7,6-6,6H70c-3.3,0-6-2.7-6-6V26c0-3.3,2.7-6,6-6h19 M86,16H70  c-5.5,0-10,4.5-10,10v32c0,5.5,4.5,10,10,10h16c5.5,0,10-4.5,10-10V26C96,20.5,91.5,16,86,16L86,16z" fill="#2C3E50"/><circle cx="78" cy="59" fill="#2C3E50" r="3"/><path d="M115,94V41c0-5.5-4.5-10-10-10h-7v4h7c3.3,0,6,2.7,6,6v53H80v2c0,2.2-1.4,4-3.6,4H53.2c-2.2,0-4.2-1.8-4.2-4  v-2H18V41c0-3.3,2.7-6,6-6h34v-4H24c-5.5,0-10,4.5-10,10v53H6v7.8c0,5.5,4.1,10.2,9.6,10.2h97.5c5.5,0,9.9-4.8,9.9-10.2V94H115z   M119,101.8c0,3.3-2.6,6.2-5.9,6.2H15.6c-3.3,0-5.6-2.9-5.6-6.2V98h35.5c1,4,4.1,6,7.7,6h23.2c3.6,0,6.7-2,7.7-6H119V101.8z" fill="#2C3E50"/><polygon fill="#3B97D3" points="87,46 87,52 69,52 69,46 67,46 67,54 89,54 89,46 "/></svg>