<?xml version="1.0" ?><!DOCTYPE svg  PUBLIC '-//W3C//DTD SVG 1.1//EN'  'http://www.w3.org/Graphics/SVG/1.1/DTD/svg11.dtd'><svg enable-background="new 0 0 128 128" height="128px" id="Layer_1" version="1.1" viewBox="0 0 128 128" width="128px" xml:space="preserve" xmlns="http://www.w3.org/2000/svg" xmlns:xlink="http://www.w3.org/1999/xlink"><path d="M58.6,26H39.5c-0.6,0-1-0.4-1-1s0.4-1,1-1h19.1c0.6,0,1,0.4,1,1S59.1,26,58.6,26z" fill="#2C3E50"/><circle cx="26" cy="82" fill="#2C3E50" r="3"/><path d="M99,56H33v49h66V56z M35,103V58h62v45H35z" fill="#3B97D3"/><polygon fill="#3B97D3" points="26,32 71,32 71,44 73,44 73,30 24,30 24,44 26,44 "/><path d="M18,45.6V24c0-3.3,2.7-6,6-6h49c3.3,0,6,2.7,6,6v20h4V24c0-5.5-4.5-10-10-10H24c-5.5,0-10,4.5-10,10v25.4  C15,47.8,16.4,46.6,18,45.6z" fill="#2C3E50"/><path d="M115,105V56c0-5.5-4.5-10-10-10H24c-5.5,0-10,4.5-10,10v49c0,5.5,4.5,10,10,10h81  C110.5,115,115,110.5,115,105z M24,111c-3.3,0-6-2.7-6-6V56c0-3.3,2.7-6,6-6h81c3.3,0,6,2.7,6,6v49c0,3.3-2.7,6-6,6H24z" fill="#2C3E50"/><path d="M103,90.6V71.5c0-0.6,0.4-1,1-1s1,0.4,1,1v19.1c0,0.6-0.4,1-1,1S103,91.1,103,90.6z" fill="#2C3E50"/><path d="M84.4,67.9c-0.8-0.8-2-0.8-2.8,0L60.7,88.8L50.3,78.3c-0.8-0.8-2-0.8-2.8,0c-0.8,0.8-0.8,2,0,2.8L59.3,93  c0.4,0.4,0.9,0.6,1.4,0.6s1-0.2,1.4-0.6l22.3-22.3C85.2,69.9,85.2,68.7,84.4,67.9z" fill="#3B97D3"/></svg>