<?xml version="1.0" ?><!DOCTYPE svg  PUBLIC '-//W3C//DTD SVG 1.1//EN'  'http://www.w3.org/Graphics/SVG/1.1/DTD/svg11.dtd'><svg enable-background="new 0 0 128 128" height="128px" id="Layer_1" version="1.1" viewBox="0 0 128 128" width="128px" xml:space="preserve" xmlns="http://www.w3.org/2000/svg" xmlns:xlink="http://www.w3.org/1999/xlink"><path d="M18.2,72.6c0.6,0,1.2,0.1,1.8,0.2V24.9c0-3.3,2.7-5.9,6-5.9h77c3.3,0,6,2.6,6,5.9v8.9  c0.7-0.2,1.4-0.2,2.2-0.2c0.6,0,1.2,0.1,1.8,0.2v-8.8c0-5.5-5.5-9.9-11-9.9H26c-5.5,0-10,4.4-10,9.9v47.9  C16.7,72.7,17.4,72.6,18.2,72.6z" fill="#2C3E50"/><path d="M111.2,54.4c-0.8,0-1.5-0.1-2.2-0.2v45.8c0,3.3-2.7,6.1-6,6.1H26c-3.3,0-6-2.8-6-6.1v-6.7  c-0.6,0.1-1.2,0.2-1.8,0.2c-0.8,0-1.5-0.1-2.2-0.2v6.8c0,5.5,4.5,10.1,10,10.1h77c5.5,0,10-4.6,10-10.1V54.2  C112.4,54.3,111.8,54.4,111.2,54.4z" fill="#2C3E50"/><path d="M95,58h1v11H85v-4.4l-2,1.3V69h-1.5c0,0.3,0.1,0.7,0.1,1s0,0.7-0.1,1H83v11H72v-1.6c-0.3,0-0.5,0-0.8,0  c-0.4,0-0.8,0-1.2-0.1V82H59V71h1.8c0-0.3-0.1-0.7-0.1-1c0-0.3,0-0.6,0-1c0,0,0,0,0,0H59v-1.7l-2-1V69H46v-1.6c-0.3,0-0.5,0-0.8,0  c-0.4,0-0.8,0-1.2-0.1V69h-6.9L35,71h9v11H33v-9.1l-2,1.9V82h-2.5c0,0.3,0.1,0.7,0.1,1s0,0.7-0.1,1H31v11h-9v2h9v7h2v-7h11v7h2v-7  h11v7h2v-7h11v7h2v-7h11v7h2v-7h11v7h2v-7h9v-2h-9V84h9v-2h-9V71h9v-2h-9V58h9v-2h-8.9L95,58z M44,95H33V84h11V95z M57,95H46V84h11  V95z M57,82H46V71h11V82z M70,95H59V84h11V95z M83,95H72V84h11V95z M96,95H85V84h11V95z M96,82H85V71h11V82z" fill="#2C3E50"/><path d="M31,66.5l2-1.9V58h1.8c0-0.3-0.1-0.7-0.1-1s0-0.7,0.1-1H33V45h11v1.7c0.4,0,0.8-0.1,1.2-0.1  c0.3,0,0.5,0,0.8,0V45h11v11h-1.5c0,0.3,0.1,0.7,0.1,1c0,0.3,0,0.6,0,1c0,0,0,0,0,0H57v1.6l2,1V58h11v1.7c0.4,0,1-0.1,1.4-0.1  c0.1,0-0.4,0,0.6,0V58h11v0.7l4.1-2.7H85V45h11v5.2l2-1.3V45h2.8c0-0.3-0.1-0.7-0.1-1s0-0.7,0.1-1H98V32h9v-2h-9v-9h-2v9H85.5H85v-9  h-2v9H72v-9h-2v9H59v-9h-2v9v0H46v-9h-2v9H33v-9h-2v9h-9v2h9v11h-9v2h9v11h-9v2h9V66.5z M85,32h11v11H85V32z M72,32h11v11H72V32z   M72,45h11v11H72V45z M59,32h11v11H59V32z M59,45h11v11H59V45z M46,32h11v11H46V32z M33,32h11v11H33V32z" fill="#2C3E50"/><polygon fill="#2C3E50" points="28.4,69 22,69 22,71 26.3,71 "/><path d="M111.2,35.6c-4.6,0-8.4,3.8-8.4,8.4c0,1.3,0.3,2.5,0.8,3.6l-26,17c-1.5-1.8-3.9-3-6.4-3  c-2.9,0-5.5,1.5-7,3.8l-11.1-5.5c0.3-0.9,0.5-1.8,0.5-2.8c0-4.6-3.8-8.4-8.4-8.4s-8.4,3.8-8.4,8.4c0,1.9,0.6,3.7,1.7,5.1l-15,14.4  c-1.4-1.2-3.3-1.9-5.3-1.9c-4.6,0-8.4,3.8-8.4,8.4c0,4.6,3.8,8.4,8.4,8.4s8.4-3.8,8.4-8.4c0-1.9-0.6-3.7-1.7-5.1l15-14.4  c1.4,1.2,3.3,1.9,5.3,1.9c2.9,0,5.5-1.5,7-3.8l11.1,5.5C63,68.1,62.8,69,62.8,70c0,4.6,3.8,8.4,8.4,8.4s8.4-3.8,8.4-8.4  c0-1.3-0.3-2.6-0.9-3.7l26-17c1.5,1.9,3.9,3.1,6.5,3.1c4.6,0,8.4-3.8,8.4-8.4C119.6,39.4,115.8,35.6,111.2,35.6z M18.2,87.4  c-2.4,0-4.4-2-4.4-4.4s2-4.4,4.4-4.4s4.4,2,4.4,4.4S20.6,87.4,18.2,87.4z M45.2,61.4c-2.4,0-4.4-2-4.4-4.4s2-4.4,4.4-4.4  s4.4,2,4.4,4.4S47.6,61.4,45.2,61.4z M71.2,74.4c-2.4,0-4.4-2-4.4-4.4s2-4.4,4.4-4.4s4.4,2,4.4,4.4S73.6,74.4,71.2,74.4z   M111.2,48.4c-2.4,0-4.4-2-4.4-4.4s2-4.4,4.4-4.4s4.4,2,4.4,4.4S113.6,48.4,111.2,48.4z" fill="#3B97D3"/></svg>