<?xml version="1.0" ?><!DOCTYPE svg  PUBLIC '-//W3C//DTD SVG 1.1//EN'  'http://www.w3.org/Graphics/SVG/1.1/DTD/svg11.dtd'><svg enable-background="new 0 0 128 128" id="Layer_1" version="1.1" viewBox="0 0 128 128" xml:space="preserve" xmlns="http://www.w3.org/2000/svg" xmlns:xlink="http://www.w3.org/1999/xlink"><path d="M36,91c0-2.8-2.2-5-5-5H10c-2.8,0-5,2.2-5,5v21c0,2.8,2.2,5,5,5h21c2.8,0,5-2.2,5-5V91z M34,112  c0,1.7-1.3,3-3,3H10c-1.7,0-3-1.3-3-3V91c0-1.7,1.3-3,3-3h21c1.7,0,3,1.3,3,3V112z" fill="#2C3E50"/><path d="M119,100.7v11.7c0,1.7-0.9,2.6-2.6,2.6H95.1c-1.7,0-3.1-1-3.1-2.6V91c0-1.7,1.4-3,3.1-3h21.3  c1.2,0,2.2,0.7,2.7,1.7c0.5-0.4,1.1-0.8,1.8-0.9c-0.8-1.7-2.5-2.8-4.5-2.8H95.1c-2.8,0-5.1,2.3-5.1,5v21.3c0,2.8,2.3,4.6,5.1,4.6  h21.3c2.8,0,4.6-1.9,4.6-4.6V98.7L119,100.7z" fill="#2C3E50"/><path d="M123.1,91.3c-0.8-0.8-2-0.8-2.8,0l-13.7,13.7l-6.6-6.6c-0.8-0.8-2-0.8-2.8,0c-0.8,0.8-0.8,2,0,2.8l8,8  c0.4,0.4,0.9,0.6,1.4,0.6s1-0.2,1.4-0.6l15.2-15.2C123.9,93.4,123.9,92.1,123.1,91.3z" fill="#3B97D3"/><path d="M95.6,17.3c-1.6-0.5-3.2-0.8-4.7-0.9l3.8-2.7c0.4-0.3,0.5-0.9,0.2-1.4c-0.3-0.4-0.9-0.5-1.4-0.2l-6.8,4.9  c0,0,0,0,0,0c-0.1,0.1-0.2,0.2-0.3,0.3c0,0.1-0.1,0.1-0.1,0.2c-0.1,0.4,0,0.9,0.4,1.2l6.8,4c0.5,0.3,1.1,0.1,1.4-0.4  c0.3-0.5,0.1-1.1-0.4-1.4l-4.2-2.5c1.5,0,3.1,0.3,4.7,0.8c8.4,2.7,13,11.8,10.2,20.2c-2.7,8.4-11.8,13-20.2,10.2  c-2.5-0.8-5-2.3-6.8-4.1C71.5,35.4,60,28.7,47,28.7c-10.7,0-20.4,4.5-27.2,11.7l1-8.8c0.1-0.5-0.3-1-0.9-1.1c-0.5-0.1-1,0.3-1.1,0.9  l-1.3,12c0,0,0,0.1,0,0.1c0,0,0,0.1,0,0.1c0.1,0.5,0.5,0.9,1,0.9c0,0,0.1,0,0.1,0L31.1,43c0.5-0.1,0.9-0.6,0.9-1.1  c-0.1-0.5-0.6-0.9-1.1-0.9L21,42.2c6.5-7.1,15.7-11.5,26-11.5c19.5,0,35.3,15.7,35.3,35.2C82.3,85.3,66.5,101,47,101h-9v2h9h38.2  l-4.1,4.3c-0.4,0.4-0.4,1.1,0,1.5c0.2,0.2,0.5,0.3,0.7,0.3s0.5-0.1,0.7-0.3l5.8-5.8c0.1-0.1,0.1-0.1,0.1-0.1  c0.3-0.4,0.2-0.9-0.1-1.3l-5.6-5.6c-0.4-0.4-1-0.4-1.4,0s-0.4,0.8,0,1.2l3.9,3.7H59.1c14.7-5,25.3-18.8,25.3-35.2  c0-5.9-1.4-11.3-3.8-16.3c1.2,0.7,2.4,1.4,3.8,1.8c9.4,3.1,19.6-2,22.7-11.5C110.2,30.5,105.1,20.4,95.6,17.3z" fill="#3B97D3"/></svg>