<?xml version="1.0" ?><!DOCTYPE svg  PUBLIC '-//W3C//DTD SVG 1.1//EN'  'http://www.w3.org/Graphics/SVG/1.1/DTD/svg11.dtd'><svg enable-background="new 0 0 128 128" id="Layer_1" version="1.1" viewBox="0 0 128 128" xml:space="preserve" xmlns="http://www.w3.org/2000/svg" xmlns:xlink="http://www.w3.org/1999/xlink"><path d="M35.4,41.2H12.7c-3.9,0-7-3.1-7-7s3.1-7,7-7h22.8c3.9,0,7,3.1,7,7S39.3,41.2,35.4,41.2z M12.7,31.2  c-1.7,0-3,1.3-3,3s1.3,3,3,3h22.8c1.7,0,3-1.3,3-3s-1.3-3-3-3H12.7z" fill="#3B97D3"/><path d="M79.4,56H51.6c-3.9,0-7-3.1-7-7s3.1-7,7-7h27.8c3.9,0,7,3.1,7,7S83.2,56,79.4,56z M51.6,46c-1.7,0-3,1.3-3,3  s1.3,3,3,3h27.8c1.7,0,3-1.3,3-3s-1.3-3-3-3H51.6z" fill="#3B97D3"/><path d="M114.7,71H91.9c-3.9,0-7-3.1-7-7s3.1-7,7-7h22.8c3.9,0,7,3.1,7,7S118.5,71,114.7,71z M91.9,61  c-1.7,0-3,1.3-3,3s1.3,3,3,3h22.8c1.7,0,3-1.3,3-3s-1.3-3-3-3H91.9z" fill="#3B97D3"/><path d="M52.4,89.2H25.7c-3.9,0-7-3.1-7-7s3.1-7,7-7h26.8c3.9,0,7,3.1,7,7S56.3,89.2,52.4,89.2z M25.7,79.2  c-1.7,0-3,1.3-3,3s1.3,3,3,3h26.8c1.7,0,3-1.3,3-3s-1.3-3-3-3H25.7z" fill="#3B97D3"/><path d="M100.4,104H72.6c-3.9,0-7-3.1-7-7s3.1-7,7-7h27.8c3.9,0,7,3.1,7,7S104.2,104,100.4,104z M72.6,94  c-1.7,0-3,1.3-3,3s1.3,3,3,3h27.8c1.7,0,3-1.3,3-3s-1.3-3-3-3H72.6z" fill="#3B97D3"/><path d="M115,73v35.9c0,3.3-2.7,6.1-6,6.1H18c-3.3,0-6-2.8-6-6.1V43.2c-1.5-0.1-2.8-0.6-4-1.3v67  c0,5.5,4.5,10.1,10,10.1h91c5.5,0,10-4.6,10-10.1v-37C117.8,72.5,116.4,72.9,115,73z" fill="#2C3E50"/><path d="M12,25.3v-5.3c0-3.3,2.7-5.9,6-5.9h91c3.3,0,6,2.6,6,5.9V55c1.4,0.1,2.8,0.4,4,1.1V19.9  c0-5.5-5.5-9.9-11-9.9H18c-5.5,0-10,4.4-10,9.9v6.6C9.2,25.8,10.5,25.4,12,25.3z" fill="#2C3E50"/><path d="M38.4,44.7c-0.4-0.4-1-0.4-1.4,0s-0.4,1.1,0,1.5l2.7,2.8h-9.4c-3.2,0-6-2.6-6.2-5.8h-2  c0.2,4.2,4,7.8,8.2,7.8h9.4l-2.6,2.5c-0.4,0.4-0.4,1,0,1.3c0.2,0.2,0.5,0.3,0.7,0.3s0.5-0.1,0.7-0.3l4.3-4.3  c0.1-0.1,0.1-0.1,0.1-0.1c0.3-0.4,0.3-0.9-0.1-1.3L38.4,44.7z" fill="#2C3E50"/><path d="M78.9,59.6c-0.4-0.4-1-0.4-1.4,0s-0.4,1.2,0,1.5l2.7,2.9h-9.4c-3.2,0-6-3-6.2-6h-2c0.2,4,4,8,8.2,8h9.4  l-2.6,2.4c-0.4,0.4-0.4,0.9,0,1.3c0.2,0.2,0.5,0.3,0.7,0.3s0.5-0.1,0.7-0.3l4.3-4.3c0.1-0.1,0.1-0.1,0.1-0.1  c0.3-0.4,0.3-0.9-0.1-1.3L78.9,59.6z" fill="#2C3E50"/><path d="M59.4,92.6c-0.4-0.4-1-0.4-1.4,0s-0.4,1.2,0,1.5l2.7,2.9h-9.4c-3.2,0-6-3-6.2-6h-2c0.2,4,4,8,8.2,8h9.4  l-2.6,2.4c-0.4,0.4-0.4,0.9,0,1.3c0.2,0.2,0.5,0.3,0.7,0.3s0.5-0.1,0.7-0.3l4.3-4.3c0.1-0.1,0.1-0.1,0.1-0.1  c0.3-0.4,0.3-0.9-0.1-1.3L59.4,92.6z" fill="#2C3E50"/></svg>