<?xml version="1.0" ?><!DOCTYPE svg  PUBLIC '-//W3C//DTD SVG 1.1//EN'  'http://www.w3.org/Graphics/SVG/1.1/DTD/svg11.dtd'><svg enable-background="new 0 0 128 128" id="Layer_1" version="1.1" viewBox="0 0 128 128" xml:space="preserve" xmlns="http://www.w3.org/2000/svg" xmlns:xlink="http://www.w3.org/1999/xlink"><circle cx="20.7" cy="109" fill="#3B97D3" r="3.3"/><path d="M42,121V22h74.1l-6.6,6.8c-0.4,0.4-0.6,1-0.6,1.5s0.2,1.1,0.6,1.5c0.8,0.8,2,0.8,2.8,0L122,22  c0.4-0.4,0.6-1,0.6-1.5c0-0.6-0.2-1.1-0.6-1.5l-9.8-9.7c-0.8-0.8-2-0.8-2.8,0c-0.4,0.4-0.6,0.9-0.6,1.4s0.2,0.8,0.6,1.2l6.3,6.1H5v4  h33v99H42z" fill="#2C3E50"/><path d="M74,62h20v5H74V62 M72,60v9h24v-9H72L72,60z" fill="#3B97D3"/><path d="M49,40h42v5H49V40 M47,38v9h46v-9H47L47,38z" fill="#3B97D3"/><path d="M99,105h16v5H99V105 M97,103v9h20v-9H97L97,103z" fill="#3B97D3"/><path d="M75,84h31v5H75V84 M73,82v9h35v-9H73L73,82z" fill="#3B97D3"/><path d="M30.1,36.3c-0.8-0.8-2-0.8-2.8,0l-7.7,7.7L15,39.5c-0.8-0.8-2-0.8-2.8,0c-0.8,0.8-0.8,2,0,2.8l6,6  c0.4,0.4,0.9,0.6,1.4,0.6s1-0.2,1.4-0.6l9.2-9.2C30.9,38.4,30.9,37.1,30.1,36.3z" fill="#3B97D3"/><path d="M30.1,80.3c-0.8-0.8-2-0.8-2.8,0l-7.7,7.7L15,83.5c-0.8-0.8-2-0.8-2.8,0c-0.8,0.8-0.8,2,0,2.8l6,6  c0.4,0.4,0.9,0.6,1.4,0.6s1-0.2,1.4-0.6l9.2-9.2C30.9,82.4,30.9,81.1,30.1,80.3z" fill="#3B97D3"/><path d="M30.1,58.3c-0.8-0.8-2-0.8-2.8,0l-7.7,7.7L15,61.5c-0.8-0.8-2-0.8-2.8,0c-0.8,0.8-0.8,2,0,2.8l6,6  c0.4,0.4,0.9,0.6,1.4,0.6s1-0.2,1.4-0.6l9.2-9.2C30.9,60.4,30.9,59.1,30.1,58.3z" fill="#3B97D3"/><path d="M69.8,63.9l-4.4-4.4c-0.4-0.4-1-0.4-1.4,0s-0.4,1.2,0,1.6l2.7,2.9h-3.4c-3.2,0-6-2.9-6.2-6h0v-9h-2v9  c0.2,4.2,4,8,8.2,8h3.4l-2.6,2.4c-0.4,0.4-0.4,0.9,0,1.3c0.2,0.2,0.5,0.3,0.7,0.3s0.5-0.1,0.7-0.3l4.3-4.3c0.1-0.1,0.1-0.1,0.1-0.1  C70.1,64.8,70.1,64.3,69.8,63.9z" fill="#2C3E50"/><path d="M94.8,107.9l-4.4-4.4c-0.4-0.4-1-0.4-1.4,0s-0.4,1.2,0,1.6l2.7,2.9h-3.4c-3.2,0-6-2.9-6.2-6h0v-9h-2v9  c0.2,4.2,4,8,8.2,8h3.4l-2.6,2.4c-0.4,0.4-0.4,0.9,0,1.3c0.2,0.2,0.5,0.3,0.7,0.3s0.5-0.1,0.7-0.3l4.3-4.3c0.1-0.1,0.1-0.1,0.1-0.1  C95.1,108.8,95.1,108.3,94.8,107.9z" fill="#2C3E50"/><path d="M90.8,73.9l-2.9,2.7v-5.4c0-0.1,0-0.1,0-0.2h-2c0,0.1,0,0.1,0,0.2v5.4L83.5,74c-0.4-0.4-0.9-0.4-1.3,0  c-0.2,0.2-0.3,0.5-0.3,0.7s0.1,0.5,0.3,0.7l4.3,4.3c0.1,0.1,0.1,0.1,0.1,0.1c0.4,0.3,0.9,0.3,1.3-0.1l4.4-4.4c0.4-0.4,0.4-1,0-1.4  S91.2,73.5,90.8,73.9z" fill="#2C3E50"/></svg>