<?xml version="1.0" ?><!DOCTYPE svg  PUBLIC '-//W3C//DTD SVG 1.1//EN'  'http://www.w3.org/Graphics/SVG/1.1/DTD/svg11.dtd'><svg enable-background="new 0 0 128 128" id="Layer_1" version="1.1" viewBox="0 0 128 128" xml:space="preserve" xmlns="http://www.w3.org/2000/svg" xmlns:xlink="http://www.w3.org/1999/xlink"><path d="M72.1,59c1,0,1.9,0.8,1.9,1.8v8.3c0,1-0.8,1.8-1.8,1.8H52.8c-1,0-1.8-0.8-1.8-1.8v-8.3c0-1,0.8-1.8,1.8-1.8  H72.1 M72.2,55H52.8c-3.2,0-5.8,2.6-5.8,5.8v8.3c0,3.2,2.6,5.8,5.8,5.8h19.3c3.2,0,5.8-2.6,5.8-5.8v-8.3C78,57.6,75.4,55,72.2,55  L72.2,55z" fill="#2C3E50"/><path d="M69.1,104c1,0,1.9,0.8,1.9,1.8v8.3c0,1-0.8,1.8-1.8,1.8H55.8c-1,0-1.8-0.8-1.8-1.8v-8.3c0-1,0.8-1.8,1.8-1.8  H69.1 M69.2,100H55.8c-3.2,0-5.8,2.6-5.8,5.8v8.3c0,3.2,2.6,5.8,5.8,5.8h13.3c3.2,0,5.8-2.6,5.8-5.8v-8.3  C75,102.6,72.4,100,69.2,100L69.2,100z" fill="#2C3E50"/><path d="M101.1,104c1,0,1.9,0.8,1.9,1.8v8.3c0,1-0.8,1.8-1.8,1.8H87.8c-1,0-1.8-0.8-1.8-1.8v-8.3  c0-1,0.8-1.8,1.8-1.8H101.1 M101.2,100H87.8c-3.2,0-5.8,2.6-5.8,5.8v8.3c0,3.2,2.6,5.8,5.8,5.8h13.3c3.2,0,5.8-2.6,5.8-5.8v-8.3  C107,102.6,104.4,100,101.2,100L101.2,100z" fill="#2C3E50"/><path d="M38.1,104c1,0,1.9,0.8,1.9,1.8v8.3c0,1-0.8,1.8-1.8,1.8H24.8c-1,0-1.8-0.8-1.8-1.8v-8.3c0-1,0.8-1.8,1.8-1.8  H38.1 M38.2,100H24.8c-3.2,0-5.8,2.6-5.8,5.8v8.3c0,3.2,2.6,5.8,5.8,5.8h13.3c3.2,0,5.8-2.6,5.8-5.8v-8.3  C44,102.6,41.4,100,38.2,100L38.2,100z" fill="#2C3E50"/><path d="M44,49V33h37v16H44z M77,45v-8H48v8H77z" fill="#2C3E50"/><path d="M98,42H83v2h15c3.3,0,6,2.2,6,5.5v8c0,3.3-2.7,6.5-6,6.5H87.6l4.7-5c0.4-0.4,0.4-1.1,0-1.5s-1-0.5-1.4-0.1  l-6.4,6.4c-0.3,0.3-0.4,0.9-0.1,1.3c0,0,0,0.1,0.1,0.1l6.3,6.3c0.2,0.2,0.5,0.3,0.7,0.3s0.5-0.1,0.7-0.3c0.4-0.4,0.4-0.8,0-1.2  L87.6,66H98c4.4,0,8-4.1,8-8.5v-8C106,45.1,102.4,42,98,42z" fill="#3B97D3"/><path d="M81,25V9H44v16H81z M48,21v-8h29v8H48z" fill="#2C3E50"/><path d="M27,18h15v2H27c-3.3,0-6,2.4-6,5.7v8c0,3.3,2.7,6.3,6,6.3h10.4l-4.7-4.9c-0.4-0.4-0.4-1.1,0-1.5s1-0.4,1.4,0  l6.4,6.4c0.3,0.3,0.4,0.9,0.1,1.3c0,0,0,0.1-0.1,0.1l-6.3,6.3c-0.2,0.2-0.5,0.3-0.7,0.3s-0.5-0.1-0.7-0.3c-0.4-0.4-0.4-0.9,0-1.3  l4.6-4.4H27c-4.4,0-8-3.9-8-8.3v-8C19,21.3,22.6,18,27,18z" fill="#3B97D3"/><path d="M32,98v-9h29v9h2v-9h30v9h2v-9.7c0-0.6,0.1-1.3-0.5-1.3H63V77h-2v10H31.5c-0.6,0-1.5,0.8-1.5,1.3V98H32z" fill="#3B97D3"/></svg>