<?xml version="1.0" ?><svg id="Layer_1" style="enable-background:new 0 0 128 128;" version="1.1" viewBox="0 0 128 128" xml:space="preserve" xmlns="http://www.w3.org/2000/svg" xmlns:xlink="http://www.w3.org/1999/xlink"><style type="text/css">
	.st0{fill:none;stroke:#B5B1BA;stroke-width:4;stroke-linecap:round;stroke-linejoin:round;stroke-miterlimit:10;}
	.st1{fill-rule:evenodd;clip-rule:evenodd;fill:#736D7C;}
	.st2{fill:none;stroke:#EF5B77;stroke-width:4;stroke-linecap:round;stroke-linejoin:round;stroke-miterlimit:10;}
	.st3{fill:none;stroke:#E7E5EA;stroke-width:4;stroke-linecap:round;stroke-linejoin:round;stroke-miterlimit:10;}
	.st4{fill:none;stroke:#F4B463;stroke-width:4;stroke-linecap:round;stroke-linejoin:round;stroke-miterlimit:10;}
	.st5{fill:#F4B463;}
	.st6{fill:none;stroke:#736D7C;stroke-width:4;stroke-linecap:round;stroke-linejoin:round;}
	.st7{fill:none;stroke:#736D7C;stroke-width:4;stroke-linecap:round;stroke-linejoin:round;stroke-dasharray:0.0863,6.9068;}
	.st8{fill:none;stroke:#736D7C;stroke-width:4;stroke-linecap:round;stroke-linejoin:round;stroke-dasharray:0.106,8.4793;}
	.st9{fill:none;stroke:#736D7C;stroke-width:4;stroke-linecap:round;stroke-linejoin:round;stroke-dasharray:0.108,8.644;}
	.st10{fill:none;stroke:#15BA77;stroke-width:4;stroke-linecap:round;stroke-linejoin:round;stroke-miterlimit:10;}
	.st11{fill:none;stroke:#15BA77;stroke-width:4;stroke-linecap:round;stroke-linejoin:round;}
	.st12{fill:none;stroke:#15BA77;stroke-width:4;stroke-linecap:round;stroke-linejoin:round;stroke-dasharray:0.1149,6.8926;}
	.st13{fill:none;stroke:#EF5B77;stroke-width:4;stroke-linecap:round;stroke-linejoin:round;}
	.st14{fill:none;stroke:#EF5B77;stroke-width:4;stroke-linecap:round;stroke-linejoin:round;stroke-dasharray:0.0988,7.9008;}
	.st15{fill:none;stroke:#EF5B77;stroke-width:4;stroke-linecap:round;stroke-linejoin:round;stroke-dasharray:0.1062,8.495;}
	.st16{fill:none;stroke:#736D7C;stroke-width:4;stroke-linecap:round;stroke-linejoin:round;stroke-dasharray:0.1158,9.2671;}
	.st17{fill:none;stroke:#3E8DFF;stroke-width:4;stroke-linecap:round;stroke-linejoin:round;stroke-miterlimit:10;}
	
		.st18{fill-rule:evenodd;clip-rule:evenodd;fill:none;stroke:#3E8DFF;stroke-width:4;stroke-linecap:round;stroke-linejoin:round;stroke-miterlimit:10;}
	
		.st19{fill-rule:evenodd;clip-rule:evenodd;fill:none;stroke:#F4B463;stroke-width:4;stroke-linecap:round;stroke-linejoin:round;stroke-miterlimit:10;}
	
		.st20{fill-rule:evenodd;clip-rule:evenodd;fill:none;stroke:#E7E5EA;stroke-width:4;stroke-linecap:round;stroke-linejoin:round;stroke-miterlimit:10;}
	
		.st21{fill-rule:evenodd;clip-rule:evenodd;fill:none;stroke:#B5B1BA;stroke-width:4;stroke-linecap:round;stroke-linejoin:round;stroke-miterlimit:10;}
	.st22{fill:none;stroke:#736D7C;stroke-width:4;stroke-linecap:round;stroke-linejoin:round;stroke-dasharray:0.105,8.3975;}
	
		.st23{fill-rule:evenodd;clip-rule:evenodd;fill:none;stroke:#15BA77;stroke-width:4;stroke-linecap:round;stroke-linejoin:round;stroke-miterlimit:10;}
	.st24{fill:none;stroke:#736D7C;stroke-width:4;stroke-linecap:round;stroke-linejoin:round;stroke-dasharray:0.0988,7.9006;}
	
		.st25{fill-rule:evenodd;clip-rule:evenodd;fill:none;stroke:#EF5B77;stroke-width:4;stroke-linecap:round;stroke-linejoin:round;stroke-miterlimit:10;}
	.st26{fill:none;stroke:#736D7C;stroke-width:4;stroke-linecap:round;stroke-linejoin:round;stroke-dasharray:0.109,10.8955;}
	.st27{fill:none;stroke:#736D7C;stroke-width:4;stroke-linecap:round;stroke-linejoin:round;stroke-dasharray:0.1089,10.8929;}
	.st28{fill:none;stroke:#15BA77;stroke-width:4;stroke-linecap:round;stroke-linejoin:round;stroke-dasharray:0.1021,8.1674;}
	.st29{fill:#15BA77;}
	.st30{fill:none;stroke:#736D7C;stroke-width:4;stroke-linecap:round;stroke-linejoin:round;stroke-dasharray:0.0905,7.2397;}
	.st31{fill:none;stroke:#736D7C;stroke-width:4;stroke-linecap:round;stroke-linejoin:round;stroke-dasharray:0.0988,7.9009;}
	.st32{fill:none;stroke:#736D7C;stroke-width:4;stroke-linecap:round;stroke-linejoin:round;stroke-dasharray:0.0872,6.9754;}
	.st33{fill:none;stroke:#736D7C;stroke-width:4;stroke-linecap:round;stroke-linejoin:round;stroke-dasharray:0.0988,7.901;}
	.st34{fill:none;stroke:#736D7C;stroke-width:4;stroke-linecap:round;stroke-linejoin:round;stroke-dasharray:0.1112,8.8944;}
	.st35{fill:#736D7C;}
	.st36{fill:none;stroke:#736D7C;stroke-width:4;stroke-linecap:round;stroke-linejoin:round;stroke-dasharray:0.1174,9.3913;}
	.st37{fill:#EF5B77;}
	.st38{fill:none;stroke:#736D7C;stroke-width:4;stroke-linecap:round;stroke-linejoin:round;stroke-dasharray:0.107,8.562;}
	.st39{fill:none;stroke:#B5B1BA;stroke-width:4;stroke-linecap:round;stroke-linejoin:round;}
	.st40{fill:none;stroke:#736D7C;stroke-width:4;stroke-linecap:round;stroke-linejoin:round;stroke-dasharray:0.0874,6.9897;}
</style><path class="st0" d="M74,35H33l-6,6l-6-6h-6c-2.209,0-4-1.791-4-4V13c0-2.209,1.791-4,4-4h59c2.209,0,4,1.791,4,4v18  C78,33.209,76.209,35,74,35z"/><path class="st0" d="M74,116H33l-6,6l-6-6h-6c-2.209,0-4-1.791-4-4V95c0-2.209,1.791-4,4-4h59c2.209,0,4,1.791,4,4v17  C78,114.209,76.209,116,74,116z"/><path class="st0" d="M45,84h52l6,6l6-6h6c2.209,0,4-1.791,4-4V46c0-2.209-1.791-4-4-4H45c-2.209,0-4,1.791-4,4v34  C41,82.209,42.791,84,45,84z"/><polygon class="st4" points="64,50.375 49.783,75 78.217,75 "/><line class="st4" x1="64" x2="64" y1="61" y2="65"/><circle class="st5" cx="64" cy="70" r="2"/><g><g><line class="st6" x1="39" x2="38.95" y1="100" y2="100"/><line class="st7" x1="32.043" x2="28.503" y1="100" y2="100"/><line class="st6" x1="25.05" x2="25" y1="100" y2="100"/></g></g><line class="st3" x1="49" x2="56" y1="100" y2="100"/><line class="st3" x1="24" x2="36" y1="107" y2="107"/><line class="st3" x1="44" x2="65" y1="107" y2="107"/><line class="st3" x1="87" x2="106" y1="53" y2="53"/><line class="st3" x1="99" x2="106" y1="60" y2="60"/><line class="st3" x1="87" x2="91" y1="60" y2="60"/><line class="st3" x1="87" x2="98" y1="67" y2="67"/><line class="st3" x1="87" x2="104" y1="74" y2="74"/><line class="st3" x1="25" x2="36" y1="18" y2="18"/><line class="st3" x1="44" x2="62" y1="18" y2="18"/><line class="st3" x1="25" x2="47" y1="25" y2="25"/></svg>