<?xml version="1.0" ?><!DOCTYPE svg  PUBLIC '-//W3C//DTD SVG 1.1//EN'  'http://www.w3.org/Graphics/SVG/1.1/DTD/svg11.dtd'><svg enable-background="new 0 0 128 128" id="Layer_1" version="1.1" viewBox="0 0 128 128" xml:space="preserve" xmlns="http://www.w3.org/2000/svg" xmlns:xlink="http://www.w3.org/1999/xlink"><path d="M37,25V4h37v21H37z M70,21V8H41v13H70z" fill="#3B97D3"/><path d="M30,34h51v5H30V34 M28,32v9h55v-9H28L28,32z" fill="#3B97D3"/><path d="M40,117h31v5H40V117 M38,115v9h35v-9H38L38,115z" fill="#3B97D3"/><path d="M13,97h64v5H13V97 M11,95v9h68v-9H11L11,95z" fill="#3B97D3"/><path d="M39,67l16-16l16,16L55,83L39,67z M55,77.4L65.4,67L55,56.6L44.6,67L55,77.4z" fill="#3B97D3"/><path d="M73.6,68.4c0.8,1.2,2.3,1.4,3.5,0.6c7.6-4.9,17.7-2.8,22.6,4.8c0.9,1.3,1.5,2.7,1.9,4.2L98.1,74  c-0.7-0.8-2-0.9-2.8-0.2c-0.7,0.7-0.9,1.8-0.3,2.6c0.1,0.1,0.1,0.2,0.2,0.2l8,9c0,0.1,0.1,0.1,0.2,0.1c0,0,0,0,0,0  c0.2,0.3,0.4,0.5,0.8,0.7c1,0.5,2.2,0.1,2.7-0.9l5.5-10.7c0.5-1,0.1-2.2-0.9-2.7c-1-0.5-2.2-0.1-2.7,0.9l-2.1,4.1  c-0.6-2.2-1.4-4.1-2.6-6c-6.4-9.9-19.6-12.5-29.5-6.1l-0.1,0C73.3,65.8,72.9,67.2,73.6,68.4z" fill="#2C3E50"/><path d="M106.3,113.6c-6.6,0-12-5.4-12-12c0-6.6,5.4-12,12-12s12,5.4,12,12C118.3,108.2,112.9,113.6,106.3,113.6z   M106.3,93.6c-4.4,0-8,3.6-8,8s3.6,8,8,8s8-3.6,8-8S110.7,93.6,106.3,93.6z" fill="#3B97D3"/><rect fill="#2C3E50" height="9" width="4" x="53" y="105"/><rect fill="#2C3E50" height="5" width="4" x="53" y="26"/><polygon fill="#2C3E50" points="53,51.5 55,49.5 57,51.5 57,42 53,42 "/><polygon fill="#2C3E50" points="55,84.5 53,82.5 53,94 57,94 57,82.5 "/></svg>