<?xml version="1.0" ?><!DOCTYPE svg  PUBLIC '-//W3C//DTD SVG 1.1//EN'  'http://www.w3.org/Graphics/SVG/1.1/DTD/svg11.dtd'><svg enable-background="new 0 0 128 128" height="128px" id="Layer_1" version="1.1" viewBox="0 0 128 128" width="128px" xml:space="preserve" xmlns="http://www.w3.org/2000/svg" xmlns:xlink="http://www.w3.org/1999/xlink"><path d="M40.3,78c2.2,0,4,1.8,4,4s-1.8,4-4,4s-4-1.8-4-4S38.1,78,40.3,78 M40.3,76c-3.3,0-6,2.7-6,6s2.7,6,6,6  s6-2.7,6-6S43.7,76,40.3,76L40.3,76z" fill="#3B97D3"/><path d="M40.3,61.2c2.2,0,4,1.8,4,4c0,2.2-1.8,4-4,4s-4-1.8-4-4C36.3,63,38.1,61.2,40.3,61.2 M40.3,59.2  c-3.3,0-6,2.7-6,6s2.7,6,6,6s6-2.7,6-6S43.7,59.2,40.3,59.2L40.3,59.2z" fill="#3B97D3"/><path d="M46.8,44.3c-0.4-0.4-1-0.4-1.4,0l-6.1,6.1l-4-4c-0.4-0.4-1-0.4-1.4,0s-0.4,1,0,1.4l4.4,4.4  c0,0,0.1,0.1,0.2,0.1c0,0,0.1,0.1,0.1,0.2c0.2,0.2,0.5,0.3,0.7,0.3s0.5-0.1,0.7-0.3l6.8-6.8C47.2,45.4,47.2,44.7,46.8,44.3z" fill="#3B97D3"/><path d="M46.8,27.6c-0.4-0.4-1-0.4-1.4,0l-6.1,6.1l-4-4c-0.4-0.4-1-0.4-1.4,0s-0.4,1,0,1.4l4.4,4.4  c0,0,0.1,0.1,0.2,0.1c0,0,0.1,0.1,0.1,0.2c0.2,0.2,0.5,0.3,0.7,0.3s0.5-0.1,0.7-0.3l6.8-6.8C47.2,28.6,47.2,27.9,46.8,27.6z" fill="#3B97D3"/><path d="M77.8,83H53.8c-0.6,0-1-0.4-1-1s0.4-1,1-1h24.1c0.6,0,1,0.4,1,1S78.4,83,77.8,83z" fill="#3B97D3"/><path d="M79.8,66H53.8c-0.6,0-1-0.4-1-1s0.4-1,1-1h26.1c0.6,0,1,0.4,1,1S80.4,66,79.8,66z" fill="#3B97D3"/><path d="M79.8,50H53.8c-0.6,0-1-0.4-1-1s0.4-1,1-1h26.1c0.6,0,1,0.4,1,1S80.4,50,79.8,50z" fill="#3B97D3"/><path d="M79.8,33H53.8c-0.6,0-1-0.4-1-1s0.4-1,1-1h26.1c0.6,0,1,0.4,1,1S80.4,33,79.8,33z" fill="#3B97D3"/><path d="M95,100.9v7.9c0,3.3-2.2,6.2-5.5,6.2h-63c-3.3,0-6.5-2.9-6.5-6.2v-89c0-3.3,3.2-5.8,6.5-5.8h63  c3.3,0,5.5,2.5,5.5,5.8v48.9l4-4V19.8c0-5.5-4-9.8-9.5-9.8h-63C21,10,16,14.3,16,19.8v89c0,5.5,5,10.2,10.5,10.2h63  c5.5,0,9.5-4.7,9.5-10.2V96.9L95,100.9z" fill="#2C3E50"/><path d="M115.7,71.2c0-0.5-0.2-0.9-0.6-1.2c0,0,0,0,0,0l-5.2-5.2c0,0,0,0,0,0c-0.3-0.3-0.8-0.5-1.3-0.6l-4.9-0.3  c-0.6,0-1.1,0.2-1.5,0.5c0,0,0,0,0,0L77.4,89.2c-0.8,0.8-0.8,2,0,2.8c0.4,0.4,0.9,0.6,1.4,0.6s1-0.2,1.4-0.6l24.2-24.2l3.3,0.2  l4.1,4.1l0.2,3.3L87.8,99.6c-0.8,0.8-0.8,2,0,2.8c0.4,0.4,0.9,0.6,1.4,0.6s1-0.2,1.4-0.6l24.8-24.8c0.4-0.4,0.6-1,0.6-1.5  c0,0,0,0,0,0L115.7,71.2z" fill="#3B97D3"/><path d="M84.4,96.6l23.9-23.9c0.4-0.4,0.4-1,0-1.4s-1-0.4-1.4,0L83,95.2c-0.4,0.4-0.4,1,0,1.4  c0.2,0.2,0.5,0.3,0.7,0.3S84.2,96.8,84.4,96.6z" fill="#3B97D3"/><path d="M84.8,103l-7,1.6l-2.7-2.7l1.7-7c0.3-1.1-0.4-2.2-1.5-2.4c-1.1-0.3-2.2,0.4-2.4,1.5l-3.2,13.7  c-0.3,1.1,0.4,2.2,1.5,2.4c0.2,0,0.3,0.1,0.5,0.1c0.2,0,0.3,0,0.5-0.1c0,0,0,0,0,0l13.7-3.2c1.1-0.3,1.7-1.3,1.5-2.4  C87,103.4,85.9,102.8,84.8,103z" fill="#3B97D3"/></svg>