<?xml version="1.0" encoding="UTF-8" standalone="no"?>
<!-- Created with Inkscape (http://www.inkscape.org/) -->

<svg
   xmlns:dc="http://purl.org/dc/elements/1.1/"
   xmlns:cc="http://creativecommons.org/ns#"
   xmlns:rdf="http://www.w3.org/1999/02/22-rdf-syntax-ns#"
   xmlns:svg="http://www.w3.org/2000/svg"
   xmlns="http://www.w3.org/2000/svg"
   xmlns:xlink="http://www.w3.org/1999/xlink"
   xmlns:sodipodi="http://sodipodi.sourceforge.net/DTD/sodipodi-0.dtd"
   xmlns:inkscape="http://www.inkscape.org/namespaces/inkscape"
   width="90mm"
   height="50mm"
   viewBox="0 0 318.89764 177.16535"
   id="svg2"
   version="1.1"
   inkscape:version="0.92.5 (2060ec1f9f, 2020-04-08)"
   sodipodi:docname="Визитка СМ - Роман_new.svg">
  <defs
     id="defs4">
    <linearGradient
       inkscape:collect="always"
       id="linearGradient2163">
      <stop
         style="stop-color:#000000;stop-opacity:1;"
         offset="0"
         id="stop2159" />
      <stop
         style="stop-color:#000000;stop-opacity:0;"
         offset="1"
         id="stop2161" />
    </linearGradient>
    <radialGradient
       inkscape:collect="always"
       xlink:href="#linearGradient2163"
       id="radialGradient2165"
       cx="159.44882"
       cy="939.21211"
       fx="159.44882"
       fy="939.21211"
       r="159.43048"
       gradientTransform="matrix(1,0,0,0.00294015,-4.2547504e-7,934.57568)"
       gradientUnits="userSpaceOnUse" />
  </defs>
  <sodipodi:namedview
     id="base"
     pagecolor="#ffffff"
     bordercolor="#666666"
     borderopacity="1.0"
     inkscape:pageopacity="0.0"
     inkscape:pageshadow="2"
     inkscape:zoom="2"
     inkscape:cx="38.04958"
     inkscape:cy="74.17974"
     inkscape:document-units="px"
     inkscape:current-layer="g2201"
     showgrid="false"
     inkscape:window-width="1920"
     inkscape:window-height="1021"
     inkscape:window-x="0"
     inkscape:window-y="32"
     inkscape:window-maximized="1"
     showguides="true"
     inkscape:guide-bbox="true" />
  <metadata
     id="metadata7">
    <rdf:RDF>
      <cc:Work
         rdf:about="">
        <dc:format>image/svg+xml</dc:format>
        <dc:type
           rdf:resource="http://purl.org/dc/dcmitype/StillImage" />
        <dc:title />
      </cc:Work>
    </rdf:RDF>
  </metadata>
  <g
     inkscape:label="Layer 1"
     inkscape:groupmode="layer"
     id="layer1"
     transform="translate(0,-875.19685)">
    <g
       id="g2201">
      <path
         inkscape:connector-curvature="0"
         id="path4229"
         d="m 265.37441,926.24119 h -4.33288 v -4.33298 -4.33283 h 4.33288 4.3329 v 4.33283 4.33298 z m 0,-1.23812 h 3.09491 v -3.09486 -3.09486 h -3.09491 -3.0949 v 3.09486 3.09486 z m 0,-1.23798 h -1.85693 v -1.85688 -1.85689 h 1.85693 1.85694 v 1.85689 1.85688 z m 6.18982,2.4761 h -0.61896 v -0.61907 -0.61905 h 0.61896 0.61897 v -1.23798 -1.23796 h -0.61897 -0.61896 v -3.09472 -3.09515 h -1.23796 -1.23799 v -0.61877 -0.61905 h -0.61895 -0.61902 v 0.61905 0.61877 h -0.61896 -0.619 v -0.61877 -0.61905 h 0.619 0.61896 v -0.61907 -0.61891 h -0.61896 -0.619 v -0.61892 -0.61905 h -0.61898 -0.61896 v -0.61892 -0.61905 h -0.61899 -0.61899 v 0.61905 0.61892 h -0.61899 -0.61897 v -0.61892 -0.61905 h -0.61897 -0.61901 v -0.6189 -0.61908 h 0.61901 0.61897 v -0.6189 -0.61893 h -0.61897 -0.61901 v -1.23796 -1.23798 h 0.61901 0.61897 v 0.61891 0.61907 h 0.61897 0.61899 v -0.61907 -0.61891 h 1.23798 1.23794 v -1.23798 -1.23797 h -0.61898 -0.61896 v -0.6189 -0.61908 h -0.61899 -0.61899 v 1.23798 1.23797 h -1.23796 -1.23798 v -0.61906 -0.61891 h 0.61901 0.61897 v -0.6189 -0.61908 h 0.61897 0.61899 v -0.6189 -0.61891 h 0.61899 0.61899 v -0.61921 -0.61891 h 3.71387 3.71388 v -0.61893 -0.61904 h -0.61897 -0.61896 v -0.61893 -0.61905 h 0.61896 0.61897 v 0.61905 0.61893 h 0.61901 0.61898 v -1.23798 -1.23783 h 0.61899 0.61896 v -1.85705 -1.8569 h -1.23795 -1.23799 v 0.61901 0.61885 h 0.61901 0.61898 v 0.61904 0.61907 h -0.61898 -0.61901 v 0.61892 0.61906 h -0.61897 -0.61896 v -0.61906 -0.61892 h 0.61896 0.61897 v -0.61907 -0.61904 h -0.61897 -0.61896 v -1.85691 -1.85689 h 0.61896 0.61897 v 0.61885 0.61921 h 0.61901 0.61898 v -0.61921 -0.61885 h 3.7139 3.71388 v 1.23806 1.23788 h -0.61899 -0.61899 v 0.61901 0.61885 h 0.61899 0.61899 v 1.23811 1.23798 h -0.61899 -0.61899 v 1.85688 1.8569 h 1.85696 1.85695 v 0.61891 0.61921 h -1.85695 -1.85696 v 1.23781 1.23798 h 0.61899 0.61899 v 0.61891 0.61906 h -0.61899 -0.61899 v 0.61907 0.61891 h -1.23796 -1.23794 v 1.23798 1.23796 h 0.61896 0.61898 v -0.61905 -0.61891 h 1.23796 1.23798 v 0.61891 0.61905 h 0.61898 0.61898 v -1.23796 -1.23798 h 0.61897 0.619 v -0.61891 -0.61907 h -0.619 -0.61897 v -0.61906 -0.61891 h 0.61897 0.619 v -0.6189 -0.61908 h 0.61897 0.61897 v -0.6189 -0.61891 h 0.61901 0.61898 v 0.61891 0.6189 h -0.61898 -0.61901 v 0.61908 0.6189 h 0.61901 0.61898 v 0.61891 0.61906 h 0.61896 0.61899 v 0.61907 0.61891 h 0.61898 0.61897 v -0.61891 -0.61907 h 0.619 0.61896 v -0.61906 -0.61891 h -0.61896 -0.619 v -0.6189 -0.61908 h 0.619 0.61896 v -0.6189 -0.61891 h 0.619 0.61897 v -0.61921 -0.61891 h 0.61897 0.61901 v 1.85703 1.85688 h 0.61898 0.61899 v -1.85688 -1.85703 h 1.85693 1.85694 v 0.61891 0.61921 h -0.61896 -0.61901 v 0.61891 0.6189 h -0.61897 -0.61899 v 0.61908 0.6189 h -0.61898 -0.61896 v 0.61891 0.61906 h -1.23797 -1.23798 v 0.61907 0.61891 h 2.47595 2.4759 v -1.23798 -1.23797 h 0.61901 0.61896 v 3.09486 3.09486 h -0.61896 -0.61901 v -1.23783 -1.23796 h -0.61897 -0.61899 v 1.23796 1.23783 h -0.61898 -0.61896 v 0.61908 0.6189 h 1.23794 1.23796 v 0.61905 0.61892 h 0.61901 0.61896 v 0.61905 0.61892 h -0.61896 -0.61901 v -0.61892 -0.61905 h -1.23796 -1.23794 v 0.61905 0.61892 h 0.61896 0.61898 v 0.61891 0.61907 h 0.61899 0.61897 v 0.61905 0.61877 h -1.23796 -1.23794 v 1.23812 1.23797 h -0.61899 -0.61898 v 0.61906 0.61891 h 0.61898 0.61899 v 0.61892 0.61906 h -2.47595 -2.47593 v 1.23783 1.23796 h 0.619 0.61896 v -0.61876 -0.6192 h 1.23797 1.23798 v 0.6192 0.61876 h 0.61898 0.61899 v -0.61876 -0.6192 h 0.61896 0.61898 v -0.61892 -0.61891 h 0.61899 0.61897 v 0.61891 0.61892 h 0.61901 0.61896 v 1.23796 1.23798 h -0.61896 -0.61901 v -0.61892 -0.61906 h -0.61897 -0.61899 v 0.61906 0.61892 h -0.61898 -0.61896 v 0.61905 0.61907 h -2.47595 -2.47593 v -1.23812 -1.23798 h -1.23795 -1.23795 v -1.23796 -1.23783 h -0.61898 -0.61901 v 0.61891 0.61892 h -1.23794 -1.23797 v 0.6192 0.61876 h -0.61898 -0.61898 v 0.61906 0.61892 h -0.61899 -0.61899 v 0.61905 0.61907 h -1.85694 -1.85694 v -0.61907 -0.61905 h -0.61897 -0.619 v 0.61905 0.61907 h -0.61896 -0.61899 v -0.61907 -0.61905 h -0.61898 -0.61901 v 0.61905 0.61907 z m 2.47595,-1.23812 h 0.61896 v -0.61892 -0.61906 h -0.61896 -0.61899 v 0.61906 0.61892 z m 4.95184,0 h 0.61897 v -0.61892 -0.61906 h 0.61899 0.61899 v -1.23796 -1.23783 h -0.61899 -0.61899 v -0.61906 -0.61892 h 0.61899 0.61899 v -0.61891 -0.61906 h -0.61899 -0.61899 v -0.61906 -0.61891 h 0.61899 0.61899 v -0.61891 -0.61921 h 0.61898 0.61898 v -0.61877 -0.61905 h 0.61897 0.619 v 0.61905 0.61877 h 0.61897 0.61897 v 0.61921 0.61891 h -1.23794 -1.23797 v 0.61891 0.61906 h 0.61897 0.619 v 0.61906 0.61891 h -0.619 -0.61897 v 0.61892 0.61906 h 1.23797 1.23794 v -1.85689 -1.85703 h 0.61901 0.61898 v -1.23812 -1.23782 h 0.61896 0.61899 v -1.23798 -1.23797 h 0.61898 0.61897 v 1.23797 1.23798 h 0.619 0.61896 v -0.61907 -0.61891 h 0.619 0.61897 v -1.23797 -1.23797 h 0.61897 0.61901 v 0.61905 0.61892 h 0.61898 0.61899 v -0.61892 -0.61905 h -0.61899 -0.61898 v -0.6189 -0.61908 h 0.61898 0.61899 v -1.23783 -1.23796 h -0.61899 -0.61898 v 0.61891 0.61905 h -0.61901 -0.61897 v 1.23783 1.23798 h -0.61897 -0.619 v -0.6189 -0.61908 h -0.61896 -0.619 v -1.23783 -1.23796 h -0.61897 -0.61898 v -0.61907 -0.61891 h -1.23795 -1.23799 v 0.61891 0.61907 h -0.61897 -0.61897 v 0.61891 0.61905 h -0.619 -0.61897 v 0.61893 0.6189 h -0.61898 -0.61898 v -0.6189 -0.61893 h -0.61899 -0.61899 v 0.61893 0.6189 h -1.23796 -1.23794 v -0.6189 -0.61893 h -0.61899 -0.61899 v -1.23796 -1.23798 h 0.61899 0.61899 v -0.61891 -0.61907 h 0.61896 0.61898 v -1.85687 -1.85689 h -1.23794 -1.23798 v -0.61921 -0.61891 h 1.23798 1.23794 v -1.23797 -1.23798 h -0.61898 -0.61896 v 0.61905 0.61893 h -0.61899 -0.61899 v -1.23798 -1.23783 h -0.61897 -0.619 v 3.09485 3.09486 h 0.619 0.61897 v 0.61908 0.6189 h 0.61899 0.61899 v 0.61891 0.61906 h -0.61899 -0.61899 v 0.61907 0.61891 h -0.61897 -0.619 v -1.23798 -1.23797 h -0.61896 -0.61899 v -0.6189 -0.61908 h -0.61898 -0.61901 v 0.61908 0.6189 h 0.61901 0.61898 v 1.23797 1.23798 h -1.23799 -1.23793 v 1.23798 1.23796 h -1.23796 -1.23799 v -0.61905 -0.61891 h 0.61899 0.619 v -0.61907 -0.61891 h -0.619 -0.61899 v 0.61891 0.61907 h -0.61895 -0.61902 v 0.61891 0.61905 h -1.85694 -1.85693 v 0.61893 0.6189 h -0.619 -0.61897 v 0.61908 0.6189 h 0.61897 0.619 v -0.6189 -0.61908 h 0.61898 0.61899 v 0.61908 0.6189 h 0.61896 0.61898 v 0.61905 0.61892 h 0.619 0.61896 v 0.61905 0.61892 h 0.61902 0.61895 v 0.61891 0.61907 h 1.23799 1.23796 v 0.61905 0.61877 h 0.61896 0.61897 v 1.23812 1.23797 h 1.23799 1.23795 v -1.23797 -1.23812 h -0.61896 -0.61899 v -1.23782 -1.23798 h 0.61899 0.61896 v 0.61891 0.61907 h 1.23797 1.23798 v -0.61907 -0.61891 h -1.23798 -1.23797 v -0.61892 -0.61905 h 0.619 0.61897 v -0.61892 -0.61905 h 0.61899 0.61899 v 0.61905 0.61892 h 1.23794 1.23796 v 0.61905 0.61892 h -0.61897 -0.61899 v 3.71392 3.71392 h 0.61899 0.61897 v 1.23783 1.23796 h -0.61897 -0.61899 v 0.61906 0.61892 z m -7.42779,-9.90363 h -0.61896 v -0.61907 -0.61891 h 0.61896 0.61897 v -0.61892 -0.61905 h -0.61897 -0.61896 v -0.61892 -0.61905 h -1.85696 -1.85696 v -1.23798 -1.23783 h 0.61902 0.61895 v 0.61893 0.6189 h 1.23799 1.23796 v -0.6189 -0.61893 h 0.61896 0.61897 v -0.61905 -0.61891 h 0.61901 0.61898 v 0.61891 0.61905 h 0.61899 0.61896 v 0.61893 0.6189 h 0.619 0.61897 v 0.61908 0.6189 h -0.61897 -0.619 v 0.61905 0.61892 h -0.61896 -0.61899 v 0.61905 0.61892 h -0.61898 -0.61901 v 0.61891 0.61907 z m 0,-3.71392 h 0.61897 v -0.6189 -0.61908 h -0.61897 -0.61896 v 0.61908 0.6189 z m 2.47595,0 h 0.61896 v -0.6189 -0.61908 h -0.61896 -0.61899 v 0.61908 0.6189 z m 6.80879,3.71392 h -1.23798 v -0.61907 -0.61891 h 0.61899 0.61899 v -0.61892 -0.61905 h 0.61898 0.61898 v -0.61892 -0.61905 h 1.85694 1.85696 v -1.23798 -1.23783 h -0.61898 -0.61901 v 0.61893 0.6189 h -0.61897 -0.61897 v -0.6189 -0.61893 h 0.61897 0.61897 v -0.61905 -0.61891 h 1.23799 1.23795 v 2.47579 2.47595 h -0.61899 -0.61896 v 1.23797 1.23798 h -0.61898 -0.61901 v -0.61907 -0.61891 h -0.61897 -0.61897 v -0.61892 -0.61905 h -0.619 -0.61897 v 1.23797 1.23798 z m -11.76066,-1.23798 h -0.61899 v -0.61892 -0.61905 h 0.61899 0.619 v 0.61905 0.61892 z m 11.14167,-2.47594 h -0.61899 v -0.6189 -0.61908 h 0.61899 0.61899 v 0.61908 0.6189 z m 11.14165,13.61755 h 0.61901 v -0.61892 -0.61906 h -0.61901 -0.61897 v 0.61906 0.61892 z m -14.85553,-1.23798 h 0.61899 v -2.47579 -2.47595 h -0.61899 -0.61899 v 1.23797 1.23798 h -0.61897 -0.619 v -0.61906 -0.61892 h -1.23795 -1.23799 v 0.61892 0.61906 h 1.23799 1.23795 v 0.61891 0.61892 h 0.619 0.61897 v 0.6192 0.61876 z m 12.37963,-3.71377 h 1.85693 v -1.85703 -1.85703 h -1.85693 -1.85694 v 1.85703 1.85703 z m 0,-1.23797 h -0.619 v -0.61906 -0.61891 h 0.619 0.61897 v 0.61891 0.61906 z m -12.37963,-1.23797 h 0.61899 v -0.61891 -0.61921 h -0.61899 -0.61899 v 0.61921 0.61891 z m -7.42779,-12.37959 h 1.85696 v -1.23797 -1.23798 h -0.619 -0.61896 v -0.6189 -0.61891 h -0.619 -0.61899 v 0.61891 0.6189 h -1.23797 -1.23796 v 0.61908 0.6189 h 0.619 0.61896 v 0.61891 0.61906 z m 0,-1.23797 h -0.61899 v -0.6189 -0.61908 h 0.61899 0.619 v 0.61908 0.6189 z m 14.85556,1.23797 h 0.61897 v -0.61906 -0.61891 h -0.61897 -0.61897 v 0.61891 0.61906 z m 6.18982,-1.23797 h 0.61897 v -0.6189 -0.61908 h -0.61897 -0.61899 v 0.61908 0.6189 z m -11.14167,-7.42769 h 0.61897 v -0.61906 -0.61892 h -0.61897 -0.61899 v -0.61907 -0.61904 h -0.61898 -0.61896 v -1.23786 -1.23788 h -1.23798 -1.23797 v 0.61883 0.61905 h 0.619 0.61897 v 1.23786 1.23811 h 1.23798 1.23794 v 0.61892 0.61906 z m 4.33288,29.71106 h -1.23797 v -0.61907 -0.61905 h 1.23797 1.23794 v 0.61905 0.61907 z m 3.09489,0 h -0.61896 v -0.61907 -0.61905 h 0.61896 0.619 v 0.61905 0.61907 z m 9.28472,-6.18987 h -1.23796 v -0.61891 -0.61906 h 1.23796 1.23797 v 0.61906 0.61891 z m -31.56805,-4.95188 h -0.61899 v -0.61907 -0.61891 h 0.61899 0.61899 v 0.61891 0.61907 z m -2.47592,-13.61741 h -0.61901 v -0.61921 -0.61891 h 0.61901 0.61897 v 0.61891 0.61921 z m 25.99722,0 h -0.61897 v -0.61921 -0.61891 h -1.23796 -1.23799 v -0.61893 -0.61904 h -0.61897 -0.61897 v -0.61893 -0.61905 h -0.619 -0.61897 v 0.61905 0.61893 h -0.61898 -0.61898 v -0.61893 -0.61905 h 0.61898 0.61898 v -1.85689 -1.85703 h 0.61897 0.619 v -0.61885 -0.61901 h -0.619 -0.61897 v -0.61905 -0.61883 h 0.61897 0.619 v -0.61921 -0.61885 h 0.61897 0.61897 v 0.61885 0.61921 h 0.61901 0.61898 v 1.23788 1.23786 h 0.61896 0.61899 v 0.61904 0.61907 h -0.61899 -0.61896 v 0.61892 0.61906 h -1.23799 -1.23794 v 0.61892 0.61891 h 0.61897 0.61897 v 0.61905 0.61893 h 0.61901 0.61898 v -0.61893 -0.61905 h 0.61896 0.61899 v 1.23798 1.23797 h 0.61898 0.61897 v 0.61891 0.61921 z m -3.71389,-6.18988 h 0.61897 v -0.61907 -0.61904 h -0.61897 -0.61897 v 0.61904 0.61907 z m 0,-2.47597 h 0.61897 v -0.61905 -0.61883 h -0.61897 -0.61897 v 0.61883 0.61905 z m -18.56946,6.18976 h -4.33288 v -4.33286 -4.33284 h 4.33288 4.3329 v 4.33284 4.33286 z m 0,-1.23798 h 3.09491 v -3.09488 -3.09478 h -3.09491 -3.0949 v 3.09478 3.09488 z m 0,-1.23783 h -1.85694 v -1.85705 -1.8569 h 1.85694 1.85694 v 1.8569 1.85705 z m 27.23521,2.47581 h -4.33289 v -4.33286 -4.33284 h 4.33289 4.33286 v 4.33284 4.33286 z m 0,-1.23798 h 3.09489 v -3.09488 -3.09478 h -3.09489 -3.09492 v 3.09478 3.09488 z m 0,-1.23783 h -1.85696 v -1.85705 -1.8569 h 1.85696 1.85693 v 1.8569 1.85705 z"
         style="fill:#333333;fill-opacity:1;stroke-width:1.19622755" />
      <path
         d="m 227.50268,909.04956 h 2.13472 c 1.2784,0 2.22514,0.23512 2.84023,0.70552 0.61508,0.47036 0.92262,1.17294 0.92263,2.10758 -1e-5,0.46432 -0.0723,0.88345 -0.21708,1.25735 -0.13871,0.37382 -0.36183,0.69342 -0.66937,0.95876 -0.30152,0.26533 -0.69347,0.47036 -1.17589,0.61512 -0.4764,0.13866 -1.0553,0.20801 -1.7367,0.20801 h -3.7448 v -9.93176 h 1.64626 v 4.07942 m 9.08155,5.85234 h -1.64625 v -9.93176 h 1.64625 v 9.93176 m -9.08155,-4.46845 v 3.11169 h 1.98095 c 0.33768,0 0.64522,-0.024 0.92261,-0.0723 0.28343,-0.0543 0.52463,-0.14172 0.72363,-0.26239 0.20503,-0.12656 0.36483,-0.28943 0.47941,-0.48836 0.11457,-0.19906 0.17186,-0.44325 0.17187,-0.73268 -1e-5,-0.29551 -0.0512,-0.54274 -0.15377,-0.74179 -0.0965,-0.19897 -0.24425,-0.35877 -0.44323,-0.47932 -0.19297,-0.12067 -0.43419,-0.20507 -0.72363,-0.25335 -0.28946,-0.0542 -0.62715,-0.0814 -1.01307,-0.0814 h -1.94477 m -10.76625,-5.4634 v 4.1156 h 4.92973 v -4.1156 h 1.64625 v 9.93176 h -1.64625 v -4.42322 h -4.92973 v 4.42322 h -1.64625 v -9.93176 h 1.64625 m -10.8567,0 v 6.04225 l -0.10854,2.27944 4.66741,-8.32169 h 2.10757 v 9.93176 h -1.5558 v -5.85234 l 0.0995,-2.45132 -4.6493,8.30366 h -2.11663 v -9.93176 h 1.5558 m -9.7622,8.53881 h 3.99805 v -8.53881 h 1.6553 v 9.93176 h -12.95296 v -9.93176 h 1.64625 v 8.53881 h 4.0071 v -8.53881 h 1.64626 v 8.53881 m -10.768,1.39295 -0.33468,-1.37486 h -0.0723 c -0.199,0.27134 -0.39801,0.50647 -0.59699,0.70552 -0.19902,0.19296 -0.4161,0.35277 -0.65127,0.47936 -0.23519,0.12665 -0.4975,0.22016 -0.78695,0.28047 -0.28946,0.0602 -0.62413,0.0905 -1.00404,0.0905 -0.41609,0 -0.799,-0.0603 -1.14875,-0.18094 -0.34976,-0.11457 -0.65429,-0.29248 -0.91358,-0.5337 -0.25327,-0.24723 -0.45228,-0.55476 -0.597,-0.92258 -0.14473,-0.3739 -0.21709,-0.81408 -0.21709,-1.32065 0,-0.98897 0.34674,-1.74876 1.04021,-2.27944 0.69952,-0.53064 1.76084,-0.82006 3.18398,-0.86835 l 1.66434,-0.0633 v -0.62408 c 0,-0.404 -0.0452,-0.74171 -0.13568,-1.01307 -0.0844,-0.27143 -0.21106,-0.48848 -0.37991,-0.6513 -0.16281,-0.16887 -0.36784,-0.28945 -0.61508,-0.36183 -0.24122,-0.0723 -0.51861,-0.10848 -0.83217,-0.10856 -0.50051,0 -0.96785,0.0724 -1.40203,0.21713 -0.42816,0.14477 -0.84122,0.31963 -1.23922,0.52465 l -0.5789,-1.23921 c 0.44624,-0.24125 0.94373,-0.44629 1.49249,-0.61515 0.54874,-0.16875 1.12463,-0.25324 1.72766,-0.25324 0.61507,0 1.14574,0.0633 1.59198,0.19 0.45226,0.12057 0.82313,0.31658 1.11258,0.58791 0.29547,0.26533 0.51558,0.60609 0.66032,1.02208 0.14472,0.41609 0.21708,0.91962 0.21709,1.51057 v 6.80215 h -1.18495 m -3.02115,-1.14874 c 0.36784,0 0.70855,-0.0572 1.02212,-0.1719 0.31357,-0.11457 0.58494,-0.2864 0.81409,-0.51555 0.22915,-0.2352 0.40703,-0.52769 0.53367,-0.87739 0.13266,-0.35583 0.199,-0.77193 0.19901,-1.24831 v -0.8955 l -1.29349,0.0633 c -0.54274,0.024 -0.99802,0.0845 -1.36585,0.18094 -0.36785,0.0965 -0.66333,0.23217 -0.88645,0.40702 -0.21709,0.16888 -0.37388,0.37689 -0.47036,0.62411 -0.0965,0.24126 -0.14473,0.51563 -0.14473,0.82314 0,0.55476 0.14472,0.96182 0.43418,1.22114 0.29549,0.25934 0.68142,0.38896 1.15781,0.38896 m -5.50739,1.14874 h -1.4563 v -8.11368 c -0.0362,0.12668 -0.0815,0.27744 -0.13569,0.45229 -0.0483,0.16884 -0.10254,0.34373 -0.16281,0.52459 -0.0603,0.17493 -0.1176,0.34369 -0.17186,0.50655 -0.0543,0.16287 -0.10255,0.29847 -0.14473,0.40706 l -2.38798,6.22319 h -1.22112 l -2.39702,-6.22319 c -0.0301,-0.0784 -0.0723,-0.19001 -0.12664,-0.33469 -0.0483,-0.15075 -0.10254,-0.31362 -0.16282,-0.48847 -0.0604,-0.18086 -0.11759,-0.36483 -0.17186,-0.55177 -0.0543,-0.18688 -0.10254,-0.35878 -0.14472,-0.51556 v 8.11368 h -1.46535 v -9.93185 h 1.99903 l 2.4151,6.30465 c 0.0784,0.20503 0.15076,0.41009 0.21709,0.61512 0.0663,0.19897 0.12664,0.38895 0.18091,0.56981 0.0604,0.18094 0.11156,0.34675 0.15377,0.49751 0.0483,0.15077 0.0844,0.27438 0.10854,0.37088 0.0362,-0.10244 0.0754,-0.22612 0.1176,-0.37088 0.0422,-0.15076 0.0905,-0.3135 0.14472,-0.48847 0.0602,-0.18086 0.12362,-0.36782 0.18996,-0.56074 0.0663,-0.19905 0.13868,-0.39803 0.21709,-0.59704 l 2.44225,-6.34075 h 1.96284 v 9.93176 m -22.69755,0.18094 c -0.66334,0 -1.26938,-0.11151 -1.81812,-0.33466 -0.54876,-0.22313 -1.02213,-0.54874 -1.42013,-0.97683 -0.39196,-0.4282 -0.69649,-0.95888 -0.91357,-1.592 -0.2171,-0.63322 -0.32564,-1.35687 -0.32564,-2.17095 0,-0.8201 0.0995,-1.55274 0.2985,-2.198 0.19899,-0.64521 0.47939,-1.19093 0.84122,-1.63722 0.36181,-0.45227 0.79297,-0.79599 1.29348,-1.03113 0.50654,-0.23524 1.06433,-0.35276 1.67339,-0.35276 0.597,0 1.13368,0.10847 1.61009,0.32562 0.47637,0.21104 0.8804,0.51256 1.21207,0.90447 0.33166,0.386 0.58492,0.85332 0.7598,1.40207 0.18091,0.54267 0.27136,1.14572 0.27137,1.80904 v 1.02218 h -6.25939 c 0.0301,1.16383 0.27437,2.02009 0.73267,2.56888 0.46433,0.54875 1.15178,0.82312 2.06234,0.82312 0.30755,0 0.59096,-0.0151 0.85027,-0.0452 0.26532,-0.0302 0.51859,-0.0724 0.75981,-0.12668 0.24724,-0.0602 0.48543,-0.13269 0.71458,-0.21704 0.22914,-0.0905 0.46132,-0.19003 0.6965,-0.29847 v 1.46531 c -0.24122,0.11458 -0.47942,0.2141 -0.71458,0.29847 -0.22917,0.0845 -0.46736,0.15382 -0.7146,0.20809 -0.24121,0.0542 -0.49448,0.0934 -0.7598,0.11752 -0.25931,0.024 -0.54273,0.0361 -0.85026,0.0361 m -0.40705,-8.92776 c -0.68745,0 -1.23318,0.23524 -1.63721,0.70552 -0.39799,0.4704 -0.63016,1.15486 -0.69649,2.05331 h 4.45032 c -1e-5,-0.41009 -0.0422,-0.78387 -0.12664,-1.12159 -0.0784,-0.34372 -0.20503,-0.63622 -0.3799,-0.87743 -0.16885,-0.24125 -0.38593,-0.42808 -0.65127,-0.56076 -0.26533,-0.13267 -0.58494,-0.19905 -0.95881,-0.19905 m -15.04466,2.89466 h 2.13471 c 1.27841,0 2.22515,0.23517 2.84024,0.70553 0.61508,0.47036 0.92262,1.17286 0.92263,2.10751 -1e-5,0.46438 -0.0723,0.88344 -0.21708,1.25734 -0.13871,0.3739 -0.36183,0.6935 -0.66937,0.95884 -0.30152,0.26534 -0.69347,0.47036 -1.17589,0.61504 -0.4764,0.1387 -1.0553,0.20808 -1.73671,0.20808 h -3.74478 v -9.93183 h 1.64625 v 4.07949 m 9.08155,5.85234 h -1.64625 v -9.93183 h 1.64625 v 9.93183 m -9.08155,-4.46843 v 3.11161 h 1.98095 c 0.33768,0 0.64522,-0.024 0.92261,-0.0723 0.28343,-0.0543 0.52463,-0.14173 0.72364,-0.26228 0.20502,-0.12668 0.36482,-0.28946 0.4794,-0.48848 0.11458,-0.19897 0.17185,-0.44324 0.17186,-0.73267 -10e-6,-0.29544 -0.0512,-0.54267 -0.15376,-0.74172 -0.0965,-0.19893 -0.24424,-0.35873 -0.44323,-0.4794 -0.19297,-0.12059 -0.43418,-0.20507 -0.72362,-0.25324 -0.28947,-0.0543 -0.62716,-0.0815 -1.01308,-0.0815 h -1.94477 m -4.07272,-2.95778 c -10e-6,0.62714 -0.18694,1.11856 -0.56081,1.47435 -0.36785,0.34974 -0.87439,0.57889 -1.51962,0.68745 v 0.0633 c 0.33768,0.0422 0.65125,0.11761 0.94071,0.22609 0.29548,0.10857 0.54875,0.25627 0.75982,0.44322 0.21708,0.18098 0.38592,0.41009 0.50654,0.68745 0.12662,0.27143 0.18993,0.59705 0.18994,0.97692 -1e-5,0.404 -0.0724,0.78096 -0.21708,1.13066 -0.1387,0.34982 -0.36183,0.65429 -0.66935,0.91362 -0.30153,0.25925 -0.6935,0.46125 -1.17591,0.606 -0.47639,0.14475 -1.0553,0.21712 -1.73671,0.21712 h -4.11563 v -9.93183 h 4.09754 c 0.50051,0 0.96485,0.0422 1.39299,0.12667 0.42814,0.0844 0.79598,0.22305 1.10354,0.4161 0.31356,0.19295 0.55778,0.45227 0.73267,0.77789 0.18091,0.31963 0.27135,0.71459 0.27136,1.18496 m -1.30253,4.4412 c -1e-5,-0.55476 -0.19598,-0.94064 -0.58795,-1.15781 -0.39197,-0.21705 -0.97389,-0.32561 -1.74576,-0.32561 h -2.31561 v 3.11161 h 2.3518 c 0.33768,0 0.64523,-0.0272 0.92263,-0.0815 0.28341,-0.0543 0.52462,-0.14468 0.72362,-0.27136 0.20503,-0.12668 0.36482,-0.29248 0.47941,-0.49751 0.11456,-0.21104 0.17185,-0.47036 0.17186,-0.77791 m -0.27137,-4.27846 c 0,-0.46428 -0.16583,-0.79295 -0.49749,-0.98588 -0.32564,-0.19296 -0.81409,-0.28953 -1.46535,-0.28953 h -2.41511 v 2.68654 h 2.1347 c 0.37388,0 0.69951,-0.0209 0.9769,-0.0633 0.27739,-0.0483 0.50956,-0.12664 0.6965,-0.23521 0.19296,-0.10848 0.33467,-0.25323 0.42512,-0.43421 0.0965,-0.18087 0.14473,-0.40695 0.14473,-0.67838 m -8.22275,2.27944 c -1e-5,0.82616 -0.10255,1.56186 -0.30753,2.20712 -0.19902,0.63913 -0.48846,1.17883 -0.86837,1.61914 -0.37388,0.4341 -0.82917,0.7658 -1.36585,0.99495 -0.53669,0.22912 -1.13971,0.34369 -1.80906,0.34369 -0.62112,0 -1.19399,-0.11457 -1.71862,-0.34369 -0.52464,-0.22915 -0.97992,-0.56085 -1.36585,-0.99495 -0.37991,-0.44031 -0.67841,-0.98001 -0.89549,-1.61914 -0.21106,-0.64526 -0.31659,-1.38096 -0.31659,-2.20712 0,-0.8201 0.0995,-1.54676 0.2985,-2.17991 0.20502,-0.63924 0.49448,-1.17589 0.86835,-1.61008 0.37388,-0.44019 0.82916,-0.7719 1.36585,-0.99495 0.54272,-0.22914 1.14876,-0.34371 1.81811,-0.34381 0.62112,0 1.19399,0.11467 1.71862,0.34381 0.52464,0.22305 0.97689,0.55476 1.35682,0.99495 0.38592,0.43419 0.68441,0.97084 0.89549,1.61008 0.21707,0.63315 0.32561,1.35981 0.32562,2.17991 m -6.94684,0 c 0,1.26037 0.20503,2.21007 0.61509,2.84931 0.41608,0.63314 1.08846,0.9498 2.01712,0.9498 0.92865,0 1.59499,-0.31666 1.99903,-0.9498 0.41004,-0.63924 0.61507,-1.58894 0.61508,-2.84931 -1e-5,-1.26028 -0.20805,-2.20105 -0.62413,-2.8221 -0.41007,-0.62713 -1.07943,-0.94075 -2.00808,-0.94075 -0.92866,0 -1.59802,0.31362 -2.00806,0.94075 -0.40403,0.62105 -0.60605,1.56182 -0.60605,2.8221 m -3.82485,4.98403 h -1.64626 v -8.53888 h -2.3337 c -0.12062,1.56189 -0.27741,2.89149 -0.47036,3.98903 -0.19298,1.09751 -0.43418,1.99305 -0.72363,2.68648 -0.28343,0.6935 -0.62112,1.20005 -1.01308,1.51958 -0.39197,0.31363 -0.84726,0.4704 -1.36585,0.4704 -0.16886,0 -0.32866,-0.009 -0.47941,-0.0272 -0.14471,-0.0183 -0.26533,-0.0452 -0.36182,-0.0813 v -1.18497 c 0.1387,0.0361 0.28947,0.0543 0.45228,0.0543 0.33166,0 0.63015,-0.17486 0.89549,-0.52459 0.27135,-0.35579 0.50955,-0.8955 0.71458,-1.61914 0.21105,-0.72962 0.39196,-1.64626 0.54272,-2.74977 0.15679,-1.10953 0.28946,-2.41811 0.398,-3.92571 h 5.39104 v 9.93183 m -12.54866,0.18087 c -0.60907,0 -1.17892,-0.0934 -1.709594,-0.28035 -0.530661,-0.19296 -0.991974,-0.49449 -1.383929,-0.90458 -0.391966,-0.4161 -0.699511,-0.94371 -0.922637,-1.58296 -0.223115,-0.64521 -0.334667,-1.42008 -0.334667,-2.32463 0,-0.94677 0.114565,-1.74877 0.343715,-2.40607 0.22915,-0.66334 0.542721,-1.20001 0.940721,-1.61011 0.404026,-0.41601 0.874387,-0.71753 1.411072,-0.90447 0.536689,-0.18695 1.112589,-0.28038 1.727679,-0.28038 0.47035,0 0.92865,0.0512 1.37489,0.15371 0.45225,0.10255 0.82915,0.22914 1.13067,0.37991 l -0.48845,1.39294 c -0.1387,-0.0602 -0.29248,-0.11752 -0.46131,-0.17183 -0.16886,-0.0602 -0.34374,-0.1115 -0.52464,-0.15379 -0.18092,-0.0482 -0.3588,-0.0844 -0.53367,-0.10847 -0.17489,-0.0301 -0.34071,-0.0452 -0.49749,-0.0452 -0.94676,0 -1.637224,0.30448 -2.071394,0.9135 -0.434181,0.60305 -0.651271,1.54383 -0.651271,2.82219 0,1.2724 0.21709,2.20408 0.651271,2.79504 0.440195,0.58494 1.106554,0.87742 1.999034,0.87742 0.48843,0 0.92864,-0.0543 1.32061,-0.16286 0.39799,-0.11457 0.7598,-0.24722 1.08544,-0.39799 v 1.46539 c -0.32564,0.1749 -0.67539,0.30755 -1.04926,0.39803 -0.36785,0.0904 -0.82012,0.1356 -1.35679,0.1356 M 86.104505,909.0497 h 2.134702 c 1.278412,0 2.225158,0.23517 2.84025,0.70553 0.61508,0.47036 0.922615,1.17286 0.922626,2.10751 -1.1e-5,0.46439 -0.07242,0.88344 -0.21708,1.25734 -0.138706,0.3739 -0.361831,0.6935 -0.669356,0.95884 -0.301531,0.26534 -0.693497,0.47036 -1.175907,0.61504 -0.476396,0.13871 -1.055297,0.20808 -1.736713,0.20808 h -3.74478 v -9.93183 h 1.646258 v 4.07949 m 9.081553,5.85234 H 93.5398 v -9.93183 h 1.646258 v 9.93183 m -9.081553,-4.46843 v 3.11161 h 1.980935 c 0.33769,0 0.645236,-0.024 0.922626,-0.0723 0.283415,-0.0543 0.524636,-0.14173 0.723631,-0.26228 0.20502,-0.12667 0.364833,-0.28946 0.479409,-0.48847 0.114554,-0.19898 0.171852,-0.44325 0.171862,-0.73268 -1e-5,-0.29544 -0.05122,-0.54267 -0.153778,-0.74172 -0.09646,-0.19893 -0.244222,-0.35873 -0.443218,-0.4794 -0.19298,-0.12059 -0.434191,-0.20507 -0.723631,-0.25324 -0.28946,-0.0543 -0.627151,-0.0815 -1.013081,-0.0815 h -1.944755 m -4.03824,4.46844 h -1.45631 v -8.11375 c -0.03621,0.12667 -0.08145,0.27744 -0.135673,0.45228 -0.04828,0.16888 -0.102546,0.34374 -0.162815,0.52467 -0.06035,0.17485 -0.117608,0.34372 -0.171873,0.50648 -0.05427,0.16286 -0.102547,0.29858 -0.14472,0.40706 l -2.387973,6.22326 h -1.221135 l -2.39701,-6.22326 c -0.03012,-0.0784 -0.07242,-0.18994 -0.126646,-0.33469 -0.04828,-0.15076 -0.102547,-0.31351 -0.162815,-0.48836 -0.06025,-0.18098 -0.117588,-0.36487 -0.171852,-0.55181 -0.05427,-0.18696 -0.102547,-0.35878 -0.144731,-0.51563 v 8.11375 h -1.465347 v -9.93183 h 1.999031 l 2.415105,6.30463 c 0.07841,0.20502 0.150756,0.41001 0.21708,0.61504 0.06634,0.19905 0.126635,0.38896 0.180921,0.56989 0.06025,0.18087 0.111553,0.34679 0.153768,0.49755 0.04828,0.15073 0.08439,0.27427 0.10854,0.37084 0.03621,-0.10255 0.07536,-0.2262 0.117587,-0.37084 0.04219,-0.15076 0.09048,-0.31362 0.144731,-0.48847 0.06025,-0.18098 0.123622,-0.36793 0.189947,-0.56086 0.06633,-0.19898 0.138695,-0.39802 0.217091,-0.59697 l 2.442248,-6.34081 h 1.962851 v 9.93183 M 66.751951,902.97124 c -0.645235,0 -1.230182,0.12361 -1.754807,0.37084 -0.524636,0.24125 -0.973879,0.59095 -1.34776,1.04933 -0.367845,0.45829 -0.654283,1.01609 -0.859314,1.67334 -0.198995,0.65731 -0.298498,1.39903 -0.298487,2.22522 -1.1e-5,0.8502 0.08743,1.60704 0.262307,2.27037 0.180911,0.65723 0.449254,1.21208 0.805039,1.66429 0.355786,0.45225 0.799014,0.79597 1.329675,1.03122 0.53065,0.23512 1.151776,0.35276 1.863347,0.35276 0.536686,0 1.046239,-0.0512 1.52866,-0.15383 0.48242,-0.10844 0.958806,-0.2321 1.429177,-0.37083 v 1.46531 c -0.235196,0.0905 -0.470371,0.17191 -0.705546,0.24428 -0.235186,0.0663 -0.482421,0.12059 -0.741716,0.16279 -0.253291,0.0423 -0.527659,0.0723 -0.823134,0.0905 -0.289461,0.024 -0.612079,0.0361 -0.967854,0.0361 -0.988951,0 -1.845263,-0.16282 -2.568883,-0.48847 -0.723631,-0.32562 -1.32364,-0.78695 -1.800025,-1.38387 -0.470361,-0.59705 -0.820122,-1.31459 -1.049272,-2.15285 -0.229151,-0.83822 -0.343715,-1.76684 -0.343715,-2.78592 0,-1.00104 0.129647,-1.91759 0.388942,-2.74978 0.265341,-0.83219 0.651272,-1.54676 1.157823,-2.1438 0.512555,-0.59695 1.145731,-1.06132 1.899527,-1.39294 0.753776,-0.33171 1.619104,-0.49753 2.596016,-0.49753 0.651251,0 1.272367,0.0664 1.863338,0.19897 0.59095,0.13266 1.124633,0.3257 1.60104,0.57894 l -0.705546,1.41104 c -0.379916,-0.19295 -0.79299,-0.35877 -1.239209,-0.49743 -0.446262,-0.13876 -0.952803,-0.2081 -1.519623,-0.2081"
         style="font-style:normal;font-variant:normal;font-weight:normal;font-stretch:normal;font-size:206.80056763px;line-height:83.00001025%;font-family:'Droid Sans';-inkscape-font-specification:'Droid Sans Bold';text-align:end;letter-spacing:-11.29897022px;word-spacing:0px;text-anchor:end;fill:#333333;fill-opacity:1;stroke:none;stroke-width:1.04960775"
         id="path4318-2-5-6-2-7-3-5-8"
         inkscape:connector-curvature="0" />
      <path
         style="color:#000000;font-style:normal;font-variant:normal;font-weight:normal;font-stretch:normal;font-size:medium;line-height:normal;font-family:sans-serif;text-indent:0;text-align:start;text-decoration:none;text-decoration-line:none;text-decoration-style:solid;text-decoration-color:#000000;letter-spacing:normal;word-spacing:normal;text-transform:none;writing-mode:lr-tb;direction:ltr;baseline-shift:baseline;text-anchor:start;white-space:normal;clip-rule:nonzero;display:inline;overflow:visible;visibility:visible;opacity:1;isolation:auto;mix-blend-mode:normal;color-interpolation:sRGB;color-interpolation-filters:linearRGB;solid-color:#000000;solid-opacity:1;fill:#b20000;fill-opacity:1;fill-rule:nonzero;stroke:none;stroke-width:37.48476791;stroke-linecap:round;stroke-linejoin:round;stroke-miterlimit:4;stroke-dasharray:none;stroke-dashoffset:0;stroke-opacity:1;color-rendering:auto;image-rendering:auto;shape-rendering:auto;text-rendering:auto;enable-background:accumulate"
         d="m 39.19875,893.81396 c -8.3018,0 -14.749981,6.25492 -14.872156,14.10442 -0.169931,2.37867 0.416054,5.77361 2.507335,8.83685 0.110272,0.16152 0.244296,0.31468 0.363731,0.47324 -0.561509,0.84796 -1.079511,1.57284 -1.44743,2.0124 -0.176775,0.21112 -0.260303,0.28861 -0.355156,0.38438 a 1.5997256,1.5997256 0 0 0 -0.961399,1.78626 c 0.07641,0.42211 0.65314,1.16911 1.241854,1.30381 0.588715,0.13463 0.869138,-0.0245 1.049923,-0.10307 0.361558,-0.15721 0.463906,-0.2743 0.606232,-0.39764 0.284633,-0.24679 0.548116,-0.53378 0.871647,-0.92033 0.369042,-0.44081 0.807673,-1.03428 1.277362,-1.71362 2.164669,1.70769 5.102931,2.91038 8.882285,3.02325 4.102371,0.12245 7.177733,-1.09141 9.198417,-2.40097 1.010352,-0.65482 1.761305,-1.32881 2.279884,-1.88148 0.259285,-0.27635 0.459403,-0.51994 0.615322,-0.7359 0.07799,-0.10795 0.143902,-0.20569 0.212053,-0.32507 0.03411,-0.0597 0.06885,-0.12237 0.112161,-0.22395 0.04335,-0.1015 0.138034,-0.16644 0.138034,-0.66174 a 1.5997256,1.5997256 0 0 0 -3.071741,-0.64343 c -0.06077,0.0828 -0.172125,0.22341 -0.338897,0.40113 -0.349141,0.37219 -0.912078,0.88359 -1.686772,1.38569 -1.549389,1.00418 -3.928441,1.99052 -7.363114,1.88797 -3.366722,-0.10055 -5.648318,-1.11787 -7.274066,-2.53741 0.803423,-1.40835 1.643182,-3.07543 2.44715,-4.97655 0.167612,0.27088 0.358861,0.53199 0.609718,0.76231 0.753838,0.69218 1.798576,0.99953 2.891018,1.01807 1.474405,0.0252 2.674705,-0.80576 3.489369,-1.74311 0.470046,-0.5408 0.850193,-1.14005 1.179203,-1.75473 0.233538,0.48479 0.514759,0.95865 0.879876,1.39732 0.795928,0.95632 2.111286,1.71723 3.609559,1.65862 1.489047,-0.0583 2.775247,-0.89569 3.534858,-1.96775 0.759612,-1.0721 1.129022,-2.34186 1.302921,-3.65331 0.347504,-2.6208 -0.04797,-5.43929 -1.169431,-7.51984 -2.256437,-4.26457 -6.584579,-6.20108 -10.731054,-6.27562 a 1.5997256,1.5997256 0 0 0 -0.02876,0 z m -0.01469,3.19984 c 3.224952,0.0618 6.290782,1.4363 7.949929,4.57738 a 1.5997256,1.5997256 0 0 0 0.0063,0.013 c 0.632441,1.17133 1.070295,3.666 0.815828,5.58494 -0.127233,0.95958 -0.418132,1.76723 -0.741999,2.22433 -0.323867,0.45702 -0.544295,0.6008 -1.049576,0.6205 -0.496055,0.0194 -0.685804,-0.10013 -1.025604,-0.50833 -0.3398,-0.40831 -0.675464,-1.14152 -0.898065,-1.94135 -0.445191,-1.59988 -0.477278,-3.32337 -0.477278,-3.32337 A 1.5997256,1.5997256 0 0 0 40.59351,903.974 c 0,0 -0.363006,1.84021 -1.099432,3.60832 -0.368213,0.88406 -0.836401,1.72941 -1.287512,2.24842 -0.451111,0.519 -0.749189,0.64773 -1.020355,0.64307 -0.590121,-0.0105 -0.720294,-0.11903 -0.782063,-0.17573 -0.06182,-0.0568 -0.179074,-0.21663 -0.266643,-0.70061 -0.175127,-0.96791 -0.04461,-2.90084 -0.04177,-5.227 a 1.5997256,1.5997256 0 0 0 -3.148372,-0.4023 c -1.06828,4.13342 -2.542297,7.5798 -3.939,10.21429 -1.230486,-2.19985 -1.597818,-4.68657 -1.490474,-6.07846 a 1.5997256,1.5997256 0 0 0 0.0042,-0.10265 c 0.07778,-6.1692 4.922367,-10.98047 11.661143,-10.98754 z m 8.615107,18.84663 a 1.5997256,1.5997256 0 0 0 -0.04072,0.15049 c 0.01511,-0.0648 0.02446,-0.12155 0.04072,-0.15049 z"
         id="path3247-6-7-4-0-5-5-2-2-1-2-8-3"
         inkscape:connector-curvature="0" />
      <text
         id="text5140"
         y="963.69043"
         x="23.154348"
         style="font-style:normal;font-weight:normal;font-size:17.36646271px;line-height:0%;font-family:sans-serif;letter-spacing:0px;word-spacing:0px;fill:#333333;fill-opacity:1;stroke:none;stroke-width:1.32706642px;stroke-linecap:butt;stroke-linejoin:miter;stroke-opacity:1"
         xml:space="preserve"><tspan
           id="tspan5269"
           style="font-style:normal;font-variant:normal;font-weight:normal;font-stretch:normal;font-size:15px;line-height:1.25;font-family:'Droid Sans';-inkscape-font-specification:'Droid Sans';fill:#333333;fill-opacity:1;stroke-width:1.32706642px"
           y="963.69043"
           x="23.154348"
           sodipodi:role="line">Роман Карпов</tspan></text>
      <text
         id="text5329"
         y="986.35913"
         x="24.189583"
         style="font-style:normal;font-weight:normal;font-size:11.5625px;line-height:0%;font-family:sans-serif;letter-spacing:0px;word-spacing:0px;fill:#333333;fill-opacity:1;stroke:none;stroke-width:1.32706642px;stroke-linecap:butt;stroke-linejoin:miter;stroke-opacity:1"
         xml:space="preserve"><tspan
           style="font-style:normal;font-variant:normal;font-weight:normal;font-stretch:normal;font-size:11.875px;line-height:1.25;font-family:'Droid Sans';-inkscape-font-specification:'Droid Sans';fill:#333333;fill-opacity:1;stroke-width:1.32706642px"
           id="tspan5335"
           y="986.35913"
           x="24.189583"
           sodipodi:role="line">+7 912 965 14 01</tspan><tspan
           id="tspan2185"
           style="font-style:normal;font-variant:normal;font-weight:normal;font-stretch:normal;font-size:11.875px;line-height:1.25;font-family:'Droid Sans';-inkscape-font-specification:'Droid Sans';fill:#333333;fill-opacity:1;stroke-width:1.32706642px"
           y="1001.2029"
           x="24.189583"
           sodipodi:role="line">info@semantic-machines.com, info@s7m7.com</tspan></text>
      <text
         xml:space="preserve"
         style="font-style:normal;font-weight:normal;font-size:11.57764244px;line-height:1.25;font-family:sans-serif;letter-spacing:0px;word-spacing:0px;fill:#000000;fill-opacity:1;stroke:none;stroke-width:1.08540392"
         x="24.25742"
         y="1021.0272"
         id="text2155"><tspan
           sodipodi:role="line"
           id="tspan2153"
           x="24.25742"
           y="1021.0272"
           style="font-style:normal;font-variant:normal;font-weight:normal;font-stretch:normal;font-size:11.875px;line-height:1.25;font-family:'Droid Sans';-inkscape-font-specification:'Droid Sans';fill:#333333;fill-opacity:1;stroke-width:1.08540392">semantic-machines.com, s7m7.com</tspan><tspan
           sodipodi:role="line"
           x="24.25742"
           y="1035.871"
           style="font-style:normal;font-variant:normal;font-weight:normal;font-stretch:normal;font-size:11.875px;line-height:1.25;font-family:'Droid Sans';-inkscape-font-specification:'Droid Sans';fill:#333333;fill-opacity:1;stroke-width:1.08540392"
           id="tspan2157">Быстро разрабатываем приложения для бизнеса</tspan></text>
      <path
         inkscape:connector-curvature="0"
         id="path2107"
         d="M 0.01833871,937.33711 H 318.8793"
         style="fill:none;stroke:url(#radialGradient2165);stroke-width:0.9375px;stroke-linecap:butt;stroke-linejoin:miter;stroke-opacity:1" />
    </g>
  </g>
</svg>
